<svg xmlns="http://www.w3.org/2000/svg" xml:space="preserve" id="Calque_1" x="0" y="0" style="enable-background:new 0 0 800 800" version="1.1" viewBox="0 0 800 800"><style>.st1{fill:#fff}.st2{fill:#ecf0f1}.st4{fill:none;stroke:#01233f;stroke-width:5;stroke-linecap:round;stroke-miterlimit:10;stroke-opacity:.8}.st5,.st6{fill:#01233f}.st6{fill-opacity:.7}.st7{fill:none}.st8{fill:#bdc3c7}.st9{fill:#01233f;stroke:#01233f;stroke-width:2;stroke-miterlimit:10}</style><path d="M770 329.5h-61.1c-14.2-16.3-42.3-31.7-76.6-40.3C591 203 502.9 143.5 401 143.5c-102 0-190.2 59.6-231.4 145.9-33.8 8.7-61.5 23.9-75.5 40.1H37.4c-6.6 0-12 5.4-12 12v153c0 6.6 5.4 12 12 12h130.3c40.5 88.4 129.7 149.8 233.3 149.8s192.8-61.4 233.3-149.8H770c6.6 0 12-5.4 12-12v-153c0-6.6-5.4-12-12-12z" class="st1"/><path d="M770 329.5h-61.1c-14.2-16.3-42.3-31.7-76.6-40.3C591 203 502.9 143.5 401 143.5c-102 0-190.2 59.6-231.4 145.9-33.8 8.7-61.5 23.9-75.5 40.1H37.4c-6.6 0-12 5.4-12 12v153c0 6.6 5.4 12 12 12h130.3c40.5 88.4 129.7 149.8 233.3 149.8s192.8-61.4 233.3-149.8H770c6.6 0 12-5.4 12-12v-153c0-6.6-5.4-12-12-12zm-3 150.9c0 6.6-5.4 12-12 12H624.7C588.4 580.2 501.9 642 401 642s-187.4-61.8-223.7-149.6H53c-6.6 0-12-5.4-12-12V356.5c0-6.6 5.4-12 12-12h50.1c13-17.9 40.8-33.2 76.3-41.9C216.9 217.4 302 158 401 158c98.9 0 184 59.4 221.5 144.4 35.8 8.9 64.1 24.3 77.9 42.1H755c6.6 0 12 5.4 12 12v123.9z" class="st2"/><path id="round" d="M755 344.5h-54.5c-13.8-17.8-42.1-33.2-77.9-42.1C585 217.4 499.9 158 401 158c-99 0-184.1 59.4-221.6 144.6-35.5 8.8-63.3 24.1-76.3 41.9H53c-6.6 0-12 5.4-12 12v123.9c0 6.6 5.4 12 12 12h124.3C213.6 580.2 300.1 642 401 642s187.4-61.8 223.7-149.6H755c6.6 0 12-5.4 12-12V356.5c0-6.6-5.4-12-12-12z" style="fill:none;stroke:#95a5a6;stroke-width:2;stroke-linecap:round;stroke-linejoin:round;stroke-miterlimit:10;stroke-dasharray:8"/><path d="M348.3 465.3s5.4-5 16.5-5 18.2 5 18.2 5 4.9 4.9 16.3 5c11.4.1 17.8-4.8 17.8-4.8s5.6-4.9 16.5-4.8 16.9 5.3 16.9 5.3M382.4 486.2s4.9 4.9 16.3 5 17.8-4.8 17.8-4.8M313.6 441.6s6.3 4.9 18.5 5c12.2.1 17-4.5 17-4.5s5.4-5 16.5-5 18.2 5 18.2 5 4.9 4.9 16.3 5 17.8-4.8 17.8-4.8 5.6-4.9 16.5-4.8 16.9 5.3 16.9 5.3 5.6 4.7 16.4 4.8 17.6-4.8 17.6-4.8" class="st4"/><path d="m367.4 466.2-6.9.1.2-11.9 6.9-.1z" class="st1"/><path d="M459.5 199.4c2.4.8 4.7 1.9 7.1 2.4 4.6 1.1 9 2.8 13.2 4.8 1.2.6 1.2.6.4 1.8 2.2 1.2 4.3 2.4 6.5 3.6 4.6 2.5 8.7 5.7 13.2 8.4 1.6 1 3.3 1.7 4.8 2.7 4.2 2.9 8.3 6 12.4 9 2.7 2 5.4 4.1 8.3 6.3.4-1.6.8-3.2 1.2-4.7l.3-1.2c.4-1.4 1.2-2 2.1-1.6 1 .3 1.4 1.3 1 2.5-.6 2-1.1 4.1-1.8 6.1-.2.8-.1 1.2.6 1.8 3.5 3 6.9 6.1 10.5 9.1 3.4 2.9 6.8 5.6 10.3 8.4 3 2.4 6.1 4.7 8.9 7.3 4.6 4.1 9.1 8.3 13.4 12.7 4.6 4.6 8.5 9.8 11.6 15.6.2.4 0 1.1 0 1.6-.5-.3-1.1-.5-1.4-.9-5.3-9.4-12.7-16.9-20.7-24.1l-6.3-5.4c4.7 5.3 9.4 10.4 13.9 15.8 4.6 5.4 9.1 10.9 13.3 16.6 4.2 5.6 8 11.5 12 17.4.3-1.3.7-2.7 1.1-4.1.2-.8.5-1.6 1.6-1.3 1 .3.9 1.2.7 1.9-.4 2-1 3.9-1.4 5.9-.1.6 0 1.3.3 1.8 6.4 11.4 11.8 23.3 15.2 36 2.7 10 3.9 20.1 3.6 30.5-.1 2.4-.4 4.7-.6 7-.1.9-.4 1.6-.7 1.2-.2 4.8-.4 9.5-.7 14.3-.3 4.9-.6 9.7-.8 14.6 0 .4 0 .8-.2 1.1-.3.4-.8.7-1.2 1-.3-.4-.8-.8-.8-1.2.1-1.9.3-3.9.4-5.8.5-7.5.5-15.1 0-22.6-.7-10.7-2.6-21.2-5.4-31.5-2.9-10.4-7-20.4-11.7-30.2-.1-.2-.3-.5-.8-.7 0 1-.2 2-.1 3 .4 5.5 3.6 10.1 5.1 15.3.3-1.5.6-3 .9-4.8 1.4 2.7 2 5.2 2.2 7.8.7 9.6 2.1 19.1 3.7 28.5 1.5 8.9 1.7 18 1.8 27 .3 18.7-1.4 37.2-5.4 55.5-.3 1.5-.2 3.1-.3 4.7 0 .7-.2 1.1-.8 1.7-.7.7-.8 1.9-1.2 2.9.1.1.2.1.3.2 1.2-2.2 2.5-4.4 3.6-6.6 3.1-6.3 5.7-12.7 7.6-19.5.1-.3.1-.6.3-.8.2-.3.4-.5.7-.7.1.3.4.6.4.9-.3 2-.5 4-.9 6-1.6 7.8-5.3 14.7-9.3 21.4-1.4 2.4-3.1 4.7-4.6 7.1-.5.7-.8 1.5-1.1 2.4-2.3 6.1-4.5 12.2-6.8 18.4-.2.4-.5.8-.7 1.2-.2 0-.3-.1-.5-.1.1-.5 0-1 .2-1.5 1.5-4.4 3.1-8.8 4.7-13.1.1-.3.2-.7.3-1-.1-.1-.2-.1-.3-.2-6 8.3-12 16.6-17.9 25 .1 0 .1.1.2.1 1.6-1.6 3.1-3.2 4.8-4.7 1.6-1.5 3.3-2.8 5-4.2l.3.3c-.1.2 0 .5-.2.7-2.3 3-4.5 6-6.9 8.8-3 3.5-6.3 6.8-9.1 10.5-1.3 1.7-1.9 4-2.8 6-.2.5-.7.9-1.1 1.4 0-.6 0-1.2.1-1.7.1-.4.3-.9.2-1.5-1.4 1.5-2.7 3.1-4.1 4.7-2.1 2.4-4.1 4.8-6.1 7.2l-10.8 12.3c-1.4 1.6-2.8 3.2-4.3 4.7-3.4 3.6-6.9 7.2-10.4 10.8-.5.5-1 1.2-1.8.4-.7-.8-.1-1.2.4-1.7 3.1-3.1 6.1-6.1 9.1-9.4-6.7 4.7-13.5 9.3-20.1 14.2-6.7 4.9-13.6 9.5-20.8 13.4 1.2 2 1 2.8-1 3.6-2 .8-4 1.6-6.1 1.9-6.7 1.1-12.7 4-18.9 6.3-9.1 3.4-18.4 5.9-27.9 7.8-9.9 2-19.8 4.5-29.7 6.4-6.5 1.2-13.2 1.6-19.8 2.3-.3 0-.6-.1-.9-.1 0-.1-.1-.3-.1-.4.4-.2.9-.5 1.3-.5 7.4-.3 14.8-1.3 22.1-2.8.4-.1.8-.2 1.1-.4-3.4.2-6.9.5-10.3.7-8.5.5-16.8-.3-25.1-2-1.1-.2-1.1-.2-1.1-1.6-15.4-1.4-29.9-6.3-44.4-11.1s-28-11.8-41.1-19.7c4.7 3.8 9.4 7.5 14.1 11.3-7.3-3.6-14-8.2-20.5-13.1-.7.7-1.1 1.4-1.8 1.7-.5.3-1.4.3-1.8.1-.4-.2-.6-1.2-.4-1.6.2-.8.8-1.5 1.3-2.3-1.9-1.7-3.8-3.3-5.7-5-2.1-1.9-4.2-3.8-6.3-5.6-3.1-2.6-6.3-5.1-9.4-7.7-2.5-2.1-5.2-4-7.6-6.2-6.4-5.8-12.8-11.7-18.9-17.8-3.5-3.4-6.6-7.2-9.6-11.1-4.2-5.4-8.4-10.9-12.2-16.6-8.9-13.3-15.8-27.7-19.6-43.4-.1-.3-.2-.5-.2-.8.1-.3.3-.6.4-.9.3.2.8.3 1 .6.2.3.2.8.3 1.2 1.8 7.7 4.7 15 8.2 22 .2.3.4.6.6 1.1.6-1.1 1.2-2 1.6-3 .1-.3-.1-.9-.3-1.2-4.3-7.9-8.1-16-11.3-24.5-.4-1.2-.9-2.3-1.2-3.5-.1-.5 0-1.5.3-1.6.8-.4 1.1.3 1.4 1 2.4 5.9 4.8 11.7 7.2 17.6.1.2.2.4.5.8-1.4-4.8-2.6-9.2-4.1-13.6-1.9-5.8-4.1-11.4-6.1-17.2-.2-.5-.8-1.3.6-1.2-.6-2.9-1.3-5.8-1.9-8.8-2.3-11.6-3.2-23.4-2.4-35.2.3-4.2 1.2-8.4 1.5-12.6 1-11.9 3-23.7 5.9-35.3 1.5-6 3.1-11.9 5-17.8 1.4-4.3 3.4-8.4 5.2-12.6.2-.4.3-.9.3-1.5-1.5 2.1-3.1 4.2-4.6 6.3-.1 0-.1-.1-.2-.1 2.3-3.7 4.7-7.5 6.9-11.3 2.3-3.9 4.2-8 6.6-11.9 3.5-5.7 7.3-11.3 11-16.8 4.9-7.2 10.8-13.6 17.2-19.5 2.8-2.6 5.8-5 8.7-7.5.2-.2.6-.2.8-.4l.3.3c-.3.4-.5.9-.9 1.3-3.3 3.5-6.7 7-9.9 10.7l1.2-1.2c2.6-2.6 5.2-5.3 7.9-7.9 4.9-4.9 10.3-9.2 15.9-13.1 6.9-4.8 14.1-9.1 21.7-12.8 3.1-1.5 5.9-3.7 8.8-5.6 6.5-4.4 13-8.7 19.3-13.3 1.1-.8 1.6-1.9 3.3-2 1.2-.1 2.4-1.4 3.6-2.1-.4-1.1-.8-2.1-1.2-3.2-.4-1-.4-2 .7-2.7 1-.6 1.8-.1 2.5.7l1.8 2.1c.4.6.7.5 1.4.2 7.2-3.6 14.3-7.3 21.6-10.6 7.7-3.5 15.9-5.5 24.4-6.6l-27.9 11.7c0 .1.1.2.1.3 3.6-.9 7.1-1.9 10.7-2.8 8.9-2.2 17.8-3.6 26.9-4.1 7.5-.4 15-.6 22.5-.6 8.5 0 16.9 1.4 25.3 2.8 5.2.9 10.4 1.4 15.6 2.3 14.7 2.3 28.9 6.1 42.3 12.8.8.4 2.2.7 1.5 2-.6 1.2-1.6.2-2.4-.1-10.2-4.9-20.8-8.3-31.9-10.5-.2 0-.4-.1-.7-.1.2.1.2.2.1.3zM253.6 454.9c-5.7 2.6-11.5 5.2-17.2 7.8-.3.1-.6.3-.6.6-1.2 4.2-2.8 8.3-3.5 12.5-1.3 8.1-2.2 16.4-3.2 24.6-.1.7-.2 1.5.1 2 1.3 2 2.7 3.9 4.3 6.1.2-1.7.3-3.1.5-4.4 1.3-11.5 3.7-22.9 6.4-34.1.6-2.3 1.2-4.6 1.9-6.8.1-.4.9-.8 1.2-.7.4.1.6.7.8 1.2.1.2-.1.5-.2.8-.7 2.6-1.4 5.1-2.2 7.7-3.3 12.2-6.1 24.4-7.2 37 0 .5.1 1.1.4 1.5 2.7 3.6 5.5 7.1 8.4 10.8.1-.4.1-.6.2-.8.3-9.4 1.6-18.8 3.1-28.1 1.8-11.3 3.7-22.6 5.5-33.9.2-1.3.2-2.8 1.3-3.8.9.4 1.7.9 1.4 2.2-.6 3.6-1.1 7.2-1.7 10.8-1.9 10.3-3.9 20.6-5.8 30.9-1.4 7.8-2.3 15.6-2.5 23.6 0 .5 0 1.1.3 1.4 2.8 3.3 5.6 6.5 8.5 9.7.2.2.4.3.7.5-.1-3.9-.4-7.6-.3-11.4.1-11 1.2-22 2.7-32.9 1.7-12.2 3.5-24.4 5.3-36.6.1-.9.4-1.6 1.4-1.5 1 .1 1.1.9 1 1.8-.2 1.6-.5 3.3-.7 4.9-2.2 13.3-4.5 26.6-6.6 39.9-1.9 11.9-2.6 23.9-1.7 36 0 .6.1 1.3.5 1.7 2.6 2.7 5.2 5.2 7.8 7.8h.4c-.1-.4-.2-.8-.2-1.2-.9-12.1-.2-24.2 1.3-36.2 1.3-10 2.9-20 4.4-30 1.5-9.5 3.1-19 4.6-28.6.2-1.1.6-1.9 1.9-1.7 1.2.3 1.2 1.2 1 2.2-.7 4.2-1.4 8.5-2.1 12.7-3.2 18.3-7.5 36.3-9.2 54.8-.9 9.2-1.1 18.5-.6 27.7 0 .6 0 1.5.4 1.9 2.2 2.4 4.6 4.6 6.9 7 .1-.1.2-.2.4-.3v-.5c.3-6.7.3-13.4 1-20.1 1.2-11.1 2.5-22.2 4.3-33.2 2.5-15.5 5.5-31 8.2-46.5.4-2.1.7-4.3 1.1-6.4.2-.9.6-1.8 1.7-1.6 1.1.2 1.2 1 1.1 2-.4 1.9-.6 3.9-.9 5.9-3.1 16.8-6.3 33.6-9.4 50.3-3.2 16.7-5 33.5-5.6 50.5 0 .6.2 1.4.6 1.8 2.1 1.9 4.2 3.7 6.4 5.6 1.1 1 2.3 1.9 3.5 2.8 2.2-1.8 4.3-3.6 6.4-5.2 1.8-1.4 2.7-3 2.6-5.3-.1-2.9.2-5.7.4-8.6l2.1-26.7c.7-8.9 1.5-17.8 2.2-26.7.7-8.9 1.3-17.7 2-26.6.1-.8.5-1.6.9-2.8-1.4-2.3-3.1-4.9-4.8-7.6-.1 0-.3.1-.4.1-4.3 35.7-10.7 71.3-11.3 107.4-.2-.2-.3-.5-.3-.7.2-5.7.3-11.5.6-17.2.5-8.2 1.1-16.4 1.9-24.6.9-9.7 2-19.4 3-29.1.9-8.6 1.9-17.3 2.8-25.9.5-4.1.7-8.3 1.5-12.4.4-2 .3-3.5-1-5.1 0 .6.1 1.1.1 1.7h-.1c-.9-3-1.9-6-2.9-9-2.6 1.3-4.9 2.5-7.3 3.5-10.2 4.4-20 8.7-29.9 13.1zm117.2 59c-3.9-1.1-7.9-2.2-11.9-3.2-.1 0-.2.1-.2.1-1 5.9-2.7 20.8-2.2 28.7 0 .5-.5 1-.7 1.5-.2-.5-.5-.9-.6-1.4-.4-9.6 0-19.2 1.5-28.6.2-1-.2-1.3-.9-1.6-3.2-1.5-6.3-3-9.4-4.6-.5-.2-.8-.7-1.2-1.1-.3-.3-.5-.8-.9-1.1-.6-.4-1.3-.5-1.9-.9-.4-.3-1-.6-1.2-1-.1-.4.3-.9.5-1.4-.4-.1-.7-.3-1.2-.5-.9 2.1-1.7 4.1-2.7 6-1.4 2.7-1.8 5.5-1.7 8.4l.6 17.1c0 1.3-.1 2.5-.2 3.8h-.2c-.4-7.7-.8-15.4-1.1-23.4-2.5 3.9-4.7 7.6-7.1 11.1-1.9 2.9-4.2 5.6-5.4 8.9-.1.2-.3.4-.4.7-.1 0-.1-.1-.2-.1.3-.7.6-1.4.9-2.2-1 .9-1.7 1.9-2.5 2.8-3.8 4.3-7.7 8.5-11.6 12.7-.4.4-.7.8-1 1.3-3.4 6.3-7.1 12.5-11.6 18.1-1.2 1.5-2.3 3.2-3.5 4.7.4.4.6.7.9.9 1.1.7 2.1 1.4 3.2 2.1 18 10.7 36.7 19.6 56.8 25.7 6.5 2 13.1 3.5 19.9 3.8 7.3.3 14.6.6 21.9 1 .4 0 .9.1 1.3.2v.3c-.4.2-.9.4-1.3.6 5.5 0 10.9-.2 16.3-.7 14.1-1.4 27.9-4 41.8-7 5.9-1.3 11.5-3 16.8-6.4l-5.1-11.4c-.1-.2-.2-.3-.3-.4-2.1-2.6-4.2-5.1-6.2-7.8-5.4-7.6-10-15.7-13.9-24.2-1.2-2.7-2.4-5.4-3.6-8.2-.3.3-.5.6-.9 1.1-.2-.7-.5-1.1-.5-1.6.3-2.8-.6-5.3-1.8-7.8-.9-1.9-1.7-3.8-2.4-5.7-1.4-3.7-2.7-7.5-4.1-11.2-2.8.4-5.6.9-8.5 1.3-4.6.5-9.3.9-13.9 1.4.1 2.6.3 4.9.3 7.1-.3 8.8-.6 17.7-1 26.5 0 .4-.5.8-.8 1.2-.2-.4-.7-.8-.7-1.1-.1-2.3-.2-4.6-.2-6.9.1-5.5.3-11 .3-16.5 0-3.2-.4-6.4-.7-9.6-2.7.2-5 .4-7.4.6-.3 0-.7.5-.8.9-.5 3-1.2 6-1.4 9-.4 6.5-.5 12.9-.8 19.4-.1 1.4-.4 2.9-.6 4.3.2 0 .3 0 .5-.1-.2-3.1-.4-6.3-.6-9.4-.2-2.6-.4-5.3-.3-7.9 0-5.4.1-10.7 1.4-16h-.7c-4.9-.2-9.8-.3-14.7-.6-3.3-.5-6.7-1.2-10.2-1.7zm134-78.3c.2-.6.3-1 .4-1.4 1.7-8.1 3.5-16.2 5.1-24.4.6-3.2 1.4-6.5 1.3-9.7-.1-5.2-.8-10.3-1.3-15.5-1-11.1-3.7-21.8-8.7-31.8-1.3-2.6-1.3-2.6-4.1-1.5-1 .4-1.9.4-2.4-.6-.6-1.1 0-1.9.9-2.4.7-.4 1.5-.8 2.5-1.3-2-3-3.9-5.8-5.9-8.7-.3.5-.5.7-.6.9-.4-1-.5-2.1-1.1-2.8-2.7-3.1-5.6-6.2-8.4-9.2-.3-.3-.6-.6-1.2-1 .1 1.4.1 2.5.2 3.5h-.5l-.3-2.7c-.1-.6-.3-1.4-.7-1.8-1.7-1.7-3.4-3.2-5.2-4.8-1-.9-2.1-1.7-3.3-2.7.1 1.2.1 2.2.2 3.2-.1.1-.2.1-.4.2-.2-.3-.5-.5-.6-.9-.1-.8-.1-1.6-.3-2.3-.2-.6-.4-1.4-.9-1.7-4.6-3.3-9.1-6.5-13.8-9.6-1.8-1.2-3.9-2-5.8-3-1.7-.9-3.5-1.8-5.3-2.7-1.1 3.2-2 6.1-3 9-.7 2-1.5 2.7-2.7 2.3-1.1-.4-1.3-1.3-.8-3.3.8-3 1.5-6 2.3-9.1-17.6-5-35.8-7.6-53.3-6.3-2.4.2-4.9.2-7.1 1-18.2 6-35.6 13.9-52.5 22.9-2.5 1.3-4.4 3.3-5.2 5.7-.7.4-1.3.5-1.7.9-3.7 3.4-6.3 7.7-9 11.9-2.1 3.2-3.9 6.5-5.9 9.7l6.3-6.3c.1.1.2.1.3.2-1.3 2.3-2.6 4.7-4 7-5.8 9.2-10.4 19-13 29.7-1.3 5.2-2.7 10.5-2.9 15.8-.2 6.7.4 13.4 1.1 20.1 1.7 13.9 5.6 27.3 10.9 40.3 2 5 4.1 9.9 7.9 14 3.1 3.4 6 7 9.1 10.5.5.6 1.2 1.2 1.9 1.9 3.6 3.8 2.8 3 3.6 3.8 4.7 4.8 9.8 9.1 15.4 12.9 3.2 2.2 6.5 4.3 10 5.8 13.7 5.8 28.3 7.5 43 8.2 8.8.4 17.5-.1 26.2-1.2 2.9-.4 5.8-.9 8.8-1.4 1.7-.1 2.5-.8 5.9-1.9 2.8-1 5.5-1.9 8.1-2.9.4-.2 1.8-.6 2-.7 4-1.8 8-3.7 12-5.6.5-.3 1.5-1 3.7-2.1l.4-.2c3.9-2.1 7.4-4.9 10.6-7.9 1.8-1.7 3.9-3.1 5.6-4.9 2.2-2.3 4.1-5 6.4-7.3 2.2-2.3 3.6-5.2 5.5-7.6 2.3-2.9 4.2-6.3 6.3-9.4 3.3-4.8 5.8-9.9 6.8-15.7m76.9-120.2c-.1 0-.2 0-.3.1-.2 1.8-.3 3.6-.5 5.4-.4 4.7-.9 9.3-2.8 13.6-.2.4-.5.8-.8 1.1-.1-.1-.3-.1-.4-.2.3-1.3.6-2.7.8-4 1.1-6.5 1.4-13 1.4-19.5 0-.4 0-.9-.2-1.2-1.7-3-3.4-6-5.3-9.2-2 11.1-1.4 22.2-4.7 32.8.3-3.8.9-7.5 1.3-11.2.4-3.9.4-7.8.6-11.6.2-3.8.6-7.7.9-11.8-1 1-1.8 1.9-2.7 2.7-1.6 1.6-3.2 3.2-4.9 4.7-1.8 1.5-3.6 2.9-3.8 5.6 0 .9-.4 1.8-.7 2.7-1 3.6-2.4 7-5 9.7-.2.2-.4.3-.7.5-.1-.1-.2-.1-.3-.2 2.1-4.2 4.1-8.5 4.9-13.3-.3.1-.4.1-.5.2-4.9 3.6-9.9 7.2-14.8 10.8-1.1.8-2.5 1.3-2.3 3 0 .1-.2.3-.5.5-.3-.4-.6-.7-.9-1.1-4 2.3-8 4.6-12.1 6.9-.6.4-1.2.9-1.9 1.5-.4.1-1.2.1-1.8.4-2.8 1.4-5.6 2.9-8.5 4.3-1.6.8-3.1 1.5-2.8 3.6 0 .2-.4.5-.7.7-.2-.3-.5-.5-.5-.8-.1-.5 0-1 0-1.6-.9.4-1.6.8-2.3 1.2.8 1.5 1.5 2.9 2.1 4.3.2.3.4.9.2 1.1-.2.3-.7.2-1.2.4.3 1.1.5 2.3 1 3.4 1.4 3.1 2.9 6.2 4.3 9.4.2.4.2.8.3 1.2-.2.1-.3.1-.5.2-1.6-1.6-2-4-3.6-5.6.5 2.9 1 5.9 1.5 8.8h.2c.3-.8.5-1.5.8-2.3h.5c.4 1.6.8 3.2 1.1 4.8.8 4.6-.1 9.5 1.9 13.8-.3.6-.6 1.1-.6 1.7.5 8.6 1.1 17.2 1.7 25.8.1 1.3 0 2.2-1.8 2 0 .3.1.5.1.7.5 8.3.9 16.5 1.5 24.8 0 .4.5 1 .9 1.2 3.5 1.5 6.9 3 10.5 4.3 2.4.9 4.5 2.6 7.2 2.5.2 0 .5.4.8.6.7.5 1.3 1.1 2 1.4 10.3 5 20.4 10.4 30.2 16.6 3.2 2 6.3 4 9.6 6.2.3-1.8.5-3.5.8-5.1.1-.9.5-1.5 1.5-1.3 1 .2.9 1 .8 1.8-.3 1.8-.6 3.6-.8 5.3 0 .4.1 1 .4 1.3 1.9 1.5 3.9 2.8 5.9 4.3 4.2-10 7.5-20.2 9.4-30.8 1.2-6.6 2.5-13.3 2.7-20 .4-15.1-.2-30.3-1.6-45.4-1.2-12.4-3.2-24.7-6.4-36.8-.2-.7-.4-1.3-.7-2.2-.7 2.1-1.4 4-2 5.9-.2.6-.3 1.4-1.2 1.1-.3-.1-.4-1.1-.2-1.6.6-2.3 1.4-4.6 2-6.9.2-.8.1-1.8-.2-2.6-1.7-4.3-3.6-8.6-5.4-12.8-.6-3.1-1.8-5.4-2.9-7.8zm-362.9 4.9-.3.6c-3.1 6.9-6.3 13.8-9.2 20.8-2.4 5.7-5.3 11.1-5.8 17.5-.8 10-2.1 19.9-2.7 29.8-.8 12.9-.6 25.8.9 38.7 1.2 10.5 3 20.9 6.9 30.8 1.3 3.3 2.8 6.4 4.3 9.8.4-.4.6-.5.7-.7 2.8-4.3 6.4-7.8 10.3-11 5.1-4.2 10.7-7.6 16.6-10.5 8.6-4.3 17.7-7.2 26.8-10 7.7-2.4 15.4-4.7 23.2-7-.1-.2-.1-.3-.1-.4-3-8.3-4.3-17-3.9-25.8.1-2.6 1-5.2 1.1-7.8.3-7.1 2-13.9 4.1-20.7.3-1 .5-2.1.6-3.1.3-2.3.6-4.6 1-6.9.4-2.3.8-4.5 1.1-6.6-6-1.7-11.8-3.4-17.7-5.1-.7-.2-1.4-.1-2.3-.2-1-1.9-3.4-1.7-5.3-2.8.2 1.4.4 2.5.5 3.5-.2 0-.4 0-.5.1-.2-1.1-.4-2.1-.7-3.2-.1-.3-.3-.8-.6-.9-2-1-4.1-1.8-6.4-2.9-.3 5.5-.6 10.8-.8 16.1 0 .9-.1 1.8-1.2 1.8-1.1 0-1.3-.9-1.2-1.8.3-4.8.5-9.7.8-14.5.2-2.7.2-2.6-2.1-3.9-2.1-1.1-4.2-2.1-6.2-3.4-1.9-1.2-4.2-1.7-6-3.3-1.7-1.5-3.9-2.5-5.8-3.6-.2.5-.4 1-.6 1.4-.3.5-.8.8-1 1.3-.3.9-.6 1.9-.8 2.9-.8 5.9-1.5 11.8-2.4 17.7-.5 3.3-1.8 6.3-3.7 9.1-.2.3-.5.6-.8.8-.1-.1-.2-.2-.4-.3.2-.4.3-.8.5-1.2.6-1.3 1.3-2.6 1.9-4 2-5.1 2.1-10.5 2.6-15.8.3-3.7 1-7.4 1.5-11.1.1-.4.3-1 .7-1.1 1.4-.5.8-1 0-1.5-1.9-1.3-3.7-2.5-5.6-3.8-1.6-1.1-3.2-2.2-5-3.3-.5 2-1 3.7-1.3 5.5-1.9 14.3-4.1 28.5-7.2 42.6-.2.8-.3 1.6-.5 2.4-.1.3-.6.4-.9.6-.2-.3-.4-.6-.5-1-.1-.2.1-.5.2-.8 1.5-8.5 3.2-17 4.6-25.6 1.2-7.5 2.3-15 3.4-22.5.2-1 .5-1.7 1.6-.8 0-.8-3.4-3.4-6.4-4.9zm149.8-33.7c2.4-.5 4.7-.9 7-1.3 4.1-.8 8.2-1.9 12.4-2.4 9.7-1 19.3-1.8 29-2.2 4.3-.2 8.7.8 13.1 1.3.5.1 1 .7 1.5 1.1-.1.1-.1.2-.2.3 4.3.8 8.7 1.6 12.9 2.4l7.2-21.3c2.5-7.3 4.9-14.7 7.7-21.9 3.3-8.4 7.4-16.4 12.7-23.7 1.1-1.6 2.3-3.1 3.5-4.8-5.2-2.1-10.2-4-15.3-6.1-.1.5-.3.8-.3 1.1-.7 5.1-1.4 10.2-2.1 15.2-.7 5-1.5 9.9-2.3 14.9-.1.4-.6.7-.9 1-.1-.5-.4-.9-.3-1.4.4-2.9 1.1-5.7 1.4-8.6.4-4.4.5-8.8.8-13.2.2-3.4.6-6.8 1-10.2-2.8-1.1-5.6-2.2-8.5-3.3-.1.3-.2.5-.2.7-2 7.1-3.4 14.4-4 21.7-.4 4.7-.5 9.4-.9 14.1 0 .5-.6.9-.9 1.4-.3-.4-.8-.9-.8-1.3.1-8.8.7-17.6 2-26.3.6-3.8 1.4-7.6 2.1-11.8-9.7-3-19.5-6-29.3-9v-.1c4.4.6 8.7 1.2 13 1.8-.1-.5-.2-1.1-.4-2-6-.3-12.2-.6-18.4-.9-1-.1-1.5.2-1.9 1.2-2.5 6.1-4 12.4-5 18.9-1 6.8-1.8 13.5-2.8 20.3-.1.4-.3.7-.4 1.1-.2 0-.3-.1-.5-.1.7-6.9 1.4-13.8 2-20.8.6-7 1.8-13.9 4.5-20.7-5.3.1-10.3.2-15.2.3-.2.9-.2 1.5-.4 2.1-2.6 6.1-3.3 12.6-3.9 19.1-.6 6.3-1.1 12.6-1.6 18.9 0 .4-.2.8-.3 1.1h-.4c-.1-.4-.2-.8-.2-1.2.4-6.8.9-13.6 1.4-20.3.4-6.3.9-12.6 3.2-18.6.1-.2.1-.4.1-.7-3 .5-5.8 1-8.7 1.3-1.6.2-2.2.9-2.6 2.4-1.8 6.4-2.4 13-3.1 19.5-.6 5.6-1.4 11.1-3.3 16.4l-.6 1.2c-.1-.1-.3-.1-.4-.2.1-.5.3-1 .4-1.5.8-3.9 1.8-7.8 2.4-11.8.7-5.6 1-11.2 1.6-16.8.3-2.8.9-5.5 1.3-8.4-13.3 2.6-26.6 5.5-39.4 10.1.4 1.2 1 1.4 2 1.1 4.7-1.2 9.5-2.2 14.3-3.4.6-.2 1.2-.6 1.8-.8.3-.1.7-.1 1.1-.1.4.1.8.4 1.1.3 2.6-.2 5.3-.4 7.8-.6.3-.8.6-1.7 1-2.4.1-.3.7-.5 1-.4.2.1.5.7.4 1-.1.6-.4 1.2-.6 1.9 1 0 2 0 2.9.1-.6.4-1.1.6-1.7.6-1.3.1-1.9.6-2.2 1.9-1.3 5.5-2.6 10.9-3.9 16.4-1.3 5.3-2.6 10.6-4 16-.1.5-.5.9-.7 1.3l-.2-.2c2.4-11.5 4.7-23.1 7.1-34.7-2.2.4-4.6.9-6.9 1.3-1 .2-1.4.6-1.6 1.7-1.5 8.8-3 17.6-4.5 26.3-.1.5-.1 1 0 1.5 2.6 7.2 5.2 14.4 7.7 21.6 2.4 7 4.9 14 7.1 21 1.2 3.8 1.6 7.2 2.3 10.6zm148 152.8c-.1.1-.3.1-.4.2-.1.3-.2.6-.2.9-.9 11.2-2 22.5-2.7 33.7-.6 9.3-1 18.7-1.1 28-.1 9.9.1 19.8.5 29.7.3 7.6.9 15.2 1.3 22.9 0 .4-.2.8-.4 1.3h-.5c-.2-.4-.4-.9-.4-1.3-.9-9.6-2-19.1-2.6-28.7-.5-8.1-.7-16.2-.6-24.3.2-12 .8-24.1 1.4-36.1.5-8.7 1.3-17.4 2.1-26.1.1-1.4-.1-2.3-1.9-2.3-2.6 5.5-5.3 11.1-8 16.7 1.4.5 1.5.6 1.4 2.2-.2 2.3-.4 4.5-.6 6.8-1.4 13.6-2.4 27.2-2.4 40.9 0 8.7 0 17.3.3 26 .4 8.2 1.2 16.4 1.9 24.6.3 3.4.8 6.9 1.3 10.4.4-.2.7-.3 1-.5 8-5.1 16-10.3 24-15.4 4.7-3 9-6.4 12.8-10.5 5-5.4 9.9-10.8 14.8-16.2 2.5-2.8 5.1-5.7 7.4-8.6 3.3-4.3 6.5-8.7 9.7-13.1 1.3-1.8 2.5-3.8 3.8-5.9-1.5-.2-1.8-.8-1.6-2 .5-2.7.7-5.5 1.3-8.2.5-2.3.1-3.9-1.8-5.4-2.5-2.1-4.8-4.5-7.4-6.9-.2.7-.3 1-.4 1.4-.4 4.1-.9 8.2-1.2 12.3-.4 7.7-.7 15.4-1 23 0 .8 0 1.6-1.1 1.5-1-.1-1-.9-.9-1.7.2-3.9.3-7.8.5-11.7.3-8 .4-15.9.9-23.9.1-2.4.1-4.1-2.2-5.4-1.9-1.1-3.6-2.6-5.5-4-.9 6.5-1.7 12.7-2.6 19-1.8 13.1-3.2 26.3-2.8 39.5 0 .3.1.6-.1.8-.3.3-.6.7-1 .8-.2 0-.7-.5-.8-.8-.1-.9-.2-1.7-.2-2.6-.3-13.6 1.1-27.1 2.4-40.6.6-5.8 1.2-11.7 1.8-17.5 0-.3 0-.8-.2-1l-6.6-4.4c-.1.8-.1 1.3-.2 1.7-.2 2.7-.2 5.4-.5 8-1.1 10.7-2.4 21.4-3.3 32.1-.7 8.2-.6 16.4.5 24.5.3 2.2.8 4.4 1.1 6.5.1.4-.2.9-.4 1.4l-1-1c-.1-.1 0-.2 0-.3-1.3-6-2.3-12.1-2.3-18.3.1-9.2.5-18.3.9-27.5.5-9.6 1.2-19.1 1.8-28.7 0-.3-.1-.8-.3-.9-2.3-1.4-4.5-2.7-6.9-4.1-.1.5-.2.8-.3 1.1-2.2 11.9-3.6 24-3.8 36.1-.3 14.1-.1 28.2-.1 42.2 0 2.2.1 4.4.1 6.7 0 .4-.4.7-.6 1.1-.3-.3-.7-.6-.9-1-.2-.4 0-.9-.1-1.4-.1-6.5-.3-13-.4-19.4-.6-22.1-.6-44.2 2.9-66.2.1-.3-.1-.9-.3-1-3.1-1.7-6.3-3.4-9.5-5.1-.1.4-.1.6-.1.8-.4 9.9-1.1 19.8-1.3 29.7-.1 13-.1 26 .4 39 .3 10.6 1.3 21.2 2 31.9 0 .5-.4 1-.6 1.5-.2-.4-.6-.9-.6-1.3-.3-3.8-.7-7.6-.9-11.3-.5-7.9-1.1-15.9-1.5-23.8-.3-6.6-.6-13.1-.6-19.7-.1-10.6-.1-21.1 0-31.7 0-5.1.3-10.3.5-15.4 0-.8-.2-1.2-.9-1.5-.6-.3-1.2-.5-1.9-.8-.1 2.6-.1 5-.2 7.4 0 .7 0 1.5-.9 1.3-.3-.1-.8-.9-.8-1.4 0-2.5.1-4.9 0-7.4.3-.4-.1-.8-.4-1.3zm-197-223.3c-.2-.1-.3-.1-.5-.2-2.2 1-4.4 1.9-6.6 3-2.1 1-4.2 2-6.3 3.1-.4.2-.7.9-.8 1.4-4.3 24.1-7.6 48.4-10 72.7-1.4 14.6-2.2 29.3-3.2 44-.2 3.1-.2 6.2-.4 9.3 0 .3-.4.7-.6 1-.2-.3-.5-.7-.6-1.1-.1-.2 0-.5 0-.7.6-12.7 1-25.4 1.8-38.1.8-12 1.6-24 3-35.9 1.6-14.2 3.9-28.3 5.9-42.4.4-2.7.9-5.4 1.3-8.4-2.1 1.2-4 2.2-5.8 3.3-.5.3-1.1 1-1.2 1.6-.7 3.4-1.4 6.8-2 10.2-3.8 20.9-7.5 41.9-9.4 63.1-1.3 14.3-2.1 28.5-2.1 42.8 0 2.9 0 2.9 2.7 4.1 3.4 1.4 6.7 2.7 10.2 4.1 2.8-11.1 5.1-22.2 13.2-31-.9 2.7-1.7 5.3-2.6 8.2 2.4-3.3 4.4-6.5 6.9-9.3 3.3-3.9 6.9-7.5 10.3-11.2.4-.4.7-1.1.8-1.6.5-3.7.9-7.4 1.4-11.1 3.3-23.9 7.3-47.7 13-71.2.1-.4.2-1 0-1.3-1.5-3.5-3.1-6.9-4.7-10.6-.1.4-.2.6-.3.8-2.6 10-5.1 20-7.7 30-4.3 16.6-8.7 33.1-11.5 50-1.3 7.8-2.1 15.7-3.2 23.6-.1.5-.5.9-.8 1.3-.1-.5-.5-.9-.4-1.4.1-2.1.3-4.2.6-6.4 1.6-14.2 4.2-28.2 7.4-42.1 4.1-18 8.4-36 12.6-54 .3-1.4.6-2.9.9-4.5-2.7 1-5.1 2-7.6 2.8-.9.3-1.2.8-1.3 1.7-2 12.3-5.2 24.3-8.2 36.4-3.3 13.3-6.9 26.6-10 40-1.8 7.9-3.1 15.9-4 23.9-.9 7.6-1 15.3-1.5 23 0 .1-.1.2-.4.6-.1-3.8-.5-7.3-.4-10.8.4-10.7 1.5-21.3 3.8-31.8 4.1-18.9 8.5-37.7 12.8-56.5 2-8.1 3.8-16.2 5.5-24.4zm182.2 240-.5.5c-2.9 4.4-5.9 8.8-8.8 13.2-.3.5-.5 1.1-.5 1.7-.2 2.1-.4 4.2-.4 6.4-.4 12.7-1.1 25.3-1.2 38-.2 16.8.9 33.5 2.1 50.2.1 2 .3 4 .5 6h.4c3.4-2.1 6.9-4.1 10.2-6.2.4-.2.7-1 .6-1.4-.8-7.3-1.8-14.5-2.4-21.8-.8-9.9-1.5-19.8-1.7-29.8-.3-10.6 0-21.3.2-31.9.1-5.7.6-11.4.9-17 .2-2.6.4-5.2.6-7.9zm12.3-223.1c-1 7.9-2.1 15.6-3 23.4-1.7 14.6-3.5 29.3-4.9 43.9-.9 9.8-1.2 19.8-1.8 29.6-.1 1.3.1 2.4.9 3.5.9 1.2 1.6 2.6 2.4 4.1 1.5-.8 2.9-1.6 4.2-2.5.4-.3.7-.9.7-1.4.7-5.8 1.3-11.7 2-17.5 1.3-11.7 2.6-23.3 4-35 1.6-13.2 3.4-26.3 6.2-39.2.1-.4-.1-1.1-.4-1.4-3.1-2.8-6.1-5.9-10.3-7.5zm-10.6 97.7c.1-.6.1-1 .1-1.4.3-8.1.5-16.3 1-24.4.7-10.4 1.4-20.8 2.4-31.1 1.3-13.8 2.8-27.7 4.2-41.5 0-.4-.1-1-.4-1.2-1.8-1-3.7-2-5.6-2.9-.1.3-.2.5-.3.7-4.9 21.4-9.2 42.9-10.9 64.8-.6 8.3-.8 16.6-1.1 25 0 .6.2 1.5.6 1.9 3.5 3.1 5.6 7.5 10 10.1zm-22.2 248.4c3.8-2.2 7.2-4.1 10.5-6.1.3-.2.6-.9.5-1.4-.3-4.4-.7-8.8-1-13.1-.5-7.7-1.1-15.4-1.5-23.1-.4-7-.7-14.1-.8-21.1-.1-11.2 0-22.4 0-33.6 0-1.7-.1-3.5-.2-5.1-1.3 1.6-2.6 3.3-4 4.9-.3.3-.8.4-1.2.7.1-.4.1-.9.3-1.2 1.1-1.5 2.3-2.9 3.6-4.6-2.1 1.9-3.9 3.5-5.6 5.1-.3.2-.4.7-.4 1.1-.2 4.1-.2 8.1-.4 12.2-.3 7-.7 14-1 20.9-.4 7.6-1 15.2-1.1 22.7-.1 7.8 0 15.6.4 23.3.4 5.9 1.3 11.9 1.9 18.4zm12.6-356.6c-.1.4-.2.7-.3.9-2.1 11.9-4.1 23.7-6.3 35.6-2.8 15.6-5.3 31.2-5.4 47 0 1.7.4 3.1 1.7 4.3 2.7 2.6 5.3 5.3 8 7.9.3.3.6.5 1 .9-.5-31.3 4.2-61.8 10.4-92.1-3-1.5-6-3-9.1-4.5zm-220 122c0-.5.1-.7.1-1 .2-5.9.4-11.8.5-17.6.4-15.6 1.2-31.2 2.5-46.7 1.2-14 3-27.9 5.4-41.7.1-.3 0-.6.1-1.1-2 1.5-4 2.6-5.7 4.1-1.5 1.4-3.5 2.4-3.8 5-.5 6.2-1.4 12.4-2.1 18.6-1.3 12.1-2.7 24.3-3.8 36.4-.5 5.6-.7 11.2-1 16.9.2 0 .4-.1.5-.1.1.4.4.8.3 1.2-.2 2.9-.7 5.9-.6 8.8.1 4.5.7 8.9 1 13.4.1.9.5 1.5 1.4 1.8 1.9.6 3.5 1.3 5.2 2zM303.3 464c-2.7 30.3-7.2 60.1-8.9 90.5 1.1-.9 1.8-1.7 2.6-2.3 2.8-2.3 5.3-4.9 7-8.1.3-.6.4-1.3.5-2 .7-7.8 1-15.6 2-23.3 1.6-13 4.3-25.8 7.5-38.5.5-2.1-.1-3.4-1.4-4.8-1.8-1.9-3.6-4-5.3-6-1.3-1.8-2.5-3.5-4-5.5zm209.4-125c3.6-2.3 6.8-4.4 10-6.5.4-.3.8-.9.8-1.4-.3-10.5.9-21 2.8-31.3 2.2-11.9 4.6-23.7 6.8-35.6.5-2.5.9-4.9 1.3-7.4l-8.3-8.3c-6.7 29.9-9.6 60.1-13.4 90.5zm24.7-79.2c-.1.5-.2.7-.2.9-1.4 6.8-2.6 13.6-4.2 20.3-3.2 13.4-6.7 26.7-7.8 40.4-.3 3.2-.3 6.3-.5 9.7.6-.3 1-.4 1.2-.6 3.8-2.7 7.7-5.4 11.4-8.3.9-.7 2.2-1 2.3-2.5.2-3.3.5-6.5.8-9.8 1.1-13.2 2.8-26.2 5.7-39.1.1-.4 0-1-.3-1.3-.9-1.3-1.9-2.5-3-3.6-1.7-2.1-3.5-4-5.4-6.1zm-277.2 2c-.1 0-.2-.1-.3-.1-.2.1-.3.3-.5.4-2.5 2.9-5.1 5.9-7.6 8.9-.6.7-1.2 1.6-1.3 2.5-.9 9.1-1.9 18.2-2.6 27.3-.8 11.4-1.3 22.9-2 34.3-.1 1.7.5 2.4 1.9 3.1 3.5 1.6 6.9 3.3 10.5 5.1 0-.5-.1-.8-.1-1-1.2-7.2-1.9-14.4-1.8-21.7.1-6.6.3-13.2.8-19.8.5-8.3 1.4-16.7 2-25 .3-4.7.6-9.3 1-14zm209.2 313.1c-1.5-13.9-2.1-27.8-1.4-41.7.7-13.9 2.4-27.6 4.3-41.3-3.4 2.1-6.7 4.1-10 6.1-.7.4-1.3.8-1.3 1.9 0 1.4-.3 2.8-.5 4.3-.7 7.3-1.7 14.6-1.9 22-.3 10.5-.1 21.1-.1 31.6 0 .6.3 1.2.6 1.8 1.9 2.9 3.8 5.9 5.7 8.8 1.6 2.1 3.1 4.3 4.6 6.5zM279.9 352.6c-.3-39.8 4.4-78.9 11.8-118-2.4 1.6-4.5 2.9-6.5 4.3-.5.3-1 1-1.1 1.5-1.5 9.9-3.2 19.8-4.4 29.7-1 7.6-1.6 15.3-2.2 22.9-.6 7.3-1.1 14.6-1.6 21.9-.4 5.6-.7 11.2-.9 16.8-.3 5.9-.4 11.8-.6 17.8 0 .3.2.8.5 1 1.6.7 3.2 1.3 5 2.1zm201.8-123.2c.4 1.1.9 1.9.8 2.6-.5 4.5-1 9.1-1.9 13.6-2.2 12-4.7 23.9-6.8 35.9-1.2 6.7-1.7 13.5-2.5 20.2-.2 1.4.3 2.3 1.3 3.2 1.6 1.2 3 2.6 4.5 3.9.9.8 1.8 1.8 2.8 2.8v-1.9c.1-10 .9-20 2.3-30 2.3-16.3 4.8-32.5 7.2-48.7.2-1.5.9-3.3.3-4.4-.6-1.1-2.6-1.4-3.9-2-.1 0-.2-.2-.2-.1-.4.1-1.1.1-1.2.4-1 1.5-2 3.2-2.7 4.5zm-2.1 355v-.6c-1-8.8-2.3-17.5-2.8-26.3-.6-10-.5-20.1-.4-30.1.1-10.9.6-21.8.9-32.8 0-2.1-.3-4.2-.5-6.2-.9.6-2 1.5-3.3 2.5 1.5.5 1.9 1.3 1.5 2.6-.3 1-.4 2-.6 3-2.6 14.1-4.6 28.4-5.4 42.7-.5 10-.2 19.9.8 29.8.2 1.9.5 3.9.6 5.8.1.9 0 1.6.6 2.4 1.3 1.8 2.4 3.7 3.6 5.5.6.9.6 1.8-.2 2.5s-1.7.4-2.4-.4c-.8-.9-1.8-1.8-2.7-2.7-.1.1-.2.1-.3.2.9 2.1 1.8 4.1 2.7 6.3 2.7-1.4 5.3-2.8 7.9-4.2zM339.4 234.6c-6.7 26.1-12.7 52-15.8 78.7 3-2.2 5.7-4.3 8.3-6.3-.1-.7-.3-1.2-.3-1.7.2-2.1.3-4.2.7-6.2 3.1-17.6 6.9-35 12.4-52 .2-.5.1-1.3-.1-1.8-1.3-2.7-2.6-5.5-4-8.2-.4-.7-.8-1.5-1.2-2.5zm-69.6 16.8c-.1-.1-.2-.1-.3-.2l-.9.9c-1.7 1.8-3.5 3.6-5.1 5.5-.5.5-.8 1.3-.9 2-.2 2.4-.3 4.9-.5 7.3-1.3 12.9-2.7 25.7-3.9 38.6-.9 9.6-1.1 19.1-.1 28.7.2 2.2.6 4.4.8 6.6.6-2 1-4 1.5-6 .9-3.3 1.9-6.5 2.9-9.8.2-.8.6-1.6.6-2.5.2-7.4.1-14.8.7-22.2.9-11.8 2.3-23.6 3.6-35.4.5-4.4 1.1-9 1.6-13.5zm76.8-2c-6.6 18.6-10.4 37.5-13.8 56.7.7-.5 1.3-.9 1.8-1.3 2.9-2.1 5.8-4.3 8.7-6.4.7-.5 1.2-1 1.4-2.1 1.9-11.9 3.8-23.8 7.2-35.3.1-.4.1-.9-.1-1.3-1.7-3.3-3.4-6.7-5.2-10.3zm133.6-16.5c-.2 0-.3-.1-.5-.1-1.5 2.5-3 5-4.5 7.6-.8 1.3-1.8 2.5-2.2 3.9-1.8 6.9-3.3 13.8-4.9 20.7-2.3 9.5-4.6 19.1-5.4 28.9-.2 2.9-.3 5.2 3.1 6.2.5.1.9.6 1.4.9.9.6 1.9 1.2 3 1.9.1-.9.1-1.6.2-2.3.4-4.1.5-8.2 1.1-12.3 1.6-10.3 3.4-20.6 5.1-31 1.2-8.2 2.4-16.3 3.6-24.4zm-232.7 43.6c-1.7 2.3-3.4 4.5-5 6.9-1 1.5-2.3 2.8-2.5 4.8-.9 7.8-2.1 15.6-3 23.3-.8 6.5-.9 13.1-.5 19.7 0 .4.2 1 .5 1.2 2.4 1.4 4.8 2.7 7 3.9 1.1-20 2.3-39.9 3.5-59.8zm57.8 264.7c.1 0 .2 0 .4.1 3.8-6.1 7.7-12.2 11.5-18.4.4-.7.6-1.5.7-2.3.3-3.1.5-6.3.9-9.4l3.3-24.6c.1-.4 0-1-.2-1.2-1.5-1.5-3.1-2.9-4.7-4.4-.1.5-.3 1-.4 1.4-.8 3.6-1.6 7.2-2.5 10.8-3 12-6.3 24-7.8 36.3-.6 3.9-.9 7.8-1.2 11.7zm243.4-268.4c-4.2 15.4-6.4 30.8-7.8 46.6.6-.4.9-.5 1.2-.8 2.9-2.4 5.7-4.8 8.7-7.1 1.5-1.2 2.2-2.6 2.2-4.5 0-2.8.1-5.6.2-8.5.2-5.6.2-11.3 1.7-16.8.1-.5 0-1.2-.2-1.6-2-2.2-3.9-4.5-6-7.3zM454 502.3c0 1 .2 1.8 0 2.4-3.1 11-4.2 22.3-4.8 33.7 0 .6.1 1.3.4 1.8l5.1 10.8c.9 2 1.9 4 2.8 6-.1-9.6-.4-19.1-.2-28.6s.9-18.9 1.3-28.4l-4.6 2.3zm-225.8-1.5c.6-6.4 1.2-12.5 1.8-18.6.6-6.1 1.9-12.1 3.8-18-.1-.1-.3-.2-.4-.3-6.8 4-13.6 7.9-20.5 12 1.9 3.4 3.6 6.5 5.4 9.7.2-.3.2-.5.3-.6 1.2-4.2 2.4-8.5 3.5-12.7.2-.6.1-1.5 1.1-1.2.3.1.6.8.6 1.2-.1 1.2-.3 2.5-.7 3.7-1.1 3.4-2.3 6.7-3.5 10-.3.8-.2 1.5.2 2.2 1.3 2.1 2.6 4.1 3.9 6.2 1.5 2 2.9 4 4.5 6.4zm241.1-250.6c-.2.3-.4.5-.6.8-1.1 1.8-2.3 3.6-3.3 5.5-1.8 3.4-4.3 6.5-5.4 10.4-1.2 4.1-2.6 8.2-3.9 12.3-1.4 4.8-2.8 9.6-4.1 14.4 3.3 1.4 6.2 2.6 9.3 3.9.6-16.2 5-31.6 8-47.3zm-231.4 40.1-.9.9c-1.7 2.7-3.4 5.3-5.1 8.1-.8 1.3-1.8 2.6-2.1 4.1-1.4 6.9-2.6 13.9-3.9 20.8-.2.9.1 1.4.8 1.8 1.1.7 2.1 1.4 3.1 2 1.7 1 3.4 2 5.2 3.1-.9-13.8 1.5-27.1 2.9-40.8zm100.6-76.6c3.7 7.5 7.3 14.9 11.1 22.5 1.3-8.7 2.5-17.3 3.8-26.1-5.3 1.3-10.2 2.5-14.9 3.6zm257.2 109.4c-1 2.7-1 3.3.1 5.5.8 1.5 1.5 3 2.3 4.6 7.6 16 12.6 32.7 14.5 50.3.2 2.2.5 4.3.7 6.5 1.9-24.4-5.7-46.1-17.6-66.9zM319.9 518.7c1.5-2 2.6-3.9 4-5.5 1.2-1.4 1.4-3 1.4-4.7-.1-4.2.2-8.3 1.4-12.3.1-.4.4-.8.6-1.2.2 0 .4.1.6.1-1.3 4.9-2.3 9.8-2 15.1 1.2-1.6 2.4-3 3.4-4.5.5-.7 1-1.5 1.2-2.4.5-3 .9-5.9 1.3-8.9 0-.3 0-.8-.2-1-2.2-1.7-4.5-3.4-6.9-5.2-1.9 10.1-3.7 20.1-4.8 30.5zm128 18c.8-11.2 1.3-22.3 3.8-33.3-1.9.8-3.5 1.4-5.1 2.2-.4.2-.9.7-1 1.1-1.1 5.3-2.2 10.6-3.3 16-.1.4-.1.9.1 1.3 1.7 4.3 3.6 8.5 5.5 12.7zM353.8 264c-4 10.7-6.2 21.6-8.3 32.8 1.8-1 3.3-1.9 4.9-2.7.8-.4 1.1-1 1.2-1.8 1.3-7 2.4-14.1 3.9-21.1.7-2.7-.1-4.9-1.7-7.2zM243.3 530.6l.3-.3c-.4-.6-.8-1.2-1.3-1.8-1.6-2-3.3-3.9-4.8-5.9-1.5-2-3.3-3.7-4.7-5.8-2.3-3.5-4.9-6.8-7.3-10.2-1.1-1.5-2.1-3.1-3.1-4.7-1.1-1.6-1.8-3.7-3.3-4.6-1.9-1.1-1.7-3-2.6-4.4l-.1-.1c-1-1.6-2-3.3-3-4.9-1.5-2.5-3-5.1-4.5-7.6-2.5 2.2-2.5 2.2-1.1 4.8.3.5.6 1.1.8 1.6 3.7 7 8.1 13.5 12.9 19.9 1.3 1.7 2.6 3.3 4 4.9-.2-.7-.6-1.2-.9-1.8-.1-.3 0-.6 0-1 .3.1.8 0 1 .3.5.6 1 1.3 1.5 2 2.7 3.6 5.4 7.4 8.3 10.9 2.4 2.9 5.2 5.8 7.9 8.7zm-28-212.8c.1-.1.2-.2.2-.3 3.3-7.6 7.1-15 11.7-21.9 1.9-2.8 4.1-5.5 3.9-9.2v-.1c.3-.2.5-.4.8-.7.2.3.5.5.6.8.1.3 0 .7 0 1.2.4-.4.6-.6.8-.9 1.6-2.2 3.1-4.6 4.9-6.7 1.1-1.3.9-2.7.8-4.3-3.7 4.3-7.4 8.5-10.7 13-5.7 7.7-10.5 15.9-14.3 24.8-.9 2.6-.9 2.6 1.3 4.3zM557 283.5c-2.5 8.5-2.3 16.9-3.1 25.3 2-1.6 3.7-3.3 5.4-5.1.3-.3.4-.9.5-1.4.8-3.4 1.6-6.9 2.4-10.4.1-.4.1-.9-.1-1.1-1.6-2.3-3.3-4.7-5.1-7.3zm-198.8-10.7c-1.4 6.6-2.8 12.9-4.2 19.4 1.2-.5 2.1-.9 3.1-1.2 1.2-.5 2.3-1 3.5-1.3.4-.1 1 .4 1.5.6-.3.4-.4 1-.8 1.2-.5.3-1.1.4-1.6.7-1.6.7-3.3 1.5-4.9 2.2.1.1.1.3.2.4 3.2-.9 6.4-1.7 9.7-2.6-1.1-6.8-3.1-13.2-6.5-19.4zm134.1 310.1c8.5-3.1 38.3-23.9 41.5-29-2.2 1.5-4.3 2.9-6.4 4.4-10.9 7.7-22.2 14.6-33.7 21.4-2 1.1-2 1.1-1.4 3.2zm101.4-98.4c.9-1.7 1.9-3.6 3.1-5.8-1.8.3-1.9-.3-1.5-1.3.8-2.3 1.5-4.7 2.4-7 2.2-5.7 2.1-11.6 1.9-17.7-.1.3-.2.4-.2.5-2.1 9.5-5.1 18.6-9 27.5-.3.7-.2 1 .4 1.4.9.7 1.8 1.5 2.9 2.4zM211.4 335.4c-.1 0-.2 0-.4-.1-.1-.7-.5-1.4-.3-2 .6-2.7 1.1-5.5 2.2-8.1.9-2.2.7-3.7-1.2-5h-.1c-3.3 7.7-4.3 16.1-6.6 24.1-.4 1.2-.4 2.5-.6 3.8-.2 1.7-.4 3.3-.6 5h.2c2.5-5.9 4.9-11.8 7.4-17.7zm353.7 185.2c-7.8 9.6-16.7 18.1-25.9 26.3 1.3-.7 2.6-1.6 3.8-2.4.6-.4 1.5-.9 1.9.1.2.4-.2 1.4-.7 1.7-3.2 1.7-4.7 4.9-6.8 7.5 8.9-7.2 24.3-25.7 27.7-33.2zm23.3-35.7c-.2.4-.4.7-.6 1.1-1.1 2.2-2.3 4.4-3.4 6.6-2.7 5.2-6.4 9.8-8.4 15.5-.9 2.4-2.1 4.7-2.9 6.4 6.1-8.9 12.5-18.4 18.9-27.7-1.2-.6-2.4-1.2-3.6-1.9zM377.8 195.1c-.1-.2-.2-.4-.2-.5-15.2 2.1-29.8 6.1-43.9 12.4.5.3 1.1.4 1.5.2 5.8-1.8 11.7-3.7 17.5-5.5 2.8-.9 5.7-1.4 8.5-2.3 2.6-.8 5.4-.8 7.9-2.2 1.9-1 4.3-.8 6.5-1.3.8-.1 1.5-.5 2.2-.8zM228.5 305.6c-.1-.1-.3-.1-.4-.2-2.7 5.1-5.4 10.1-8.1 15.2-.1.2-.1.7.1.8 1.6 1.2 3.3 2.3 5.3 3.6 1-6.7 2-13 3.1-19.4zm-33.4 72.9c-4.3 15.8-3.2 31.5.3 47.2-1.5-15.8-1.8-31.5-.3-47.2zm28.6 87.8c12-6.2 24.5-12.6 37.2-19-13.8 4.2-26.6 10-37.2 19zm-5.2-146.1c3-5.6 5.8-11.2 9-16.6 1.7-2.8 1.9-5.6 2.4-8.8-.3.3-.5.4-.5.6-4.8 7.3-8.5 15.1-11.5 23.3-.4.7-.3 1.2.6 1.5zm362 159.5c0 2-1 3.6.6 5.4 1.6 1.8.9 3-1.6 3.2-.4 3-.9 5.9-1.3 8.8 1.2-1.7 2.4-3.3 3.4-5.1 1.4-2.5 2.6-5.2 3.9-7.7.4-.8.3-1.2-.5-1.7-1.4-.9-2.8-1.9-4.5-2.9zm-139.9 41.2c.1 0 .3-.1.4-.1.8-4.6 1.6-9.2 2.4-13.9-2.1.7-4.2 1.4-6.2 2 0 .1 0 .2.1.3 1-.1 2-.1 3-.2v.3c-1 .4-2 .7-3.3 1.2 1.2 3.5 2.4 6.9 3.6 10.4zm34.3-296.2c-7 10.6-12.2 20.2-12.5 22.8 3.2-4.7 6.5-9.6 9.9-14.4 1.8-2.4 3-5.1 2.6-8.4zm-24.1 68.6c1.6-6.3 3.1-12.6 4.7-18.8-2.9 5.8-6.3 11.4-8.2 17.7 1.3.4 2.4.7 3.5 1.1zm141.8 29.6c.7-1.7 1.2-3.1 0-4.7-2.7-3.7-5-7.6-7.6-11.3-1.2-1.7-2.5-3.3-3.7-5-.2.1-.3.2-.5.3 4 6.9 7.9 13.8 11.8 20.7zm-154-123c12.3 2.5 24 6.7 35.9 11.7-11.1-7.5-23.3-10.4-35.9-11.7zM319.5 214c-.1-.2-.2-.4-.4-.6-4.2 2.6-8.3 5.3-12.5 7.9.7 0 1.3-.3 1.9-.5.2-.1.6.1.8.1-.1.3-.2.6-.4.7-.7.5-1.4.9-2 1.3 3.4-1.3 6.7-2.8 9.9-4.3 2.2-1 2.2-.9 2.1-3.4-.5.1-1.1.2-2 .3 1.1-.5 1.9-1 2.6-1.5zm-14.8 242c-.8-1.8-1.3-3.3-2.1-4.7-.8-1.3-2.1-2.3-2.9-3.7-4.3-7.3-6.5-15.4-8-23.7-.5-2.4-.8-4.9-1.2-7.6-1.4 10.2 6.8 33 14.2 39.7zm-40.5-124h-.3c-.9 4.2-1.8 8.4-2.7 12.7 1.6.7 3 1.3 4.5 1.9-.6-5-1-9.8-1.5-14.6zm339.6 87.3c0 11.2-3.3 22.1-2.3 33.3 1.9-11 2.7-22.1 2.3-33.3zm-89 3.6h-.2l-1.8 8.7c-.2.9-.5 1.6.4 2.3.3.2.3.9.2 1.4-.1.8-.4 1.7-.6 2.4.5 0 1.2-.3 1.7 0s.8.9 1 1.5c.2.4 0 .9 0 1.4h.5c-.3-5.9-.8-11.8-1.2-17.7zM230.9 297.6c1.9-3.1 3.8-6.3 5.9-9.3 1.1-1.7 2.1-3.3 1.9-5.5-.3.3-.6.5-.8.8-1.8 2.4-3.4 4.8-5.3 7.1-1.7 2-1.1 4.6-1.7 6.9zm260.8 285.8c-.1-.9-.1-1.6-.2-2.4-5.1 2.7-10 5.4-15 8 .1.1.1.2.2.3 4.9-1.9 9.9-3.9 15-5.9zm18.5-216.2c-.6-2.8-1.3-6.1-1.9-9.4-.5-2.3-1-4.7-2.6-6.6-.7-.9-1.3-1.8-2-2.7-.1.1-.2.1-.2.2 2.2 6.3 4.5 12.6 6.7 18.5zm-302.7-43.5c4-10.2 8.3-20.2 14.9-29-4 3.4-15.5 25.8-14.9 29zm41.3-57.3c-.1-.1-.3-.1-.4-.2l-8.3 8.3 1.3 1.3c1.9-2.2 3.9-4.4 5.8-6.7.7-.8 1.1-1.8 1.6-2.7zm243.4 62.5c-.2.1-.3.3-.5.4 3.6 4.2 7.2 8.5 10.6 13 0-.8.2-1.7-.2-2.2-3-3.6-6.2-7.2-9.3-10.8-.3-.1-.5-.2-.6-.4zm85.6 152.3c.8-2.8.8-2.8-1.3-4.1-1.2-.7-2.4-1.5-3.7-2.2-1.3-.8-2.6-1.5-3.9-2.2-.1.1-.1.2-.2.3 3 2.7 6 5.4 9.1 8.2zm-288.2 85.3c1.1-2.6 3.7-4.1 3.7-7.5-2.3 1.9-4.4 3.6-6.5 5.4 1 .8 1.8 1.4 2.8 2.1zm69.6-58.6c-.2.9-.2 1 .6 1.1 4.8.9 9.6 1.8 14.4 2.6.7.1 1.3.1 2 .1v-.2c-5.7-1.1-11.3-2.3-17-3.6zm208.5-221.7c-4.9-7.1-11.3-12.8-17.3-18.9-.1.1-.2.2-.3.2 5.9 6.3 11.7 12.5 17.6 18.7zM534 252.1l13.2 13.2.5-.5c-4.2-4.6-8.9-8.7-13.7-12.7zm-321.8 80.7c.1 0 .3.1.4.1 1.1-2.4 2.2-4.8 3.4-7.2.8-1.6.8-1.6-1.1-2.4-.9 3.2-1.8 6.3-2.7 9.5zm103.9 199 .1.1c.1-.1.3-.2.4-.3 2.5-3.3 4.9-6.7 7.4-10 .6-.9 1.5-1.7 1-3.1-3.1 4.4-6 8.9-8.9 13.3zm-17.5-91c-1.7-5.9-3.5-11.7-5.2-17.6.9 6.1 2.2 12.1 5.2 17.6zm-57.7-158.7c2.4-3.4 4.8-6.7 7.2-10-.1-.1-.2-.2-.3-.2-1.8 2-3.6 4-5.4 6.1-.9 1.1-2.2 2.2-1.5 4.1zm235.2-55c.1 0 .1 0 .2.1 1.2-1.8 2.4-3.5 3.7-5.3-2.1-1.2-3-1-3.3.6-.3 1.5-.4 3.1-.6 4.6zm87.8 66.4c-.5 2.4-1 4.5-1.5 7 3.6-2.8 3.9-3.8 1.5-7zm-242-76.8c2.5-.9 4.9-1.8 7.3-2.7.3-.1.4-.5.6-.8-.3 0-.7-.1-1 0-.8.4-1.6.8-2.4 1.3-1 .7-1.5.3-1.6-.8-3.4.8-2.7.4-2.9 3zM332.7 501c.1 0 .2.1.3.1 1.2-1.5 2.3-2.9 3.6-4.5-.9-.5-1.6-1-2.6-1.6-.5 2.1-.9 4.1-1.3 6zm-81.5-236.7c.1 0 .2.1.3.1l8.6-8.6c-.3 0-.5.1-.6.2-2.6 2.3-5.2 4.5-7.8 6.9-.3.3-.4.9-.5 1.4zm127.5-69.9c0 .2 0 .3-.1.5.6.1 1.3.3 1.9.3 2.8-.3 5.6-.8 8.3-1.2 1.2-.2 2.4-.4 3.6-.5v-.3c-4.6.4-9.1.8-13.7 1.2zm-95.8 40.7c-.1-.2-.3-.4-.4-.6l-12.9 9.6c.1.1.2.2.2.3 4.4-3.1 8.8-6.2 13.1-9.3zm116.2 374.1v-.4c-4.7-.4-9.5-.8-14.2-1.2v.5c4.8.3 9.5.7 14.2 1.1zm-49.3-104.3c0 .1-.1.2-.1.3 2.4 1 4.8 2 7.1 3l.3-.3c-.2-.4-.3-.9-.6-1-2.2-.8-4.5-1.4-6.7-2zm219.4-203.5c-.3-.4-.6-.8-1-1.3-1.3 1.2-2.2 2.3-2 4.2 1-1 1.9-1.9 3-2.9zm13.1 12.3c1.4 3 2.8 6 4.1 9-.8-3.3-1.7-6.5-4.1-9zm-385.5 62.7h-.5c-.2 3.4-.3 6.7-.5 10.1h.4c.3-3.3.5-6.7.6-10.1zM561 309.1c1.3-1.1 2.3-2 3.3-2.9-.2-.5-.3-.8-.6-1.4-1 1.4-2.5 2.3-2.7 4.3zM485.2 322c-.1.1-.2.2-.4.3l6.4 6.4c-.1-.4 0-.7-.1-.8-2-1.9-4-3.9-5.9-5.9zM328.3 209.7c-.1-.1-.1-.3-.2-.4-2 .4-5.5 2.4-5.7 3.2 2-.9 4-1.8 5.9-2.8zm184.6 181.9c-.1 2.4-.2 4.7-.3 7.1 1.4-2.3.7-4.7.3-7.1zm-187 127c.9-1.6 1.9-3.3 2.8-4.9-.1-.1-.2-.1-.3-.2-.9 1.7-2.7 2.8-2.5 5.1zm232.5-207.9c-1 .8-2 1.7-2.9 2.6l-2.7 2.7c1.8-1.9 4.4-2.9 5.6-5.3zM321.9 483.3l.1-.1-4.2-4.2-.1.1 4.2 4.2zm-25.1-120-.6-.3c-.5 1-.6 2.1-.5 3.3.4-1 .7-2 1.1-3zm-11.9-130.1c.1.1.2.3.3.4 1.1-.7 2.1-1.4 3.2-2.1-.1-.1-.1-.2-.2-.3-1 .7-2.2 1.3-3.3 2z" class="st5"/><path d="M370.8 513.9c3.5.5 6.9 1.2 10.4 1.4 4.9.4 9.8.4 14.7.6h.7c-1.3 5.3-1.4 10.7-1.4 16 0 2.6.2 5.3.3 7.9.2 3.1.4 6.3.6 9.4-.2 0-.3 0-.5.1.2-1.4.5-2.9.6-4.3.3-6.5.4-13 .8-19.4.2-3 .9-6 1.4-9 .1-.3.5-.8.8-.9 2.3-.3 4.7-.4 7.4-.6.2 3.2.7 6.4.7 9.6 0 5.5-.2 11-.3 16.5 0 2.3.1 4.6.2 6.9 0 .4.4.8.7 1.1.3-.4.8-.8.8-1.2.4-8.8.7-17.7 1-26.5.1-2.3-.2-4.5-.3-7.1 4.6-.5 9.2-.9 13.9-1.4 2.8-.3 5.6-.8 8.5-1.3 1.3 3.7 2.7 7.5 4.1 11.2.7 1.9 1.5 3.9 2.4 5.7 1.2 2.5 2.2 5 1.8 7.8 0 .4.3.9.5 1.6.4-.5.6-.8.9-1.1 1.2 2.8 2.4 5.5 3.6 8.2 3.9 8.5 8.5 16.6 13.9 24.2 1.9 2.7 4.1 5.2 6.2 7.8.1.1.3.3.3.4l5.1 11.4c-5.2 3.3-10.9 5.1-16.8 6.4-13.8 3-27.7 5.6-41.8 7-5.4.5-10.8.7-16.3.7.4-.2.9-.4 1.3-.6v-.3c-.4-.1-.9-.2-1.3-.2-7.3-.3-14.6-.6-21.9-1-6.8-.3-13.4-1.9-19.9-3.8-20.1-6-38.8-15-56.8-25.7-1.1-.7-2.2-1.4-3.2-2.1-.3-.2-.5-.5-.9-.9 1.1-1.6 2.2-3.2 3.5-4.7 4.5-5.6 8.2-11.7 11.6-18.1.3-.5.6-.9 1-1.3 3.9-4.2 7.7-8.5 11.6-12.7.8-.9 1.5-1.9 2.5-2.8-.3.7-.6 1.4-.9 2.2.1 0 .1.1.2.1.1-.2.3-.4.4-.7 1.2-3.3 3.5-6 5.4-8.9 2.4-3.6 4.6-7.3 7.1-11.1.4 7.9.8 15.6 1.1 23.4h.2c.1-1.3.2-2.5.2-3.8-.2-5.7-.3-11.4-.6-17.1-.1-2.9.3-5.7 1.7-8.4 1-1.9 1.8-3.9 2.7-6 .5.2.9.3 1.2.5-.2.5-.6 1.1-.5 1.4.1.4.7.7 1.2 1 .6.3 1.3.5 1.9.9.4.2.6.7.9 1.1.4.4.7.9 1.2 1.1 3.1 1.6 6.3 3.1 9.4 4.6.8.4 1.1.7.9 1.6-1.5 9.5-1.9 19.1-1.5 28.6 0 .5.4.9.6 1.4.3-.5.8-1 .7-1.5-.5-7.9 1.2-22.8 2.2-28.7.1 0 .2-.1.2-.1 3.8 1.4 7.8 2.5 11.7 3.5-.8.2-1.2.6-1.2 1.5.1 3.1.1 6.3.2 9.4.2 7.1.6 14.2-.8 21.3-.1.4.1.8.1 1.2.1 0 .3 0 .4.1.2-.4.5-.8.5-1.3.4-3.7 1-7.3 1.1-11 .2-6.6.2-13.1.2-19.7.2-.4-.2-.9-.5-1.5zm50.1 33.6c0-.5.1-.9.1-1.4 0-4.9.1-9.8.1-14.7 0-4.7-.2-9.3-.3-14 0-.2 0-.5-.1-.7-.3-.3-.8-.6-1.1-.9-.2.4-.7.8-.7 1.1.1 2.4.5 4.9.5 7.3.1 5.4.1 10.7.1 16.1 0 2 0 4.1.1 6.1 0 .4.3.7.5 1.1.1.1.5 0 .8 0zm7.9-28c-.4 0-.8-.2-.9 0-.3.3-.7.7-.7 1.1 0 2.4-.1 4.7.1 7.1.3 4.8 1 9.7.3 14.5-.1.4.3.8.5 1.2.3-.4.7-.7.8-1.1.2-2.7.5-5.3.5-8 0-4.5-.2-9.1-.3-13.6-.1-.4-.3-.8-.3-1.2zm-81.9 20.8c.2 0 .3-.1.5-.1-.1-2.5-.2-5-.4-7.5-.5-6.4-1.5-12.7-.9-19.1 0-.4-.5-.8-.7-1.3-.4.4-1 .7-1.1 1.1-.2.7-.2 1.6-.1 2.3l2.4 23.7c-.1.3.2.6.3.9zm36.6 11.5h.3c0-1.1.1-2.1.1-3.2.2-9.9-1-19.8.5-29.7.1-.4-.5-.9-.8-1.3-.3.4-.9.8-.9 1.2-.2 3.2-.4 6.4-.3 9.6.2 7.5.6 15 .9 22.5.1.3.2.6.2.9zM580.5 320.5c1.1 2.4 2.3 4.7 3.4 7.2 1.9 4.2 3.7 8.5 5.4 12.8.3.8.4 1.8.2 2.6-.6 2.3-1.4 4.6-2 6.9-.1.5-.1 1.5.2 1.6.9.4 1-.5 1.2-1.1.6-1.9 1.3-3.7 2-5.9.3.9.5 1.5.7 2.2 3.2 12.1 5.2 24.4 6.4 36.8 1.5 15.1 2.1 30.2 1.6 45.4-.2 6.7-1.5 13.4-2.7 20-1.9 10.6-5.1 20.7-9.4 30.8-2-1.5-4-2.8-5.9-4.3-.3-.2-.5-.9-.4-1.3.2-1.8.5-3.6.8-5.3.1-.7.2-1.6-.8-1.8-1-.2-1.4.5-1.5 1.3-.3 1.7-.5 3.3-.8 5.1-3.3-2.1-6.5-4.2-9.6-6.2-9.7-6.1-19.8-11.6-30.2-16.6-.7-.3-1.3-.9-2-1.4-.3-.2-.5-.6-.8-.6-2.7.1-4.8-1.7-7.2-2.5-3.5-1.3-7-2.8-10.5-4.3-.4-.2-.8-.8-.9-1.2-.5-8.3-1-16.5-1.5-24.8 0-.2-.1-.4-.1-.7 1.7.3 1.9-.7 1.8-2-.6-8.6-1.1-17.2-1.7-25.8 0-.6.2-1.1.6-1.7-2-4.4-1.1-9.2-1.9-13.8-.3-1.6-.7-3.2-1.1-4.8h-.5c-.3.8-.5 1.5-.8 2.3h-.2c-.5-2.9-1-5.9-1.5-8.8 1.6 1.7 2 4.1 3.6 5.6.2-.1.3-.1.5-.2-.1-.4-.1-.8-.3-1.2-1.4-3.1-2.9-6.2-4.3-9.4-.5-1.1-.7-2.3-1-3.4.5-.1 1-.1 1.2-.4.2-.2 0-.8-.2-1.1-.7-1.4-1.4-2.8-2.1-4.3.7-.4 1.4-.7 2.3-1.2 0 .7-.1 1.1 0 1.6 0 .3.3.5.5.8.2-.2.7-.5.7-.7-.3-2.2 1.2-2.9 2.8-3.6 2.8-1.4 5.6-2.9 8.5-4.3.6-.3 1.3-.3 1.8-.4.7-.6 1.2-1.2 1.9-1.5 4-2.3 8-4.6 12.1-6.9.3.3.6.7.9 1.1.2-.3.5-.4.5-.5-.1-1.7 1.2-2.2 2.3-3 5-3.6 9.9-7.2 14.8-10.8.1-.1.2-.1.5-.2-.8 4.8-2.8 9.1-4.9 13.3.1.1.2.1.3.2.2-.2.5-.3.7-.5 2.6-2.7 4-6.1 5-9.7.3-.9.6-1.8.7-2.7.1-2.7 1.9-4.1 3.8-5.6 1.7-1.4 3.3-3.1 4.9-4.7l2.7-2.7c-.3 4.2-.7 8-.9 11.8-.2 3.9-.3 7.8-.6 11.6-.3 3.7-1 7.5-1.3 11.2 3.2-10.6 2.6-21.7 4.7-32.8 1.9 3.3 3.6 6.2 5.3 9.2.2.3.2.8.2 1.2 0 6.5-.4 13-1.4 19.5-.2 1.3-.6 2.7-.8 4 .1.1.3.1.4.2.3-.4.6-.7.8-1.1 1.9-4.3 2.4-9 2.8-13.6.1-1.8.3-3.6.5-5.4-.5.5-.3.5-.2.5zM523.9 408c-.2-.1-.4-.1-.6-.2-.1.4-.3.9-.3 1.3.3 2.4.8 4.8 1 7.3.4 7.2.7 14.4 1.1 21.6.1 1.7.3 3.3.5 5 .2 0 .4 0 .6-.1-1.5-11.6 0-23.4-2.3-34.9zM217.6 325.4c3 1.4 6.4 4.1 6.4 5.1-1.2-.9-1.5-.2-1.6.8-1.1 7.5-2.1 15-3.4 22.5-1.4 8.5-3.1 17.1-4.6 25.6 0 .3-.2.6-.2.8.1.3.3.6.5 1 .3-.2.8-.4.9-.6.3-.8.4-1.6.5-2.4 3.1-14.1 5.3-28.3 7.2-42.6.2-1.8.8-3.5 1.3-5.5 1.7 1.2 3.4 2.2 5 3.3 1.9 1.3 3.7 2.5 5.6 3.8.7.5 1.4 1 0 1.5-.3.1-.6.7-.7 1.1-.5 3.7-1.2 7.4-1.5 11.1-.5 5.3-.6 10.7-2.6 15.8-.5 1.4-1.3 2.7-1.9 4-.2.4-.3.8-.5 1.2.1.1.2.2.4.3.3-.3.6-.5.8-.8 1.9-2.8 3.2-5.8 3.7-9.1.9-5.9 1.6-11.8 2.4-17.7.1-1 .4-2 .8-2.9.2-.5.7-.9 1-1.3.2-.4.4-.9.6-1.4 1.9 1.2 4.1 2.1 5.8 3.6 1.8 1.6 4.1 2 6 3.3 2 1.3 4.1 2.3 6.2 3.4 2.4 1.2 2.3 1.2 2.1 3.9-.3 4.8-.5 9.7-.8 14.5-.1.9.1 1.8 1.2 1.8 1.1 0 1.1-.9 1.2-1.8.3-5.3.6-10.6.8-16.1 2.3 1 4.4 1.9 6.4 2.9.3.1.5.6.6.9.3 1 .5 2.1.7 3.2.2 0 .4 0 .5-.1-.2-1.1-.3-2.2-.5-3.5 1.9 1.2 4.4.9 5.3 2.8.9.1 1.6 0 2.3.2 5.8 1.7 11.7 3.3 17.7 5.1-.4 2.1-.8 4.3-1.1 6.6-.4 2.3-.6 4.6-1 6.9-.2 1-.3 2.1-.6 3.1-2.1 6.8-3.8 13.6-4.1 20.7-.1 2.6-1 5.2-1.1 7.8-.4 8.8.9 17.5 3.9 25.8 0 .1.1.3.1.4-7.7 2.3-15.5 4.6-23.2 7-9.1 2.8-18.3 5.7-26.8 10-5.9 2.9-11.5 6.4-16.6 10.5-3.9 3.2-7.6 6.7-10.3 11-.1.2-.3.3-.7.7-1.5-3.4-2.9-6.6-4.3-9.8-4-9.9-5.7-20.3-6.9-30.8-1.5-12.9-1.7-25.8-.9-38.7.6-10 1.9-19.9 2.7-29.8.5-6.3 3.4-11.8 5.8-17.5 2.9-7 6.1-13.9 9.2-20.8.1-.4.2-.5.3-.8zm-9.9 69.3h.5c0-.5-.1-.9-.1-1.4-.6-8.7.4-17.3 1.6-25.8.9-6.1 1.7-12.2 2.6-18.4.1-.9 0-1.7-1-1.7-.9-.1-1.2.7-1.2 1.5v.6c-.2 3-.4 6.1-.6 9.1-.6 8.5-1.4 17-1.9 25.6-.3 3.5 0 7 .1 10.5zm36.7-49.7c-1.2-.1-1.3.6-1.3 1.4v13.7c0 .3 0 .6.1.8.1.2.3.5.4.5.2 0 .6-.2.7-.3.1-.4.2-.8.2-1.2v-7.4c0-2.4 0-4.9-.1-7.5zM367.4 291.7c-.7-3.4-1.2-6.8-2.2-10-2.2-7.1-4.7-14-7.1-21-2.5-7.2-5.2-14.4-7.7-21.6-.2-.4-.1-1 0-1.5 1.5-8.8 3-17.6 4.5-26.3.2-1 .6-1.5 1.6-1.7 2.4-.4 4.7-.9 6.9-1.3-2.4 11.6-4.7 23.1-7.1 34.7l.2.2c.2-.4.6-.8.7-1.3 1.3-5.3 2.7-10.6 4-16 1.3-5.5 2.7-10.9 3.9-16.4.3-1.3.9-1.9 2.2-1.9.6 0 1.1-.2 1.7-.6-.9 0-1.9 0-2.9-.1.2-.7.5-1.3.6-1.9 0-.3-.2-.9-.4-1-.2-.1-.8.1-1 .4-.4.8-.7 1.6-1 2.4l-7.8.6c-.4 0-.7-.3-1.1-.3-.4 0-.8 0-1.1.1-.6.2-1.2.7-1.8.8-4.7 1.1-9.5 2.2-14.3 3.4-1.1.3-1.7.1-2-1.1 12.8-4.6 26.1-7.5 39.4-10.1-.5 2.8-1 5.6-1.3 8.4-.6 5.6-.9 11.3-1.6 16.8-.5 4-1.5 7.8-2.4 11.8-.1.5-.2 1-.4 1.5.1.1.3.1.4.2l.6-1.2c1.9-5.3 2.7-10.8 3.3-16.4.7-6.6 1.3-13.1 3.1-19.5.4-1.5 1-2.2 2.6-2.4 2.9-.3 5.7-.8 8.7-1.3 0 .3 0 .5-.1.7-2.3 6-2.8 12.3-3.2 18.6-.4 6.8-.9 13.6-1.4 20.3 0 .4.1.8.2 1.2h.4c.1-.4.3-.8.3-1.1.5-6.3 1-12.6 1.6-18.9.6-6.5 1.3-13 3.9-19.1.2-.6.2-1.2.4-2.1 4.9-.1 9.9-.2 15.2-.3-2.7 6.8-3.9 13.7-4.5 20.7-.6 6.9-1.4 13.9-2 20.8.2 0 .3.1.5.1.1-.4.3-.7.4-1.1.9-6.8 1.8-13.6 2.8-20.3 1-6.5 2.5-12.8 5-18.9.4-.9.9-1.2 1.9-1.2 6.2.3 12.4.6 18.4.9.2.9.3 1.4.4 2-4.3-.6-8.6-1.2-13-1.8v.1c9.8 3 19.5 6 29.3 9-.8 4.2-1.5 7.9-2.1 11.8-1.3 8.7-1.9 17.5-2 26.3 0 .4.5.9.8 1.3.3-.5.9-.9.9-1.4.3-4.7.5-9.4.9-14.1.6-7.4 2-14.6 4-21.7.1-.2.1-.4.2-.7 2.9 1.1 5.7 2.2 8.5 3.3-.3 3.4-.7 6.8-1 10.2-.3 4.4-.4 8.8-.8 13.2-.3 2.9-.9 5.7-1.4 8.6-.1.4.2.9.3 1.4.3-.3.9-.7.9-1 .8-5 1.6-9.9 2.3-14.9.7-5.1 1.4-10.1 2.1-15.2 0-.3.2-.6.3-1.1 5.1 2 10.1 4 15.3 6.1-1.3 1.7-2.4 3.2-3.5 4.8-5.3 7.3-9.5 15.3-12.7 23.7-2.8 7.2-5.2 14.6-7.7 21.9-2.4 7.1-4.8 14.1-7.2 21.3-4.2-.8-8.5-1.6-12.9-2.4.1-.1.1-.2.2-.3-.5-.4-1-1-1.5-1.1-4.3-.5-8.7-1.5-13.1-1.3-9.7.4-19.4 1.3-29 2.2-4.2.4-8.2 1.6-12.4 2.4-2.3-.2-4.6.3-7.1.7zm52.5-87.8c-.3.6-.5.9-.6 1.2-.4 1.4-.8 2.7-1.1 4.1-1.4 7.1-1.6 14.3-1.6 21.5 0 5.8-.4 11.4-2.6 16.9-.1.1-.1.3-.1.4.1.2.2.5.3.7.2-.1.5-.2.6-.3.2-.2.3-.6.4-.9 2.8-7.4 3.6-15.3 4.1-23.1.4-5.5.6-11.1 2.2-16.4.3-.9.7-1.8.7-2.7 0-.5-.4-1.2-.8-1.5-.3-.1-1 .1-1.5.1zm12.6.8c-.2.5-.4.8-.4 1.1-.3 1.4-.7 2.8-1 4.2-1.1 6.5-2 12.9-3.2 19.4-.7 4-1.7 7.9-2.6 11.9-.1.4.2.8.3 1.2.3-.3.7-.5.8-.8 1-3.2 2.2-6.4 2.9-9.7 1.4-6.6 2.5-13.2 3.8-19.8.4-2 1.1-3.9 1.5-5.9.1-.5-.3-1.2-.7-1.5-.3-.3-.9-.1-1.4-.1z" class="st2"/><path d="M515.4 444.5c.2.5.7.9.7 1.4 0 2.5-.1 4.9 0 7.4 0 .5.4 1.4.8 1.4.9.2.9-.7.9-1.3.1-2.4.1-4.8.2-7.4.7.3 1.3.6 1.9.8.7.3.9.7.9 1.5-.2 5.1-.4 10.3-.5 15.4-.1 10.6-.1 21.1 0 31.7.1 6.6.3 13.2.6 19.7.4 7.9 1 15.9 1.5 23.8.3 3.8.6 7.6.9 11.3 0 .5.4.9.6 1.3.2-.5.6-1 .6-1.5-.7-10.6-1.7-21.2-2-31.9-.4-13-.5-26-.4-39 .1-9.9.8-19.8 1.3-29.7 0-.2.1-.4.1-.8 3.3 1.7 6.4 3.4 9.5 5.1.2.1.4.7.3 1-3.5 22-3.5 44.1-2.9 66.2.2 6.5.3 13 .4 19.4 0 .5-.1 1 .1 1.4.1.4.6.7.9 1 .2-.4.6-.7.6-1.1 0-2.2-.1-4.4-.1-6.7 0-14.1-.2-28.2.1-42.2.3-12.1 1.6-24.2 3.8-36.1.1-.3.2-.6.3-1.1 2.4 1.4 4.7 2.7 6.9 4.1.2.1.3.6.3.9-.6 9.6-1.3 19.1-1.8 28.7-.5 9.2-.8 18.3-.9 27.5-.1 6.2 1 12.2 2.3 18.3v.3l1 1c.1-.5.4-1 .4-1.4-.3-2.2-.8-4.4-1.1-6.5-1.2-8.1-1.3-16.3-.5-24.5 1-10.7 2.2-21.4 3.3-32.1.3-2.7.3-5.4.5-8 0-.5.1-1 .2-1.7 2.3 1.5 4.5 2.9 6.6 4.4.2.1.3.7.2 1-.6 5.8-1.2 11.7-1.8 17.5-1.3 13.5-2.7 27-2.4 40.6 0 .9 0 1.8.2 2.6.1.3.5.8.8.8.4-.1.7-.4 1-.8.1-.2.1-.5.1-.8-.4-13.3 1-26.4 2.8-39.5.9-6.3 1.7-12.5 2.6-19 1.9 1.4 3.6 2.9 5.5 4 2.2 1.3 2.3 3 2.2 5.4-.5 7.9-.6 15.9-.9 23.9-.1 3.9-.3 7.8-.5 11.7 0 .8 0 1.6.9 1.7 1.1.1 1.1-.8 1.1-1.5.3-7.7.6-15.4 1-23 .2-4.1.8-8.2 1.2-12.3 0-.4.2-.8.4-1.4 2.6 2.4 4.9 4.8 7.4 6.9 1.8 1.5 2.3 3.2 1.8 5.4-.6 2.7-.8 5.5-1.3 8.2-.2 1.1.1 1.8 1.6 2-1.3 2.1-2.5 4-3.8 5.9-3.2 4.4-6.3 8.8-9.7 13.1-2.3 3-4.8 5.8-7.4 8.6-4.9 5.4-9.8 10.8-14.8 16.2-3.8 4.1-8 7.6-12.8 10.5-8.1 5-16 10.3-24 15.4-.3.2-.5.3-1 .5-.4-3.6-1-7-1.3-10.4-.7-8.2-1.5-16.4-1.9-24.6-.4-8.6-.3-17.3-.3-26 0-13.7 1-27.3 2.4-40.9.2-2.3.4-4.5.6-6.8.1-1.6 0-1.7-1.4-2.2 2.7-5.6 5.4-11.2 8-16.7 1.8.1 2 1 1.9 2.3-.8 8.7-1.6 17.4-2.1 26.1-.7 12-1.2 24-1.4 36.1-.2 8.1.1 16.2.6 24.3.6 9.6 1.7 19.1 2.6 28.7 0 .4.3.9.4 1.3h.5c.1-.4.4-.8.4-1.3-.4-7.6-1.1-15.2-1.3-22.9-.3-9.9-.6-19.8-.5-29.7.1-9.3.5-18.7 1.1-28 .7-11.3 1.8-22.5 2.7-33.7 0-.3.1-.6.2-.9-.1-.2 0-.2.1-.3zM253.6 454.8c9.8-4.4 19.7-8.7 29.5-13.1 2.3-1 4.6-2.2 7.3-3.5 1 3 1.9 6 2.9 9h.1c0-.5 0-1.1-.1-1.7 1.3 1.6 1.4 3.2 1 5.1-.8 4.1-1 8.2-1.5 12.4-.9 8.6-1.9 17.3-2.8 25.9-1 9.7-2.1 19.4-3 29.1-.8 8.2-1.4 16.4-1.9 24.6-.4 5.7-.4 11.5-.6 17.2 0 .2.1.5.3.7.6-36.2 7-71.7 11.3-107.4.1 0 .3-.1.4-.1 1.7 2.7 3.4 5.3 4.8 7.6-.4 1.2-.9 2-.9 2.8-.7 8.9-1.3 17.7-2 26.6-.7 8.9-1.5 17.8-2.2 26.7l-2.1 26.7c-.2 2.9-.5 5.7-.4 8.6.1 2.4-.8 4-2.6 5.3-2.1 1.6-4.2 3.4-6.4 5.2-1.2-.9-2.4-1.8-3.5-2.8-2.1-1.8-4.3-3.6-6.4-5.6-.4-.4-.6-1.2-.6-1.8.6-17 2.4-33.8 5.6-50.5 3.2-16.8 6.3-33.5 9.4-50.3.4-1.9.6-3.9.9-5.9.2-1 0-1.9-1.1-2-1.1-.2-1.5.7-1.7 1.6-.4 2.1-.7 4.3-1.1 6.4-2.8 15.5-5.7 30.9-8.2 46.5-1.8 11-3.1 22.1-4.3 33.2-.7 6.7-.7 13.4-1 20.1v.5c-.1.1-.2.2-.4.3-2.3-2.3-4.7-4.6-6.9-7-.4-.4-.3-1.2-.4-1.9-.5-9.3-.2-18.5.6-27.7 1.8-18.5 6-36.6 9.2-54.8.8-4.2 1.4-8.5 2.1-12.7.2-1 .2-1.9-1-2.2-1.3-.3-1.7.5-1.9 1.7-1.5 9.5-3.1 19-4.6 28.6-1.6 10-3.2 20-4.4 30-1.5 12-2.2 24.1-1.3 36.2 0 .4.2.8.2 1.2h-.4l-7.8-7.8c-.4-.4-.4-1.1-.5-1.7-1-12.1-.2-24.1 1.7-36 2.1-13.3 4.4-26.6 6.6-39.9.3-1.6.5-3.3.7-4.9.1-.9 0-1.7-1-1.8-1-.1-1.3.6-1.4 1.5-1.7 12.2-3.5 24.4-5.3 36.6-1.6 10.9-2.7 21.9-2.7 32.9 0 3.7.2 7.5.3 11.4-.2-.2-.5-.3-.7-.5-2.8-3.2-5.7-6.4-8.5-9.7-.3-.3-.3-.9-.3-1.4.2-7.9 1.1-15.8 2.5-23.6 1.9-10.3 3.9-20.6 5.8-30.9.7-3.6 1.1-7.2 1.7-10.8.7-1.3 0-1.7-1-2.2zM318.4 221.2c-1.8 8.1-3.5 16.3-5.4 24.4-4.2 18.8-8.7 37.6-12.8 56.5-2.2 10.4-3.4 21.1-3.8 31.8-.1 3.5.2 7 .4 10.8.3-.4.4-.5.4-.6.5-7.7.6-15.4 1.5-23 .9-8 2.2-16 4-23.9 3.1-13.4 6.6-26.7 10-40 3-12.1 6.2-24.1 8.2-36.4.1-.9.5-1.4 1.3-1.7 2.5-.9 4.9-1.8 7.6-2.8-.3 1.7-.6 3.1-.9 4.5-4.2 18-8.5 36-12.6 54-3.2 13.9-5.8 27.9-7.4 42.1-.2 2.1-.4 4.2-.6 6.4 0 .4.3.9.4 1.4.3-.4.8-.9.8-1.3 1.1-7.9 1.9-15.8 3.2-23.6 2.8-16.9 7.2-33.4 11.5-50 2.6-10 5.1-20 7.7-30 .1-.2.1-.4.3-.8 1.6 3.6 3.2 7.1 4.7 10.6.2.4.1.9 0 1.3-5.7 23.5-9.7 47.3-13 71.2-.5 3.7-.9 7.4-1.4 11.1-.1.6-.4 1.2-.8 1.6-3.4 3.8-7 7.4-10.3 11.2-2.4 2.9-4.5 6.1-6.9 9.3.9-2.9 1.8-5.5 2.6-8.2-8.1 8.7-10.4 19.9-13.2 31-3.5-1.4-6.8-2.7-10.2-4.1-2.7-1.1-2.7-1.1-2.7-4.1 0-14.3.8-28.6 2.1-42.8 1.9-21.2 5.6-42.2 9.4-63.1.6-3.4 1.3-6.8 2-10.2.1-.6.7-1.3 1.2-1.6 1.8-1.1 3.7-2.1 5.8-3.3-.5 3-.9 5.7-1.3 8.4-2 14.1-4.2 28.2-5.9 42.4-1.4 11.9-2.3 23.9-3 35.9-.8 12.7-1.2 25.4-1.8 38.1 0 .2-.1.5 0 .7.2.4.4.7.6 1.1.2-.3.6-.7.6-1 .2-3.1.2-6.2.4-9.3 1-14.7 1.8-29.4 3.2-44 2.3-24.4 5.7-48.6 10-72.7.1-.5.4-1.2.8-1.4 2.1-1.1 4.2-2.2 6.3-3.1l6.6-3c.1.1.3.1.4.2z" class="st6"/><path d="M500.6 461.2c-.2 2.8-.4 5.3-.6 7.8-.3 5.7-.8 11.4-.9 17-.2 10.6-.4 21.3-.2 31.9.2 9.9.9 19.9 1.7 29.8.6 7.3 1.6 14.5 2.4 21.8 0 .5-.3 1.2-.6 1.4-3.4 2.1-6.8 4.2-10.2 6.2h-.4c-.2-2-.4-4-.5-6-1.1-16.7-2.2-33.4-2.1-50.2.1-12.7.8-25.3 1.2-38 .1-2.1.3-4.2.4-6.4.1-.6.2-1.2.5-1.7 2.9-4.4 5.8-8.8 8.8-13.2.1 0 .2-.1.5-.4zM512.9 238.1c4.2 1.6 7.2 4.8 10.3 7.6.3.3.5 1 .4 1.4-2.7 13-4.6 26.1-6.2 39.2-1.4 11.6-2.7 23.3-4 35-.7 5.8-1.3 11.7-2 17.5-.1.5-.3 1.1-.7 1.4-1.3.9-2.8 1.6-4.2 2.5-.8-1.4-1.5-2.8-2.4-4.1-.8-1.1-1-2.2-.9-3.5.6-9.9.9-19.8 1.8-29.6 1.4-14.7 3.2-29.3 4.9-43.9.9-7.9 2-15.7 3-23.5zM502.3 335.8c-4.3-2.6-6.4-7-9.8-10.3-.4-.4-.6-1.2-.6-1.9.3-8.3.5-16.7 1.1-25 1.6-21.9 6-43.4 10.9-64.8 0-.2.1-.3.3-.7 1.9 1 3.7 1.9 5.6 2.9.3.2.4.8.4 1.2-1.4 13.8-2.9 27.7-4.2 41.5-1 10.4-1.8 20.7-2.4 31.1-.5 8.1-.7 16.3-1 24.4-.2.6-.3 1-.3 1.6z" class="st6"/><path d="M480.1 584.2c-.7-6.4-1.5-12.4-1.8-18.4-.4-7.8-.5-15.6-.4-23.3.1-7.6.7-15.2 1.1-22.7.3-7 .7-14 1-20.9.2-4.1.3-8.1.4-12.2 0-.4.1-.9.4-1.1 1.7-1.6 3.5-3.2 5.6-5.1-1.4 1.7-2.5 3.2-3.6 4.6-.2.3-.2.8-.3 1.2.4-.2.9-.3 1.2-.7 1.4-1.7 2.7-3.4 4-4.9.1 1.7.2 3.4.2 5.1 0 11.2-.1 22.4 0 33.6.1 7 .4 14.1.8 21.1.4 7.7 1 15.4 1.5 23.1.3 4.4.7 8.8 1 13.1 0 .5-.2 1.2-.5 1.4-3.4 1.9-6.8 3.9-10.6 6.1zM492.7 227.6c3.1 1.5 6.1 3 9.1 4.5-6.2 30.4-11 60.8-10.4 92.1-.4-.4-.7-.6-1-.9-2.7-2.7-5.3-5.4-8-7.9-1.3-1.2-1.7-2.6-1.7-4.3.1-15.9 2.7-31.5 5.4-47 2.1-11.9 4.2-23.7 6.3-35.6.1-.3.2-.5.3-.9zM272.7 349.6c-1.8-.7-3.4-1.5-5-2.1-.9-.3-1.3-.9-1.4-1.8-.3-4.5-.9-8.9-1-13.4-.1-2.9.4-5.9.6-8.8 0-.4-.2-.8-.3-1.2-.2 0-.4.1-.5.1.3-5.6.4-11.3 1-16.9 1.2-12.1 2.5-24.3 3.8-36.4.7-6.2 1.6-12.4 2.1-18.6.2-2.7 2.2-3.6 3.8-5 1.7-1.5 3.6-2.7 5.7-4.1 0 .5 0 .8-.1 1.1-2.5 13.8-4.2 27.8-5.4 41.7-1.4 15.5-2.2 31.1-2.5 46.7-.1 5.9-.4 11.8-.5 17.6-.2.4-.2.7-.3 1.1zM253.6 454.8c-1.2 1.1-1.1 2.6-1.3 3.9-1.8 11.3-3.7 22.6-5.5 33.9-1.5 9.3-2.7 18.6-3.1 28.1 0 .2-.1.4-.2.8-2.9-3.7-5.7-7.2-8.4-10.8-.3-.4-.4-1-.4-1.5 1-12.6 3.8-24.9 7.2-37 .7-2.6 1.4-5.1 2.2-7.7.1-.3.2-.6.2-.8-.2-.5-.5-1.1-.8-1.2-.3-.1-1.1.4-1.2.7-.7 2.2-1.3 4.5-1.9 6.8-2.7 11.3-5.1 22.6-6.4 34.1-.2 1.4-.3 2.7-.5 4.4-1.6-2.2-3-4.1-4.3-6.1-.3-.5-.2-1.4-.1-2 1-8.2 1.9-16.4 3.2-24.6.7-4.2 2.3-8.3 3.5-12.5.1-.2.4-.5.6-.6 5.8-2.6 11.5-5.2 17.2-7.9zM303.3 464c1.5 2 2.7 3.7 4 5.3 1.7 2.1 3.5 4.1 5.3 6 1.3 1.4 1.9 2.7 1.4 4.8-3.2 12.7-5.9 25.5-7.5 38.5-1 7.7-1.3 15.6-2 23.3-.1.7-.2 1.4-.5 2-1.7 3.2-4.1 5.8-7 8.1-.8.7-1.6 1.4-2.6 2.3 1.7-30.2 6.2-60 8.9-90.3zM512.7 339c3.8-30.4 6.7-60.6 13.5-90.5l8.3 8.3c-.4 2.5-.8 5-1.3 7.4-2.3 11.9-4.7 23.7-6.8 35.6-1.9 10.3-3.1 20.7-2.8 31.3 0 .5-.4 1.1-.8 1.4-3.3 2.1-6.5 4.2-10.1 6.5z" class="st6"/><path d="M537.4 259.8c1.9 2.1 3.7 4 5.4 6l3 3.6c.2.3.4.9.3 1.3-2.8 12.9-4.6 26-5.7 39.1-.3 3.3-.6 6.5-.8 9.8-.1 1.6-1.4 1.9-2.3 2.5-3.7 2.8-7.6 5.5-11.4 8.3-.3.2-.6.3-1.2.6.2-3.4.2-6.6.5-9.7 1.1-13.8 4.6-27.1 7.8-40.4 1.6-6.7 2.8-13.5 4.2-20.3 0-.1.1-.3.2-.8zM260.2 261.8c-.3 4.7-.6 9.3-1 14-.7 8.3-1.5 16.7-2 25-.4 6.6-.7 13.2-.8 19.8-.1 7.3.6 14.5 1.8 21.7 0 .3.1.5.1 1-3.6-1.8-7-3.5-10.5-5.1-1.5-.7-2-1.5-1.9-3.1.7-11.4 1.2-22.9 2-34.3.7-9.1 1.7-18.2 2.6-27.3.1-.9.7-1.7 1.3-2.5 2.5-3 5-5.9 7.6-8.9.1-.2.3-.3.5-.4 0 0 .1.1.3.1zM469.4 574.9l-4.5-6.6c-1.9-2.9-3.8-5.8-5.7-8.8-.3-.5-.6-1.2-.6-1.8 0-10.6-.3-21.1.1-31.6.2-7.3 1.2-14.6 1.9-22 .1-1.4.5-2.8.5-4.3 0-1 .6-1.4 1.3-1.9 3.3-2 6.6-4 10-6.1-1.9 13.6-3.7 27.4-4.3 41.3-.8 14-.2 27.8 1.3 41.8zM279.9 352.6c-1.8-.7-3.4-1.4-5-2.1-.3-.1-.5-.6-.5-1 .2-5.9.3-11.9.6-17.8.2-5.6.6-11.2.9-16.8.5-7.3.9-14.6 1.6-21.9.6-7.6 1.2-15.3 2.2-22.9 1.3-9.9 2.9-19.8 4.4-29.7.1-.6.6-1.2 1.1-1.5 2-1.4 4.1-2.8 6.5-4.3-7.3 39.1-12.1 78.2-11.8 118zM481.7 229.4c.8-1.3 1.7-3 2.8-4.7.2-.3.8-.3 1.2-.4.1 0 .1.1.2.1 1.4.7 3.3 1 3.9 2 .6 1.1-.1 2.9-.3 4.4-2.4 16.2-4.9 32.5-7.2 48.7-1.4 9.9-2.2 19.9-2.3 30v1.9l-2.8-2.8c-1.5-1.3-2.9-2.7-4.5-3.9-1.1-.9-1.5-1.8-1.3-3.2.9-6.7 1.4-13.5 2.5-20.2 2.1-12 4.6-23.9 6.8-35.9.8-4.5 1.3-9 1.9-13.6 0-.5-.6-1.3-.9-2.4z" class="st6"/><path d="M479.6 584.4c-2.6 1.4-5.1 2.8-7.9 4.3-.9-2.2-1.8-4.3-2.7-6.3.1-.1.2-.1.3-.2l2.7 2.7c.7.8 1.6 1 2.4.4.8-.7.8-1.6.2-2.5-1.2-1.8-2.3-3.8-3.6-5.5-.6-.8-.5-1.5-.6-2.4-.1-1.9-.4-3.9-.6-5.8-1-9.9-1.3-19.8-.8-29.8.8-14.4 2.7-28.6 5.4-42.7.2-1 .3-2 .6-3 .4-1.3 0-2.2-1.5-2.6 1.3-1 2.5-1.9 3.3-2.5.2 2 .5 4.1.5 6.2-.3 10.9-.8 21.8-.9 32.8-.1 10-.1 20.1.4 30.1.5 8.8 1.8 17.5 2.8 26.3v.5zM339.4 234.6c.5 1 .8 1.8 1.2 2.5 1.3 2.7 2.7 5.4 4 8.2.2.5.3 1.3.1 1.8-5.5 17-9.3 34.4-12.4 52-.4 2-.5 4.1-.7 6.2 0 .5.2.9.3 1.7-2.6 2-5.4 4-8.3 6.3 3.1-26.7 9.1-52.6 15.8-78.7zM269.8 251.4c-.5 4.6-1.1 9.1-1.6 13.7-1.2 11.8-2.6 23.6-3.6 35.4-.6 7.4-.4 14.8-.7 22.2 0 .8-.4 1.7-.6 2.5-1 3.3-2 6.5-2.9 9.8-.5 1.9-.9 3.9-1.5 6-.3-2.2-.6-4.4-.8-6.6-.9-9.6-.8-19.1.1-28.7 1.3-12.9 2.6-25.7 3.9-38.6.2-2.4.3-4.9.5-7.3.1-.7.4-1.5.9-2 1.6-1.9 3.4-3.7 5.1-5.5l.9-.9c.1-.1.2-.1.3 0z" class="st6"/><path d="m346.6 249.4 5.2 10.4c.2.4.2.9.1 1.3-3.4 11.6-5.3 23.5-7.2 35.3-.2 1-.7 1.5-1.4 2.1-2.9 2.1-5.8 4.3-8.7 6.4-.5.4-1.1.8-1.8 1.3 3.4-19.3 7.2-38.3 13.8-56.8zM480.2 232.9c-1.2 8.1-2.4 16.2-3.7 24.3-1.7 10.3-3.5 20.6-5.1 31-.6 4.1-.8 8.2-1.1 12.3-.1.7-.1 1.4-.2 2.3-1.1-.7-2.1-1.3-3-1.9-.5-.3-.9-.7-1.4-.9-3.4-.9-3.3-3.3-3.1-6.2.8-9.8 3.1-19.4 5.4-28.9 1.7-6.9 3.2-13.8 4.9-20.7.4-1.4 1.4-2.6 2.2-3.9 1.5-2.5 3-5 4.5-7.6.3.1.5.2.6.2zM247.5 276.5l-3.6 59.7c-2.2-1.2-4.6-2.5-7-3.9-.3-.2-.5-.8-.5-1.2-.4-6.6-.3-13.1.5-19.7 1-7.8 2.1-15.5 3-23.3.2-2 1.5-3.3 2.5-4.8 1.7-2.3 3.4-4.5 5.1-6.8zM305.3 541.2c.3-3.9.6-7.8 1.1-11.7 1.4-12.4 4.7-24.3 7.8-36.3.9-3.6 1.7-7.2 2.5-10.8.1-.4.2-.9.4-1.4 1.7 1.5 3.2 2.9 4.7 4.4.3.2.3.8.2 1.2l-3.3 24.6c-.4 3.1-.6 6.3-.9 9.4-.1.8-.3 1.6-.7 2.3-3.8 6.2-7.6 12.3-11.5 18.4-.1 0-.2 0-.3-.1zm10.8-20.9c0-.2.1-.4.1-.6.1-8.9.3-17.8.4-26.7 0-.3-.2-.7-.3-1-.2 0-.4.1-.7.1-.5 9.4.9 18.8.5 28.2zM548.7 272.8c2.2 2.7 4.1 5 5.9 7.4.3.4.4 1.1.2 1.6-1.4 5.5-1.4 11.2-1.7 16.8-.1 2.8-.2 5.6-.2 8.5 0 1.9-.7 3.3-2.2 4.5-2.9 2.3-5.8 4.7-8.7 7.1-.3.2-.7.4-1.2.8 1.4-15.9 3.6-31.3 7.9-46.7zM454 502.3c1.4-.7 3-1.5 4.6-2.2-.5 9.5-1.1 19-1.3 28.4-.2 9.5.1 19 .2 28.6-1-2-1.9-4-2.8-6l-5.1-10.8c-.3-.6-.4-1.2-.4-1.8.7-11.4 1.7-22.7 4.8-33.7.2-.7 0-1.5 0-2.5zM228.2 500.8c-1.5-2.3-3-4.4-4.3-6.5-1.3-2-2.6-4.1-3.9-6.2-.4-.7-.5-1.3-.2-2.2 1.2-3.3 2.4-6.7 3.5-10 .4-1.2.5-2.4.7-3.7 0-.4-.3-1.1-.6-1.2-1-.3-.9.6-1.1 1.2-1.2 4.2-2.4 8.5-3.5 12.7 0 .1-.1.3-.3.6-1.8-3.2-3.5-6.3-5.4-9.7 6.9-4 13.7-8 20.5-12 .1.1.3.2.4.3-2 5.9-3.2 11.9-3.8 18-.9 6.2-1.4 12.3-2 18.7zM469.3 250.2c-3 15.7-7.4 31.1-8 47.2-3.1-1.3-6-2.5-9.3-3.9 1.3-4.7 2.7-9.6 4.1-14.4 1.2-4.1 2.7-8.1 3.9-12.3 1.1-3.8 3.6-6.9 5.4-10.4 1-1.9 2.2-3.7 3.3-5.5.2-.1.4-.4.6-.7zM237.9 290.3c-1.4 13.6-3.8 27-2.8 40.8-1.9-1.1-3.6-2.1-5.2-3.1-1.1-.6-2.1-1.4-3.1-2-.7-.4-1-.9-.8-1.8 1.3-6.9 2.5-13.9 3.9-20.8.3-1.5 1.3-2.8 2.1-4.1 1.6-2.7 3.4-5.4 5.1-8.1 0-.2.3-.4.8-.9z" class="st6"/><path d="M338.5 213.7c4.7-1.1 9.6-2.3 14.8-3.6-1.3 8.9-2.5 17.4-3.8 26.1-3.7-7.6-7.3-15-11-22.5z" class="st1"/><path d="M595.7 323.1c12 20.8 19.6 42.5 17.5 66.8-.2-2.2-.5-4.3-.7-6.5-1.9-17.6-6.9-34.3-14.5-50.3-.7-1.5-1.5-3-2.3-4.6-1-2.1-1-2.7 0-5.4z" class="st7"/><path d="M319.9 518.7c1-10.4 2.9-20.4 4.7-30.5 2.5 1.8 4.7 3.5 6.9 5.2.2.2.2.6.2 1-.4 3-.8 5.9-1.3 8.9-.2.8-.7 1.7-1.2 2.4-1 1.5-2.2 2.9-3.4 4.5-.3-5.3.7-10.2 2-15.1-.2 0-.4-.1-.6-.1-.2.4-.5.8-.6 1.2-1.2 4-1.5 8.2-1.4 12.3.1 1.8-.2 3.3-1.4 4.7-1.2 1.7-2.4 3.5-3.9 5.5zM447.9 536.7c-1.9-4.2-3.8-8.5-5.6-12.7-.2-.4-.1-.9-.1-1.3 1.1-5.3 2.1-10.7 3.3-16 .1-.4.6-.9 1-1.1 1.6-.8 3.3-1.4 5.1-2.2-2.4 11-3 22.1-3.7 33.3zM353.8 264c1.6 2.4 2.4 4.5 1.8 7.3-1.5 7-2.7 14-3.9 21.1-.1.8-.4 1.4-1.2 1.8-1.6.8-3.1 1.7-4.9 2.7 2-11.3 4.2-22.2 8.2-32.9zM243.3 530.6c-2.7-3-5.5-5.8-8.1-8.9-2.9-3.5-5.5-7.2-8.3-10.9-.5-.7-.9-1.4-1.5-2-.2-.2-.6-.2-1-.3 0 .3-.1.7 0 1 .3.6.7 1.1.9 1.8-1.3-1.6-2.7-3.2-4-4.9-4.7-6.3-9.1-12.9-12.9-19.9-.3-.5-.6-1.1-.8-1.6-1.4-2.6-1.4-2.6 1.1-4.8 1.5 2.6 3 5.1 4.5 7.6 1 1.7 2 3.3 3 4.9l.1.1c.9 1.4.7 3.2 2.6 4.4 1.5.9 2.3 3 3.3 4.6 1.1 1.6 2 3.2 3.1 4.7 2.4 3.4 5 6.7 7.3 10.2 1.4 2.1 3.2 3.8 4.7 5.8s3.2 3.9 4.8 5.9c.5.6.9 1.2 1.3 1.8.1.3 0 .4-.1.5zM215.3 317.8c-2.3-1.7-2.3-1.7-1.2-4.2 3.8-8.8 8.6-17.1 14.3-24.8 3.3-4.5 7-8.8 10.7-13 0 1.5.3 2.9-.8 4.3-1.8 2.1-3.3 4.4-4.9 6.7-.2.3-.4.5-.8.9 0-.5.1-.9 0-1.2-.1-.3-.4-.5-.6-.8-.3.2-.5.4-.8.7v.1c.1 3.7-2.1 6.4-3.9 9.2-4.6 6.9-8.4 14.3-11.7 21.9-.1 0-.1.1-.3.2zM557 283.5c1.8 2.6 3.5 5 5.1 7.4.2.3.1.8.1 1.1-.8 3.5-1.6 6.9-2.4 10.4-.1.5-.2 1-.5 1.4-1.7 1.8-3.4 3.5-5.4 5.1.8-8.5.6-17 3.1-25.4zM358.2 272.8c3.4 6.2 5.4 12.6 6.3 19.4-3.2.9-6.4 1.7-9.7 2.6-.1-.1-.1-.3-.2-.4 1.6-.7 3.3-1.5 4.9-2.2.5-.2 1.2-.3 1.6-.7.4-.3.5-.8.8-1.2-.5-.2-1.1-.7-1.5-.6-1.2.3-2.3.8-3.5 1.3-.9.4-1.9.8-3.1 1.2 1.6-6.5 3-12.8 4.4-19.4zM492.3 582.9c-.5-2.2-.5-2.1 1.4-3.3 11.5-6.8 22.8-13.7 33.7-21.4 2.1-1.5 4.2-2.9 6.4-4.4-3.3 5.3-33.1 26.1-41.5 29.1z" class="st6"/><path d="M593.7 484.5c-1.1-.9-1.9-1.7-2.9-2.4-.6-.4-.8-.7-.4-1.4 3.9-8.9 6.9-18 9-27.5 0-.1.1-.2.2-.5.2 6.1.3 12-1.9 17.7-.9 2.3-1.6 4.7-2.4 7-.4 1-.3 1.6 1.5 1.3-1.2 2.2-2.2 4.1-3.1 5.8zM211.4 335.4c-2.5 5.9-4.9 11.9-7.4 17.8h-.2c.2-1.7.4-3.3.6-5 .2-1.3.2-2.6.6-3.8 2.4-8 3.3-16.4 6.6-24.1h.1c1.9 1.3 2 2.8 1.2 5-1 2.6-1.6 5.4-2.2 8.1-.1.6.2 1.3.3 2 .2-.1.3 0 .4 0z" class="st7"/><path d="M565.1 520.6c-3.4 7.5-18.8 25.9-27.7 33.3 2.1-2.7 3.7-5.8 6.8-7.5.4-.2.8-1.2.7-1.7-.4-1-1.2-.5-1.9-.1-1.3.8-2.5 1.6-3.8 2.4 9.2-8.3 18.2-16.7 25.9-26.4zM588.4 484.9l3.6 1.8c-6.4 9.3-12.8 18.8-18.9 27.7.8-1.7 2.1-4 2.9-6.4 2-5.6 5.7-10.3 8.4-15.5 1.1-2.2 2.3-4.4 3.4-6.6.2-.3.4-.6.6-1z" class="st6"/><path d="M377.8 195.1c-.7.3-1.4.7-2.2.9-2.2.5-4.6.3-6.5 1.3-2.6 1.4-5.3 1.3-7.9 2.2-2.8.9-5.7 1.5-8.5 2.3-5.9 1.8-11.7 3.6-17.5 5.5-.5.1-1 0-1.5-.2 14.1-6.3 28.7-10.4 43.9-12.4.1 0 .1.2.2.4z" class="st5"/><path d="M228.5 305.6c-1 6.4-2.1 12.8-3.2 19.5-1.9-1.3-3.6-2.5-5.3-3.6-.2-.1-.2-.6-.1-.8 2.7-5.1 5.4-10.2 8.1-15.2.2 0 .3 0 .5.1z" class="st6"/><path d="M195.1 378.5c-1.5 15.7-1.2 31.5.3 47.2-3.4-15.7-4.6-31.4-.3-47.2z" class="st1"/><path d="M223.7 466.3c10.7-8.9 23.4-14.8 37.2-19-12.7 6.4-25.2 12.8-37.2 19zM218.5 320.2c-.9-.3-.9-.8-.6-1.6 3-8.2 6.8-16 11.5-23.3.1-.1.2-.3.5-.6-.5 3.2-.7 6.1-2.4 8.8-3.2 5.4-6 11.1-9 16.7zM580.5 479.7c1.7 1.1 3.1 2 4.6 2.9.7.4.9.9.5 1.7-1.3 2.6-2.5 5.2-3.9 7.7-1 1.8-2.3 3.4-3.4 5.1.4-2.9.9-5.9 1.3-8.8 2.5-.2 3.2-1.4 1.6-3.2-1.7-1.8-.8-3.5-.7-5.4zM440.6 520.9c-1.2-3.4-2.4-6.9-3.6-10.4 1.3-.5 2.3-.8 3.3-1.2v-.3c-1 .1-2 .1-3 .2 0-.1 0-.2-.1-.3 2.1-.7 4.1-1.3 6.2-2-.8 4.7-1.6 9.3-2.4 13.9-.2 0-.3 0-.4.1zM474.9 224.7c.3 3.3-.8 5.9-2.6 8.5-3.4 4.7-6.7 9.6-9.9 14.4.3-2.7 5.5-12.3 12.5-22.9zM450.8 293.3c-1.1-.3-2.2-.7-3.5-1.1 1.9-6.3 5.3-11.9 8.2-17.7-1.6 6.2-3.1 12.5-4.7 18.8z" class="st6"/><path d="m592.6 322.9-11.7-20.7c.2-.1.3-.2.5-.3 1.2 1.7 2.5 3.3 3.7 5 2.6 3.8 4.9 7.6 7.6 11.3 1.2 1.6.6 3-.1 4.7z" class="st7"/><path d="M438.6 199.9c12.7 1.3 24.8 4.2 35.9 11.7-11.9-5.1-23.7-9.2-35.9-11.7z" class="st5"/><path d="M319.5 214c-.7.5-1.5 1-2.6 1.7.9-.2 1.5-.3 2-.3.1 2.5.1 2.5-2.1 3.4-3.3 1.5-6.6 3-9.9 4.3.7-.4 1.4-.8 2-1.3.2-.2.3-.5.4-.7-.3 0-.6-.2-.8-.1-.6.2-1.2.5-1.9.5 4.2-2.6 8.3-5.3 12.5-7.9.2 0 .3.2.4.4z" class="st6"/><path d="M304.7 456c-7.5-6.7-15.7-29.5-14.3-39.6.4 2.8.8 5.2 1.2 7.6 1.5 8.3 3.7 16.3 8 23.7.8 1.3 2.1 2.4 2.9 3.7.9 1.3 1.4 2.8 2.2 4.6z" class="st7"/><path d="M264.2 332c.5 4.8 1 9.6 1.5 14.6-1.5-.6-2.9-1.2-4.5-1.9.9-4.2 1.8-8.5 2.7-12.7h.3z" class="st1"/><path d="M603.8 419.3c.4 11.2-.4 22.3-2.3 33.3-1-11.2 2.3-22.1 2.3-33.3z" class="st5"/><path d="M514.8 422.9c.4 5.9.9 11.8 1.3 17.7h-.5c0-.5.1-1 0-1.4-.2-.6-.5-1.2-1-1.5-.4-.2-1.1 0-1.7 0 .2-.8.5-1.6.6-2.4.1-.5.1-1.2-.2-1.4-.9-.7-.6-1.5-.4-2.3l1.8-8.7h.1z" class="st1"/><path d="M230.9 297.6c.5-2.3 0-4.9 1.7-6.9 1.9-2.3 3.5-4.7 5.3-7.1.2-.3.4-.5.8-.8.2 2.2-.8 3.8-1.9 5.5-2 3-3.9 6.2-5.9 9.3zM491.7 583.4c-5.1 2-10.1 4-15 6-.1-.1-.1-.2-.2-.3 5-2.7 9.9-5.3 15-8 .1.7.1 1.4.2 2.3z" class="st6"/><path d="M510.2 367.2c-2.2-5.8-4.5-12.1-6.8-18.4.1-.1.2-.1.2-.2.7.9 1.3 1.8 2 2.7 1.6 1.9 2.1 4.2 2.6 6.6.7 3.2 1.4 6.5 2 9.3z" class="st1"/><path d="M207.5 323.7c-.6-3.2 10.9-25.7 14.9-29-6.6 8.8-10.9 18.8-14.9 29zM248.8 266.4c-.5.9-1 1.9-1.6 2.6-1.9 2.3-3.8 4.5-5.8 6.7l-1.3-1.3 8.3-8.3c.2.2.3.3.4.3z" class="st6"/><path d="M492.2 328.9c.2.1.4.2.5.4 3.1 3.6 6.2 7.1 9.3 10.8.4.5.3 1.4.2 2.2-3.3-4.5-7-8.7-10.6-13 .2-.1.4-.2.6-.4z" class="st1"/><path d="M577.8 481.2c-3.1-2.8-6.1-5.5-9-8.3.1-.1.1-.2.2-.3 1.3.7 2.6 1.5 3.9 2.2 1.2.7 2.4 1.4 3.7 2.2 2 1.4 2 1.4 1.2 4.2zM289.6 566.5c-1-.7-1.8-1.4-2.8-2.1 2.1-1.8 4.2-3.4 6.5-5.4 0 3.4-2.6 5-3.7 7.5z" class="st6"/><path d="M359.2 507.9c5.6 1.2 11.3 2.5 16.9 3.7v.2c-.7 0-1.3 0-2-.1-4.8-.9-9.6-1.7-14.4-2.6-.7-.2-.7-.3-.5-1.2z" class="st5"/><path d="M567.7 286.2c-5.9-6.2-11.7-12.4-17.6-18.6.1-.1.2-.2.3-.2 6 6 12.4 11.7 17.3 18.8zM534 252.1c4.7 4.1 9.5 8.1 13.7 12.7l-.5.5-13.2-13.2zM212.2 332.8c.9-3.1 1.8-6.3 2.7-9.4 1.8.7 1.8.7 1.1 2.4-1.1 2.4-2.2 4.8-3.4 7.2-.1-.1-.3-.2-.4-.2zM316.1 531.8c2.9-4.4 5.9-8.8 8.9-13.4.5 1.5-.4 2.3-1 3.1-2.4 3.3-4.9 6.7-7.4 10-.1.1-.3.2-.4.3-.1.1-.1 0-.1 0z" class="st6"/><path d="M298.6 440.8c-3-5.5-4.3-11.5-5.2-17.6 1.7 5.9 3.5 11.8 5.2 17.6z" class="st7"/><path d="M240.9 282.1c-.7-1.9.6-3 1.5-4.1 1.7-2.1 3.6-4.1 5.4-6.1.1.1.2.2.3.2-2.4 3.3-4.8 6.6-7.2 10zM476.1 227.1c.2-1.5.3-3.1.6-4.6.3-1.6 1.3-1.8 3.3-.6-1.2 1.8-2.4 3.5-3.7 5.3 0 0-.1-.1-.2-.1zM563.9 293.5c2.4 3.3 2.1 4.3-1.5 7 .5-2.5 1-4.7 1.5-7zM321.9 216.7c.2-2.6-.5-2.2 2.9-3 .1 1.1.5 1.5 1.6.8.8-.5 1.6-.9 2.4-1.3.3-.1.7 0 1 0-.2.3-.3.7-.6.8-2.4.9-4.8 1.8-7.3 2.7zM332.7 501c.4-1.9.8-3.8 1.3-5.9.9.6 1.7 1.1 2.6 1.6l-3.6 4.5c-.1-.1-.2-.2-.3-.2zM251.2 264.3c.2-.5.2-1.1.5-1.4l7.8-6.9c.2-.1.4-.2.6-.2l-8.6 8.6c-.1 0-.2-.1-.3-.1z" class="st6"/><path d="M378.7 194.4c4.6-.4 9.2-.8 13.7-1.3v.3c-1.2.2-2.4.4-3.6.5-2.8.4-5.5.8-8.3 1.2-.6.1-1.3-.2-1.9-.3 0-.1.1-.2.1-.4z" class="st5"/><path d="M282.9 235.1c-4.3 3.1-8.7 6.2-13 9.3-.1-.1-.2-.2-.2-.3l12.9-9.6c0 .2.2.4.3.6z" class="st6"/><path d="M399.1 609.2c-4.7-.4-9.5-.7-14.2-1.1v-.5c4.7.4 9.5.8 14.2 1.2.1.1.1.2 0 .4zM349.8 504.9c2.2.6 4.5 1.3 6.7 2 .3.1.4.7.6 1l-.3.3c-2.4-1-4.8-2-7.1-3 0-.1.1-.2.1-.3z" class="st5"/><path d="m569.2 301.4-3 3c-.2-1.9.7-3.1 2-4.2.4.4.7.8 1 1.2z" class="st6"/><path d="M582.3 313.7c2.4 2.5 3.3 5.7 4.1 9-1.3-3-2.7-6-4.1-9z" class="st5"/><path d="M196.8 376.4c-.2 3.4-.3 6.8-.5 10.1h-.4c.2-3.4.3-6.7.5-10.1h.4z" class="st1"/><path d="M561 309.1c.3-2 1.8-2.9 2.7-4.2.2.5.4.9.6 1.4-1.1.8-2.1 1.7-3.3 2.8z" class="st6"/><path d="m485.2 322 6 6c.1.1.1.3.1.8l-6.4-6.4c0-.2.1-.3.3-.4z" class="st1"/><path d="M328.3 209.7c-2 .9-3.9 1.9-5.9 2.9.2-.8 3.7-2.8 5.7-3.2.1.1.2.2.2.3z" class="st6"/><path d="M512.9 391.6c.4 2.4 1.1 4.8-.3 7.1.1-2.4.2-4.7.3-7.1z" class="st1"/><path d="M325.9 518.6c-.2-2.3 1.6-3.4 2.5-5.1.1.1.2.1.3.2-.9 1.7-1.8 3.3-2.8 4.9zM558.4 310.7c-1.2 2.5-3.8 3.4-5.7 5.3.9-.9 1.8-1.9 2.7-2.7 1-1 2-1.8 3-2.6z" class="st6"/><path d="m321.9 483.3-4.2-4.2.1-.1 4.2 4.2s0 .1-.1.1z" class="st5"/><path d="M296.8 363.3c-.4 1-.8 2-1.1 2.9-.1-1.2 0-2.3.5-3.3.2.2.4.3.6.4z" class="st1"/><path d="M284.9 233.2c1.1-.7 2.2-1.3 3.3-2 .1.1.1.2.2.3-1.1.7-2.1 1.4-3.2 2.1-.1-.1-.2-.3-.3-.4z" class="st6"/><path d="M420.9 547.5c-.4 0-.7.1-.8 0-.2-.3-.5-.7-.5-1.1-.1-2-.1-4.1-.1-6.1 0-5.4 0-10.7-.1-16.1 0-2.4-.4-4.9-.5-7.3 0-.4.4-.7.7-1.1.4.3.8.5 1.1.9.1.1.1.4.1.7.1 4.7.3 9.3.3 14 0 4.9-.1 9.8-.1 14.7 0 .5 0 .9-.1 1.4zM370.8 513.9c.2.5.7 1 .7 1.5 0 6.6 0 13.2-.2 19.7-.1 3.7-.7 7.3-1.1 11 0 .4-.3.8-.5 1.3-.1 0-.3 0-.4-.1 0-.4-.2-.8-.1-1.2 1.4-7.1 1.1-14.2.8-21.3-.1-3.1-.1-6.3-.2-9.4-.2-.9.2-1.3 1-1.5.1 0 0 0 0 0zM428.8 519.5c.1.4.2.8.2 1.1.1 4.5.3 9.1.3 13.6 0 2.7-.3 5.3-.5 8 0 .4-.5.8-.8 1.1-.2-.4-.5-.9-.5-1.2.7-4.9 0-9.7-.3-14.5-.2-2.3-.1-4.7-.1-7.1 0-.4.4-.8.7-1.1.2-.1.6.1 1 .1zM346.9 540.3c-.1-.3-.4-.6-.4-.9l-2.4-23.7c-.1-.8-.1-1.6.1-2.3.1-.4.7-.7 1.1-1.1.3.4.8.9.7 1.3-.6 6.4.4 12.7.9 19.1.2 2.5.3 5 .4 7.5-.1 0-.2.1-.4.1zM383.5 551.8c0-.3-.1-.7-.1-1-.3-7.5-.7-15-.9-22.5-.1-3.2.1-6.4.3-9.6 0-.4.6-.8.9-1.2.3.4.9.9.8 1.3-1.5 9.9-.3 19.8-.5 29.7 0 1.1 0 2.1-.1 3.2-.2.1-.3.1-.4.1zM523.9 408c2.2 11.6.8 23.3 2.2 34.9-.2 0-.4 0-.6.1-.2-1.7-.4-3.3-.5-5-.4-7.2-.6-14.4-1.1-21.6-.1-2.4-.7-4.8-1-7.3-.1-.4.2-.9.3-1.3.3 0 .5.1.7.2z" class="st5"/><path d="M207.7 394.7c-.1-3.5-.4-7-.1-10.5.5-8.5 1.3-17.1 1.9-25.6.2-3 .4-6.1.6-9.1v-.6c0-.8.3-1.6 1.2-1.5 1 .1 1.2.8 1 1.7-.9 6.1-1.8 12.2-2.6 18.4-1.2 8.6-2.2 17.2-1.6 25.8 0 .5.1.9.1 1.4h-.5zM244.4 345v15c0 .4 0 .8-.2 1.2-.1.2-.4.3-.7.3-.1 0-.4-.3-.4-.5-.1-.3-.1-.5-.1-.8v-13.7c.1-.8.2-1.6 1.4-1.5z"/><path d="M419.9 203.9c.5 0 1.2-.3 1.6 0 .4.3.9 1 .8 1.5-.1.9-.5 1.8-.7 2.7-1.6 5.4-1.8 10.9-2.2 16.4-.6 7.8-1.4 15.6-4.1 23.1-.1.3-.2.6-.4.9-.1.2-.4.2-.6.3-.1-.2-.2-.5-.3-.7 0-.1.1-.3.1-.4 2.1-5.4 2.6-11.1 2.6-16.9-.1-7.2.2-14.4 1.6-21.5.3-1.4.7-2.8 1.1-4.1.1-.4.3-.7.5-1.3zM432.5 204.7c.5 0 1.1-.2 1.4 0 .4.3.8 1.1.7 1.5-.4 2-1.1 3.9-1.5 5.9-1.3 6.6-2.4 13.2-3.8 19.8-.7 3.3-1.9 6.5-2.9 9.7-.1.3-.5.5-.8.8-.1-.4-.3-.8-.3-1.2.8-4 1.9-7.9 2.6-11.9 1.2-6.4 2.1-12.9 3.2-19.4.2-1.4.6-2.8 1-4.2 0-.2.2-.5.4-1zM316.1 520.3c.4-9.4-.9-18.8-.4-28.2.2 0 .4-.1.7-.1.1.3.3.7.3 1-.1 8.9-.3 17.8-.4 26.7-.1.2-.2.4-.2.6z" class="st5"/><path d="M173.1 462.4H69.6c12.3-15.2 23.9-29.7 35.9-44.7C93.7 403 82 388.5 69.5 373H141c0-8.4.1-16 0-23.7-.1-3.1.6-4.7 3.9-5.2 33.1-5.8 66-12.7 99.2-17.4 30.7-4.3 61.7-7.6 92.7-9 36.9-1.7 73.9-2.1 110.8-.9 33 1 66 4.4 98.9 7.8 38.6 4.1 76.7 11.1 114.6 19.5 3.1.7 3.7 2 3.6 4.9-.1 8.2 0 16.4 0 25.3H737c-12.6 15.6-24.3 30.1-36.2 44.9 11.9 14.7 23.6 29.3 35.8 44.5H633.3c0-6.6-.2-13.2.1-19.8.2-4-.8-5.8-5-6.3-39-4.4-77.9-9.7-117-13.4-64.5-6.1-129.1-5.8-193.7-1.9-46.9 2.8-93.6 7.8-140.1 15.4-3.5.6-4.4 2-4.3 5.4-.1 6.2-.2 12.5-.2 19.3zm-28.8-22.2c172.7-31.5 344.8-31.5 517 0v-92.5c-1.5-.4-2.8-.9-4.1-1.2-63.3-13.8-127.3-22.7-191.9-26.1-60-3.2-119.9-1.9-179.6 4.2-45.6 4.6-90.8 11.8-135.7 21.6-4.4.9-6 2.4-6 7.3.2 26.9.1 53.9.1 80.8 0 1.7.1 3.4.2 5.9zm585.8 20.4c-11.4-14.2-22.3-27.8-33.3-41.4 11.1-13.8 22-27.2 33.1-41h-65.2v6.3c0 18 0 36 .1 54 0 3.2-.5 5.2-3.5 7.1-6.9 4.4-13.5 9.5-21.1 15h89.9zm-654-84.3c11.5 14.3 22.4 27.8 33.4 41.4-11.2 13.9-22 27.3-33.2 41.3h89.4c-7.8-5-14.3-9.5-21.1-13.6-2.7-1.6-3.6-3.3-3.6-6.5.2-18.7.1-37.4.1-56.1v-6.5h-65zm560.3 83c7.7-5.5 14.7-10.5 22.7-16.2-8.4-1.5-15.4-2.7-22.7-3.9v20.1zM169.7 439c-7.4 1.3-14.5 2.6-22.9 4.1 8.3 5.4 15.4 9.9 22.9 14.7V439z"/><path d="M173.1 462.4H69.5l35.9-44.7-36-44.7-.1-.1h71.6V350.1c0-1.5-.2-3.1.7-4.5.4-.6 1.1-1.1 1.8-1.3.7-.3 1.5-.4 2.2-.5l4.5-.8c12-2.1 23.9-4.4 35.9-6.6 12-2.2 23.9-4.4 35.9-6.4s24-3.8 36.1-5.3c24.1-3.1 48.3-5.5 72.6-6.9 24.3-1.2 48.6-1.9 72.9-1.9 24.3 0 48.6.5 72.9 2.1 24.3 1.6 48.5 4.1 72.6 6.7 24.2 2.6 48.2 6.4 72.1 11 11.9 2.3 23.8 4.7 35.7 7.3l4.5 1c.7.2 1.5.4 2.1.9.6.5 1 1.2 1.2 2 .2.8.1 1.5.1 2.3V374.3l-.1-.1h72.5l-.1.2-36.2 44.9v-.1l35.8 44.5.1.2H633v-.1c0-5.3-.1-10.6 0-15.9 0-1.3.1-2.7.1-4 0-1.3 0-2.7-.5-3.8-.6-1.2-1.9-1.8-3.1-2-1.3-.3-2.6-.3-3.9-.5-10.5-1.2-21.1-2.5-31.6-3.7-21.1-2.5-42.1-5.2-63.2-7.4-42.2-4.7-84.6-6.8-127-6.7-21.2 0-42.4.6-63.6 1.6-21.2 1-42.4 2.3-63.5 4.2-21.1 1.9-42.2 4.2-63.2 7-10.5 1.4-21 2.9-31.5 4.6l-3.9.6c-1.3.2-2.7.4-3.7 1.3s-1.2 2.4-1.2 3.6v4l-.1 15.7zm0 0-.1-15.9v-4c0-.7 0-1.3.2-2 .2-.6.5-1.3 1-1.7 1-.9 2.4-1.1 3.7-1.3l3.9-.6c10.5-1.7 21-3.2 31.5-4.6 21-2.8 42.1-5.2 63.2-7 21.1-1.9 42.3-3.2 63.5-4.3 21.2-1 42.4-1.6 63.6-1.6 42.4-.1 84.9 2 127.1 6.7 21.1 2.2 42.2 4.8 63.2 7.4 10.5 1.3 21.1 2.5 31.6 3.7 1.3.2 2.6.3 4 .5.7.1 1.3.3 1.9.7.6.3 1.1.9 1.4 1.5.6 1.2.6 2.6.6 4-.1 1.3-.1 2.6-.1 4-.1 5.3 0 10.6 0 15.9l-.1-.1h103.3l-.1.2-35.8-44.5-.1-.1.1-.1 36.2-44.9.1.2H664.5v-25.2c0-.8 0-1.5-.1-2.2-.1-.7-.5-1.4-1.1-1.9-.6-.5-1.3-.7-2-.9l-4.4-1c-11.9-2.6-23.8-5.1-35.7-7.3-23.9-4.6-47.9-8.4-72.1-11-24.2-2.6-48.4-5-72.6-6.7-24.3-1.7-48.6-2.1-72.9-2.1-24.3 0-48.6.7-72.9 1.9-24.3 1.3-48.5 3.7-72.6 6.8-12.1 1.6-24.1 3.3-36.1 5.3s-23.9 4.2-35.9 6.4-23.9 4.5-35.9 6.6l-4.5.8c-.7.1-1.5.2-2.2.5-.7.2-1.4.7-1.8 1.3-.8 1.3-.7 2.9-.7 4.4V373H69.5v-.1l36 44.7-35.9 44.7 103.5.1z" class="st5"/><path d="M144.3 440.2c85.2-15.6 171.8-23.7 258.5-23.7 86.6 0 173.3 8 258.5 23.6l-.1.1v-92.5l.1.1c-1.5-.4-3.1-.9-4.6-1.3l-4.7-1c-3.1-.7-6.2-1.3-9.4-2l-9.4-1.9-9.4-1.8c-12.5-2.4-25.1-4.6-37.7-6.6-25.2-4-50.6-7.2-76-9.5-50.9-4.7-102-6-153-4-51 1.9-101.9 7.4-152.3 15.9-12.6 2.1-25.1 4.5-37.7 7-6.2 1.3-12.5 2.5-18.7 4-1.5.4-3 1.2-3.7 2.7-.7 1.4-.7 3.1-.7 4.7v67.1c.1 6.3-.1 12.7.3 19.1zm0 0-.2-4.8c-.1-1.6 0-3.2-.1-4.8V401.8l-.1-38.3v-9.6c0-1.6 0-3.2.7-4.7.3-.7.9-1.4 1.6-1.8.7-.4 1.4-.7 2.2-1 6.2-1.5 12.5-2.7 18.7-4 12.5-2.5 25.1-4.9 37.7-7 50.3-8.6 101.2-14.1 152.3-16 51-2 102.2-.6 153.1 4.1 25.4 2.3 50.8 5.5 76 9.5 12.6 2 25.2 4.2 37.7 6.6l9.4 1.8 9.4 1.9c3.1.6 6.2 1.3 9.4 2l4.7 1c1.6.4 3.1.8 4.6 1.3h.1V440.3h-.1c-85.2-15.6-171.8-23.7-258.5-23.6-43.3 0-86.6 2-129.8 6-43.2 3.8-86.2 9.7-128.8 17.5z" class="st5"/><path d="m730 460.6-33.4-41.4 33-41 .1.1h-65.2l.1-.1.1 47.3v11.8c0 1.9.1 4-.9 5.8-.5.9-1.2 1.6-2 2.2-.8.6-1.7 1.1-2.5 1.6-6.6 4.3-12.8 9.2-19.2 13.7l-.1-.2 90 .2zm.1 0-90 .1h-.4l.3-.2c6.4-4.6 12.7-9.4 19.2-13.7.8-.6 1.7-1.1 2.5-1.6.8-.6 1.5-1.3 2-2.1 1-1.7.9-3.8.9-5.7V378.2H730l-.1.1-33.1 41v-.1l33.3 41.4zM76.1 376.3l33.4 41.4L76.3 459l-.1-.1h89.4l-.1.2c-6.7-4.3-13.3-8.8-20.1-12.9-.8-.5-1.7-1-2.5-1.7-.8-.6-1.4-1.5-1.8-2.4-.3-1-.4-2-.4-3v-15l.1-47.8.1.1-64.8-.1zm0 0 64.9-.1h.1v62.9c0 1 .1 2 .4 2.9.3.9.9 1.7 1.7 2.3.7.6 1.6 1.1 2.5 1.6 6.8 4.1 13.4 8.6 20.1 13l.3.2H76.2l.1-.1 33.2-41.3v.1l-33.4-41.5z" class="st5"/><path d="M636.4 459.3 659 443v.2l-22.7-3.9.1-.1v20.1zm0 0-.1-10c0-3.4-.1-6.7 0-10.1v-.1h.1l22.7 4h.2l-.2.1-22.7 16.1zM169.7 439l-22.9 4.1v-.1l22.9 14.7-.2.1.2-18.8zm0 0 .1 18.8v.2l-.2-.1-22.9-14.8-.2-.1h.2l23-4z" class="st5"/><path d="M144.3 440.2c-.1-2.5-.3-4.2-.3-5.9 0-26.9.1-53.9-.1-80.8 0-4.9 1.6-6.3 6-7.3 44.9-9.7 90.1-16.9 135.7-21.6 59.8-6.1 119.7-7.4 179.6-4.2 64.6 3.4 128.6 12.3 191.9 26.1 1.3.3 2.6.7 4.1 1.2v92.5c-172.1-31.5-344.2-31.5-516.9 0z" class="st1"/><path d="m144.3 440.2-.2-4.8c-.1-1.6 0-3.2-.1-4.8V401.8l-.1-38.3v-9.6c0-1.6 0-3.2.7-4.7s2.3-2.3 3.8-2.8c6.2-1.5 12.5-2.7 18.7-4 12.5-2.5 25.1-4.9 37.7-7 50.3-8.6 101.2-14 152.3-16 51-2 102.2-.6 153.1 4 25.4 2.3 50.8 5.5 76 9.5 12.6 2 25.2 4.2 37.7 6.6l9.4 1.8 9.4 1.9c3.1.6 6.2 1.3 9.4 2l4.7 1c1.6.4 3.1.8 4.6 1.3h.1V440.2h-.1c-85.2-15.6-171.8-23.6-258.5-23.6-43.3 0-86.6 2-129.8 5.9-43.2 4-86.2 9.9-128.8 17.7zm0 0c85.2-15.6 171.8-23.7 258.5-23.7 86.7-.1 173.3 8 258.5 23.6l-.1.1v-92.5l.1.1c-1.5-.4-3.1-.9-4.6-1.3l-4.7-1c-3.1-.7-6.2-1.3-9.4-2l-9.4-1.9-9.4-1.8c-12.5-2.4-25.1-4.6-37.7-6.6-25.2-4-50.6-7.2-76-9.5-50.9-4.7-102-6-153-4.1-51 1.9-101.9 7.4-152.3 15.9-12.6 2.1-25.1 4.5-37.7 7-6.2 1.3-12.5 2.5-18.7 4-1.5.4-3.1 1.2-3.7 2.7-.7 1.5-.7 3.1-.7 4.7v9.6l.1 38.3V421c0 6.4-.2 12.8.2 19.2z" class="st5"/><path d="M730.1 460.6h-90c7.7-5.5 14.2-10.6 21.1-15 3-1.9 3.5-4 3.5-7.1-.1-18-.1-36-.1-54v-6.3h65.2c-11.1 13.8-21.9 27.2-33.1 41 11 13.7 21.9 27.2 33.4 41.4zM76.1 376.3H141v6.5c0 18.7.1 37.4-.1 56.1 0 3.2.9 4.9 3.6 6.5 6.8 4.1 13.4 8.5 21.1 13.6H76.2c11.3-14 22.1-27.4 33.2-41.3-10.9-13.6-21.8-27.1-33.3-41.4z" class="st2"/><path d="M636.4 459.3v-20.1c7.3 1.3 14.3 2.5 22.7 3.9-8.1 5.7-15 10.7-22.7 16.2zM169.7 439v18.8c-7.5-4.8-14.6-9.4-22.9-14.7 8.4-1.5 15.5-2.8 22.9-4.1z" class="st8"/><path d="M215.9 407.7c.3 0 .5-.1.8-.1 0 .3.1.4.1.7-4.2.5-6.2.8-10.4 1.4 0-.3-.1-.4-.1-.6.3 0 .4-.1.7-.1.5-.1 1-.5 1.3-1.1.3-.7.4-1.4.2-2.2-2.3-11.9-4.6-23.7-7-35.6-2 11.6-3.8 23.1-5.6 34.7-.5 3-.7 5.5-.6 7.5-.2 0-.3 0-.5.1-6-12.6-12.1-25.2-18.2-37.7 1.1 11.7 2.1 23.4 3.2 35.1.1.8.3 1.4.8 2 .5.6 1 .8 1.5.8.3 0 .5-.1.8-.1 0 .3.1.4.1.6-3.7.6-5.6.8-9.3 1.4 0-.3-.1-.4-.1-.7.3 0 .5-.1.8-.1.9-.1 1.6-.7 2.1-1.6.5-.9.8-2.1.7-3.5-1.1-15.4-2.3-30.8-3.3-46.2.2 0 .3 0 .5-.1 6.7 13.6 13.4 27.3 19.9 41 2.4-15 4.9-29.9 7.4-44.8.2 0 .3 0 .4-.1 3.3 15.1 6.5 30.2 9.8 45.3.4 1.9 1.2 3.1 2.4 3.7.5.3 1 .4 1.6.3zM248.8 403.9h.4c0 .3 0 .4.1.7-3.9.4-5.9.6-9.8 1.1 0-.3 0-.4-.1-.7h.4c.6-.1 1-.4 1.3-1.1.3-.7.3-1.3.3-1.8-.1-.5-.2-1.1-.4-1.6-1.5-3.7-2.2-5.5-3.7-9.2-4.9.5-7.4.8-12.3 1.4-.6 3.8-.9 5.8-1.5 9.6-.1.6-.1 1.2 0 1.8.1.5.3 1.1.7 1.7.4.6.9.9 1.6.8h.4c0 .3.1.4.1.7-3.7.4-5.5.7-9.2 1.1 0-.3-.1-.4-.1-.7h.4c.7-.1 1.3-.5 1.9-1.3.6-.8 1-1.9 1.3-3.3 2.2-12.1 4.6-24.2 6.9-36.4.3-2.1.5-3.4.4-4.1.2 0 .3 0 .4-.1 5.6 12.5 11 25.1 16.4 37.7 1.2 2.6 2.5 3.9 4.1 3.7zm-23.5-13.5c4.4-.5 6.6-.8 11.1-1.3-3.1-7.6-4.6-11.4-7.7-19-1.4 8.1-2.1 12.2-3.4 20.3zM250.2 347.3h.5c2.6 3.2 3.9 4.8 6.6 8-.1.2-.1.4-.2.6-2.4-1.7-3.7-2.5-6.1-4.2-1.9 2.1-2.9 3.2-4.7 5.3-.1-.2-.2-.3-.4-.5 1.6-3.7 2.5-5.5 4.3-9.2zm1.6 56.3c.7-.1 1.3-.5 1.8-1.3.4-.8.6-1.7.5-2.8-1.1-11.3-2.3-22.5-3.4-33.8-.1-1.5-.7-2.6-1.7-3.2-.4-.3-.9-.4-1.4-.4-.2 0-.3 0-.5.1 0-.3 0-.4-.1-.7 3.9-.4 5.8-.6 9.7-1v.7h-.5c-.8.1-1.4.5-1.8 1.3-.5.8-.6 1.7-.6 2.8 1.1 11.3 2.2 22.6 3.3 34 .1 1 .5 1.9 1.1 2.6.6.7 1.2 1 2 .9h.5c0 .3.1.4.1.7-3.8.4-5.7.6-9.5.9 0-.3 0-.4-.1-.7.3-.1.4-.1.6-.1zM275.2 360.9c1 12.1 2 24.3 3 36.4.2 1.5.7 2.5 1.7 3.2.4.3.9.4 1.4.4h.5c0 .3 0 .4.1.7-4 .3-5.9.5-9.9.8 0-.3 0-.4-.1-.7.2 0 .3 0 .6-.1.8-.1 1.4-.5 1.9-1.3s.7-1.7.6-2.8c-1-12.1-2.1-24.2-3.1-36.4-3.6.3-5.4.5-8.9.8-.8.1-1.3.5-1.7 1.2-.4.8-.5 1.6-.4 2.6 0 .5.1.7.1 1.1-.2 0-.3 0-.5.1-.3-3.2-.5-4.9-.8-8.1.7.3 1.7.5 2.9.6 1.2.1 2.1.1 2.7 0 6.5-.6 9.7-.9 16.1-1.4 2.4-.2 4.2-.7 5.5-1.6.2 3.2.4 4.9.6 8.1h-.5c0-.5-.1-.7-.1-1.1-.1-1-.4-1.8-.9-2.5s-1.1-1-1.9-.9c-3.5.4-5.3.6-8.9.9zM299.5 359.2c-1 .1-1.6.1-2.6.2.8 12.1 1.7 24.2 2.5 36.3.1 1.5.7 2.6 1.6 3.3.4.3.9.4 1.4.4h.6c0 .3.1.4.1.7-3.9.3-5.9.4-9.9.7 0-.3 0-.4-.1-.7h.7c.7-.1 1.3-.5 1.8-1.2.5-.8.7-1.7.6-2.8-.8-11.4-1.6-22.7-2.4-34.1-.1-1.1-.4-1.9-1-2.6-.6-.7-1.3-1-2-.9-.3 0-.4 0-.7.1 0-.3 0-.4-.1-.7 5-.4 7.5-.5 12.4-.9 3.1-.2 5.6.7 7.5 2.6 1.9 2 3 4.6 3.2 8 .2 3.4-.4 6.2-1.7 8.5-1.3 2.3-3 3.7-5.2 4.2 1.1.6 2.5 2.4 4.1 5.4 0 0 .6 1 1.9 3.1 1.3 2 2.3 3.6 3 4.8.8 1.1 1.4 2 1.9 2.6 1.3 1.6 2.7 2.4 4.2 2.3v.7c-.6 0-.9 0-1.5.1-2.5.1-4.6-.5-6.1-1.9-1.1-1-2.2-2.3-3.2-3.9-.2-.4-1.1-2-2.8-4.9-1.6-2.9-2.5-4.4-2.6-4.6-2-3.1-3.7-4.6-5.2-4.5v-.7c3.8-.3 6.1-.7 6.8-1.3 1-.9 1.7-1.8 2-2.7.7-2 1-4.1.8-6.4-.2-2.9-.9-5.1-2.2-6.6-1.3-1.5-3-2.3-5-2.3-.6-.4-1.6-.4-2.8-.3zM323.8 398.1c.8 0 1.4-.4 1.9-1.2.5-.8.7-1.7.7-2.7-.6-11.4-1.1-22.8-1.7-34.2-.1-1.1-.4-1.9-1-2.6-.6-.7-1.3-1-2.1-1h-.7v-.7c5.8-.3 8.7-.4 14.5-.7 1.4-.1 2.5-.3 3.6-.6 1-.3 1.7-.6 2-.8.1 3.3.2 4.9.3 8.2-.2 0-.3 0-.5-.1v-1.1c0-1-.3-1.9-.8-2.6-.5-.7-1.1-1-1.8-1l-10.3.5c.4 7.3.5 11 .9 18.3 3.3-.2 5-.2 8.4-.4.7 0 1.1-.3 1.5-.9.3-.6.5-1.3.4-2.2v-.9h.5c.2 4 .2 6 .4 10.1h-.5v-.9c-.1-1.3-.4-2.2-1.1-2.7-.3-.1-.5-.2-.8-.3-3.4.1-5.1.2-8.5.4.4 7.3.5 11 .9 18.3 3-.1 4.5-.2 7.6-.3 1.5-.1 2.7-.5 3.7-1.3s1.7-1.7 2.2-2.8c.5-1.1 1-2.5 1.5-4.2h.5c-.9 4.2-1.4 6.2-2.3 10.4-7.8.3-11.7.5-19.6.9v-.7c-.2-.2-.1-.2.2-.2zM359.4 376.3c.1-.6.2-1 .3-1.6 5.9-.2 8.8-.2 14.7-.3.1.6.2.9.3 1.6-.1.7-.2 1-.3 1.7-5.9.1-8.8.2-14.7.3-.1-.7-.2-1-.3-1.7zM402.8 396.8H391v-.7h.6c.8 0 1.5-.4 2.1-1.3.6-.9.9-1.9.9-3.2 0-13.3-.1-26.7-.1-40 0-1.2-.3-2.3-1-3.2-.6-.9-1.4-1.3-2.2-1.3h-.6c0-.3 0-.4-.1-.7h9.9c3.4 0 6.1 1.1 8 3.3 1.9 2.2 2.8 5.1 2.8 8.8 0 2.9-.6 5.3-1.6 7.2-1.1 1.9-2.4 3.1-3.9 3.8 2.6.6 4.6 2.2 6.1 4.7 1.5 2.6 2.2 5.8 2.2 9.6 0 3.9-1.1 7-3.1 9.4-1.9 2.4-4.7 3.6-8.2 3.6zm-5-2.6h4.8c2.4 0 4.4-1 5.7-3 1.4-2 2.1-4.8 2.1-8.4 0-2.1-.2-3.9-.7-5.4-.5-1.6-1-2.8-1.8-3.7-1.9-2.3-4.7-3.5-8.5-3.5v-.6h.5c.3 0 .7 0 1.2-.1s1.1-.3 1.8-.5 1.2-.6 1.8-1.1c.5-.5 1-1.1 1.5-1.9 1-1.6 1.5-3.9 1.5-7.1 0-3.1-.6-5.6-1.8-7.4-1.2-1.8-3-2.7-5.4-2.7h-2.6c-.1 15.1-.1 30.3-.1 45.4zM447.2 396.9h.4v.7c-4-.1-5.9-.2-9.9-.3v-.7h.4c.6 0 1.1-.3 1.4-.9.3-.6.5-1.2.5-1.7 0-.6 0-1.1-.1-1.6-1-3.9-1.4-5.8-2.4-9.6-4.9-.1-7.4-.2-12.3-.3-1.1 3.7-1.7 5.6-2.8 9.3-.2.6-.3 1.2-.3 1.8 0 .6.1 1.2.5 1.8.3.7.8 1 1.4 1h.4v.7c-3.7-.1-5.5-.1-9.2-.1v-.7h.4c.7 0 1.4-.3 2.1-1 .7-.7 1.3-1.7 1.8-3.1 3.9-11.7 7.8-23.4 11.8-35.1.6-2 .9-3.3 1-4h.4c3.8 13.2 7.5 26.4 11.1 39.6.6 2.7 1.8 4.1 3.4 4.2zm-21.4-16.6c4.4.1 6.7.1 11.1.2-2-7.9-3-11.9-5-19.9-2.5 7.9-3.7 11.8-6.1 19.7zM450.4 397c.9 0 1.6-.3 2.3-1.1.7-.7 1-1.6 1.1-2.7.4-11.3.9-22.6 1.3-34 0-1.1-.3-2-.9-2.8-.6-.8-1.4-1.2-2.3-1.2h-.6v-.7c4.5.2 6.7.2 11.2.4v.7h-.6c-.9 0-1.7.3-2.4 1s-1.1 1.6-1.2 2.6c-.5 11.4-.9 22.8-1.4 34.2 0 1.1.3 2 .9 2.7.6.8 1.4 1.2 2.2 1.2h.6v.7c-4.4-.2-6.6-.3-10.9-.4v-.7c.3.1.4.1.7.1zM469.2 393.4c-2.7-4.2-3.9-9.7-3.6-16.7.3-6.9 2-12.4 5.2-16.3 3.1-3.9 7.1-5.7 11.8-5.5 4.7.3 8.6 1.9 11.7 5 .2 4.1.3 6.2.4 10.3h-.4c-.4-4.3-1.6-7.5-3.4-9.6-1.9-2.1-4.6-3.3-8.3-3.5-3.7-.2-6.7 1.5-9.2 5-2.5 3.6-3.8 8.5-4.1 14.8-.3 6.3.6 11.3 2.7 15.1 2.1 3.8 5.1 5.8 9.1 6 4 .2 7.5-1.7 10.6-5.6.3-3.8.4-5.7.7-9.6.1-.9-.1-1.6-.4-2.1-.4-.5-.9-.8-1.6-.9h-.7v-.7c3.6.2 5.4.3 8.9.6v.7h-.7c-1.5-.1-2.3.8-2.4 2.7-.2 3.4-.3 5.2-.6 8.6-1.5 2.4-3.5 4.4-6 6.1-2.5 1.7-5.3 2.5-8.3 2.3-5-.3-8.8-2.6-11.4-6.7zM536.5 360.7c-.7-.1-1.4.2-2 .9-.6.6-.9 1.5-1.1 2.5-.9 10.2-1.8 20.4-2.8 30.5-.3 2.8-.4 5.4-.4 7.9v1.3h-.4c-7.3-12.6-14.8-25-22.4-37.4-.7 10-1.5 20-2.2 29.9-.1 1.1.1 2 .6 2.7.5.8 1.1 1.2 1.8 1.2.3 0 .5 0 .8.1 0 .3 0 .4-.1.7-3.6-.3-5.5-.4-9.1-.7v-.7c.3 0 .5 0 .8.1.7.1 1.4-.3 2-.9.6-.7.9-1.5 1-2.6.7-10.2 1.5-20.5 2.2-30.7.2-2.9.3-5.5.2-7.9v-1.2c.2 0 .3.1.5.1 7.7 12.3 15.2 24.7 22.6 37.1.9-9.9 1.8-19.8 2.7-29.8 0-1-.2-1.9-.7-2.6-.5-.7-1.1-1.1-1.8-1.2-.3 0-.5 0-.8-.1 0-.3 0-.4.1-.7 3.7.3 5.6.5 9.4.8 0 .3 0 .4-.1.7h-.8zM538.2 402.8c.8.1 1.5-.2 2.1-.9.6-.7 1-1.6 1.1-2.6 1.1-11.3 2.2-22.7 3.3-34 .1-1.1-.1-2-.6-2.7-.5-.8-1.1-1.2-1.9-1.3-.3 0-.4 0-.7-.1 0-.3 0-.4.1-.7 5.8.6 8.7.8 14.4 1.5 1.4.1 2.6.1 3.6 0 1.1-.2 1.7-.3 2.1-.5-.4 3.3-.5 4.9-.9 8.2-.2-.1-.3-.1-.5-.1 0-.4.1-.6.1-1.1.1-1 0-1.9-.4-2.7-.4-.8-.9-1.2-1.7-1.3-4.1-.4-6.2-.7-10.3-1.1-.7 7.3-1.1 10.9-1.8 18.2 3.3.3 5 .5 8.3.9.6.1 1.2-.2 1.6-.7.4-.5.7-1.2.7-2.1 0-.4.1-.6.1-.9.2 0 .3 0 .5.1-.4 4-.6 6-1.1 10-.2 0-.3 0-.5-.1 0-.4.1-.6.1-.9.1-1.3-.1-2.3-.7-2.8-.2-.2-.5-.3-.8-.4-3.4-.4-5.1-.5-8.5-.9-.7 7.3-1.1 10.9-1.8 18.2 3 .3 4.5.5 7.6.8 1.5.2 2.8-.1 3.9-.7s2-1.5 2.6-2.5c.6-1 1.3-2.3 2.1-4 .2 0 .3 0 .5.1-1.5 4-2.3 6-3.8 9.9-7.8-.9-11.7-1.3-19.5-2 0-.3 0-.4.1-.7.2-.2.3-.1.6-.1zM598.3 367.7c-.3 0-.4-.1-.7-.1-.9-.1-1.6.3-2.2 1.2-.3.4-.4.9-.5 1.5-1.3 9.6-1.9 14.4-3.2 24.1-.7 4.9-2.2 8.7-4.8 11.3-2.5 2.6-5.6 3.7-9.3 3.2-3.7-.5-6.5-2.2-8.3-5.4-1.8-3.1-2.4-7.1-1.9-12.1 1.1-9.6 1.7-14.5 2.8-24.1.1-.9 0-1.6-.4-2.3-.4-.6-.9-1-1.6-1.1-.3 0-.4-.1-.7-.1 0-.3 0-.4.1-.7 3.8.4 5.6.6 9.4 1.1 0 .3-.1.4-.1.7-.3 0-.4-.1-.7-.1-.7-.1-1.3.2-1.8.7-.5.5-.8 1.2-.9 2.1-1.1 9.3-1.6 13.9-2.7 23.2-.5 4.6-.2 8.4 1.1 11.2 1.3 2.9 3.3 4.5 6.2 4.8 2.9.4 5.4-.6 7.4-2.9 2.1-2.3 3.4-5.6 4-10 1.3-9.6 1.9-14.4 3.1-24 .1-.9-.1-1.7-.4-2.3-.4-.6-.9-1-1.5-1.1-.3 0-.4-.1-.7-.1 0-.3.1-.4.1-.7 3.4.4 5.1.7 8.5 1.1-.2.5-.3.6-.3.9zM611.4 371.1c-1-.2-1.6-.2-2.6-.4l-5.1 36c-.2 1.5.1 2.7.9 3.5.4.4.8.6 1.3.7.2 0 .4.1.6.1 0 .3 0 .4-.1.7-3.9-.6-5.9-.8-9.8-1.4 0-.3.1-.4.1-.7.3 0 .4.1.7.1.7.1 1.4-.2 2-.8.6-.7 1-1.5 1.2-2.6 1.6-11.3 3.2-22.6 4.7-33.9.1-1 0-2-.4-2.8-.4-.8-1-1.2-1.8-1.3-.3 0-.4-.1-.7-.1 0-.3.1-.4.1-.7 5 .7 7.4 1 12.4 1.8 3.1.5 5.4 1.8 6.9 4.1s2 5.1 1.4 8.4c-.5 3.3-1.6 6-3.4 8-1.8 2-3.8 3-6 3 .9.8 1.9 2.9 2.9 6.1 0 0 .4 1.1 1.2 3.4.8 2.3 1.5 4 2 5.3.5 1.3.9 2.2 1.3 2.9.9 1.8 2.1 2.9 3.7 3.1 0 .3-.1.4-.1.7-.6-.1-.9-.1-1.5-.2-2.5-.4-4.4-1.4-5.6-3.1-.9-1.3-1.7-2.8-2.4-4.5-.1-.4-.7-2.2-1.7-5.4s-1.5-4.9-1.6-5.1c-1.3-3.4-2.7-5.3-4.2-5.5 0-.3.1-.4.1-.7 3.8.5 6.1.6 7 .1 1.2-.6 2-1.4 2.6-2.2 1.1-1.8 1.8-3.8 2.2-6.1.4-2.9.2-5.2-.8-7-.9-1.7-2.4-2.9-4.4-3.3-.9.1-1.9-.1-3.1-.2z" class="st9"/></svg>