<svg xmlns="http://www.w3.org/2000/svg" width="24" height="24" fill="none"><path stroke="currentColor" stroke-linecap="round" stroke-linejoin="round" d="M6.156 10.8a1.191 1.191 0 0 1 0 2.38 1.191 1.191 0 0 1 0-2.38v0ZM17.823 13.18a1.191 1.191 0 1 1 1.166-1.19 1.18 1.18 0 0 1-1.166 1.19v0ZM10.8 17.823a1.19 1.19 0 1 1 1.19 1.166 1.179 1.179 0 0 1-1.19-1.166v0ZM13.18 6.156a1.191 1.191 0 0 1-2.381 0 1.191 1.191 0 0 1 2.38 0ZM13.546 11.99a1.556 1.556 0 1 1-3.113 0 1.556 1.556 0 0 1 3.113 0v0Z" clip-rule="evenodd"/><path fill="currentColor" d="M5.677 10.656a.5.5 0 1 0 .959.286l-.959-.286ZM7.548 9.19a.5.5 0 1 0-.783-.621l.783.621Zm-.912 3.847a.5.5 0 1 0-.959.285l.959-.285Zm.129 2.374a.5.5 0 0 0 .783-.621l-.783.621Zm11.537-2.088a.5.5 0 1 0-.959-.285l.959.285ZM16.43 14.79a.5.5 0 0 0 .783.621l-.783-.621Zm.912-3.847a.5.5 0 1 0 .959-.285l-.959.285Zm-.129-2.374a.5.5 0 1 0-.783.621l.783-.621Zm-6.557 9.733a.5.5 0 1 0 .285-.959l-.286.959ZM9.188 16.43a.5.5 0 0 0-.621.783l.621-.783Zm3.847.912a.5.5 0 1 0 .285.959l-.285-.959Zm2.374-.129a.5.5 0 0 0-.621-.783l.621.783ZM13.322 5.677a.5.5 0 1 0-.285.959l.285-.959Zm1.468 1.871a.5.5 0 0 0 .621-.783l-.621.783Zm-3.847-.912a.5.5 0 1 0-.285-.959l.285.959Zm-2.374.129a.5.5 0 1 0 .621.783l-.621-.783Zm-1.933 4.177c.19-.637.5-1.232.912-1.753l-.783-.621c-.492.62-.861 1.33-1.088 2.088l.959.286Zm-.959 2.38a6.233 6.233 0 0 0 1.088 2.088l.783-.621a5.233 5.233 0 0 1-.912-1.753l-.959.285Zm11.666-.285c-.19.637-.5 1.232-.912 1.753l.783.621c.492-.62.861-1.33 1.088-2.089l-.959-.285Zm.959-2.38a6.233 6.233 0 0 0-1.088-2.088l-.783.621c.412.521.722 1.116.912 1.753l.959-.285Zm-7.36 6.686a5.234 5.234 0 0 1-1.753-.912l-.621.783c.62.492 1.33.861 2.088 1.088l.286-.959Zm2.38.959a6.232 6.232 0 0 0 2.088-1.088l-.621-.783a5.233 5.233 0 0 1-1.753.912l.285.959Zm-.285-11.666c.637.19 1.232.5 1.753.912l.621-.783a6.233 6.233 0 0 0-2.089-1.088l-.285.959Zm-2.38-.959A6.233 6.233 0 0 0 8.57 6.765l.621.783a5.234 5.234 0 0 1 1.753-.912l-.285-.959Z"/></svg>
