<svg width="32" height="32" fill="none" xmlns="http://www.w3.org/2000/svg"><path d="M15.606 28.781c-.143-.062-.287-.118-.425-.194-.55-.3-.731-.83-.762-1.4-.032-.45.025-.912.025-1.368 0-.1-.007-.244-.069-.288a2.84 2.84 0 0 1-1.094-1.393c-.206.062-.387.124-.581.168-.819.194-1.444-.381-1.337-1.212a.37.37 0 0 0-.075-.263 265.322 265.322 0 0 0-1.563-2.125.538.538 0 0 0-.262-.194c-1.488-.412-2.47-1.562-2.55-3.106-.038-.75.03-1.506.056-2.262 0-.031.006-.069.019-.1.218-.463.2-.925.1-1.419-.107-.55-.12-1.125-.182-1.681-.012-.088-.068-.225-.137-.244-.85-.269-1.388-.887-1.831-1.612A6.033 6.033 0 0 1 4.1 7.655C3.856 5.725 5.55 3.97 7.481 4.15c.094.006.194-.013.269.025.369.169.6 0 .894-.231 1.037-.825 2.194-.975 3.387-.394 1.188.581 1.8 1.581 1.769 2.912-.013.5-.163.994-.275 1.488-.063.262-.275.369-.488.294-.2-.069-.275-.263-.225-.513.088-.431.22-.856.244-1.294.05-.975-.55-1.868-1.456-2.268-.862-.382-1.919-.2-2.562.431.3.331.625.637.88.994.507.712.632 1.537.45 2.381-.13.606-.343 1.187-.53 1.806.375.369.968.438 1.48.094.245-.163.45-.388.657-.6.144-.144.287-.231.488-.15.243.1.287.387.093.625-.406.5-.887.894-1.543 1.063.03.55.062 1.087.093 1.643.769.075 1.438-.118 1.988-.656.156-.15.269-.344.412-.494.357-.368.719-.731 1.082-1.093.056-.057.125-.107.162-.175.975-1.813 1.944-3.632 2.925-5.444.231-.425.712-.419.944.012.944 1.731 1.887 3.456 2.806 5.2.131.25.294.419.5.588 1.119.887 1.762 2.043 1.844 3.475a27.6 27.6 0 0 1 .006 2.593c-.037 1.188-.531 2.182-1.394 2.994-.062.056-.131.107-.143.119l.506 1.506a.54.54 0 0 1 .037.219c-.043.412.207.594.538.75 1.044.494 2.143.619 3.281.519.313-.025.631-.088.919.106.544.369.506 1.119-.069 1.469-.944.575-1.962.994-3.05 1.187-1.025.181-2.069.288-3.112.4-.5.056-.576.106-.507.594.025.169.082.338.138.5.3.887-.094 1.65-1 1.919-.032.006-.063.025-.094.037h-.45c-.725-.187-1.094-.7-1.256-1.393a48.202 48.202 0 0 1-.232-1.1h-.712c.025.287.063.556.056.825-.006.268-.012.55-.094.8-.156.48-.568.7-1.012.868h-.519Zm5.988-8.694c-.332.125-.638.257-.95.363a.363.363 0 0 1-.481-.238c-.057-.187.037-.368.243-.462a.664.664 0 0 1 .119-.044c1.569-.537 2.519-1.843 2.544-3.5.012-.637.006-1.281 0-1.918-.006-1.226-.444-2.27-1.344-3.107-.238-.218-.456-.35-.844-.287-1.331.231-2.681.256-4.031.162-.544-.037-1.088-.131-1.631-.187-.094-.013-.225-.006-.281.056-.338.35-.682.7-.988 1.081-.5.619-1.119 1.056-1.912 1.163-.557.075-1.126.056-1.688.069-1.35.024-2.5.918-2.65 2.175-.087.756-.044 1.524-.006 2.287.019.419.231.794.487 1.125.563.713 1.294 1.05 2.207 1.05 2.718-.006 5.437 0 8.156 0 .093 0 .181-.006.275.006.244.025.387.163.381.375 0 .213-.137.35-.387.369-.082.006-.17.006-.25.006-1.432 0-2.863.006-4.294-.006-.225 0-.319.069-.375.281-.225.806-.163 1.619-.044 2.425.162 1.1.744 1.732 1.838 1.957.606.125 1.23.2 1.85.237a8.631 8.631 0 0 0 2.65-.237c.856-.22 1.506-.675 1.737-1.57a6.338 6.338 0 0 0 .137-2.3 3.235 3.235 0 0 0-.468-1.33ZM9.694 7.575c.025-.8-.188-1.413-.663-1.906-.606-.632-1.362-.9-2.218-.725-.894.181-1.513.725-1.832 1.587-.237.638-.143 1.263.044 1.881.256.838.631 1.613 1.306 2.2.632.544 1.263.557 1.875 0 .925-.837 1.325-1.937 1.488-3.037Zm12.462 17.338c.163-.013.269-.02.375-.032.113-.012.232-.031.344-.044 1.394-.162 2.744-.5 3.969-1.206.118-.069.206-.181.312-.275-.137-.019-.281-.056-.418-.044-.925.088-1.844.038-2.738-.225-.394-.112-.769-.274-1.169-.418-.062.781-.162 1.55-.675 2.244ZM9.375 10.45s-.019.013-.025.025c-.425.556-.9 1.037-1.6 1.244-.037.012-.087.081-.081.125.037.55.087 1.1.137 1.719.738-.744 1.588-1.07 2.569-1.082-.031-.537-.056-1.037-.094-1.543-.006-.05-.069-.12-.125-.144-.262-.119-.512-.225-.781-.344Zm10.462-2.038c-1.08.638-2.13 1.263-3.168 1.87 1.337.105 2.712.074 4.112-.132-.331-.606-.643-1.194-.944-1.738Zm-4.112 1.375c1.381-.556 2.612-1.218 3.719-2.118L19.075 7a13.527 13.527 0 0 1-2.694 1.694.273.273 0 0 0-.119.118c-.175.3-.337.607-.537.975Zm-.537 16.157c-.082.544-.094 1.075.056 1.594.094.33.4.53.712.493.319-.037.594-.293.588-.612-.006-.4-.063-.8-.1-1.2-.4-.094-.813-.181-1.256-.275Zm3.506.331c.05.506.137.988.375 1.425a.636.636 0 0 0 .768.294c.3-.1.513-.381.45-.688-.075-.4-.206-.794-.312-1.194-.413.057-.831.107-1.281.163Zm.037-19.919c-.206-.375-.381-.7-.575-1.056-.412.762-.793 1.475-1.181 2.181.019.019.037.031.056.05.556-.387 1.119-.775 1.7-1.175ZM12.425 22.2c.337-.156.637-.294.625-.738-.006-.268.075-.543.119-.818h-.982c.082.525.157 1.031.238 1.556Zm-1.894-1.581c.381.518.713.981 1.05 1.437.019-.006.038-.018.063-.025-.069-.437-.132-.875-.2-1.312-.007-.038-.075-.094-.113-.094-.25-.006-.487-.006-.8-.006Zm1.644 2.937c.369.1.619-.037.869-.15.025-.012.043-.056.043-.081a22.283 22.283 0 0 0-.062-.569c-.131.063-.231.1-.325.15-.056.032-.156.094-.15.132.012.243-.081.406-.375.518Z" fill="currentColor"/><path d="M10.863 16.413c.18 0 .368-.013.55 0 .393.024.73.274.762.656.031.381.025.787-.069 1.15-.168.618-.819.968-1.469.868a1.343 1.343 0 0 1-1.118-1.224 7.371 7.371 0 0 1-.007-.644c.02-.463.344-.788.807-.813.181 0 .362.007.543.007Zm.018.743c-.656 0-.656 0-.625.575.025.394.275.644.631.625.413-.019.588-.312.582-.956-.006-.45-.356-.156-.531-.244-.026-.006-.044 0-.057 0ZM17.456 24.637c-.706.013-1.25-.737-.968-1.406.28-.675.78-1.187 1.393-1.587a.73.73 0 0 1 .306-.094c.188-.025.32.069.382.25.062.188-.006.344-.169.425-.506.25-.837.669-1.137 1.125-.113.175-.15.344.037.481.15.113.306.044.462-.143.313-.375.632-.744.963-1.107.125-.137.294-.15.456-.05.163.1.219.263.144.431-.063.138-.169.263-.269.382-.244.287-.512.562-.75.862-.219.275-.494.4-.85.431ZM16.306 12.056c0 .069.006.132 0 .2-.025.213-.181.369-.375.357-.212-.013-.337-.138-.362-.344-.019-.125-.013-.25-.007-.375.013-.25.17-.413.382-.413s.356.169.368.419c-.006.056-.006.106-.006.156ZM18.794 12.056c0-.387.112-.562.362-.568.257-.007.388.193.382.58 0 .07 0 .132-.007.2-.037.213-.2.357-.387.345-.194-.013-.331-.163-.35-.382v-.175ZM10.175 14.425c-.013.181-.106.287-.294.294-.187.006-.3-.106-.306-.288-.006-.181.113-.3.294-.3.181-.006.293.1.306.294ZM12.131 14.412c-.012.188-.106.3-.293.307-.188.006-.3-.113-.307-.288-.006-.181.106-.3.294-.306.181-.006.281.106.306.287Z" fill="currentColor"/></svg>
