<svg width="32" height="32" fill="none" xmlns="http://www.w3.org/2000/svg"><path d="M4 12.606c.162-.268.306-.556.506-.787.131-.15.35-.219.563-.344-.056-.406.025-.825.331-1.175.306-.344.694-.487 1.137-.481.238-.888.9-1.294 1.738-1.163.438-.906 1.025-1.193 1.931-.918.388-.7.982-1.113 1.794-1.157.606-.031 1.131.182 1.569.607.837.818.931 2.362-.357 3.28.032.032.057.07.088.095 1.262 1.2 1.519 2.962.637 4.53-.187.338-.43.65-.687.945-.544.625-.356 1.818.363 2.218a3.832 3.832 0 0 1 1.893 4.15c-.331 1.6-1.712 2.85-3.344 3.025a3.823 3.823 0 0 1-4.093-2.7c-.3-.956-.594-1.919-.894-2.875-.075-.244 0-.412.213-.487.2-.063.362.018.443.262.288.913.588 1.825.85 2.744.413 1.425 1.594 2.369 3.019 2.387a3.175 3.175 0 0 0 3.088-2.356c.368-1.362-.213-2.893-1.494-3.506-1.188-.563-1.325-2.612-.525-3.387.719-.694 1.056-1.588.969-2.613-.075-.888-.513-1.569-1.232-2.081-.05-.032-.112-.069-.168-.063-.7.069-1.288-.168-1.794-.662-.363.293-.782.369-1.238.293-.243.694-.737 1.032-1.462 1.05-.131.582-.482.97-1.057 1.144.088.775-.224 1.319-.98 1.65.105.338.193.669.318.994.388 1.006.8 2.013 1.194 3.019.093.244.019.419-.188.5-.206.081-.362-.006-.462-.256a342.347 342.347 0 0 1-1.281-3.207c-.1-.269-.144-.556-.22-.831-.018-.075-.056-.188-.106-.206-.568-.169-.893-.569-1.056-1.119C4 12.95 4 12.781 4 12.606Zm8.05-2.462c.006-.019.019-.044.025-.063.706 0 1.281-.493 1.4-1.193.106-.657-.3-1.32-.95-1.532a1.386 1.386 0 0 0-1.669.675.39.39 0 0 0 .007.313c.143.287.23.594.15.9-.082.294.05.456.262.569.244.13.512.218.775.33ZM5.406 12.18a.688.688 0 0 0-.706.682.707.707 0 0 0 .688.712.717.717 0 0 0 .712-.694.701.701 0 0 0-.694-.7ZM9.65 9.725a.666.666 0 0 0 .619-.394.676.676 0 0 0-.107-.762c-.193-.219-.443-.281-.718-.213-.432.113-.588.538-.35.894.043.063.094.131.112.2.056.231.232.269.444.275Zm-2.506 1.5c0-.387-.3-.7-.688-.706a.711.711 0 0 0-.712.687c0 .188.037.35.25.419a.814.814 0 0 1 .293.188c.125.124.257.118.407.062a.713.713 0 0 0 .45-.65Zm1.493-1.175a.705.705 0 0 0-.562-.706.699.699 0 0 0-.787.437c-.057.157-.075.288.093.406.113.075.194.2.269.32.156.243.237.274.512.187a.685.685 0 0 0 .475-.644ZM22.656 10.394c-.462.075-.875.006-1.243-.294-.37.363-.788.6-1.294.656-.075.006-.163.031-.232.019-.318-.081-.53.1-.743.287-.913.813-1.219 2.107-.706 3.294.187.438.468.844.774 1.207.638.756.663 2.193-.012 2.918-.137.15-.325.269-.506.369-1.294.719-1.919 2.181-1.531 3.587a3.16 3.16 0 0 0 3.18 2.325c1.376-.056 2.52-1 2.92-2.393.262-.913.556-1.813.843-2.719.081-.262.244-.35.456-.275.2.069.288.231.22.444-.32 1.025-.62 2.056-.963 3.075-.581 1.725-2.306 2.756-4.163 2.531-1.712-.213-3.15-1.713-3.275-3.463-.119-1.58.519-2.806 1.857-3.643.612-.388.856-.881.75-1.607a1.352 1.352 0 0 0-.344-.724c-.75-.825-1.181-1.788-1.144-2.925.031-.95.394-1.75 1.069-2.42.056-.056.112-.106.181-.162-.844-.631-1.2-1.437-.881-2.444.25-.8.831-1.287 1.669-1.418.906-.144 1.562.193 2.206 1.112.806-.25 1.556 0 1.931.931.887-.093 1.4.225 1.694 1.044.018.056.093.113.156.119.956.119 1.413.675 1.35 1.681.056.025.119.05.181.075.55.225.9.744.888 1.332a1.378 1.378 0 0 1-.931 1.274c-.157.05-.213.126-.238.282a4.902 4.902 0 0 1-.244.9c-.387 1.006-.8 2.012-1.2 3.012-.025.063-.043.131-.081.194-.094.175-.244.238-.431.163-.181-.075-.275-.213-.206-.413.143-.406.28-.806.443-1.206.256-.644.531-1.281.781-1.925.12-.307.207-.632.307-.963-.731-.331-1.075-.856-.981-1.65-.394-.125-.763-.337-.9-.737-.12-.325-.288-.419-.613-.481-.494-.088-.819-.45-.994-.97Zm-2.775-.313c.375 0 .75-.156.994-.437a.41.41 0 0 0 .075-.282c-.056-.35-.044-.687.144-.993.081-.138.069-.238 0-.363a1.39 1.39 0 0 0-1.681-.644c-.638.225-1.032.875-.925 1.525a1.39 1.39 0 0 0 1.393 1.194Zm6.688 2.1a.698.698 0 0 0-.713.682.717.717 0 0 0 .694.712.707.707 0 0 0 .706-.694c0-.381-.3-.694-.687-.7Zm-4.281-2.456c.212 0 .4-.038.468-.288A.579.579 0 0 1 22.9 9.2c.144-.15.119-.306.044-.469a.719.719 0 0 0-.844-.369.702.702 0 0 0-.475.763.68.68 0 0 0 .663.6Zm2.518 1.494c.006.043.006.087.013.125.069.469.537.681.912.412.088-.062.194-.1.281-.168.07-.05.144-.12.163-.2.081-.282-.012-.525-.231-.707a.653.653 0 0 0-.744-.087c-.256.125-.381.344-.394.625ZM23.32 10.03c0 .381.312.707.694.694.087-.006.187-.081.25-.15.124-.131.243-.281.35-.431.05-.075.093-.175.08-.257a.674.674 0 0 0-.75-.55.688.688 0 0 0-.624.694Z" fill="currentColor"/><path d="M10.519 15.113c-.194-.094-.3.037-.438.2-.437.537-1.312.443-1.643-.157-.12-.212-.088-.406.08-.512.176-.113.363-.069.495.137.112.163.25.244.437.163.188-.088.219-.25.163-.432-.063-.2-.007-.362.18-.443.195-.088.345-.007.457.168.1.157.231.238.412.157.182-.082.232-.232.175-.425-.068-.256.02-.425.232-.481.193-.05.35.056.431.287.231.637-.262 1.338-.981 1.338ZM22.631 15.669c-.356-.013-.631-.144-.819-.425-.087-.131-.162-.163-.318-.144-.738.081-1.313-.681-1.032-1.369.088-.212.25-.306.438-.243.194.062.281.225.219.443-.056.2-.038.363.162.45.207.088.338-.018.444-.187.1-.157.25-.213.425-.138.181.082.25.225.194.419-.056.194-.05.369.15.456.2.094.337-.006.45-.175.125-.187.312-.231.481-.119.162.107.206.3.1.494a.982.982 0 0 1-.894.538ZM20.15 12.331c-.15.294-.256.55-.412.782a.259.259 0 0 1-.394.037c-.094-.088-.175-.263-.15-.369.05-.212.143-.431.275-.612.069-.094.262-.157.375-.132.112.032.2.182.306.294ZM12.844 12.887c-.106.113-.194.263-.306.288-.113.025-.307-.038-.376-.125a1.681 1.681 0 0 1-.28-.606c-.026-.113.062-.282.15-.375a.259.259 0 0 1 .393.037c.156.225.269.488.419.781ZM7.569 15.287c-.106.12-.175.244-.288.3a.302.302 0 0 1-.406-.124c-.106-.194-.225-.4-.269-.613-.025-.106.063-.3.157-.362.087-.057.318-.044.368.024.169.226.281.488.438.775ZM25.425 14.756c-.15.281-.262.544-.425.769-.05.069-.275.075-.375.025-.087-.044-.188-.231-.163-.313.076-.25.188-.493.332-.706.05-.075.262-.1.369-.069.1.038.162.182.262.294Z" fill="currentColor"/></svg>
