<?xml version="1.0" standalone="no"?>
<svg viewBox="0 0 200 200" xmlns="http://www.w3.org/2000/svg">
  <path fill="#FF0066" d="M34.9,-63C46.7,-53.7,58.7,-47.3,66.6,-37.2C74.4,-27.2,78.1,-13.6,78.3,0.1C78.6,13.9,75.4,27.8,67.3,37.3C59.1,46.7,45.9,51.7,33.8,60C21.8,68.4,10.9,80.2,-2.8,85C-16.4,89.8,-32.9,87.6,-47,80.4C-61.1,73.3,-72.9,61.1,-77.6,46.8C-82.4,32.6,-80.2,16.3,-77.4,1.6C-74.6,-13.1,-71.3,-26.1,-64.8,-37.4C-58.3,-48.6,-48.6,-58,-37.3,-67.6C-25.9,-77.2,-13,-87,-0.7,-85.8C11.6,-84.5,23.1,-72.3,34.9,-63Z" transform="translate(100 100)" />
</svg>
