<?xml version="1.0" standalone="no"?>
<svg viewBox="0 0 200 200" xmlns="http://www.w3.org/2000/svg">
  <path fill="#FF0066" d="M39.3,-65.7C53.5,-60,69.3,-54.5,79,-43.6C88.7,-32.7,92.3,-16.4,87.3,-2.9C82.2,10.5,68.4,21,59.5,33.4C50.7,45.9,46.9,60.2,37.8,70.2C28.7,80.2,14.4,85.9,0.6,85C-13.2,84,-26.5,76.4,-38.7,68.2C-50.8,59.9,-61.9,51,-66.2,39.6C-70.5,28.1,-68.1,14,-68.6,-0.3C-69,-14.6,-72.4,-29.2,-68.4,-41.2C-64.4,-53.2,-53,-62.7,-40.4,-69.3C-27.8,-75.9,-13.9,-79.7,-0.6,-78.6C12.6,-77.5,25.2,-71.5,39.3,-65.7Z" transform="translate(100 100)" />
</svg>
