<?xml version="1.0" standalone="no"?>
<svg viewBox="0 0 200 200" xmlns="http://www.w3.org/2000/svg">
  <path fill="#FF0066" d="M35.1,-64C45.3,-54.8,53.4,-45.2,60.5,-34.4C67.6,-23.7,73.8,-11.8,78,2.4C82.1,16.6,84.2,33.2,78.7,46.8C73.2,60.3,60,70.8,45.6,73.8C31.3,76.8,15.6,72.5,1.6,69.7C-12.4,66.9,-24.8,65.6,-39.2,62.6C-53.5,59.5,-69.9,54.7,-75.9,43.9C-81.9,33.2,-77.5,16.6,-77.3,0.1C-77.1,-16.4,-81.1,-32.8,-74.5,-42.3C-67.8,-51.8,-50.4,-54.5,-36.2,-61.3C-22,-68.2,-11,-79.3,0.7,-80.5C12.4,-81.8,24.8,-73.1,35.1,-64Z" transform="translate(100 100)" />
</svg>
