<?xml version="1.0" encoding="UTF-8" standalone="no"?>
<!DOCTYPE svg PUBLIC "-//W3C//DTD SVG 1.1//EN" "http://www.w3.org/Graphics/SVG/1.1/DTD/svg11.dtd">
<svg width="100%" height="100%" viewBox="0 0 200 200" version="1.1" xmlns="http://www.w3.org/2000/svg" xmlns:xlink="http://www.w3.org/1999/xlink" xml:space="preserve" xmlns:serif="http://www.serif.com/" style="fill-rule:evenodd;clip-rule:evenodd;stroke-linejoin:round;stroke-miterlimit:2;">
    <g transform="matrix(1,0,0,1,99.8499,108.049)">
        <path d="M34.9,-63C46.7,-53.7 58.7,-47.3 66.6,-37.2C74.4,-27.2 78.1,-13.6 78.3,0.1C78.6,13.9 75.4,27.8 67.3,37.3C59.1,46.7 45.9,51.7 33.8,60C21.8,68.4 10.9,80.2 -2.8,85C-16.4,89.8 -32.9,87.6 -47,80.4C-61.1,73.3 -72.9,61.1 -77.6,46.8C-82.4,32.6 -80.2,16.3 -77.4,1.6C-74.6,-13.1 -71.3,-26.1 -64.8,-37.4C-58.3,-48.6 -48.6,-58 -37.3,-67.6C-25.9,-77.2 -13,-87 -0.7,-85.8C11.6,-84.5 23.1,-72.3 34.9,-63Z" style="fill:rgb(255,0,102);fill-rule:nonzero;"/>
    </g>
    <g transform="matrix(-0.913171,-0.407577,-0.407577,0.913171,210.111,12.2088)">
        <circle cx="18.911" cy="56.642" r="7.844" style="fill:rgb(235,235,235);"/>
    </g>
    <g transform="matrix(-0.913171,-0.407577,-0.407577,0.913171,177.886,-22.8922)">
        <circle cx="18.911" cy="56.642" r="7.844" style="fill:rgb(235,235,235);"/>
    </g>
    <g transform="matrix(-0.756241,0.654294,0.654294,0.756241,9.2439,-10.1457)">
        <circle cx="18.911" cy="56.642" r="7.844" style="fill:rgb(235,235,235);"/>
    </g>
    <g transform="matrix(-0.752091,-0.335682,-0.335682,0.752091,196.882,-8.45583)">
        <circle cx="18.911" cy="56.642" r="7.844" style="fill:rgb(235,235,235);"/>
    </g>
    <g transform="matrix(-0.622843,0.538879,0.538879,0.622843,30.3714,-21.2308)">
        <circle cx="18.911" cy="56.642" r="7.844" style="fill:rgb(235,235,235);"/>
    </g>
    <g transform="matrix(-0.582799,-0.260122,-0.260122,0.582799,175.335,6.43836)">
        <circle cx="18.911" cy="56.642" r="7.844" style="fill:rgb(235,235,235);"/>
    </g>
    <g transform="matrix(-0.341833,-0.152571,-0.152571,0.341833,178.573,26.2399)">
        <circle cx="18.911" cy="56.642" r="7.844" style="fill:rgb(235,235,235);"/>
    </g>
    <g transform="matrix(-0.341833,-0.152571,-0.152571,0.341833,168.284,-1.13098)">
        <circle cx="18.911" cy="56.642" r="7.844" style="fill:rgb(235,235,235);"/>
    </g>
    <g transform="matrix(-0.283089,0.244926,0.244926,0.283089,24.8828,7.77586)">
        <circle cx="18.911" cy="56.642" r="7.844" style="fill:rgb(235,235,235);"/>
    </g>
    <g transform="matrix(-0.207831,-0.0927616,-0.0927616,0.207831,187.403,33.9137)">
        <circle cx="18.911" cy="56.642" r="7.844" style="fill:rgb(235,235,235);"/>
    </g>
    <g transform="matrix(-0.11012,-0.0491502,-0.0491502,0.11012,173.79,11.307)">
        <circle cx="18.911" cy="56.642" r="7.844" style="fill:rgb(235,235,235);"/>
    </g>
    <g transform="matrix(-0.091196,0.0789021,0.0789021,0.091196,38.4819,8.06171)">
        <circle cx="18.911" cy="56.642" r="7.844" style="fill:rgb(235,235,235);"/>
    </g>
    <g transform="matrix(-0.383718,-0.171266,-0.171266,0.383718,195.868,13.619)">
        <circle cx="18.911" cy="56.642" r="7.844" style="fill:rgb(235,235,235);"/>
    </g>
    <g transform="matrix(-0.538966,-0.240558,-0.240558,0.538966,166.026,154.905)">
        <circle cx="18.911" cy="56.642" r="7.844" style="fill:rgb(235,235,235);"/>
    </g>
    <g transform="matrix(-0.207831,-0.0927616,-0.0927616,0.207831,150.343,160.274)">
        <circle cx="18.911" cy="56.642" r="7.844" style="fill:rgb(235,235,235);"/>
    </g>
    <g transform="matrix(-0.383718,-0.171266,-0.171266,0.383718,168.904,151.189)">
        <circle cx="18.911" cy="56.642" r="7.844" style="fill:rgb(235,235,235);"/>
    </g>
    <g transform="matrix(-0.317775,0.274937,0.274937,0.317775,49.9351,-10.955)">
        <circle cx="18.911" cy="56.642" r="7.844" style="fill:rgb(235,235,235);"/>
    </g>
</svg>
