<svg xmlns="http://www.w3.org/2000/svg" fill="none" viewBox="0 0 24 24">
  <path stroke="currentColor" stroke-linecap="round" stroke-linejoin="round" d="M6.001 8.231c.271-.273.614-.465.988-.554a1.855 1.855 0 0 1 1.091.07c.34.13.629.365.826.671.2.312.298.677.283 1.046a2.02 2.02 0 0 1-.355 1.068c-.218.32-.52.572-.874.73a1.93 1.93 0 0 1-1.1.146 1.741 1.741 0 0 1-.952-.488A1.781 1.781 0 0 1 5.4 9.595a2.045 2.045 0 0 1 .601-1.364ZM15.698 17.969c.273-.273.464-.616.552-.992a1.878 1.878 0 0 0-.07-1.1 1.721 1.721 0 0 0-1.706-1.108 2 2 0 0 0-1.063.357c-.319.219-.572.52-.73.874a1.951 1.951 0 0 0-.146 1.1 1.739 1.739 0 0 0 1.8 1.467c.514-.02 1.001-.233 1.363-.598v0Z" clip-rule="evenodd"/>
  <path fill="currentColor" d="M11.348 7.301a.5.5 0 1 0-.07.998l.07-.998Zm4.375 5.353a.5.5 0 1 0 .996-.09l-.996.09Zm-2.971-8.146a.5.5 0 1 0-.175.984l.175-.984Zm5.732 6.774a.5.5 0 1 0 .98-.196l-.98.196ZM6.399 8.534a.5.5 0 0 0-.795-.606l.795.606ZM5.02 10.518l-.494-.078a.498.498 0 0 0-.004.04l.498.038Zm2.366 6.06.368-.34a.481.481 0 0 0-.026-.025l-.342.365Zm6.035 2.376.038.499a.527.527 0 0 0 .041-.005l-.079-.494Zm2.584-.588a.5.5 0 1 0-.611-.792l.61.792ZM11.278 8.299a4.8 4.8 0 0 1 4.445 4.355l.996-.09A5.8 5.8 0 0 0 11.35 7.3l-.07.998Zm1.299-2.807a7.334 7.334 0 0 1 5.907 5.79l.98-.196a8.334 8.334 0 0 0-6.712-6.578l-.175.984ZM5.604 7.928a5.581 5.581 0 0 0-1.077 2.512l.988.156A4.58 4.58 0 0 1 6.4 8.534l-.795-.606ZM4.523 10.48a8.019 8.019 0 0 0 2.523 6.463l.683-.73a7.02 7.02 0 0 1-2.21-5.658l-.996-.075Zm2.497 6.437a7.954 7.954 0 0 0 6.44 2.536l-.075-.998a6.954 6.954 0 0 1-5.63-2.216l-.735.678Zm6.481 2.53a5.538 5.538 0 0 0 2.505-1.081l-.611-.792c-.6.462-1.305.767-2.052.886l.158.988Z"/>
</svg>
