<svg xmlns="http://www.w3.org/2000/svg" fill="none" viewBox="0 0 24 24">
  <path stroke="currentColor" stroke-linecap="round" stroke-linejoin="round" stroke-width=".75" d="M5 12.954A4.093 4.093 0 0 0 9.14 17h2.006a2 2 0 0 1 1.444.618l1.069 1.118a.9.9 0 0 0 1.281 0L16.6 17l.545-.608c.1-.109.21-.21.327-.3A4 4 0 0 0 19 12.954v-4.91A4.093 4.093 0 0 0 14.86 4H9.14A4.093 4.093 0 0 0 5 8.044v4.91Z" clip-rule="evenodd"/>
  <path fill="currentColor" d="M15.348 12.184a.375.375 0 1 0-.696-.28l.696.28Zm-1.232 1.066.237.291.001-.001-.238-.29Zm-4.252-.03-.243.285.002.002.241-.288Zm-.514-1.354a.375.375 0 0 0-.7.269l.7-.27ZM9.375 8a.375.375 0 1 0-.75 0h.75Zm-.75 1a.375.375 0 0 0 .75 0h-.75Zm6.75-1a.375.375 0 0 0-.75 0h.75Zm-.75 1a.375.375 0 0 0 .75 0h-.75Zm.027 2.904a2.652 2.652 0 0 1-.774 1.057l.476.579a3.4 3.4 0 0 0 .994-1.356l-.696-.28Zm-.773 1.056a2.961 2.961 0 0 1-3.774-.028l-.482.575a3.711 3.711 0 0 0 4.73.034l-.474-.581Zm-3.772-.027a2.643 2.643 0 0 1-.757-1.067l-.7.269c.204.53.538 1.002.971 1.37l.486-.572ZM8.625 8v1h.75V8h-.75Zm6 0v1h.75V8h-.75Z"/>
</svg>
