<svg xmlns="http://www.w3.org/2000/svg" width="24" height="24" fill="none"><path stroke="currentColor" stroke-linecap="round" stroke-linejoin="round" d="M5 7.737v8.526A1.743 1.743 0 0 0 6.75 18h10.5A1.743 1.743 0 0 0 19 16.263V7.737A1.743 1.743 0 0 0 17.25 6H6.75A1.743 1.743 0 0 0 5 7.737Z" clip-rule="evenodd"/><path fill="currentColor" d="M19 10.605a.5.5 0 0 0 0-1v1Zm-14-1a.5.5 0 0 0 0 1v-1Zm7.875 4.079a.5.5 0 0 0 0-1v1Zm-7.875-1a.5.5 0 1 0 0 1v-1Zm11.375 1a.5.5 0 0 0 0-1v1Zm-.875-1a.5.5 0 1 0 0 1v-1ZM19 9.605H5v1h14v-1Zm-6.125 3.079H5v1h7.875v-1Zm3.5 0H15.5v1h.875v-1Z"/></svg>
