<svg width="719" height="719" viewBox="0 0 719 719" fill="none" xmlns="http://www.w3.org/2000/svg">
<path d="M245.9 551C244 550.5 242.1 550 240.2 549.4C226.9 545.1 217.6 532.7 217.5 518.7C217.4 494.6 217.4 470.5 217.5 446.5C217.5 442.4 219.6 439.9 222.9 439.8C226.3 439.7 228.6 442.3 228.7 446.6V466.7H272.2V447.7C272.2 446.3 272.1 444.9 272.2 443.6C272.5 440.1 274.9 438 278.1 438.1C281.1 438.2 283.3 440.4 283.4 443.7C283.5 449.9 283.4 456.2 283.4 462.4V466.7H326.7V370.1C321.6 372.1 316.7 373.8 311.8 376C311 376.4 310.6 378.3 310.4 379.5C308.1 394.7 296 405.6 280.5 406.4C266.3 407.1 252.5 397.2 249.5 382.8C248.4 377.3 246.1 374.9 241 373.5C236.9 372.4 233 370.1 228.6 368.2V423C228.4 426.8 226.2 429.2 223 429.2C219.8 429.2 217.4 426.8 217.4 423C217.3 417.7 217.4 412.3 217.4 406.7C215.8 406.6 214.5 406.5 213.1 406.5C200.3 406.5 187.4 406.6 174.6 406.4C163.6 406.2 155.1 401.3 150.2 391.3C145.5 381.6 146.5 372.1 152.9 363.4C157.9 356.6 164.9 353 173.4 352.8C183.3 352.6 193.1 352.7 203 352.7H207.4C205 350.2 203.1 348.3 201.3 346.3C178.7 321.1 169.9 291.7 174.3 258.1C174.6 255.5 173.7 252.7 173.3 250.1C170.9 231.9 179.5 215.3 196 206.1C198.2 204.9 200.3 203.2 202.1 201.4C231.6 171.9 266.6 161.9 307.2 171.6C311.8 172.7 313.6 175.4 312.6 179C311.7 182.3 308.8 183.5 304.4 182.4C275.4 175.2 248.6 180 224 197.1C223.1 197.7 222.2 198.5 221.3 199.2C221.1 199.3 221.1 199.6 221 199.9C225 200.6 229.1 201.1 233 202.1C244.7 205.3 253.9 211.9 260.3 222.3C261.4 224.1 262.7 224.8 264.8 224.7C274.8 224.6 284.8 224.7 294.7 224.6C295.9 224.6 297.7 223.9 298.3 222.9C307.1 208.8 320.1 201.8 336.4 200.3C336.9 200.3 337.4 200.2 337.9 200.1C338 200.1 338.1 200 338.8 199.5C334.7 196.8 330.8 194.2 326.9 191.8C322.9 189.3 321.7 186.3 323.4 183.3C325.2 180.2 328.4 179.8 332.5 182.2C342 187.6 350.4 194.4 357.9 202.4C359.1 203.7 360.6 205 362.2 205.8C379.3 214.7 390.5 233.9 385 255.1C384.4 257.3 385 259.8 385.3 262.1C388.8 296.5 378.3 326 354 350.6C353.6 351 353.1 351.5 352.7 352C352.6 352.1 352.6 352.4 352.5 353H379.3C382.5 353 385.8 352.8 389 353.4C403 355.7 412.6 367.9 411.6 381.5C410.4 396 399.4 406.4 384.5 406.6C370.7 406.8 356.8 406.6 343 406.6H338.2V515.1C338.2 534.5 329.7 545.6 310.9 550.8C310.7 550.9 310.5 551.1 310.4 551.3H300.7C298.5 550.6 296.2 550 294 549.2C287.3 546.9 282.3 542.5 278.3 537.3C275 540.2 272.3 543.5 268.9 545.5C264.9 547.9 260.2 549.4 255.8 551.3C252.4 551 249.2 551 245.9 551ZM184.3 272.7C185.3 308 199.4 335.1 228.1 354C260.4 375.3 301.8 374.3 333.8 352.4C359.5 334.8 379.1 296.7 374.2 273.3C373.4 274 372.6 274.6 371.9 275.2C349.1 294.9 315.1 290.1 298.5 265C297.8 263.9 296 263 294.7 263C286.3 262.8 278 263.2 269.6 262.8C264.3 262.5 260.1 263.3 258 268.7C257.8 269.3 257.3 269.7 256.9 270.2C240.3 290.3 209 293.2 188.7 276.4C187.5 275.4 186.3 274.4 184.3 272.7ZM284 478.3C283.8 478.7 283.6 478.9 283.6 479.2C283.6 492.7 283.2 506.2 283.7 519.6C284.2 531.4 294.4 540.1 306 539.8C317.5 539.5 326.7 530.3 327 518.6C327.2 505.8 327.1 492.9 327.1 480.1C327.1 479.5 326.9 478.9 326.7 478.3H284ZM229.1 478.2C228.9 478.9 228.8 479.1 228.8 479.4C228.8 492 228.7 504.6 228.8 517.1C228.8 530 238.3 539.8 250.6 539.8C262.9 539.8 272.2 530.1 272.3 517.1C272.4 505.3 272.3 493.4 272.3 481.6C272.3 480.5 272.2 479.4 272.1 478.3C257.5 478.2 243.3 478.2 229.1 478.2ZM339.8 211.2C332.2 211.4 325.2 213.3 318.8 217.4C300.8 229.1 298.7 251.8 314.3 266.6C328 279.6 351.4 279.4 365.3 266.1C378.6 253.3 378.4 233.6 364.8 221.1C357.8 214.4 349.2 211.6 339.8 211.2ZM217.6 211.1C215.2 211.6 210.7 212.1 206.6 213.6C193.9 218.5 185.4 227.3 184.3 241.4C183.2 254.2 189.2 263.8 199.8 270.4C212.9 278.6 230 277.8 242.4 268.6C259.6 255.8 259.7 231.9 242.7 218.9C235.9 213.8 228.2 211.5 217.6 211.1ZM338.4 394.7C339.3 394.8 339.7 395 340.2 395C355.2 395 370.1 395.1 385.1 394.9C387.3 394.9 389.6 394.3 391.6 393.4C398.2 390.5 401.6 383.3 400.2 376.1C398.8 369.1 392.6 363.9 385.2 363.9C371.2 363.8 357.3 363.9 343.3 363.9H338.4V394.7ZM217.3 395.1V364C202.1 364 187 363.8 172 364.1C166.9 364.2 163 367.5 160.5 372.1C154.8 382.7 162.4 394.9 175 395C186.7 395.1 198.4 395 210.1 395C212.5 395.1 214.8 395.1 217.3 395.1ZM260.3 379.3C262.2 388.7 270.8 395.5 280.3 395C289.8 394.5 297.7 387.7 298.8 379.3C292.5 379.7 286.2 380.4 279.9 380.4C273.5 380.5 267 379.7 260.3 379.3ZM292.9 235.9H266.4V251.5H292.9V235.9Z" fill="#01233F"/>
<path d="M255.7 551C260.1 549.1 264.8 547.7 268.8 545.2C272.2 543.1 274.9 539.9 278.2 537C282.2 542.2 287.3 546.6 293.9 548.9C296.1 549.7 298.4 550.3 300.6 551H255.7Z" fill="white"/>
<path d="M233.6 294.9C241.8 295 248.6 301.2 249.3 309.5C249.6 313.2 247.7 315.9 244.5 316.3C241.4 316.7 239 314.9 238.3 311.3C237.8 308.5 236.7 306.2 233.4 306.2C230.2 306.2 229 308.3 228.6 311.3C228.1 314.8 225.4 316.7 222.4 316.3C219.3 315.9 217.4 313.4 217.5 309.9C217.8 301.7 225.1 294.9 233.6 294.9ZM325.7 294.9C333.7 294.9 340.4 300.6 341.6 308.4C342.3 312.6 340.6 315.5 337.2 316.2C333.8 316.9 331.4 314.9 330.5 310.5C330 307.8 328.6 306.2 325.8 306.2C323.2 306.2 321.7 307.8 321.2 310.2C321.1 310.7 321.1 311.2 320.9 311.7C320.1 314.9 317.7 316.7 314.7 316.3C311.7 315.9 309.8 313.4 309.9 310.2C310 301.9 317.2 295 325.7 294.9ZM281.1 333.4C273.9 333.4 269 331.3 265 327.1C262.5 324.5 262.5 321.4 264.6 319.1C266.7 316.8 269.8 316.8 272.6 319C278 323.3 281.3 323.3 286.5 319.1C289.3 316.8 292.3 316.8 294.5 319.1C296.8 321.4 296.6 324.7 294 327.4C290.1 331.4 285.3 333.4 281.1 333.4ZM340 263C333.1 263 327.6 261 323 256.8C314.9 249.4 315.1 237.7 323.2 230.4C331.8 222.7 346 222.4 355 229.6C364.5 237.3 364.4 250.4 354.7 257.9C350.2 261.4 345.1 263.1 340 263ZM339.7 251.7C345.7 251.7 350.7 248.1 350.8 243.8C350.9 239.4 345.8 235.7 339.6 235.7C333.4 235.7 328.2 239.4 328.3 243.7C328.3 248.1 333.5 251.7 339.7 251.7ZM219.4 224.5C225.5 224.5 230.7 226.1 235.1 229.7C244.6 237.3 244.5 250.2 235.1 257.8C226.9 264.4 214.1 264.8 205.4 258.7C194.4 251 194.4 236.6 205.4 228.8C209.8 225.8 214.6 224.3 219.4 224.5ZM220.3 252C222.1 251.4 224.8 251.3 226.5 249.9C228.5 248.3 230.6 245.8 230.7 243.6C230.8 241.6 228.6 238.9 226.6 237.6C223.2 235.2 219.1 235.2 215.1 236.5C211.6 237.6 208.7 239.6 208.5 243.7C208.3 246.8 210.9 249.7 215 251C216.5 251.4 218.1 251.6 220.3 252Z" fill="#01233F"/>
<path d="M449.095 562.75C447.484 562.326 445.874 561.902 444.263 561.394C432.989 557.749 425.106 547.238 425.021 535.371C424.937 514.942 424.937 494.514 425.021 474.17C425.021 470.694 426.802 468.575 429.599 468.491C432.481 468.406 434.43 470.61 434.515 474.255V491.293H471.388V475.187C471.388 474 471.304 472.814 471.388 471.712C471.643 468.745 473.677 466.965 476.389 467.05C478.932 467.134 480.797 468.999 480.882 471.796C480.967 477.052 480.882 482.392 480.882 487.648V491.293H517.586V409.409C513.262 411.104 509.109 412.545 504.955 414.41C504.277 414.749 503.938 416.36 503.769 417.377C501.819 430.261 491.562 439.501 478.424 440.179C466.387 440.772 454.689 432.38 452.146 420.174C451.214 415.512 449.264 413.478 444.941 412.291C441.466 411.359 438.16 409.409 434.43 407.798V454.25C434.261 457.471 432.396 459.505 429.684 459.505C426.971 459.505 424.937 457.471 424.937 454.25C424.852 449.757 424.937 445.18 424.937 440.433C423.58 440.348 422.479 440.264 421.292 440.264C410.442 440.264 399.507 440.348 388.657 440.179C379.333 440.009 372.128 435.856 367.974 427.379C363.99 419.157 364.838 411.104 370.263 403.73C374.501 397.966 380.435 394.914 387.64 394.744C396.032 394.575 404.339 394.66 412.73 394.66H416.46C414.426 392.541 412.815 390.93 411.289 389.235C392.132 367.874 384.673 342.953 388.403 314.471C388.657 312.268 387.894 309.894 387.555 307.69C385.521 292.263 392.811 278.192 406.797 270.393C408.662 269.376 410.442 267.935 411.968 266.409C436.973 241.403 466.641 232.927 501.056 241.149C504.955 242.082 506.481 244.37 505.634 247.422C504.871 250.219 502.412 251.236 498.683 250.304C474.101 244.201 451.384 248.269 430.531 262.764C429.768 263.273 429.005 263.951 428.243 264.544C428.073 264.629 428.073 264.884 427.988 265.138C431.379 265.731 434.854 266.155 438.16 267.003C448.078 269.715 455.876 275.31 461.301 284.125C462.234 285.651 463.336 286.244 465.116 286.16C473.592 286.075 482.069 286.16 490.461 286.075C491.478 286.075 493.003 285.482 493.512 284.634C500.971 272.682 511.991 266.748 525.808 265.477C526.232 265.477 526.655 265.392 527.079 265.307C527.164 265.307 527.249 265.223 527.842 264.799C524.367 262.51 521.061 260.306 517.755 258.272C514.364 256.153 513.347 253.61 514.788 251.067C516.314 248.439 519.027 248.1 522.502 250.134C530.555 254.712 537.675 260.476 544.032 267.257C545.05 268.359 546.321 269.461 547.677 270.139C562.172 277.683 571.666 293.958 567.004 311.928C566.495 313.793 567.004 315.912 567.258 317.862C570.225 347.021 561.325 372.027 540.727 392.88C540.387 393.219 539.964 393.643 539.625 394.066C539.54 394.151 539.54 394.405 539.455 394.914H562.172C564.885 394.914 567.682 394.744 570.395 395.253C582.262 397.203 590.399 407.544 589.552 419.072C588.534 431.363 579.21 440.179 566.58 440.348C554.882 440.518 543.1 440.348 531.402 440.348H527.334V532.319C527.334 548.764 520.128 558.173 504.193 562.58C504.023 562.665 503.853 562.835 503.769 563.004H495.546C493.682 562.411 491.732 561.902 489.867 561.224C484.188 559.275 479.95 555.545 476.559 551.137C473.762 553.595 471.473 556.393 468.591 558.088C465.2 560.122 461.216 561.394 457.487 563.004C454.605 562.75 451.892 562.75 449.095 562.75ZM396.879 326.847C397.727 356.769 409.679 379.741 434.007 395.762C461.386 413.817 496.479 412.969 523.604 394.405C545.389 379.487 562.003 347.191 557.849 327.356C557.171 327.949 556.493 328.458 555.9 328.966C536.573 345.665 507.753 341.596 493.682 320.32C493.088 319.388 491.562 318.625 490.461 318.625C483.34 318.455 476.305 318.794 469.184 318.455C464.692 318.201 461.132 318.879 459.352 323.457C459.182 323.965 458.758 324.304 458.419 324.728C444.348 341.766 417.816 344.224 400.609 329.984C399.592 329.136 398.575 328.288 396.879 326.847ZM481.391 501.125C481.221 501.464 481.052 501.634 481.052 501.888C481.052 513.332 480.712 524.775 481.136 536.134C481.56 546.136 490.206 553.51 500.039 553.256C509.787 553.002 517.586 545.203 517.84 535.286C518.009 524.436 517.925 513.501 517.925 502.651C517.925 502.143 517.755 501.634 517.586 501.125H481.391ZM434.854 501.041C434.685 501.634 434.6 501.803 434.6 502.058C434.6 512.738 434.515 523.419 434.6 534.014C434.6 544.949 442.653 553.256 453.079 553.256C463.505 553.256 471.388 545.034 471.473 534.014C471.558 524.012 471.473 513.925 471.473 503.923C471.473 502.99 471.388 502.058 471.304 501.125C458.928 501.041 446.891 501.041 434.854 501.041ZM528.69 274.716C522.248 274.886 516.314 276.496 510.889 279.972C495.631 289.889 493.851 309.131 507.075 321.677C518.687 332.696 538.523 332.527 550.305 321.253C561.579 310.403 561.409 293.704 549.881 283.108C543.948 277.429 536.658 275.055 528.69 274.716ZM425.106 274.632C423.072 275.055 419.257 275.479 415.782 276.751C405.017 280.904 397.812 288.364 396.879 300.316C395.947 311.166 401.033 319.303 410.018 324.898C421.122 331.848 435.617 331.17 446.128 323.372C460.708 312.522 460.793 292.263 446.382 281.243C440.618 276.92 434.091 274.971 425.106 274.632ZM527.503 430.261C528.266 430.346 528.605 430.516 529.029 430.516C541.744 430.516 554.374 430.6 567.089 430.431C568.954 430.431 570.903 429.922 572.598 429.159C578.193 426.701 581.075 420.598 579.888 414.495C578.702 408.561 573.446 404.153 567.173 404.153C555.306 404.069 543.524 404.153 531.657 404.153H527.503V430.261ZM424.852 430.6V404.238C411.968 404.238 399.168 404.069 386.453 404.323C382.13 404.408 378.824 407.205 376.705 411.104C371.873 420.089 378.316 430.431 388.996 430.516C398.914 430.6 408.831 430.516 418.749 430.516C420.783 430.6 422.733 430.6 424.852 430.6ZM461.301 417.207C462.912 425.175 470.202 430.939 478.254 430.516C486.307 430.092 493.003 424.328 493.936 417.207C488.596 417.546 483.255 418.14 477.915 418.14C472.49 418.225 466.98 417.546 461.301 417.207ZM488.935 295.653H466.472V308.877H488.935V295.653Z" fill="#01233F"/>
<path d="M457.402 562.75C461.132 561.139 465.116 559.953 468.506 557.834C471.388 556.054 473.677 553.341 476.474 550.883C479.865 555.291 484.188 559.02 489.782 560.97C491.647 561.648 493.597 562.157 495.462 562.75H457.402Z" fill="white"/>
<path d="M438.669 345.665C445.62 345.75 451.384 351.006 451.977 358.041C452.231 361.177 450.621 363.466 447.908 363.805C445.28 364.144 443.246 362.618 442.653 359.567C442.229 357.193 441.296 355.244 438.499 355.244C435.787 355.244 434.77 357.024 434.43 359.567C434.007 362.534 431.718 364.144 429.175 363.805C426.547 363.466 424.937 361.347 425.021 358.38C425.276 351.429 431.464 345.665 438.669 345.665ZM516.738 345.665C523.519 345.665 529.198 350.497 530.216 357.109C530.809 360.669 529.368 363.127 526.486 363.72C523.604 364.314 521.57 362.618 520.807 358.889C520.383 356.6 519.196 355.244 516.823 355.244C514.619 355.244 513.347 356.6 512.923 358.634C512.839 359.058 512.839 359.482 512.669 359.906C511.991 362.618 509.957 364.144 507.414 363.805C504.871 363.466 503.26 361.347 503.345 358.634C503.43 351.599 509.533 345.75 516.738 345.665ZM478.932 378.3C472.829 378.3 468.676 376.52 465.285 372.96C463.166 370.756 463.166 368.128 464.946 366.179C466.726 364.229 469.354 364.229 471.727 366.094C476.305 369.739 479.102 369.739 483.51 366.179C485.883 364.229 488.426 364.229 490.291 366.179C492.241 368.128 492.071 370.925 489.867 373.214C486.561 376.605 482.493 378.3 478.932 378.3ZM528.859 318.625C523.011 318.625 518.348 316.93 514.449 313.37C507.583 307.097 507.753 297.179 514.619 290.991C521.909 284.465 533.945 284.21 541.574 290.313C549.627 296.84 549.542 307.945 541.32 314.302C537.505 317.269 533.182 318.71 528.859 318.625ZM528.605 309.047C533.691 309.047 537.929 305.995 538.014 302.35C538.099 298.62 533.776 295.484 528.52 295.484C523.265 295.484 518.857 298.62 518.942 302.265C518.942 305.995 523.35 309.047 528.605 309.047ZM426.632 285.99C431.803 285.99 436.211 287.347 439.94 290.398C447.993 296.84 447.908 307.775 439.94 314.217C432.989 319.812 422.139 320.151 414.765 314.98C405.441 308.453 405.441 296.247 414.765 289.635C418.495 287.092 422.563 285.821 426.632 285.99ZM427.395 309.301C428.921 308.792 431.209 308.707 432.65 307.521C434.346 306.165 436.126 304.045 436.211 302.181C436.295 300.485 434.43 298.197 432.735 297.095C429.853 295.06 426.378 295.06 422.987 296.162C420.02 297.095 417.562 298.79 417.393 302.265C417.223 304.893 419.427 307.351 422.902 308.453C424.174 308.792 425.53 308.962 427.395 309.301Z" fill="#01233F"/>
</svg>
