<svg width="32" height="32" fill="none" xmlns="http://www.w3.org/2000/svg"><path d="M13.613 27.981c-.67-.356-.87-.969-.55-1.694.068-.156.206-.243.374-.206.194.038.3.169.288.369-.012.188-.044.369-.069.556-.025.188.05.275.244.275.344-.006.688-.006 1.031 0 .188.007.263-.075.288-.256.212-1.525.431-3.056.644-4.581.224-1.607.45-3.206.675-4.813.018-.112.024-.225.043-.356h-1.343c-.025.406-.02.813-.082 1.206-.062.413-.15.838-.312 1.213-.225.512-.306 1.037-.381 1.575-.157 1.144-.32 2.281-.475 3.425-.038.25-.194.393-.394.375-.207-.025-.332-.194-.3-.444.125-.956.262-1.913.4-2.869.006-.05.012-.106.018-.2-1.287 1.288-2.812 1.881-4.593 1.738-1.344-.113-2.5-.669-3.457-1.625-1.912-1.907-2.162-4.907-.656-7.132 1.419-2.093 4.832-3.456 7.844-1.425V11.22h-.838c-.618-.006-.937-.319-.937-.938 0-.281-.006-.569.063-.837C11.3 8.762 11.9 8.3 12.6 8.28c.463-.012.919-.025 1.381.006.263.02.525.113.806.182 0-.044.007-.125.013-.207.012-.7-.025-1.406.044-2.1.106-1.162 1.131-2.106 2.3-2.125a151.62 151.62 0 0 1 4.769 0c.756.013 1.375.363 1.843.963.15.194.138.387-.025.519-.162.131-.369.118-.512-.069-.475-.613-1.113-.781-1.863-.706v9.431h2.194V7.132c0-.076-.006-.157.006-.232.025-.2.181-.338.363-.331.187.006.331.15.331.35.006.443.006.887.006 1.331v.269c.782-.394 1.588-.25 2.369-.213.631.031 1.063.444 1.281 1.05.032.081.056.156.088.238v.981c-.181.481-.538.675-1.038.644-.244-.013-.494 0-.737 0v2.956c.056.006.1.012.15.019.669.075 1.062.512 1.069 1.187v.631c0 .813-.444 1.25-1.263 1.25h-1.406c.006.094.006.163.012.232.094.681.188 1.356.288 2.037.337 2.413.681 4.825 1.018 7.238.094.687-.043.931-.656 1.212h-1.594c-.48-.194-.693-.562-.706-1.069-.006-.187-.069-.368-.075-.556-.006-.206-.081-.275-.294-.269-2.143.007-4.28.007-6.425.007-.08 0-.168.006-.25.012-.05.325-.112.619-.13.919-.032.481-.276.794-.72.956h-1.624ZM18.43 4.737v9.444h2.181v-9.45h-2.024c-.05 0-.094 0-.157.006Zm-.731.013c-1.344-.15-2.212.612-2.212 1.937V14.182H17.7V4.75ZM14.519 14.9c.181.5.368.956.518 1.431.057.181.12.244.313.238 3.6-.006 7.2-.006 10.8-.006h.138c.262-.02.418-.17.424-.432.007-.212 0-.418 0-.631 0-.494-.112-.6-.606-.6H14.52Zm7.937 2.375c.069.506.138.988.207 1.463l.825 5.856.337 2.406c.025.175.088.288.294.281.343-.012.687-.006 1.031 0 .206 0 .275-.1.244-.293-.1-.67-.194-1.344-.288-2.013-.306-2.181-.612-4.363-.925-6.55l-.169-1.15h-1.556ZM9.613 19.819a2.103 2.103 0 0 0 2.106-2.088 2.094 2.094 0 0 0-2.082-2.106 2.086 2.086 0 0 0-2.112 2.094c0 1.156.931 2.093 2.088 2.1Zm12.462-.2c-.113-.794-.219-1.563-.331-2.344h-4.45c-.113.781-.219 1.556-.332 2.344h5.113Zm-5.688 4.093h6.263c-.081-.58-.162-1.15-.244-1.706h-5.781c-.081.575-.156 1.131-.238 1.706Zm6.5 1.663c-.05-.331-.093-.631-.137-.938h-6.469c-.043.313-.081.62-.125.938h6.732ZM6.962 16.819c-.675-.2-1.33-.4-2-.6a4.825 4.825 0 0 0 0 3c.682-.207 1.338-.4 2-.6a2.904 2.904 0 0 1 0-1.8Zm3.557-1.763c.2-.675.4-1.325.6-2-1.013-.312-1.994-.318-3 0 .206.682.4 1.338.6 2a2.998 2.998 0 0 1 1.8 0Zm-1.8 5.319c-.207.681-.4 1.331-.6 2a4.917 4.917 0 0 0 3 0c-.207-.681-.4-1.331-.6-2a2.998 2.998 0 0 1-1.8 0Zm5.562-1.163c.306-1.012.313-1.993 0-2.993-.681.206-1.331.4-2.006.6.2.606.181 1.2.012 1.8.67.2 1.325.393 1.994.593Zm8.025 2.063c-.031-.244-.069-.475-.087-.706-.013-.188-.088-.244-.275-.244-1.107.012-2.213.006-3.319.006-.525 0-1.044-.006-1.569.006-.069 0-.187.05-.194.094-.056.275-.08.55-.118.838 1.862.006 3.706.006 5.562.006Zm-8.294-1.406c-.668-.2-1.3-.4-1.943-.581-.057-.013-.15.043-.2.093-.2.188-.375.394-.582.569-.1.088-.118.15-.08.275.15.475.287.95.43 1.425l.138.45c1-.5 1.731-1.231 2.237-2.231Zm-2.237-6.55c-.2.662-.394 1.287-.569 1.918-.018.063.032.17.082.226.18.193.38.362.556.562.094.113.168.15.312.1.469-.15.938-.287 1.406-.425l.457-.137c-.519-1-1.244-1.738-2.244-2.244Zm-6.556 2.243c.556.17 1.093.307 1.612.494.313.113.544.119.706-.206a.341.341 0 0 1 .113-.119c.463-.237.4-.594.25-1-.169-.456-.288-.925-.438-1.406a4.954 4.954 0 0 0-2.243 2.238Zm.006 4.307c.506 1 1.244 1.731 2.244 2.244.2-.67.393-1.307.575-1.95.012-.05-.019-.132-.063-.17-.206-.218-.425-.43-.643-.643-.044-.038-.125-.075-.176-.063-.637.188-1.274.382-1.937.582Zm19.038-9.35h2.762c.119 0 .244 0 .244-.169 0-.2.012-.406-.013-.606a.857.857 0 0 0-.843-.757 30.34 30.34 0 0 0-1.307 0c-.437.007-.781.3-.837.732-.038.243-.006.506-.006.8Zm-9.476-.013c0-.25.007-.462 0-.669a.868.868 0 0 0-.85-.85c-.3-.006-.606.013-.912-.006-.956-.069-1.319.356-1.263 1.269.013.219.082.281.288.275.837-.006 1.681-.006 2.519-.006.068 0 .137-.013.218-.013Zm10.675 3.681v-2.95h-1.206v2.95h1.206Zm-10.687.007V11.23h-1.213c0 .819-.006 1.632.007 2.438 0 .181.4.525.575.525h.631Z" fill="currentColor"/></svg>
