<svg width="24" height="24" viewBox="0 0 24 24" fill="none" xmlns="http://www.w3.org/2000/svg">
<path fill-rule="evenodd" clip-rule="evenodd" d="M8.09118 8H9.36418C9.72392 8.00873 10.0086 8.30725 10.0002 8.667V15.333C10.0086 15.6927 9.72392 15.9913 9.36418 16H8.09118C7.73144 15.9913 7.4468 15.6927 7.45518 15.333V14H5.63618C5.27644 13.9913 4.9918 13.6927 5.00018 13.333V10.667C4.9918 10.3073 5.27644 10.0087 5.63618 10H7.45518V8.667C7.4468 8.30725 7.73144 8.00873 8.09118 8Z" stroke="currentColor" stroke-linecap="round" stroke-linejoin="round"/>
<path fill-rule="evenodd" clip-rule="evenodd" d="M15.9092 16H14.6362C14.2764 15.9913 13.9918 15.6927 14.0002 15.333V8.667C13.9918 8.30725 14.2764 8.00873 14.6362 8H15.9092C16.2689 8.00873 16.5536 8.30725 16.5452 8.667V10H18.3632C18.5361 10.0039 18.7004 10.0764 18.8199 10.2015C18.9393 10.3266 19.0042 10.4941 19.0002 10.667V13.333C19.0086 13.6927 18.7239 13.9913 18.3642 14H16.5452V15.333C16.5536 15.6927 16.2689 15.9913 15.9092 16Z" stroke="currentColor" stroke-linecap="round" stroke-linejoin="round"/>
<path d="M6.9552 14C6.9552 14.2761 7.17906 14.5 7.4552 14.5C7.73134 14.5 7.9552 14.2761 7.9552 14H6.9552ZM7.9552 10C7.9552 9.72386 7.73134 9.5 7.4552 9.5C7.17906 9.5 6.9552 9.72386 6.9552 10H7.9552ZM17.0462 10C17.0462 9.72386 16.8223 9.5 16.5462 9.5C16.2701 9.5 16.0462 9.72386 16.0462 10H17.0462ZM16.0462 14C16.0462 14.2761 16.2701 14.5 16.5462 14.5C16.8223 14.5 17.0462 14.2761 17.0462 14H16.0462ZM10.0002 11.5C9.72406 11.5 9.5002 11.7239 9.5002 12C9.5002 12.2761 9.72406 12.5 10.0002 12.5V11.5ZM14.0002 12.5C14.2763 12.5 14.5002 12.2761 14.5002 12C14.5002 11.7239 14.2763 11.5 14.0002 11.5V12.5ZM7.9552 14V10H6.9552V14H7.9552ZM16.0462 10V14H17.0462V10H16.0462ZM10.0002 12.5H14.0002V11.5H10.0002V12.5Z" fill="currentColor"/>
</svg>
