<svg width="512" height="512" viewBox="0 0 512 512" fill="none" xmlns="http://www.w3.org/2000/svg">
<path d="M221.9 448C220 447.5 218.1 447 216.2 446.4C202.9 442.1 193.6 429.7 193.5 415.7C193.4 391.6 193.4 367.5 193.5 343.5C193.5 339.4 195.6 336.9 198.9 336.8C202.3 336.7 204.6 339.3 204.7 343.6V363.7H248.2V344.7C248.2 343.3 248.1 341.9 248.2 340.6C248.5 337.1 250.9 335 254.1 335.1C257.1 335.2 259.3 337.4 259.4 340.7C259.5 346.9 259.4 353.2 259.4 359.4V363.7H302.7V267.1C297.6 269.1 292.7 270.8 287.8 273C287 273.4 286.6 275.3 286.4 276.5C284.1 291.7 272 302.6 256.5 303.4C242.3 304.1 228.5 294.2 225.5 279.8C224.4 274.3 222.1 271.9 217 270.5C212.9 269.4 209 267.1 204.6 265.2V320C204.4 323.8 202.2 326.2 199 326.2C195.8 326.2 193.4 323.8 193.4 320C193.3 314.7 193.4 309.3 193.4 303.7C191.8 303.6 190.5 303.5 189.1 303.5C176.3 303.5 163.4 303.6 150.6 303.4C139.6 303.2 131.1 298.3 126.2 288.3C121.5 278.6 122.5 269.1 128.9 260.4C133.9 253.6 140.9 250 149.4 249.8C159.3 249.6 169.1 249.7 179 249.7H183.4C181 247.2 179.1 245.3 177.3 243.3C154.7 218.1 145.9 188.7 150.3 155.1C150.6 152.5 149.7 149.7 149.3 147.1C146.9 128.9 155.5 112.3 172 103.1C174.2 101.9 176.3 100.2 178.1 98.4C207.6 68.9 242.6 58.9 283.2 68.6C287.8 69.7 289.6 72.4 288.6 76C287.7 79.3 284.8 80.5 280.4 79.4C251.4 72.2 224.6 77 200 94.1C199.1 94.7 198.2 95.5 197.3 96.2C197.1 96.3 197.1 96.6 197 96.9C201 97.6 205.1 98.1 209 99.1C220.7 102.3 229.9 108.9 236.3 119.3C237.4 121.1 238.7 121.8 240.8 121.7C250.8 121.6 260.8 121.7 270.7 121.6C271.9 121.6 273.7 120.9 274.3 119.9C283.1 105.8 296.1 98.8 312.4 97.3C312.9 97.3 313.4 97.2 313.9 97.1C314 97.1 314.1 97 314.8 96.5C310.7 93.8 306.8 91.2 302.9 88.8C298.9 86.3 297.7 83.3 299.4 80.3C301.2 77.2 304.4 76.8 308.5 79.2C318 84.6 326.4 91.4 333.9 99.4C335.1 100.7 336.6 102 338.2 102.8C355.3 111.7 366.5 130.9 361 152.1C360.4 154.3 361 156.8 361.3 159.1C364.8 193.5 354.3 223 330 247.6C329.6 248 329.1 248.5 328.7 249C328.6 249.1 328.6 249.4 328.5 250H355.3C358.5 250 361.8 249.8 365 250.4C379 252.7 388.6 264.9 387.6 278.5C386.4 293 375.4 303.4 360.5 303.6C346.7 303.8 332.8 303.6 319 303.6H314.2V412.1C314.2 431.5 305.7 442.6 286.9 447.8C286.7 447.9 286.5 448.1 286.4 448.3H276.7C274.5 447.6 272.2 447 270 446.2C263.3 443.9 258.3 439.5 254.3 434.3C251 437.2 248.3 440.5 244.9 442.5C240.9 444.9 236.2 446.4 231.8 448.3C228.4 448 225.2 448 221.9 448ZM160.3 169.7C161.3 205 175.4 232.1 204.1 251C236.4 272.3 277.8 271.3 309.8 249.4C335.5 231.8 355.1 193.7 350.2 170.3C349.4 171 348.6 171.6 347.9 172.2C325.1 191.9 291.1 187.1 274.5 162C273.8 160.9 272 160 270.7 160C262.3 159.8 254 160.2 245.6 159.8C240.3 159.5 236.1 160.3 234 165.7C233.8 166.3 233.3 166.7 232.9 167.2C216.3 187.3 185 190.2 164.7 173.4C163.5 172.4 162.3 171.4 160.3 169.7ZM260 375.3C259.8 375.7 259.6 375.9 259.6 376.2C259.6 389.7 259.2 403.2 259.7 416.6C260.2 428.4 270.4 437.1 282 436.8C293.5 436.5 302.7 427.3 303 415.6C303.2 402.8 303.1 389.9 303.1 377.1C303.1 376.5 302.9 375.9 302.7 375.3H260ZM205.1 375.2C204.9 375.9 204.8 376.1 204.8 376.4C204.8 389 204.7 401.6 204.8 414.1C204.8 427 214.3 436.8 226.6 436.8C238.9 436.8 248.2 427.1 248.3 414.1C248.4 402.3 248.3 390.4 248.3 378.6C248.3 377.5 248.2 376.4 248.1 375.3C233.5 375.2 219.3 375.2 205.1 375.2ZM315.8 108.2C308.2 108.4 301.2 110.3 294.8 114.4C276.8 126.1 274.7 148.8 290.3 163.6C304 176.6 327.4 176.4 341.3 163.1C354.6 150.3 354.4 130.6 340.8 118.1C333.8 111.4 325.2 108.6 315.8 108.2ZM193.6 108.1C191.2 108.6 186.7 109.1 182.6 110.6C169.9 115.5 161.4 124.3 160.3 138.4C159.2 151.2 165.2 160.8 175.8 167.4C188.9 175.6 206 174.8 218.4 165.6C235.6 152.8 235.7 128.9 218.7 115.9C211.9 110.8 204.2 108.5 193.6 108.1ZM314.4 291.7C315.3 291.8 315.7 292 316.2 292C331.2 292 346.1 292.1 361.1 291.9C363.3 291.9 365.6 291.3 367.6 290.4C374.2 287.5 377.6 280.3 376.2 273.1C374.8 266.1 368.6 260.9 361.2 260.9C347.2 260.8 333.3 260.9 319.3 260.9H314.4V291.7ZM193.3 292.1V261C178.1 261 163 260.8 148 261.1C142.9 261.2 139 264.5 136.5 269.1C130.8 279.7 138.4 291.9 151 292C162.7 292.1 174.4 292 186.1 292C188.5 292.1 190.8 292.1 193.3 292.1ZM236.3 276.3C238.2 285.7 246.8 292.5 256.3 292C265.8 291.5 273.7 284.7 274.8 276.3C268.5 276.7 262.2 277.4 255.9 277.4C249.5 277.5 243 276.7 236.3 276.3ZM268.9 132.9H242.4V148.5H268.9V132.9Z" fill="#01233F"/>
<path d="M209.6 191.9C217.8 192 224.6 198.2 225.3 206.5C225.6 210.2 223.7 212.9 220.5 213.3C217.4 213.7 215 211.9 214.3 208.3C213.8 205.5 212.7 203.2 209.4 203.2C206.2 203.2 205 205.3 204.6 208.3C204.1 211.8 201.4 213.7 198.4 213.3C195.3 212.9 193.4 210.4 193.5 206.9C193.8 198.7 201.1 191.9 209.6 191.9ZM301.7 191.9C309.7 191.9 316.4 197.6 317.6 205.4C318.3 209.6 316.6 212.5 313.2 213.2C309.8 213.9 307.4 211.9 306.5 207.5C306 204.8 304.6 203.2 301.8 203.2C299.2 203.2 297.7 204.8 297.2 207.2C297.1 207.7 297.1 208.2 296.9 208.7C296.1 211.9 293.7 213.7 290.7 213.3C287.7 212.9 285.8 210.4 285.9 207.2C286 198.9 293.2 192 301.7 191.9ZM257.1 230.4C249.9 230.4 245 228.3 241 224.1C238.5 221.5 238.5 218.4 240.6 216.1C242.7 213.8 245.8 213.8 248.6 216C254 220.3 257.3 220.3 262.5 216.1C265.3 213.8 268.3 213.8 270.5 216.1C272.8 218.4 272.6 221.7 270 224.4C266.1 228.4 261.3 230.4 257.1 230.4ZM316 160C309.1 160 303.6 158 299 153.8C290.9 146.4 291.1 134.7 299.2 127.4C307.8 119.7 322 119.4 331 126.6C340.5 134.3 340.4 147.4 330.7 154.9C326.2 158.4 321.1 160.1 316 160ZM315.7 148.7C321.7 148.7 326.7 145.1 326.8 140.8C326.9 136.4 321.8 132.7 315.6 132.7C309.4 132.7 304.2 136.4 304.3 140.7C304.3 145.1 309.5 148.7 315.7 148.7ZM195.4 121.5C201.5 121.5 206.7 123.1 211.1 126.7C220.6 134.3 220.5 147.2 211.1 154.8C202.9 161.4 190.1 161.8 181.4 155.7C170.4 148 170.4 133.6 181.4 125.8C185.8 122.8 190.6 121.3 195.4 121.5ZM196.3 149C198.1 148.4 200.8 148.3 202.5 146.9C204.5 145.3 206.6 142.8 206.7 140.6C206.8 138.6 204.6 135.9 202.6 134.6C199.2 132.2 195.1 132.2 191.1 133.5C187.6 134.6 184.7 136.6 184.5 140.7C184.3 143.8 186.9 146.7 191 148C192.5 148.4 194.1 148.6 196.3 149Z" fill="#01233F"/>
<path d="M316 160C309.1 160 303.6 158 299 153.8C290.9 146.4 291.1 134.7 299.2 127.4C307.8 119.7 322 119.4 331 126.6C340.5 134.3 340.4 147.4 330.7 154.9C326.2 158.4 321.1 160.1 316 160ZM315.7 148.7C321.7 148.7 326.7 145.1 326.8 140.8C326.9 136.4 321.8 132.7 315.6 132.7C309.4 132.7 304.2 136.4 304.3 140.7C304.3 145.1 309.5 148.7 315.7 148.7ZM195.4 121.5C201.5 121.5 206.7 123.1 211.1 126.7C220.6 134.3 220.5 147.2 211.1 154.8C202.9 161.4 190.1 161.8 181.4 155.7C170.4 148 170.4 133.6 181.4 125.8C185.8 122.8 190.6 121.3 195.4 121.5ZM196.3 149C198.1 148.4 200.8 148.3 202.5 146.9C204.5 145.3 206.6 142.8 206.7 140.6C206.8 138.6 204.6 135.9 202.6 134.6C199.2 132.2 195.1 132.2 191.1 133.5C187.6 134.6 184.7 136.6 184.5 140.7C184.3 143.8 186.9 146.7 191 148C192.5 148.4 194.1 148.6 196.3 149Z" fill="#01233F"/>
<path d="M221.9 448C220 447.5 218.1 447 216.2 446.4C202.9 442.1 193.6 429.7 193.5 415.7C193.4 391.6 193.4 367.5 193.5 343.5C193.5 339.4 195.6 336.9 198.9 336.8C202.3 336.7 204.6 339.3 204.7 343.6V363.7H248.2V344.7C248.2 343.3 248.1 341.9 248.2 340.6C248.5 337.1 250.9 335 254.1 335.1C257.1 335.2 259.3 337.4 259.4 340.7C259.5 346.9 259.4 353.2 259.4 359.4V363.7H302.7V267.1C297.6 269.1 292.7 270.8 287.8 273C287 273.4 286.6 275.3 286.4 276.5C284.1 291.7 272 302.6 256.5 303.4C242.3 304.1 228.5 294.2 225.5 279.8C224.4 274.3 222.1 271.9 217 270.5C212.9 269.4 209 267.1 204.6 265.2V320C204.4 323.8 202.2 326.2 199 326.2C195.8 326.2 193.4 323.8 193.4 320C193.3 314.7 193.4 309.3 193.4 303.7C191.8 303.6 190.5 303.5 189.1 303.5C176.3 303.5 163.4 303.6 150.6 303.4C139.6 303.2 131.1 298.3 126.2 288.3C121.5 278.6 122.5 269.1 128.9 260.4C133.9 253.6 140.9 250 149.4 249.8C159.3 249.6 169.1 249.7 179 249.7H183.4C181 247.2 179.1 245.3 177.3 243.3C154.7 218.1 145.9 188.7 150.3 155.1C150.6 152.5 149.7 149.7 149.3 147.1C146.9 128.9 155.5 112.3 172 103.1C174.2 101.9 176.3 100.2 178.1 98.4C207.6 68.9 242.6 58.9 283.2 68.6C287.8 69.7 289.6 72.4 288.6 76C287.7 79.3 284.8 80.5 280.4 79.4C251.4 72.2 224.6 77 200 94.1C199.1 94.7 198.2 95.5 197.3 96.2C197.1 96.3 197.1 96.6 197 96.9C201 97.6 205.1 98.1 209 99.1C220.7 102.3 229.9 108.9 236.3 119.3C237.4 121.1 238.7 121.8 240.8 121.7C250.8 121.6 260.8 121.7 270.7 121.6C271.9 121.6 273.7 120.9 274.3 119.9C283.1 105.8 296.1 98.8 312.4 97.3C312.9 97.3 313.4 97.2 313.9 97.1C314 97.1 314.1 97 314.8 96.5C310.7 93.8 306.8 91.2 302.9 88.8C298.9 86.3 297.7 83.3 299.4 80.3C301.2 77.2 304.4 76.8 308.5 79.2C318 84.6 326.4 91.4 333.9 99.4C335.1 100.7 336.6 102 338.2 102.8C355.3 111.7 366.5 130.9 361 152.1C360.4 154.3 361 156.8 361.3 159.1C364.8 193.5 354.3 223 330 247.6C329.6 248 329.1 248.5 328.7 249C328.6 249.1 328.6 249.4 328.5 250H355.3C358.5 250 361.8 249.8 365 250.4C379 252.7 388.6 264.9 387.6 278.5C386.4 293 375.4 303.4 360.5 303.6C346.7 303.8 332.8 303.6 319 303.6H314.2V412.1C314.2 431.5 305.7 442.6 286.9 447.8C286.7 447.9 286.5 448.1 286.4 448.3H276.7C274.5 447.6 272.2 447 270 446.2C263.3 443.9 258.3 439.5 254.3 434.3C251 437.2 248.3 440.5 244.9 442.5C240.9 444.9 236.2 446.4 231.8 448.3C228.4 448 225.2 448 221.9 448ZM160.3 169.7C161.3 205 175.4 232.1 204.1 251C236.4 272.3 277.8 271.3 309.8 249.4C335.5 231.8 355.1 193.7 350.2 170.3C349.4 171 348.6 171.6 347.9 172.2C325.1 191.9 291.1 187.1 274.5 162C273.8 160.9 272 160 270.7 160C262.3 159.8 254 160.2 245.6 159.8C240.3 159.5 236.1 160.3 234 165.7C233.8 166.3 233.3 166.7 232.9 167.2C216.3 187.3 185 190.2 164.7 173.4C163.5 172.4 162.3 171.4 160.3 169.7ZM260 375.3C259.8 375.7 259.6 375.9 259.6 376.2C259.6 389.7 259.2 403.2 259.7 416.6C260.2 428.4 270.4 437.1 282 436.8C293.5 436.5 302.7 427.3 303 415.6C303.2 402.8 303.1 389.9 303.1 377.1C303.1 376.5 302.9 375.9 302.7 375.3H260ZM205.1 375.2C204.9 375.9 204.8 376.1 204.8 376.4C204.8 389 204.7 401.6 204.8 414.1C204.8 427 214.3 436.8 226.6 436.8C238.9 436.8 248.2 427.1 248.3 414.1C248.4 402.3 248.3 390.4 248.3 378.6C248.3 377.5 248.2 376.4 248.1 375.3C233.5 375.2 219.3 375.2 205.1 375.2ZM315.8 108.2C308.2 108.4 301.2 110.3 294.8 114.4C276.8 126.1 274.7 148.8 290.3 163.6C304 176.6 327.4 176.4 341.3 163.1C354.6 150.3 354.4 130.6 340.8 118.1C333.8 111.4 325.2 108.6 315.8 108.2ZM193.6 108.1C191.2 108.6 186.7 109.1 182.6 110.6C169.9 115.5 161.4 124.3 160.3 138.4C159.2 151.2 165.2 160.8 175.8 167.4C188.9 175.6 206 174.8 218.4 165.6C235.6 152.8 235.7 128.9 218.7 115.9C211.9 110.8 204.2 108.5 193.6 108.1ZM314.4 291.7C315.3 291.8 315.7 292 316.2 292C331.2 292 346.1 292.1 361.1 291.9C363.3 291.9 365.6 291.3 367.6 290.4C374.2 287.5 377.6 280.3 376.2 273.1C374.8 266.1 368.6 260.9 361.2 260.9C347.2 260.8 333.3 260.9 319.3 260.9H314.4V291.7ZM193.3 292.1V261C178.1 261 163 260.8 148 261.1C142.9 261.2 139 264.5 136.5 269.1C130.8 279.7 138.4 291.9 151 292C162.7 292.1 174.4 292 186.1 292C188.5 292.1 190.8 292.1 193.3 292.1ZM236.3 276.3C238.2 285.7 246.8 292.5 256.3 292C265.8 291.5 273.7 284.7 274.8 276.3C268.5 276.7 262.2 277.4 255.9 277.4C249.5 277.5 243 276.7 236.3 276.3ZM268.9 132.9H242.4V148.5H268.9V132.9Z" fill="#01233F"/>
</svg>
