<svg xmlns="http://www.w3.org/2000/svg" xml:space="preserve" viewBox="0 0 512 512">
  <path d="M221.9 448c-1.9-.5-3.8-1-5.7-1.6-13.3-4.3-22.6-16.7-22.7-30.7-.1-24.1-.1-48.2 0-72.2 0-4.1 2.1-6.6 5.4-6.7 3.4-.1 5.7 2.5 5.8 6.8v20.1h43.5v-19c0-1.4-.1-2.8 0-4.1.3-3.5 2.7-5.6 5.9-5.5 3 .1 5.2 2.3 5.3 5.6.1 6.2 0 12.5 0 18.7v4.3h43.3v-96.6c-5.1 2-10 3.7-14.9 5.9-.8.4-1.2 2.3-1.4 3.5-2.3 15.2-14.4 26.1-29.9 26.9-14.2.7-28-9.2-31-23.6-1.1-5.5-3.4-7.9-8.5-9.3-4.1-1.1-8-3.4-12.4-5.3V320c-.2 3.8-2.4 6.2-5.6 6.2-3.2 0-5.6-2.4-5.6-6.2-.1-5.3 0-10.7 0-16.3-1.6-.1-2.9-.2-4.3-.2-12.8 0-25.7.1-38.5-.1-11-.2-19.5-5.1-24.4-15.1-4.7-9.7-3.7-19.2 2.7-27.9 5-6.8 12-10.4 20.5-10.6 9.9-.2 19.7-.1 29.6-.1h4.4c-2.4-2.5-4.3-4.4-6.1-6.4-22.6-25.2-31.4-54.6-27-88.2.3-2.6-.6-5.4-1-8-2.4-18.2 6.2-34.8 22.7-44 2.2-1.2 4.3-2.9 6.1-4.7 29.5-29.5 64.5-39.5 105.1-29.8 4.6 1.1 6.4 3.8 5.4 7.4-.9 3.3-3.8 4.5-8.2 3.4-29-7.2-55.8-2.4-80.4 14.7-.9.6-1.8 1.4-2.7 2.1-.2.1-.2.4-.3.7 4 .7 8.1 1.2 12 2.2 11.7 3.2 20.9 9.8 27.3 20.2 1.1 1.8 2.4 2.5 4.5 2.4 10-.1 20 0 29.9-.1 1.2 0 3-.7 3.6-1.7 8.8-14.1 21.8-21.1 38.1-22.6.5 0 1-.1 1.5-.2.1 0 .2-.1.9-.6-4.1-2.7-8-5.3-11.9-7.7-4-2.5-5.2-5.5-3.5-8.5 1.8-3.1 5-3.5 9.1-1.1 9.5 5.4 17.9 12.2 25.4 20.2 1.2 1.3 2.7 2.6 4.3 3.4 17.1 8.9 28.3 28.1 22.8 49.3-.6 2.2 0 4.7.3 7 3.5 34.4-7 63.9-31.3 88.5-.4.4-.9.9-1.3 1.4-.1.1-.1.4-.2 1h26.8c3.2 0 6.5-.2 9.7.4 14 2.3 23.6 14.5 22.6 28.1-1.2 14.5-12.2 24.9-27.1 25.1-13.8.2-27.7 0-41.5 0h-4.8v108.5c0 19.4-8.5 30.5-27.3 35.7-.2.1-.4.3-.5.5h-9.7c-2.2-.7-4.5-1.3-6.7-2.1-6.7-2.3-11.7-6.7-15.7-11.9-3.3 2.9-6 6.2-9.4 8.2-4 2.4-8.7 3.9-13.1 5.8-3.4-.3-6.6-.3-9.9-.3zm-61.6-278.3c1 35.3 15.1 62.4 43.8 81.3 32.3 21.3 73.7 20.3 105.7-1.6 25.7-17.6 45.3-55.7 40.4-79.1-.8.7-1.6 1.3-2.3 1.9-22.8 19.7-56.8 14.9-73.4-10.2-.7-1.1-2.5-2-3.8-2-8.4-.2-16.7.2-25.1-.2-5.3-.3-9.5.5-11.6 5.9-.2.6-.7 1-1.1 1.5-16.6 20.1-47.9 23-68.2 6.2-1.2-1-2.4-2-4.4-3.7zM260 375.3c-.2.4-.4.6-.4.9 0 13.5-.4 27 .1 40.4.5 11.8 10.7 20.5 22.3 20.2 11.5-.3 20.7-9.5 21-21.2.2-12.8.1-25.7.1-38.5 0-.6-.2-1.2-.4-1.8H260zm-54.9-.1c-.2.7-.3.9-.3 1.2 0 12.6-.1 25.2 0 37.7 0 12.9 9.5 22.7 21.8 22.7s21.6-9.7 21.7-22.7c.1-11.8 0-23.7 0-35.5 0-1.1-.1-2.2-.2-3.3-14.6-.1-28.8-.1-43-.1zm110.7-267c-7.6.2-14.6 2.1-21 6.2-18 11.7-20.1 34.4-4.5 49.2 13.7 13 37.1 12.8 51-.5 13.3-12.8 13.1-32.5-.5-45-7-6.7-15.6-9.5-25-9.9zm-122.2-.1c-2.4.5-6.9 1-11 2.5-12.7 4.9-21.2 13.7-22.3 27.8-1.1 12.8 4.9 22.4 15.5 29 13.1 8.2 30.2 7.4 42.6-1.8 17.2-12.8 17.3-36.7.3-49.7-6.8-5.1-14.5-7.4-25.1-7.8zm120.8 183.6c.9.1 1.3.3 1.8.3 15 0 29.9.1 44.9-.1 2.2 0 4.5-.6 6.5-1.5 6.6-2.9 10-10.1 8.6-17.3-1.4-7-7.6-12.2-15-12.2-14-.1-27.9 0-41.9 0h-4.9v30.8zm-121.1.4V261c-15.2 0-30.3-.2-45.3.1-5.1.1-9 3.4-11.5 8-5.7 10.6 1.9 22.8 14.5 22.9 11.7.1 23.4 0 35.1 0 2.4.1 4.7.1 7.2.1zm43-15.8c1.9 9.4 10.5 16.2 20 15.7s17.4-7.3 18.5-15.7c-6.3.4-12.6 1.1-18.9 1.1-6.4.1-12.9-.7-19.6-1.1zm32.6-143.4h-26.5v15.6h26.5v-15.6z"/>
  <path fill="#fff" d="M231.7 448c4.4-1.9 9.1-3.3 13.1-5.8 3.4-2.1 6.1-5.3 9.4-8.2 4 5.2 9.1 9.6 15.7 11.9 2.2.8 4.5 1.4 6.7 2.1h-44.9z"/>
  <path d="M209.6 191.9c8.2.1 15 6.3 15.7 14.6.3 3.7-1.6 6.4-4.8 6.8-3.1.4-5.5-1.4-6.2-5-.5-2.8-1.6-5.1-4.9-5.1-3.2 0-4.4 2.1-4.8 5.1-.5 3.5-3.2 5.4-6.2 5-3.1-.4-5-2.9-4.9-6.4.3-8.2 7.6-15 16.1-15zM301.7 191.9c8 0 14.7 5.7 15.9 13.5.7 4.2-1 7.1-4.4 7.8-3.4.7-5.8-1.3-6.7-5.7-.5-2.7-1.9-4.3-4.7-4.3-2.6 0-4.1 1.6-4.6 4-.1.5-.1 1-.3 1.5-.8 3.2-3.2 5-6.2 4.6-3-.4-4.9-2.9-4.8-6.1.1-8.3 7.3-15.2 15.8-15.3zM257.1 230.4c-7.2 0-12.1-2.1-16.1-6.3-2.5-2.6-2.5-5.7-.4-8s5.2-2.3 8-.1c5.4 4.3 8.7 4.3 13.9.1 2.8-2.3 5.8-2.3 8 0 2.3 2.3 2.1 5.6-.5 8.3-3.9 4-8.7 6-12.9 6zM316 160c-6.9 0-12.4-2-17-6.2-8.1-7.4-7.9-19.1.2-26.4 8.6-7.7 22.8-8 31.8-.8 9.5 7.7 9.4 20.8-.3 28.3-4.5 3.5-9.6 5.2-14.7 5.1zm-.3-11.3c6 0 11-3.6 11.1-7.9.1-4.4-5-8.1-11.2-8.1-6.2 0-11.4 3.7-11.3 8 0 4.4 5.2 8 11.4 8zM195.4 121.5c6.1 0 11.3 1.6 15.7 5.2 9.5 7.6 9.4 20.5 0 28.1-8.2 6.6-21 7-29.7.9-11-7.7-11-22.1 0-29.9 4.4-3 9.2-4.5 14-4.3zm.9 27.5c1.8-.6 4.5-.7 6.2-2.1 2-1.6 4.1-4.1 4.2-6.3.1-2-2.1-4.7-4.1-6-3.4-2.4-7.5-2.4-11.5-1.1-3.5 1.1-6.4 3.1-6.6 7.2-.2 3.1 2.4 6 6.5 7.3 1.5.4 3.1.6 5.3 1z"/>
</svg>
