<svg xmlns="http://www.w3.org/2000/svg" width="32" height="32" fill="none"><path stroke="currentColor" stroke-linecap="round" stroke-linejoin="round" stroke-width="1.5" d="M20 6.667h-8A5.333 5.333 0 0 0 6.667 12v8A5.333 5.333 0 0 0 12 25.333h8A5.333 5.333 0 0 0 25.333 20v-8A5.333 5.333 0 0 0 20 6.667Z" clip-rule="evenodd"/><path stroke="currentColor" stroke-linecap="round" stroke-linejoin="round" stroke-width="1.5" d="M16 20a4 4 0 1 1 0-8 4 4 0 0 1 0 8Z" clip-rule="evenodd"/><rect width="2.667" height="2.667" x="20" y="12" fill="currentColor" rx="1" transform="rotate(-90 20 12)"/><rect width="1.333" height="1.333" x="20.667" y="11.333" stroke="currentColor" stroke-linecap="round" rx=".5" transform="rotate(-90 20.667 11.333)"/></svg>
