<svg xmlns="http://www.w3.org/2000/svg" fill="none" viewBox="0 0 24 24">
  <path fill="currentColor" d="M19.5 9.02a.5.5 0 1 0 1-.035l-1 .035Zm-3.786-4.018v.5a.49.49 0 0 0 .017 0l-.017-.5Zm-6.428 0-.017.5a.49.49 0 0 0 .017 0v-.5ZM4.5 8.985a.5.5 0 1 0 1 .035l-1-.035Zm16 .017a.5.5 0 0 0-1 0h1Zm-.5 6 .5.018v-.018H20Zm-4.286 4 .017-.5h-.017v.5Zm-6.428 0v-.5h-.017l.017.5Zm-4.286-4h-.5v.018l.5-.018Zm.5-6a.5.5 0 0 0-1 0h1Zm14.752.432a.5.5 0 0 0-.504-.863l.504.863Zm-5.516 2.643-.252-.431-.004.002.256.43Zm-4.472 0 .256-.429-.004-.002-.252.431ZM5.252 8.571a.5.5 0 1 0-.504.863l.504-.863Zm15.248.414a4.65 4.65 0 0 0-4.803-4.482l.034 1A3.65 3.65 0 0 1 19.5 9.02l.999-.035Zm-4.786-4.483H9.286v1h6.428v-1Zm-6.411 0A4.65 4.65 0 0 0 4.5 8.986l1 .035a3.65 3.65 0 0 1 3.77-3.518l.033-1Zm10.197 4.5v6h1v-6h-1Zm0 5.983a3.65 3.65 0 0 1-3.77 3.518l-.033 1A4.65 4.65 0 0 0 20.5 15.02l-1-.035Zm-3.786 3.517H9.286v1h6.428v-1Zm-6.445 0a3.65 3.65 0 0 1-3.77-3.517l-.999.035a4.65 4.65 0 0 0 4.803 4.482l-.034-1Zm-3.769-3.5v-6h-1v6h1Zm14.248-6.431-5.264 3.075.504.863 5.264-3.075-.504-.863Zm-5.268 3.077a3.86 3.86 0 0 1-3.96 0l-.512.859a4.861 4.861 0 0 0 4.984 0l-.512-.859Zm-3.964-.002L5.252 8.57l-.504.863 5.264 3.075.504-.863Z"/>
</svg>
