<svg width="24" height="24" fill="none" xmlns="http://www.w3.org/2000/svg"><path clip-rule="evenodd" d="M6.556 12a5.444 5.444 0 1 1 10.888.002A5.444 5.444 0 0 1 6.556 12v0Z" stroke="currentColor" stroke-linecap="round" stroke-linejoin="round"/><path clip-rule="evenodd" d="M9.667 12a2.333 2.333 0 1 1 4.666.001A2.333 2.333 0 0 1 9.667 12v0Z" stroke="currentColor" stroke-linecap="round" stroke-linejoin="round"/><path d="M17.444 11.5a.5.5 0 0 0 0 1v-1Zm1.556 1a.5.5 0 0 0 0-1v1Zm-14-1a.5.5 0 0 0 0 1v-1Zm1.556 1a.5.5 0 0 0 0-1v1ZM11.5 6.556a.5.5 0 0 0 1 0h-1ZM12.5 5a.5.5 0 0 0-1 0h1Zm-1 14a.5.5 0 0 0 1 0h-1Zm1-1.556a.5.5 0 0 0-1 0h1Zm4.944-4.944H19v-1h-1.556v1ZM5 12.5h1.556v-1H5v1Zm7.5-5.944V5h-1v1.556h1ZM12.5 19v-1.556h-1V19h1Z" fill="currentColor"/></svg>