<svg xmlns="http://www.w3.org/2000/svg" width="24" height="24" fill="none"><path fill="currentColor" d="M8.953 15.428a.5.5 0 0 0-.105-.994l.105.994Zm-3.307.526-.241-.438a.476.476 0 0 0-.035.021l.276.417Zm-.436 1.422-.387.317c.017.02.036.04.055.057l.332-.374Zm2.575 1.191.111-.488a.468.468 0 0 0-.04-.007l-.07.495ZM12 19l.01-.5h-.02l.01.5Zm4.215-.432-.07-.495a.465.465 0 0 0-.04.008l.11.487Zm2.575-1.191.332.374a.498.498 0 0 0 .055-.057l-.387-.317Zm-.436-1.422.277-.417a.582.582 0 0 0-.035-.02l-.242.437Zm-3.201-1.521a.5.5 0 1 0-.105.994l.105-.994ZM12 14.627l-.344.363a.5.5 0 0 0 .688 0L12 14.627Zm-2.97-2.819.344-.363-.004-.004-.34.367Zm0-5.64.34.367-.34-.367Zm5.94 0-.34.366.34-.366Zm0 5.64-.34-.367-.004.004.344.363ZM12 10.5l-.008.5h.004l.004-.5Zm-1.352-1.392.5.006-.5-.006Zm1.385-1.36.004-.5-.004.5ZM13.4 9.126l.5.005v-.004l-.5-.001Zm-4.552 5.308a9.1 9.1 0 0 0-3.443 1.082l.483.876a8.1 8.1 0 0 1 3.065-.964l-.105-.994ZM5.37 15.537c-.38.253-.695.572-.817.97-.133.433-.006.848.27 1.186l.774-.634c-.112-.137-.103-.21-.088-.259.025-.082.123-.236.414-.43l-.553-.833Zm-.492 2.213a5.425 5.425 0 0 0 2.837 1.312l.14-.99a4.425 4.425 0 0 1-2.313-1.07l-.663.748Zm2.796 1.305a18 18 0 0 0 4.336.445l-.02-1a17 17 0 0 1-4.094-.42l-.222.975Zm4.317.445a17.994 17.994 0 0 0 4.335-.444l-.222-.976a16.999 16.999 0 0 1-4.094.42l-.02 1Zm4.294-.437a5.425 5.425 0 0 0 2.837-1.312l-.663-.748a4.425 4.425 0 0 1-2.314 1.07l.14.99Zm2.892-1.37c.277-.337.404-.752.27-1.185-.121-.398-.436-.717-.816-.97l-.553.834c.29.192.388.347.414.43.014.047.024.121-.089.258l.774.634Zm-.581-2.176a9.1 9.1 0 0 0-3.443-1.083l-.105.994a8.1 8.1 0 0 1 3.065.965l.483-.876Zm-6.252-1.253-2.97-2.819-.688.726 2.97 2.819.688-.726ZM9.37 11.442A3.347 3.347 0 0 1 8.3 8.987h-1c0 1.21.504 2.364 1.39 3.187l.68-.734ZM8.3 8.987c0-.931.388-1.82 1.07-2.453l-.68-.733A4.347 4.347 0 0 0 7.3 8.988h1Zm1.07-2.454a3.86 3.86 0 0 1 5.26 0l.68-.732a4.86 4.86 0 0 0-6.62 0l.68.732Zm5.26 0a3.347 3.347 0 0 1 1.07 2.454h1c0-1.21-.503-2.364-1.39-3.186l-.68.733Zm1.07 2.454c0 .931-.387 1.82-1.07 2.454l.68.732a4.347 4.347 0 0 0 1.39-3.186h-1Zm-1.074 2.457-2.97 2.82.688.725 2.97-2.82-.688-.725ZM12.009 10a.876.876 0 0 1-.86-.886l-1-.012A1.876 1.876 0 0 0 11.991 11l.017-1Zm-.86-.886a.876.876 0 0 1 .881-.866l.007-1a1.876 1.876 0 0 0-1.889 1.854l1 .012Zm.881-.866c.482.003.87.395.87.877l1 .002a1.876 1.876 0 0 0-1.863-1.879l-.007 1Zm.87.873a.888.888 0 0 1-.895.879l-.01 1A1.888 1.888 0 0 0 13.9 9.131l-1-.01Z"/></svg>
