<svg xmlns="http://www.w3.org/2000/svg" width="24" height="24" fill="none"><path stroke="currentColor" stroke-linecap="round" stroke-linejoin="round" stroke-miterlimit="10" d="M17.09 5.226c-1.487-.65-3.254.15-3.858 1.75-.233.55-.28 1.15-.233 1.7.186 1.65.047 3.35-.558 4.85l-.279.65c-.418 1 0 2.2.93 2.65.93.45 2 0 2.418-1.05l.604-1.5c.605-1.45 1.395-2.8 2.279-4.05.14-.2.232-.4.372-.65.65-1.7-.093-3.7-1.674-4.35Z"/><path stroke="currentColor" stroke-linecap="round" stroke-linejoin="round" stroke-miterlimit="10" d="M6.182 6.226c1.7-.65 3.72.15 4.41 1.75.266.55.32 1.15.266 1.7-.213 1.65-.053 3.35.638 4.85l.318.65c.479 1 0 2.2-1.062 2.65-1.063.45-2.285 0-2.763-1.05l-.691-1.5c-.69-1.45-1.594-2.8-2.604-4.05-.16-.2-.266-.4-.425-.65-.744-1.7.106-3.7 1.913-4.35ZM13 9.93c.825-.113 1.602-.676 2.087-1.465L16.01 7c-.243 1.746.63 3.38 1.99 4"/><path stroke="currentColor" stroke-linecap="round" stroke-linejoin="round" stroke-miterlimit="10" d="M11 11.233a4.145 4.145 0 0 1-2.914-1.644L6.886 8C7.17 9.589 6.37 11.178 5 12"/></svg>
