<svg xmlns="http://www.w3.org/2000/svg" xml:space="preserve" width="200" height="200" style="fill-rule:evenodd;clip-rule:evenodd;stroke-linecap:round;stroke-linejoin:round;stroke-miterlimit:1.5"><path d="M50.21 76.348s-.018-11.286 11.285-11.286h31.792s11.39-.098 11.39 11.39c0 11.489.36 29.336.36 29.336s1.448 36.726-19.848 52.362c-9.413 6.911-22.298-4.861-15.112-14.419 3.126-4.158 7.893-12.235 7.893-12.235s4.823-12.701-7.03-13.597c-7.335-.555-9.775-.998-9.775-.998s-11.127-1.773-11.127-10.92c0-9.148.172-29.633.172-29.633Z" style="stroke:currentColor;stroke-width:1px" transform="translate(-16.055 -12.644)"/><path d="M50.21 76.348s-.018-11.286 11.285-11.286h31.792s11.39-.098 11.39 11.39c0 11.489.36 29.336.36 29.336s1.448 36.726-19.848 52.362c-9.413 6.911-22.298-4.861-15.112-14.419 3.126-4.158 7.893-12.235 7.893-12.235s4.823-12.701-7.03-13.597c-7.335-.555-9.775-.998-9.775-.998s-11.127-1.773-11.127-10.92c0-9.148.172-29.633.172-29.633Z" style="stroke:currentColor;stroke-width:1px" transform="translate(60.96 -12.644)"/></svg>
