<svg width="719" height="719" viewBox="0 0 719 719" fill="none" xmlns="http://www.w3.org/2000/svg">
<path d="M324.9 552C323 551.5 321.1 551 319.2 550.4C305.9 546.1 296.6 533.7 296.5 519.7C296.4 495.6 296.4 471.5 296.5 447.5C296.5 443.4 298.6 440.9 301.9 440.8C305.3 440.7 307.6 443.3 307.7 447.6V467.7H351.2V448.7C351.2 447.3 351.1 445.9 351.2 444.6C351.5 441.1 353.9 439 357.1 439.1C360.1 439.2 362.3 441.4 362.4 444.7C362.5 450.9 362.4 457.2 362.4 463.4V467.7H405.7V371.1C400.6 373.1 395.7 374.8 390.8 377C390 377.4 389.6 379.3 389.4 380.5C387.1 395.7 375 406.6 359.5 407.4C345.3 408.1 331.5 398.2 328.5 383.8C327.4 378.3 325.1 375.9 320 374.5C315.9 373.4 312 371.1 307.6 369.2V424C307.4 427.8 305.2 430.2 302 430.2C298.8 430.2 296.4 427.8 296.4 424C296.3 418.7 296.4 413.3 296.4 407.7C294.8 407.6 293.5 407.5 292.1 407.5C279.3 407.5 266.4 407.6 253.6 407.4C242.6 407.2 234.1 402.3 229.2 392.3C224.5 382.6 225.5 373.1 231.9 364.4C236.9 357.6 243.9 354 252.4 353.8C262.3 353.6 272.1 353.7 282 353.7H286.4C284 351.2 282.1 349.3 280.3 347.3C257.7 322.1 248.9 292.7 253.3 259.1C253.6 256.5 252.7 253.7 252.3 251.1C249.9 232.9 258.5 216.3 275 207.1C277.2 205.9 279.3 204.2 281.1 202.4C310.6 172.9 345.6 162.9 386.2 172.6C390.8 173.7 392.6 176.4 391.6 180C390.7 183.3 387.8 184.5 383.4 183.4C354.4 176.2 327.6 181 303 198.1C302.1 198.7 301.2 199.5 300.3 200.2C300.1 200.3 300.1 200.6 300 200.9C304 201.6 308.1 202.1 312 203.1C323.7 206.3 332.9 212.9 339.3 223.3C340.4 225.1 341.7 225.8 343.8 225.7C353.8 225.6 363.8 225.7 373.7 225.6C374.9 225.6 376.7 224.9 377.3 223.9C386.1 209.8 399.1 202.8 415.4 201.3C415.9 201.3 416.4 201.2 416.9 201.1C417 201.1 417.1 201 417.8 200.5C413.7 197.8 409.8 195.2 405.9 192.8C401.9 190.3 400.7 187.3 402.4 184.3C404.2 181.2 407.4 180.8 411.5 183.2C421 188.6 429.4 195.4 436.9 203.4C438.1 204.7 439.6 206 441.2 206.8C458.3 215.7 469.5 234.9 464 256.1C463.4 258.3 464 260.8 464.3 263.1C467.8 297.5 457.3 327 433 351.6C432.6 352 432.1 352.5 431.7 353C431.6 353.1 431.6 353.4 431.5 354H458.3C461.5 354 464.8 353.8 468 354.4C482 356.7 491.6 368.9 490.6 382.5C489.4 397 478.4 407.4 463.5 407.6C449.7 407.8 435.8 407.6 422 407.6H417.2V516.1C417.2 535.5 408.7 546.6 389.9 551.8C389.7 551.9 389.5 552.1 389.4 552.3H379.7C377.5 551.6 375.2 551 373 550.2C366.3 547.9 361.3 543.5 357.3 538.3C354 541.2 351.3 544.5 347.9 546.5C343.9 548.9 339.2 550.4 334.8 552.3C331.4 552 328.2 552 324.9 552ZM263.3 273.7C264.3 309 278.4 336.1 307.1 355C339.4 376.3 380.8 375.3 412.8 353.4C438.5 335.8 458.1 297.7 453.2 274.3C452.4 275 451.6 275.6 450.9 276.2C428.1 295.9 394.1 291.1 377.5 266C376.8 264.9 375 264 373.7 264C365.3 263.8 357 264.2 348.6 263.8C343.3 263.5 339.1 264.3 337 269.7C336.8 270.3 336.3 270.7 335.9 271.2C319.3 291.3 288 294.2 267.7 277.4C266.5 276.4 265.3 275.4 263.3 273.7ZM363 479.3C362.8 479.7 362.6 479.9 362.6 480.2C362.6 493.7 362.2 507.2 362.7 520.6C363.2 532.4 373.4 541.1 385 540.8C396.5 540.5 405.7 531.3 406 519.6C406.2 506.8 406.1 493.9 406.1 481.1C406.1 480.5 405.9 479.9 405.7 479.3H363ZM308.1 479.2C307.9 479.9 307.8 480.1 307.8 480.4C307.8 493 307.7 505.6 307.8 518.1C307.8 531 317.3 540.8 329.6 540.8C341.9 540.8 351.2 531.1 351.3 518.1C351.4 506.3 351.3 494.4 351.3 482.6C351.3 481.5 351.2 480.4 351.1 479.3C336.5 479.2 322.3 479.2 308.1 479.2ZM418.8 212.2C411.2 212.4 404.2 214.3 397.8 218.4C379.8 230.1 377.7 252.8 393.3 267.6C407 280.6 430.4 280.4 444.3 267.1C457.6 254.3 457.4 234.6 443.8 222.1C436.8 215.4 428.2 212.6 418.8 212.2ZM296.6 212.1C294.2 212.6 289.7 213.1 285.6 214.6C272.9 219.5 264.4 228.3 263.3 242.4C262.2 255.2 268.2 264.8 278.8 271.4C291.9 279.6 309 278.8 321.4 269.6C338.6 256.8 338.7 232.9 321.7 219.9C314.9 214.8 307.2 212.5 296.6 212.1ZM417.4 395.7C418.3 395.8 418.7 396 419.2 396C434.2 396 449.1 396.1 464.1 395.9C466.3 395.9 468.6 395.3 470.6 394.4C477.2 391.5 480.6 384.3 479.2 377.1C477.8 370.1 471.6 364.9 464.2 364.9C450.2 364.8 436.3 364.9 422.3 364.9H417.4V395.7ZM296.3 396.1V365C281.1 365 266 364.8 251 365.1C245.9 365.2 242 368.5 239.5 373.1C233.8 383.7 241.4 395.9 254 396C265.7 396.1 277.4 396 289.1 396C291.5 396.1 293.8 396.1 296.3 396.1ZM339.3 380.3C341.2 389.7 349.8 396.5 359.3 396C368.8 395.5 376.7 388.7 377.8 380.3C371.5 380.7 365.2 381.4 358.9 381.4C352.5 381.5 346 380.7 339.3 380.3ZM371.9 236.9H345.4V252.5H371.9V236.9Z" fill="#01233F"/>
<path d="M334.7 552C339.1 550.1 343.8 548.7 347.8 546.2C351.2 544.1 353.9 540.9 357.2 538C361.2 543.2 366.3 547.6 372.9 549.9C375.1 550.7 377.4 551.3 379.6 552H334.7Z" fill="white"/>
<path d="M312.6 295.9C320.8 296 327.6 302.2 328.3 310.5C328.6 314.2 326.7 316.9 323.5 317.3C320.4 317.7 318 315.9 317.3 312.3C316.8 309.5 315.7 307.2 312.4 307.2C309.2 307.2 308 309.3 307.6 312.3C307.1 315.8 304.4 317.7 301.4 317.3C298.3 316.9 296.4 314.4 296.5 310.9C296.8 302.7 304.1 295.9 312.6 295.9ZM404.7 295.9C412.7 295.9 419.4 301.6 420.6 309.4C421.3 313.6 419.6 316.5 416.2 317.2C412.8 317.9 410.4 315.9 409.5 311.5C409 308.8 407.6 307.2 404.8 307.2C402.2 307.2 400.7 308.8 400.2 311.2C400.1 311.7 400.1 312.2 399.9 312.7C399.1 315.9 396.7 317.7 393.7 317.3C390.7 316.9 388.8 314.4 388.9 311.2C389 302.9 396.2 296 404.7 295.9ZM360.1 334.4C352.9 334.4 348 332.3 344 328.1C341.5 325.5 341.5 322.4 343.6 320.1C345.7 317.8 348.8 317.8 351.6 320C357 324.3 360.3 324.3 365.5 320.1C368.3 317.8 371.3 317.8 373.5 320.1C375.8 322.4 375.6 325.7 373 328.4C369.1 332.4 364.3 334.4 360.1 334.4ZM419 264C412.1 264 406.6 262 402 257.8C393.9 250.4 394.1 238.7 402.2 231.4C410.8 223.7 425 223.4 434 230.6C443.5 238.3 443.4 251.4 433.7 258.9C429.2 262.4 424.1 264.1 419 264ZM418.7 252.7C424.7 252.7 429.7 249.1 429.8 244.8C429.9 240.4 424.8 236.7 418.6 236.7C412.4 236.7 407.2 240.4 407.3 244.7C407.3 249.1 412.5 252.7 418.7 252.7ZM298.4 225.5C304.5 225.5 309.7 227.1 314.1 230.7C323.6 238.3 323.5 251.2 314.1 258.8C305.9 265.4 293.1 265.8 284.4 259.7C273.4 252 273.4 237.6 284.4 229.8C288.8 226.8 293.6 225.3 298.4 225.5ZM299.3 253C301.1 252.4 303.8 252.3 305.5 250.9C307.5 249.3 309.6 246.8 309.7 244.6C309.8 242.6 307.6 239.9 305.6 238.6C302.2 236.2 298.1 236.2 294.1 237.5C290.6 238.6 287.7 240.6 287.5 244.7C287.3 247.8 289.9 250.7 294 252C295.5 252.4 297.1 252.6 299.3 253Z" fill="#01233F"/>
</svg>
