<svg width="719" height="719" viewBox="0 0 719 719" fill="none" xmlns="http://www.w3.org/2000/svg">
<g clip-path="url(#clip0_1167_39)">
<path d="M173.9 550C172 549.5 170.1 549 168.2 548.4C154.9 544.1 145.6 531.7 145.5 517.7C145.4 493.6 145.4 469.5 145.5 445.5C145.5 441.4 147.6 438.9 150.9 438.8C154.3 438.7 156.6 441.3 156.7 445.6V465.7H200.2V446.7C200.2 445.3 200.1 443.9 200.2 442.6C200.5 439.1 202.9 437 206.1 437.1C209.1 437.2 211.3 439.4 211.4 442.7C211.5 448.9 211.4 455.2 211.4 461.4V465.7H254.7V369.1C249.6 371.1 244.7 372.8 239.8 375C239 375.4 238.6 377.3 238.4 378.5C236.1 393.7 224 404.6 208.5 405.4C194.3 406.1 180.5 396.2 177.5 381.8C176.4 376.3 174.1 373.9 169 372.5C164.9 371.4 161 369.1 156.6 367.2V422C156.4 425.8 154.2 428.2 151 428.2C147.8 428.2 145.4 425.8 145.4 422C145.3 416.7 145.4 411.3 145.4 405.7C143.8 405.6 142.5 405.5 141.1 405.5C128.3 405.5 115.4 405.6 102.6 405.4C91.6 405.2 83.1 400.3 78.2 390.3C73.5 380.6 74.5 371.1 80.9 362.4C85.9 355.6 92.9 352 101.4 351.8C111.3 351.6 121.1 351.7 131 351.7H135.4C133 349.2 131.1 347.3 129.3 345.3C106.7 320.1 97.9 290.7 102.3 257.1C102.6 254.5 101.7 251.7 101.3 249.1C98.9 230.9 107.5 214.3 124 205.1C126.2 203.9 128.3 202.2 130.1 200.4C159.6 170.9 194.6 160.9 235.2 170.6C239.8 171.7 241.6 174.4 240.6 178C239.7 181.3 236.8 182.5 232.4 181.4C203.4 174.2 176.6 179 152 196.1C151.1 196.7 150.2 197.5 149.3 198.2C149.1 198.3 149.1 198.6 149 198.9C153 199.6 157.1 200.1 161 201.1C172.7 204.3 181.9 210.9 188.3 221.3C189.4 223.1 190.7 223.8 192.8 223.7C202.8 223.6 212.8 223.7 222.7 223.6C223.9 223.6 225.7 222.9 226.3 221.9C235.1 207.8 248.1 200.8 264.4 199.3C264.9 199.3 265.4 199.2 265.9 199.1C266 199.1 266.1 199 266.8 198.5C262.7 195.8 258.8 193.2 254.9 190.8C250.9 188.3 249.7 185.3 251.4 182.3C253.2 179.2 256.4 178.8 260.5 181.2C270 186.6 278.4 193.4 285.9 201.4C287.1 202.7 288.6 204 290.2 204.8C307.3 213.7 318.5 232.9 313 254.1C312.4 256.3 313 258.8 313.3 261.1C316.8 295.5 306.3 325 282 349.6C281.6 350 281.1 350.5 280.7 351C280.6 351.1 280.6 351.4 280.5 352H307.3C310.5 352 313.8 351.8 317 352.4C331 354.7 340.6 366.9 339.6 380.5C338.4 395 327.4 405.4 312.5 405.6C298.7 405.8 284.8 405.6 271 405.6H266.2V514.1C266.2 533.5 257.7 544.6 238.9 549.8C238.7 549.9 238.5 550.1 238.4 550.3H228.7C226.5 549.6 224.2 549 222 548.2C215.3 545.9 210.3 541.5 206.3 536.3C203 539.2 200.3 542.5 196.9 544.5C192.9 546.9 188.2 548.4 183.8 550.3C180.4 550 177.2 550 173.9 550ZM112.3 271.7C113.3 307 127.4 334.1 156.1 353C188.4 374.3 229.8 373.3 261.8 351.4C287.5 333.8 307.1 295.7 302.2 272.3C301.4 273 300.6 273.6 299.9 274.2C277.1 293.9 243.1 289.1 226.5 264C225.8 262.9 224 262 222.7 262C214.3 261.8 206 262.2 197.6 261.8C192.3 261.5 188.1 262.3 186 267.7C185.8 268.3 185.3 268.7 184.9 269.2C168.3 289.3 137 292.2 116.7 275.4C115.5 274.4 114.3 273.4 112.3 271.7ZM212 477.3C211.8 477.7 211.6 477.9 211.6 478.2C211.6 491.7 211.2 505.2 211.7 518.6C212.2 530.4 222.4 539.1 234 538.8C245.5 538.5 254.7 529.3 255 517.6C255.2 504.8 255.1 491.9 255.1 479.1C255.1 478.5 254.9 477.9 254.7 477.3H212ZM157.1 477.2C156.9 477.9 156.8 478.1 156.8 478.4C156.8 491 156.7 503.6 156.8 516.1C156.8 529 166.3 538.8 178.6 538.8C190.9 538.8 200.2 529.1 200.3 516.1C200.4 504.3 200.3 492.4 200.3 480.6C200.3 479.5 200.2 478.4 200.1 477.3C185.5 477.2 171.3 477.2 157.1 477.2ZM267.8 210.2C260.2 210.4 253.2 212.3 246.8 216.4C228.8 228.1 226.7 250.8 242.3 265.6C256 278.6 279.4 278.4 293.3 265.1C306.6 252.3 306.4 232.6 292.8 220.1C285.8 213.4 277.2 210.6 267.8 210.2ZM145.6 210.1C143.2 210.6 138.7 211.1 134.6 212.6C121.9 217.5 113.4 226.3 112.3 240.4C111.2 253.2 117.2 262.8 127.8 269.4C140.9 277.6 158 276.8 170.4 267.6C187.6 254.8 187.7 230.9 170.7 217.9C163.9 212.8 156.2 210.5 145.6 210.1ZM266.4 393.7C267.3 393.8 267.7 394 268.2 394C283.2 394 298.1 394.1 313.1 393.9C315.3 393.9 317.6 393.3 319.6 392.4C326.2 389.5 329.6 382.3 328.2 375.1C326.8 368.1 320.6 362.9 313.2 362.9C299.2 362.8 285.3 362.9 271.3 362.9H266.4V393.7ZM145.3 394.1V363C130.1 363 115 362.8 100 363.1C94.9 363.2 91 366.5 88.5 371.1C82.8 381.7 90.4 393.9 103 394C114.7 394.1 126.4 394 138.1 394C140.5 394.1 142.8 394.1 145.3 394.1ZM188.3 378.3C190.2 387.7 198.8 394.5 208.3 394C217.8 393.5 225.7 386.7 226.8 378.3C220.5 378.7 214.2 379.4 207.9 379.4C201.5 379.5 195 378.7 188.3 378.3ZM220.9 234.9H194.4V250.5H220.9V234.9Z" fill="#01233F"/>
<path d="M183.7 550C188.1 548.1 192.8 546.7 196.8 544.2C200.2 542.1 202.9 538.9 206.2 536C210.2 541.2 215.3 545.6 221.9 547.9C224.1 548.7 226.4 549.3 228.6 550H183.7Z" fill="white"/>
<path d="M161.6 293.9C169.8 294 176.6 300.2 177.3 308.5C177.6 312.2 175.7 314.9 172.5 315.3C169.4 315.7 167 313.9 166.3 310.3C165.8 307.5 164.7 305.2 161.4 305.2C158.2 305.2 157 307.3 156.6 310.3C156.1 313.8 153.4 315.7 150.4 315.3C147.3 314.9 145.4 312.4 145.5 308.9C145.8 300.7 153.1 293.9 161.6 293.9ZM253.7 293.9C261.7 293.9 268.4 299.6 269.6 307.4C270.3 311.6 268.6 314.5 265.2 315.2C261.8 315.9 259.4 313.9 258.5 309.5C258 306.8 256.6 305.2 253.8 305.2C251.2 305.2 249.7 306.8 249.2 309.2C249.1 309.7 249.1 310.2 248.9 310.7C248.1 313.9 245.7 315.7 242.7 315.3C239.7 314.9 237.8 312.4 237.9 309.2C238 300.9 245.2 294 253.7 293.9ZM209.1 332.4C201.9 332.4 197 330.3 193 326.1C190.5 323.5 190.5 320.4 192.6 318.1C194.7 315.8 197.8 315.8 200.6 318C206 322.3 209.3 322.3 214.5 318.1C217.3 315.8 220.3 315.8 222.5 318.1C224.8 320.4 224.6 323.7 222 326.4C218.1 330.4 213.3 332.4 209.1 332.4ZM268 262C261.1 262 255.6 260 251 255.8C242.9 248.4 243.1 236.7 251.2 229.4C259.8 221.7 274 221.4 283 228.6C292.5 236.3 292.4 249.4 282.7 256.9C278.2 260.4 273.1 262.1 268 262ZM267.7 250.7C273.7 250.7 278.7 247.1 278.8 242.8C278.9 238.4 273.8 234.7 267.6 234.7C261.4 234.7 256.2 238.4 256.3 242.7C256.3 247.1 261.5 250.7 267.7 250.7ZM147.4 223.5C153.5 223.5 158.7 225.1 163.1 228.7C172.6 236.3 172.5 249.2 163.1 256.8C154.9 263.4 142.1 263.8 133.4 257.7C122.4 250 122.4 235.6 133.4 227.8C137.8 224.8 142.6 223.3 147.4 223.5ZM148.3 251C150.1 250.4 152.8 250.3 154.5 248.9C156.5 247.3 158.6 244.8 158.7 242.6C158.8 240.6 156.6 237.9 154.6 236.6C151.2 234.2 147.1 234.2 143.1 235.5C139.6 236.6 136.7 238.6 136.5 242.7C136.3 245.8 138.9 248.7 143 250C144.5 250.4 146.1 250.6 148.3 251Z" fill="#01233F"/>
<path d="M377.095 561.75C375.484 561.326 373.874 560.902 372.263 560.394C360.989 556.749 353.106 546.238 353.021 534.371C352.937 513.942 352.937 493.514 353.021 473.17C353.021 469.694 354.802 467.575 357.599 467.491C360.481 467.406 362.43 469.61 362.515 473.255V490.293H399.388V474.187C399.388 473 399.304 471.814 399.388 470.712C399.643 467.745 401.677 465.965 404.389 466.05C406.932 466.134 408.797 467.999 408.882 470.796C408.967 476.052 408.882 481.392 408.882 486.648V490.293H445.586V408.409C441.263 410.104 437.109 411.545 432.955 413.41C432.277 413.749 431.938 415.36 431.769 416.377C429.819 429.261 419.562 438.501 406.424 439.179C394.387 439.772 382.689 431.38 380.146 419.174C379.214 414.512 377.264 412.478 372.941 411.291C369.466 410.359 366.16 408.409 362.43 406.798V453.25C362.261 456.471 360.396 458.505 357.684 458.505C354.971 458.505 352.937 456.471 352.937 453.25C352.852 448.757 352.937 444.18 352.937 439.433C351.58 439.348 350.479 439.264 349.292 439.264C338.442 439.264 327.507 439.348 316.657 439.179C307.333 439.009 300.128 434.856 295.974 426.379C291.99 418.157 292.838 410.104 298.263 402.73C302.501 396.966 308.435 393.914 315.64 393.744C324.032 393.575 332.339 393.66 340.73 393.66H344.46C342.426 391.541 340.815 389.93 339.289 388.235C320.132 366.874 312.673 341.953 316.403 313.471C316.657 311.268 315.894 308.894 315.555 306.69C313.521 291.263 320.811 277.192 334.797 269.393C336.662 268.376 338.442 266.935 339.968 265.409C364.973 240.403 394.641 231.927 429.056 240.149C432.955 241.082 434.481 243.37 433.634 246.422C432.871 249.219 430.412 250.236 426.683 249.304C402.101 243.201 379.384 247.269 358.531 261.764C357.768 262.273 357.005 262.951 356.243 263.544C356.073 263.629 356.073 263.884 355.988 264.138C359.379 264.731 362.854 265.155 366.16 266.003C376.078 268.715 383.876 274.31 389.301 283.125C390.234 284.651 391.336 285.244 393.116 285.16C401.592 285.075 410.069 285.16 418.461 285.075C419.478 285.075 421.003 284.482 421.512 283.634C428.971 271.682 439.991 265.748 453.808 264.477C454.232 264.477 454.655 264.392 455.079 264.307C455.164 264.307 455.249 264.223 455.842 263.799C452.367 261.51 449.061 259.306 445.755 257.272C442.364 255.153 441.347 252.61 442.788 250.067C444.314 247.439 447.027 247.1 450.502 249.134C458.555 253.712 465.675 259.476 472.032 266.257C473.05 267.359 474.321 268.461 475.677 269.139C490.172 276.683 499.666 292.958 495.004 310.928C494.495 312.793 495.004 314.912 495.258 316.862C498.225 346.021 489.325 371.027 468.727 391.88C468.387 392.219 467.964 392.643 467.625 393.066C467.54 393.151 467.54 393.405 467.455 393.914H490.172C492.885 393.914 495.682 393.744 498.395 394.253C510.262 396.203 518.399 406.544 517.552 418.072C516.534 430.363 507.21 439.179 494.58 439.348C482.882 439.518 471.1 439.348 459.402 439.348H455.334V531.319C455.334 547.764 448.129 557.173 432.193 561.58C432.023 561.665 431.854 561.835 431.769 562.004H423.546C421.682 561.411 419.732 560.902 417.867 560.224C412.188 558.275 407.95 554.545 404.559 550.137C401.762 552.595 399.473 555.393 396.591 557.088C393.2 559.122 389.216 560.394 385.487 562.004C382.605 561.75 379.892 561.75 377.095 561.75ZM324.879 325.847C325.727 355.769 337.679 378.741 362.007 394.762C389.386 412.817 424.479 411.969 451.604 393.405C473.389 378.487 490.003 346.191 485.849 326.356C485.171 326.949 484.493 327.458 483.9 327.966C464.573 344.665 435.753 340.596 421.682 319.32C421.088 318.388 419.563 317.625 418.461 317.625C411.34 317.455 404.305 317.794 397.184 317.455C392.692 317.201 389.132 317.879 387.352 322.457C387.182 322.965 386.758 323.304 386.419 323.728C372.348 340.766 345.816 343.224 328.609 328.984C327.592 328.136 326.575 327.288 324.879 325.847ZM409.391 500.125C409.221 500.464 409.052 500.634 409.052 500.888C409.052 512.332 408.713 523.775 409.136 535.134C409.56 545.136 418.206 552.51 428.039 552.256C437.787 552.002 445.586 544.203 445.84 534.286C446.009 523.436 445.925 512.501 445.925 501.651C445.925 501.143 445.755 500.634 445.586 500.125H409.391ZM362.854 500.041C362.685 500.634 362.6 500.803 362.6 501.058C362.6 511.738 362.515 522.419 362.6 533.014C362.6 543.949 370.653 552.256 381.079 552.256C391.505 552.256 399.388 544.034 399.473 533.014C399.558 523.012 399.473 512.925 399.473 502.923C399.473 501.99 399.388 501.058 399.304 500.125C386.928 500.041 374.891 500.041 362.854 500.041ZM456.69 273.716C450.248 273.886 444.314 275.496 438.889 278.972C423.631 288.889 421.851 308.131 435.075 320.677C446.687 331.696 466.523 331.527 478.305 320.253C489.579 309.403 489.409 292.704 477.881 282.108C471.948 276.429 464.658 274.055 456.69 273.716ZM353.106 273.632C351.072 274.055 347.257 274.479 343.782 275.751C333.017 279.904 325.812 287.364 324.879 299.316C323.947 310.166 329.033 318.303 338.018 323.898C349.122 330.848 363.617 330.17 374.128 322.372C388.708 311.522 388.793 291.263 374.382 280.243C368.618 275.92 362.091 273.971 353.106 273.632ZM455.503 429.261C456.266 429.346 456.605 429.516 457.029 429.516C469.744 429.516 482.374 429.6 495.089 429.431C496.954 429.431 498.903 428.922 500.598 428.159C506.193 425.701 509.075 419.598 507.888 413.495C506.702 407.561 501.446 403.153 495.173 403.153C483.306 403.069 471.524 403.153 459.657 403.153H455.503V429.261ZM352.852 429.6V403.238C339.968 403.238 327.168 403.069 314.453 403.323C310.13 403.408 306.824 406.205 304.705 410.104C299.873 419.089 306.316 429.431 316.996 429.516C326.914 429.6 336.831 429.516 346.749 429.516C348.783 429.6 350.733 429.6 352.852 429.6ZM389.301 416.207C390.912 424.175 398.202 429.939 406.254 429.516C414.307 429.092 421.003 423.328 421.936 416.207C416.596 416.546 411.255 417.14 405.915 417.14C400.49 417.225 394.98 416.546 389.301 416.207ZM416.935 294.653H394.472V307.877H416.935V294.653Z" fill="#01233F"/>
<path d="M385.402 561.75C389.132 560.139 393.116 558.953 396.506 556.834C399.388 555.054 401.677 552.341 404.474 549.883C407.865 554.291 412.188 558.02 417.782 559.97C419.647 560.648 421.597 561.157 423.462 561.75H385.402Z" fill="white"/>
<path d="M366.669 344.665C373.62 344.75 379.384 350.006 379.977 357.041C380.231 360.177 378.621 362.466 375.908 362.805C373.28 363.144 371.246 361.618 370.653 358.567C370.229 356.193 369.296 354.244 366.499 354.244C363.787 354.244 362.77 356.024 362.43 358.567C362.007 361.534 359.718 363.144 357.175 362.805C354.547 362.466 352.937 360.347 353.021 357.38C353.276 350.429 359.464 344.665 366.669 344.665ZM444.738 344.665C451.519 344.665 457.198 349.497 458.216 356.109C458.809 359.669 457.368 362.127 454.486 362.72C451.604 363.314 449.57 361.618 448.807 357.889C448.383 355.6 447.196 354.244 444.823 354.244C442.619 354.244 441.347 355.6 440.923 357.634C440.839 358.058 440.839 358.482 440.669 358.906C439.991 361.618 437.957 363.144 435.414 362.805C432.871 362.466 431.26 360.347 431.345 357.634C431.43 350.599 437.533 344.75 444.738 344.665ZM406.932 377.3C400.829 377.3 396.676 375.52 393.285 371.96C391.166 369.756 391.166 367.128 392.946 365.179C394.726 363.229 397.354 363.229 399.727 365.094C404.305 368.739 407.102 368.739 411.51 365.179C413.883 363.229 416.426 363.229 418.291 365.179C420.241 367.128 420.071 369.925 417.867 372.214C414.561 375.605 410.493 377.3 406.932 377.3ZM456.859 317.625C451.011 317.625 446.348 315.93 442.449 312.37C435.583 306.097 435.753 296.179 442.619 289.991C449.909 283.465 461.945 283.21 469.574 289.313C477.627 295.84 477.542 306.945 469.32 313.302C465.505 316.269 461.182 317.71 456.859 317.625ZM456.605 308.047C461.691 308.047 465.929 304.995 466.014 301.35C466.099 297.62 461.776 294.484 456.52 294.484C451.265 294.484 446.857 297.62 446.942 301.265C446.942 304.995 451.35 308.047 456.605 308.047ZM354.632 284.99C359.803 284.99 364.211 286.347 367.94 289.398C375.993 295.84 375.908 306.775 367.94 313.217C360.989 318.812 350.139 319.151 342.765 313.98C333.441 307.453 333.441 295.247 342.765 288.635C346.495 286.092 350.563 284.821 354.632 284.99ZM355.395 308.301C356.921 307.792 359.209 307.707 360.65 306.521C362.346 305.165 364.126 303.045 364.211 301.181C364.295 299.485 362.43 297.197 360.735 296.095C357.853 294.06 354.378 294.06 350.987 295.162C348.02 296.095 345.562 297.79 345.393 301.265C345.223 303.893 347.427 306.351 350.902 307.453C352.174 307.792 353.53 307.962 355.395 308.301Z" fill="#01233F"/>
<path d="M555.791 571.625C554.414 571.263 553.037 570.9 551.661 570.466C542.023 567.35 535.284 558.365 535.212 548.22C535.139 530.757 535.139 513.294 535.212 495.903C535.212 492.932 536.734 491.121 539.125 491.048C541.588 490.976 543.255 492.86 543.328 495.976V510.54H574.848V496.773C574.848 495.758 574.776 494.744 574.848 493.802C575.065 491.266 576.804 489.744 579.123 489.817C581.297 489.889 582.891 491.483 582.964 493.874C583.036 498.367 582.964 502.932 582.964 507.425V510.54H614.339V440.543C610.644 441.992 607.093 443.224 603.543 444.818C602.963 445.108 602.673 446.485 602.528 447.354C600.862 458.368 592.094 466.267 580.862 466.846C570.573 467.354 560.573 460.18 558.399 449.746C557.602 445.76 555.936 444.021 552.24 443.007C549.269 442.21 546.443 440.543 543.255 439.166V478.875C543.11 481.628 541.516 483.368 539.197 483.368C536.879 483.368 535.139 481.628 535.139 478.875C535.067 475.035 535.139 471.122 535.139 467.064C533.98 466.991 533.038 466.919 532.024 466.919C522.749 466.919 513.401 466.991 504.126 466.846C496.155 466.701 489.996 463.151 486.446 455.905C483.04 448.876 483.765 441.992 488.402 435.688C492.025 430.761 497.097 428.152 503.257 428.007C510.43 427.862 517.531 427.935 524.705 427.935H527.893C526.154 426.123 524.778 424.747 523.473 423.297C507.097 405.037 500.72 383.734 503.909 359.387C504.126 357.503 503.474 355.474 503.184 353.59C501.445 340.402 507.677 328.374 519.633 321.707C521.227 320.838 522.749 319.606 524.053 318.302C545.429 296.926 570.79 289.679 600.209 296.708C603.543 297.505 604.847 299.462 604.122 302.07C603.47 304.461 601.369 305.331 598.18 304.534C577.167 299.317 557.747 302.795 539.922 315.186C539.27 315.62 538.618 316.2 537.965 316.707C537.82 316.78 537.82 316.997 537.748 317.215C540.646 317.722 543.617 318.084 546.443 318.809C554.921 321.127 561.588 325.91 566.225 333.446C567.022 334.75 567.964 335.257 569.486 335.185C576.732 335.112 583.978 335.185 591.152 335.112C592.021 335.112 593.326 334.605 593.76 333.881C600.137 323.664 609.557 318.591 621.368 317.504C621.73 317.504 622.093 317.432 622.455 317.36C622.527 317.36 622.6 317.287 623.107 316.925C620.136 314.968 617.31 313.084 614.484 311.345C611.586 309.534 610.716 307.36 611.948 305.186C613.252 302.94 615.571 302.65 618.542 304.389C625.426 308.302 631.512 313.229 636.947 319.026C637.817 319.968 638.904 320.91 640.063 321.49C652.454 327.939 660.569 341.851 656.584 357.213C656.149 358.807 656.584 360.619 656.801 362.285C659.337 387.212 651.729 408.588 634.121 426.413C633.831 426.703 633.469 427.065 633.179 427.428C633.107 427.5 633.107 427.718 633.034 428.152H652.454C654.772 428.152 657.164 428.007 659.482 428.442C669.627 430.109 676.583 438.949 675.859 448.804C674.989 459.31 667.018 466.846 656.222 466.991C646.222 467.136 636.15 466.991 626.15 466.991H622.672V545.611C622.672 559.669 616.513 567.712 602.89 571.48C602.745 571.552 602.601 571.697 602.528 571.842H595.499C593.905 571.335 592.239 570.9 590.645 570.321C585.79 568.654 582.167 565.466 579.268 561.698C576.877 563.799 574.92 566.19 572.457 567.64C569.558 569.379 566.153 570.466 562.964 571.842C560.501 571.625 558.182 571.625 555.791 571.625ZM511.155 369.966C511.879 395.545 522.096 415.182 542.893 428.877C566.298 444.311 596.296 443.586 619.484 427.718C638.106 414.964 652.309 387.357 648.758 370.401C648.179 370.908 647.599 371.343 647.092 371.778C630.57 386.052 605.934 382.574 593.905 364.387C593.398 363.59 592.094 362.937 591.152 362.937C585.065 362.793 579.051 363.082 572.964 362.793C569.124 362.575 566.08 363.155 564.559 367.068C564.414 367.502 564.051 367.792 563.762 368.155C551.733 382.719 529.053 384.821 514.343 372.647C513.474 371.923 512.604 371.198 511.155 369.966ZM583.398 518.946C583.253 519.236 583.109 519.381 583.109 519.598C583.109 529.38 582.819 539.162 583.181 548.872C583.543 557.423 590.934 563.727 599.34 563.509C607.673 563.292 614.339 556.626 614.557 548.148C614.702 538.873 614.629 529.525 614.629 520.25C614.629 519.815 614.484 519.381 614.339 518.946H583.398ZM543.617 518.873C543.472 519.381 543.4 519.526 543.4 519.743C543.4 528.873 543.328 538.003 543.4 547.061C543.4 556.408 550.284 563.509 559.196 563.509C568.109 563.509 574.848 556.481 574.92 547.061C574.993 538.51 574.92 529.887 574.92 521.337C574.92 520.54 574.848 519.743 574.776 518.946C564.196 518.873 553.907 518.873 543.617 518.873ZM623.832 325.403C618.325 325.548 613.252 326.924 608.615 329.895C595.572 338.373 594.05 354.822 605.354 365.546C615.281 374.966 632.237 374.821 642.309 365.184C651.946 355.909 651.802 341.634 641.947 332.576C636.875 327.721 630.643 325.693 623.832 325.403ZM535.284 325.33C533.545 325.693 530.285 326.055 527.314 327.142C518.111 330.692 511.952 337.069 511.155 347.286C510.358 356.561 514.705 363.517 522.386 368.3C531.879 374.241 544.27 373.662 553.255 366.995C565.718 357.72 565.79 340.402 553.472 330.982C548.545 327.287 542.965 325.62 535.284 325.33ZM622.817 458.369C623.469 458.441 623.759 458.586 624.121 458.586C634.991 458.586 645.787 458.658 656.656 458.513C658.251 458.513 659.917 458.079 661.366 457.426C666.149 455.325 668.612 450.108 667.598 444.891C666.584 439.818 662.091 436.051 656.729 436.051C646.584 435.978 636.512 436.051 626.368 436.051H622.817V458.369ZM535.067 458.658V436.123C524.053 436.123 513.111 435.978 502.242 436.195C498.547 436.268 495.721 438.659 493.909 441.992C489.779 449.673 495.286 458.513 504.416 458.586C512.894 458.658 521.372 458.586 529.85 458.586C531.589 458.658 533.255 458.658 535.067 458.658ZM566.225 447.21C567.602 454.021 573.834 458.948 580.717 458.586C587.601 458.224 593.326 453.296 594.123 447.21C589.558 447.499 584.993 448.007 580.428 448.007C575.79 448.079 571.08 447.499 566.225 447.21ZM589.847 343.301H570.645V354.604H589.847V343.301Z" fill="#01233F"/>
<path d="M562.892 571.625C566.08 570.248 569.486 569.234 572.384 567.422C574.848 565.901 576.804 563.582 579.196 561.48C582.094 565.248 585.79 568.437 590.572 570.103C592.166 570.683 593.833 571.118 595.427 571.625H562.892Z" fill="white"/>
<path d="M546.878 386.052C552.82 386.125 557.747 390.618 558.254 396.632C558.472 399.313 557.095 401.269 554.776 401.559C552.53 401.849 550.791 400.545 550.284 397.936C549.921 395.907 549.124 394.241 546.733 394.241C544.414 394.241 543.545 395.762 543.255 397.936C542.893 400.472 540.936 401.849 538.762 401.559C536.516 401.269 535.139 399.458 535.212 396.922C535.429 390.98 540.719 386.052 546.878 386.052ZM613.615 386.052C619.412 386.052 624.266 390.183 625.136 395.835C625.643 398.878 624.411 400.979 621.948 401.487C619.484 401.994 617.745 400.545 617.093 397.356C616.73 395.4 615.716 394.241 613.687 394.241C611.803 394.241 610.716 395.4 610.354 397.139C610.281 397.501 610.281 397.864 610.137 398.226C609.557 400.545 607.818 401.849 605.644 401.559C603.47 401.269 602.093 399.458 602.166 397.139C602.238 391.125 607.455 386.125 613.615 386.052ZM581.297 413.95C576.08 413.95 572.529 412.428 569.631 409.385C567.819 407.501 567.819 405.255 569.341 403.588C570.863 401.921 573.109 401.921 575.138 403.516C579.051 406.631 581.442 406.631 585.21 403.588C587.239 401.921 589.413 401.921 591.007 403.588C592.673 405.255 592.529 407.646 590.645 409.602C587.819 412.501 584.34 413.95 581.297 413.95ZM623.977 362.937C618.977 362.937 614.991 361.488 611.658 358.445C605.789 353.083 605.934 344.605 611.803 339.315C618.035 333.736 628.324 333.518 634.846 338.735C641.729 344.315 641.657 353.807 634.628 359.242C631.368 361.778 627.672 363.01 623.977 362.937ZM623.759 354.749C628.107 354.749 631.73 352.141 631.802 349.025C631.875 345.837 628.179 343.156 623.687 343.156C619.194 343.156 615.426 345.837 615.499 348.952C615.499 352.141 619.267 354.749 623.759 354.749ZM536.589 335.04C541.009 335.04 544.777 336.199 547.965 338.808C554.849 344.315 554.776 353.662 547.965 359.169C542.023 363.952 532.748 364.242 526.444 359.822C518.473 354.242 518.473 343.808 526.444 338.156C529.632 335.982 533.111 334.895 536.589 335.04ZM537.241 354.967C538.545 354.532 540.502 354.46 541.733 353.445C543.183 352.286 544.704 350.474 544.777 348.88C544.849 347.431 543.255 345.474 541.806 344.532C539.342 342.793 536.371 342.793 533.473 343.735C530.937 344.532 528.835 345.982 528.69 348.952C528.545 351.199 530.429 353.3 533.4 354.242C534.487 354.532 535.647 354.677 537.241 354.967Z" fill="#01233F"/>
</g>
<defs>
<clipPath id="clip0_1167_39">
<rect width="719" height="719" fill="white"/>
</clipPath>
</defs>
</svg>
