<svg xmlns="http://www.w3.org/2000/svg" width="32" height="32" fill="none"><path stroke="currentColor" stroke-linecap="round" stroke-linejoin="round" stroke-width="1.5" d="M17.333 25.333A9.333 9.333 0 1 0 8.9 20l-2.232 5.333L12.523 24a9.29 9.29 0 0 0 4.81 1.333Z" clip-rule="evenodd"/><path stroke="currentColor" stroke-linecap="round" stroke-linejoin="round" stroke-width="1.5" d="M14.721 14.755a1.377 1.377 0 1 1 1.39-1.378 1.384 1.384 0 0 1-1.39 1.378v0ZM18.556 18.557a1.388 1.388 0 1 0 2.776.022 1.388 1.388 0 0 0-2.776-.022v0Z" clip-rule="evenodd"/><path stroke="currentColor" stroke-linecap="round" stroke-width="1.5" d="M13.333 13.377c-.018 4.623 4.4 7.063 6.612 6.558"/></svg>
