<svg width="24" height="24" viewBox="0 0 24 24" fill="none" xmlns="http://www.w3.org/2000/svg">
<path fill-rule="evenodd" clip-rule="evenodd" d="M6.55591 12C6.5564 9.40281 8.39142 7.16765 10.9388 6.66142C13.4861 6.15518 16.0363 7.51885 17.0298 9.91847C18.0233 12.3181 17.1834 15.0854 15.0238 16.528C12.8641 17.9706 9.98614 17.6867 8.14991 15.85C7.12902 14.8288 6.55564 13.4439 6.55591 12V12Z" stroke="black" stroke-linecap="round" stroke-linejoin="round"/>
<path fill-rule="evenodd" clip-rule="evenodd" d="M9.66699 12C9.6673 10.887 10.4538 9.92922 11.5454 9.71236C12.6371 9.4955 13.7299 10.08 14.1556 11.1084C14.5813 12.1367 14.2213 13.3226 13.2957 13.9407C12.3702 14.5589 11.1368 14.4372 10.35 13.65C9.91251 13.2124 9.66682 12.6188 9.66699 12V12Z" stroke="black" stroke-linecap="round" stroke-linejoin="round"/>
<path d="M17.444 11.5C17.1679 11.5 16.944 11.7239 16.944 12C16.944 12.2761 17.1679 12.5 17.444 12.5V11.5ZM19 12.5C19.2761 12.5 19.5 12.2761 19.5 12C19.5 11.7239 19.2761 11.5 19 11.5V12.5ZM5 11.5C4.72386 11.5 4.5 11.7239 4.5 12C4.5 12.2761 4.72386 12.5 5 12.5V11.5ZM6.556 12.5C6.83214 12.5 7.056 12.2761 7.056 12C7.056 11.7239 6.83214 11.5 6.556 11.5V12.5ZM11.5 6.556C11.5 6.83214 11.7239 7.056 12 7.056C12.2761 7.056 12.5 6.83214 12.5 6.556H11.5ZM12.5 5C12.5 4.72386 12.2761 4.5 12 4.5C11.7239 4.5 11.5 4.72386 11.5 5H12.5ZM11.5 19C11.5 19.2761 11.7239 19.5 12 19.5C12.2761 19.5 12.5 19.2761 12.5 19H11.5ZM12.5 17.444C12.5 17.1679 12.2761 16.944 12 16.944C11.7239 16.944 11.5 17.1679 11.5 17.444H12.5ZM17.444 12.5H19V11.5H17.444V12.5ZM5 12.5H6.556V11.5H5V12.5ZM12.5 6.556V5H11.5V6.556H12.5ZM12.5 19V17.444H11.5V19H12.5Z" fill="black"/>
</svg>
