<svg  viewBox="0 0 600 600" xmlns="http://www.w3.org/2000/svg">
      <path  fill="red" d="M32.4,-55.7C42.7,-50.1,52.3,-42.9,60.2,-33.4C68.2,-23.8,74.5,-11.9,70.5,-2.3C66.5,7.3,52.1,14.5,41.7,19.9C31.4,25.4,25.1,28.9,18.8,40.2C12.5,51.5,6.3,70.6,-1.4,73C-9.1,75.5,-18.2,61.4,-32,54.4C-45.7,47.4,-64,47.5,-69.8,39.6C-75.6,31.7,-68.8,15.9,-66.6,1.3C-64.4,-13.3,-66.9,-26.7,-60.3,-33.1C-53.6,-39.5,-37.9,-39,-26.4,-43.8C-14.8,-48.6,-7.4,-58.8,1.8,-62C11,-65.1,22.1,-61.2,32.4,-55.7Z" transform="translate(100 100)" />
</svg>
