<?xml version="1.0" standalone="no"?>
<svg xmlns:xlink="http://www.w3.org/1999/xlink" id="wave" style="transform:rotate(0deg); transition: 0.3s" viewBox="0 0 1440 120" version="1.1" xmlns="http://www.w3.org/2000/svg"><defs><linearGradient id="sw-gradient-0" x1="0" x2="0" y1="1" y2="0"><stop stop-color="rgba(241, 250, 255, 1)" offset="0%"/><stop stop-color="rgba(241, 250, 255, 1)" offset="100%"/></linearGradient></defs><path style="transform:translate(0, 0px); opacity:1" fill="url(#sw-gradient-0)" d="M0,72L20,68C40,64,80,56,120,52C160,48,200,48,240,52C280,56,320,64,360,68C400,72,440,72,480,66C520,60,560,48,600,52C640,56,680,76,720,82C760,88,800,80,840,72C880,64,920,56,960,62C1000,68,1040,88,1080,96C1120,104,1160,100,1200,92C1240,84,1280,72,1320,72C1360,72,1400,84,1440,84C1480,84,1520,72,1560,68C1600,64,1640,68,1680,62C1720,56,1760,40,1800,44C1840,48,1880,72,1920,86C1960,100,2000,104,2040,92C2080,80,2120,52,2160,50C2200,48,2240,72,2280,78C2320,84,2360,72,2400,70C2440,68,2480,76,2520,74C2560,72,2600,60,2640,52C2680,44,2720,40,2760,42C2800,44,2840,52,2860,56L2880,60L2880,120L2860,120C2840,120,2800,120,2760,120C2720,120,2680,120,2640,120C2600,120,2560,120,2520,120C2480,120,2440,120,2400,120C2360,120,2320,120,2280,120C2240,120,2200,120,2160,120C2120,120,2080,120,2040,120C2000,120,1960,120,1920,120C1880,120,1840,120,1800,120C1760,120,1720,120,1680,120C1640,120,1600,120,1560,120C1520,120,1480,120,1440,120C1400,120,1360,120,1320,120C1280,120,1240,120,1200,120C1160,120,1120,120,1080,120C1040,120,1000,120,960,120C920,120,880,120,840,120C800,120,760,120,720,120C680,120,640,120,600,120C560,120,520,120,480,120C440,120,400,120,360,120C320,120,280,120,240,120C200,120,160,120,120,120C80,120,40,120,20,120L0,120Z"/></svg>