<?xml version="1.0" standalone="no"?>
<svg viewBox="0 0 200 200" xmlns="http://www.w3.org/2000/svg">
  <path fill="#FF0066" d="M41.5,-72.8C53.2,-65.1,61.6,-52.8,68.3,-39.9C74.9,-27,79.7,-13.5,79.5,-0.2C79.2,13.2,73.8,26.3,67.7,40.1C61.5,54,54.7,68.5,43.3,75C31.9,81.5,16,80.1,1.4,77.7C-13.2,75.3,-26.4,71.9,-39.1,66.2C-51.9,60.4,-64.2,52.3,-71.5,40.9C-78.8,29.4,-81.2,14.7,-80.1,0.6C-79,-13.5,-74.4,-26.9,-68.6,-41C-62.9,-55.1,-55.8,-69.8,-44.2,-77.5C-32.5,-85.2,-16.3,-85.9,-0.7,-84.7C14.9,-83.6,29.8,-80.5,41.5,-72.8Z" transform="translate(100 100)" />
</svg>
