<?xml version="1.0" encoding="UTF-8" standalone="no"?>
<!DOCTYPE svg PUBLIC "-//W3C//DTD SVG 1.1//EN" "http://www.w3.org/Graphics/SVG/1.1/DTD/svg11.dtd">
<svg width="100%" height="100%" viewBox="0 0 200 200" version="1.1" xmlns="http://www.w3.org/2000/svg" xmlns:xlink="http://www.w3.org/1999/xlink" xml:space="preserve" xmlns:serif="http://www.serif.com/" style="fill-rule:evenodd;clip-rule:evenodd;stroke-linejoin:round;stroke-miterlimit:2;">
    <g transform="matrix(1,0,0,1,100,112.018)">
        <path d="M39.3,-65.7C53.5,-60 69.3,-54.5 79,-43.6C88.7,-32.7 92.3,-16.4 87.3,-2.9C82.2,10.5 68.4,21 59.5,33.4C50.7,45.9 46.9,60.2 37.8,70.2C28.7,80.2 14.4,85.9 0.6,85C-13.2,84 -26.5,76.4 -38.7,68.2C-50.8,59.9 -61.9,51 -66.2,39.6C-70.5,28.1 -68.1,14 -68.6,-0.3C-69,-14.6 -72.4,-29.2 -68.4,-41.2C-64.4,-53.2 -53,-62.7 -40.4,-69.3C-27.8,-75.9 -13.9,-79.7 -0.6,-78.6C12.6,-77.5 25.2,-71.5 39.3,-65.7Z" style="fill:rgb(255,0,102);fill-rule:nonzero;"/>
    </g>
    <g transform="matrix(-1,0,0,1,196.461,-8.07307)">
        <circle cx="18.911" cy="56.642" r="7.844" style="fill:rgb(235,235,235);"/>
    </g>
    <g transform="matrix(-1,0,0,1,152.729,-26.9925)">
        <circle cx="18.911" cy="56.642" r="7.844" style="fill:rgb(235,235,235);"/>
    </g>
    <g transform="matrix(-0.823604,0,0,0.823604,175.959,-21.5519)">
        <circle cx="18.911" cy="56.642" r="7.844" style="fill:rgb(235,235,235);"/>
    </g>
    <g transform="matrix(-0.638215,0,0,0.638215,162.353,0.831242)">
        <circle cx="18.911" cy="56.642" r="7.844" style="fill:rgb(235,235,235);"/>
    </g>
    <g transform="matrix(-0.374337,0,0,0.374337,173.381,17.5938)">
        <circle cx="18.911" cy="56.642" r="7.844" style="fill:rgb(235,235,235);"/>
    </g>
    <g transform="matrix(-0.374337,0,0,0.374337,152.83,-3.20707)">
        <circle cx="18.911" cy="56.642" r="7.844" style="fill:rgb(235,235,235);"/>
    </g>
    <g transform="matrix(-0.227593,0,0,0.227593,184.571,21.0024)">
        <circle cx="18.911" cy="56.642" r="7.844" style="fill:rgb(235,235,235);"/>
    </g>
    <g transform="matrix(-0.120591,0,0,0.120591,162.927,5.90689)">
        <circle cx="18.911" cy="56.642" r="7.844" style="fill:rgb(235,235,235);"/>
    </g>
    <g transform="matrix(-0.420204,0,0,0.420204,184.031,-0.980608)">
        <circle cx="18.911" cy="56.642" r="7.844" style="fill:rgb(235,235,235);"/>
    </g>
    <g transform="matrix(-0.638215,0,0,0.638215,169.495,136.562)">
        <circle cx="18.911" cy="56.642" r="7.844" style="fill:rgb(235,235,235);"/>
    </g>
    <g transform="matrix(-0.374337,0,0,0.374337,175.991,143.127)">
        <circle cx="18.911" cy="56.642" r="7.844" style="fill:rgb(235,235,235);"/>
    </g>
    <g transform="matrix(-0.374337,0,0,0.374337,166.122,137.592)">
        <circle cx="18.911" cy="56.642" r="7.844" style="fill:rgb(235,235,235);"/>
    </g>
    <g transform="matrix(-0.120591,0,0,0.120591,169.054,146.566)">
        <circle cx="18.911" cy="56.642" r="7.844" style="fill:rgb(235,235,235);"/>
    </g>
    <g transform="matrix(-0.2153,0.306225,0.306225,0.2153,39.8392,13.7856)">
        <circle cx="18.911" cy="56.642" r="7.844" style="fill:rgb(235,235,235);"/>
    </g>
    <g transform="matrix(-0.2153,0.306225,0.306225,0.2153,29.6351,18.6748)">
        <circle cx="18.911" cy="56.642" r="7.844" style="fill:rgb(235,235,235);"/>
    </g>
    <g transform="matrix(-0.0693582,0.0986493,0.0986493,0.0693582,38.6628,21.438)">
        <circle cx="18.911" cy="56.642" r="7.844" style="fill:rgb(235,235,235);"/>
    </g>
</svg>
