<?xml version="1.0" encoding="UTF-8" standalone="no"?>
<!DOCTYPE svg PUBLIC "-//W3C//DTD SVG 1.1//EN" "http://www.w3.org/Graphics/SVG/1.1/DTD/svg11.dtd">
<svg width="100%" height="100%" viewBox="0 0 200 200" version="1.1" xmlns="http://www.w3.org/2000/svg" xmlns:xlink="http://www.w3.org/1999/xlink" xml:space="preserve" xmlns:serif="http://www.serif.com/" style="fill-rule:evenodd;clip-rule:evenodd;stroke-linejoin:round;stroke-miterlimit:2;">
    <g transform="matrix(1,0,0,1,100,117.637)">
        <path d="M35.1,-61.7C46.1,-54.5 56,-46.3 64.1,-35.8C72.2,-25.4 78.4,-12.7 78.4,0C78.4,12.7 72.1,25.4 64.5,36.6C56.9,47.9 48,57.8 37,63.7C26.1,69.7 13,71.7 -1.5,74.2C-16,76.8 -32,80 -43.4,74.3C-54.8,68.6 -61.5,54 -67,40.1C-72.4,26.3 -76.6,13.1 -79.1,-1.5C-81.7,-16.1 -82.6,-32.2 -75.3,-42.8C-68,-53.4 -52.4,-58.6 -38.5,-64.1C-24.6,-69.6 -12.3,-75.3 -0.1,-75.2C12.1,-75 24.1,-68.8 35.1,-61.7Z" style="fill-rule:nonzero;"/>
    </g>
    <g transform="matrix(1,0,0,1,13.2342,-12.4823)">
        <circle cx="18.911" cy="56.642" r="7.844" style="fill:rgb(235,235,235);"/>
    </g>
    <g transform="matrix(1,0,0,1,48.6104,-22.6136)">
        <circle cx="18.911" cy="56.642" r="7.844" style="fill:rgb(235,235,235);"/>
    </g>
    <g transform="matrix(1.29705,0,0,1.29705,22.9486,-50.7855)">
        <circle cx="18.911" cy="56.642" r="7.844" style="fill:rgb(235,235,235);"/>
    </g>
    <g transform="matrix(0.638215,0,0,0.638215,13.3746,-9.86816)">
        <circle cx="18.911" cy="56.642" r="7.844" style="fill:rgb(235,235,235);"/>
    </g>
    <g transform="matrix(0.374337,0,0,0.374337,40.8694,18.6777)">
        <circle cx="18.911" cy="56.642" r="7.844" style="fill:rgb(235,235,235);"/>
    </g>
    <g transform="matrix(0.374337,0,0,0.374337,57.4939,-1.60488)">
        <circle cx="18.911" cy="56.642" r="7.844" style="fill:rgb(235,235,235);"/>
    </g>
    <g transform="matrix(0.227593,0,0,0.227593,54.9859,-2.90209)">
        <circle cx="18.911" cy="56.642" r="7.844" style="fill:rgb(235,235,235);"/>
    </g>
</svg>
