<?xml version="1.0" encoding="UTF-8" standalone="no"?>
<!DOCTYPE svg PUBLIC "-//W3C//DTD SVG 1.1//EN" "http://www.w3.org/Graphics/SVG/1.1/DTD/svg11.dtd">
<svg width="100%" height="100%" viewBox="0 0 200 200" version="1.1" xmlns="http://www.w3.org/2000/svg" xmlns:xlink="http://www.w3.org/1999/xlink" xml:space="preserve" xmlns:serif="http://www.serif.com/" style="fill-rule:evenodd;clip-rule:evenodd;stroke-linejoin:round;stroke-miterlimit:2;">
    <g transform="matrix(1,0,0,1,100,116.373)">
        <path d="M35.1,-64C45.3,-54.8 53.4,-45.2 60.5,-34.4C67.6,-23.7 73.8,-11.8 78,2.4C82.1,16.6 84.2,33.2 78.7,46.8C73.2,60.3 60,70.8 45.6,73.8C31.3,76.8 15.6,72.5 1.6,69.7C-12.4,66.9 -24.8,65.6 -39.2,62.6C-53.5,59.5 -69.9,54.7 -75.9,43.9C-81.9,33.2 -77.5,16.6 -77.3,0.1C-77.1,-16.4 -81.1,-32.8 -74.5,-42.3C-67.8,-51.8 -50.4,-54.5 -36.2,-61.3C-22,-68.2 -11,-79.3 0.7,-80.5C12.4,-81.8 24.8,-73.1 35.1,-64Z" style="fill:rgb(255,0,102);fill-rule:nonzero;"/>
    </g>
    <g transform="matrix(-0.800656,0.599125,0.599125,0.800656,55.1814,-21.4248)">
        <circle cx="18.911" cy="56.642" r="7.844" style="fill:rgb(235,235,235);"/>
    </g>
    <g transform="matrix(-0.800656,0.599125,0.599125,0.800656,8.83161,-10.3716)">
        <circle cx="18.911" cy="56.642" r="7.844" style="fill:rgb(235,235,235);"/>
    </g>
    <g transform="matrix(-0.866025,-0.5,-0.5,0.866025,211.973,31.7223)">
        <circle cx="18.911" cy="56.642" r="7.844" style="fill:rgb(235,235,235);"/>
    </g>
    <g transform="matrix(-0.659424,0.493442,0.493442,0.659424,30.6908,-19.9334)">
        <circle cx="18.911" cy="56.642" r="7.844" style="fill:rgb(235,235,235);"/>
    </g>
    <g transform="matrix(-0.713262,-0.411802,-0.411802,0.713262,199.56,8.96582)">
        <circle cx="18.911" cy="56.642" r="7.844" style="fill:rgb(235,235,235);"/>
    </g>
    <g transform="matrix(-0.51099,0.38237,0.38237,0.51099,33.2075,6.13939)">
        <circle cx="18.911" cy="56.642" r="7.844" style="fill:rgb(235,235,235);"/>
    </g>
    <g transform="matrix(-0.55271,-0.319107,-0.319107,0.55271,176.586,21.5473)">
        <circle cx="18.911" cy="56.642" r="7.844" style="fill:rgb(235,235,235);"/>
    </g>
    <g transform="matrix(-0.299715,0.224274,0.224274,0.299715,52.0794,12.9537)">
        <circle cx="18.911" cy="56.642" r="7.844" style="fill:rgb(235,235,235);"/>
    </g>
    <g transform="matrix(-0.324185,-0.187168,-0.187168,0.324185,177.754,41.5777)">
        <circle cx="18.911" cy="56.642" r="7.844" style="fill:rgb(235,235,235);"/>
    </g>
    <g transform="matrix(-0.299715,0.224274,0.224274,0.299715,23.1628,8.61201)">
        <circle cx="18.911" cy="56.642" r="7.844" style="fill:rgb(235,235,235);"/>
    </g>
    <g transform="matrix(-0.324185,-0.187168,-0.187168,0.324185,170.357,13.2881)">
        <circle cx="18.911" cy="56.642" r="7.844" style="fill:rgb(235,235,235);"/>
    </g>
    <g transform="matrix(-0.182223,0.136356,0.136356,0.182223,63.0816,8.97811)">
        <circle cx="18.911" cy="56.642" r="7.844" style="fill:rgb(235,235,235);"/>
    </g>
    <g transform="matrix(-0.197101,-0.113796,-0.113796,0.197101,185.742,50.1251)">
        <circle cx="18.911" cy="56.642" r="7.844" style="fill:rgb(235,235,235);"/>
    </g>
    <g transform="matrix(-0.0965521,0.0722492,0.0722492,0.0965521,36.7075,9.85971)">
        <circle cx="18.911" cy="56.642" r="7.844" style="fill:rgb(235,235,235);"/>
    </g>
    <g transform="matrix(-0.104435,-0.0602956,-0.0602956,0.104435,174.544,26.2296)">
        <circle cx="18.911" cy="56.642" r="7.844" style="fill:rgb(235,235,235);"/>
    </g>
    <g transform="matrix(-0.336439,0.251755,0.251755,0.336439,49.478,-8.29867)">
        <circle cx="18.911" cy="56.642" r="7.844" style="fill:rgb(235,235,235);"/>
    </g>
    <g transform="matrix(-0.363907,-0.210102,-0.210102,0.363907,196.265,30.8168)">
        <circle cx="18.911" cy="56.642" r="7.844" style="fill:rgb(235,235,235);"/>
    </g>
</svg>
