<svg xmlns="http://www.w3.org/2000/svg" width="24" height="24" fill="none"><path fill="currentColor" d="M9 6.5a.5.5 0 0 0 0-1v1Zm6-1a.5.5 0 0 0 0 1v-1Zm-6 0a.5.5 0 0 0 0 1v-1Zm6 1a.5.5 0 0 0 0-1v1ZM9.5 6a.5.5 0 0 0-1 0h1Zm-1 1a.5.5 0 0 0 1 0h-1Zm0-1a.5.5 0 0 0 1 0h-1Zm1-2a.5.5 0 0 0-1 0h1Zm6 2a.5.5 0 0 0-1 0h1Zm-1 1a.5.5 0 0 0 1 0h-1Zm0-1a.5.5 0 0 0 1 0h-1Zm1-2a.5.5 0 0 0-1 0h1ZM9 5.5A4.5 4.5 0 0 0 4.5 10h1A3.5 3.5 0 0 1 9 6.5v-1ZM4.5 10v6h1v-6h-1Zm0 6A4.5 4.5 0 0 0 9 20.5v-1A3.5 3.5 0 0 1 5.5 16h-1ZM9 20.5h6v-1H9v1Zm6 0a4.5 4.5 0 0 0 4.5-4.5h-1a3.5 3.5 0 0 1-3.5 3.5v1Zm4.5-4.5v-6h-1v6h1Zm0-6A4.5 4.5 0 0 0 15 5.5v1a3.5 3.5 0 0 1 3.5 3.5h1ZM9 6.5h6v-1H9v1ZM8.5 6v1h1V6h-1Zm1 0V4h-1v2h1Zm5 0v1h1V6h-1Zm1 0V4h-1v2h1Z"/><path stroke="currentColor" stroke-linecap="round" stroke-linejoin="round" d="m8 13 2 3 6-5"/></svg>
