<svg xmlns="http://www.w3.org/2000/svg" width="48" height="48" fill="none"><path d="M24 4.7a.703.703 0 0 0 .703-.703V.922a.703.703 0 0 0-1.406 0v3.075c0 .388.315.703.703.703ZM6.827 8.802a.701.701 0 0 0 .498.206c.62 0 .941-.756.497-1.2L5.648 5.634a.703.703 0 1 0-.994.994l2.173 2.174ZM14.608 5.238a.703.703 0 1 0 1.283-.574l-1.255-2.807a.703.703 0 1 0-1.283.574l1.255 2.807ZM40.675 9.008a.7.7 0 0 0 .498-.206l2.173-2.174a.703.703 0 1 0-.994-.994l-2.174 2.174c-.444.444-.123 1.2.497 1.2ZM32.464 5.593a.703.703 0 0 0 .928-.355l1.255-2.807a.703.703 0 0 0-1.283-.574l-1.255 2.807c-.159.354 0 .77.355.929ZM47.297 31.925h-5.278a1.73 1.73 0 0 1-1.67-2.189l2.069-7.557c.873.22 1.19.382 1.765.382.472 0 .938-.122 1.358-.362 2.124-1.21 1.712-4.4-.636-5.042l-1.035-.283.522-1.91a2.734 2.734 0 0 0-4.117-3.024 2.736 2.736 0 0 0-3.923-1.075 2.735 2.735 0 0 0-3.922-1.072c-1.136-2.256-4.43-1.882-5.084.506L24 22.522l-3.346-12.223a2.74 2.74 0 0 0-3.361-1.917 2.73 2.73 0 0 0-1.722 1.41 2.736 2.736 0 0 0-3.923 1.073 2.736 2.736 0 0 0-3.924 1.075 2.732 2.732 0 0 0-2.2-.337 2.74 2.74 0 0 0-1.916 3.362l.522 1.909-1.035.283a2.75 2.75 0 0 0 .722 5.404c.575 0 .894-.163 1.765-.382l2.069 7.557a1.73 1.73 0 0 1-1.67 2.189H.703a.703.703 0 0 0-.703.703v14.45c0 .388.315.703.703.703h7.228c3.513 0 6.906-1.039 9.813-3.003a.703.703 0 0 0-.787-1.165 16.063 16.063 0 0 1-9.027 2.761H1.406V33.331h4.575a3.136 3.136 0 0 0 3.026-3.966l-1.076-3.93 14.334-3.924 1.225 4.473A16.115 16.115 0 0 1 19.07 41.91a.703.703 0 0 0 .971 1.017 17.432 17.432 0 0 0 3.96-5.648C26.657 43.372 32.8 47.78 40.069 47.78h7.228a.703.703 0 0 0 .703-.703v-14.45a.703.703 0 0 0-.703-.703Zm-2.763-13.412a1.343 1.343 0 1 1-.71 2.593l-1.035-.283.71-2.593 1.035.284Zm-39.442-4.93c.585-1.026 2.127-.828 2.438.308l.806 2.943a.703.703 0 1 0 1.356-.371l-.805-2.943c-.001-.018-.166-.496.127-1.01a1.33 1.33 0 0 1 1.815-.497c.525.3.618.793.624.805l.805 2.943a.703.703 0 0 0 1.357-.372l-.806-2.942c-.001-.02-.165-.497.128-1.01.581-1.021 2.125-.84 2.438.307l.806 2.943a.703.703 0 0 0 1.356-.371l-.805-2.943a1.332 1.332 0 0 1 .931-1.635 1.332 1.332 0 0 1 1.635.932l2.596 9.485L7.56 24.078l-2.596-9.484a1.323 1.323 0 0 1 .128-1.01Zm-.916 7.523c-.347.095-.709.05-1.02-.129-1.039-.591-.837-2.15.31-2.464l1.035-.283.71 2.593-1.035.283Zm42.418 25.269h-6.525A16.124 16.124 0 0 1 24.737 35.26c1.627-5.488.03-9.798-.008-10.076l1.006-3.674 8.288 2.27a.703.703 0 0 0 .372-1.357l-8.29-2.27 2.597-9.484a1.332 1.332 0 0 1 1.634-.932c.708.194 1.126.927.932 1.635l-.805 2.943a.703.703 0 1 0 1.356.37l.805-2.942c.313-1.142 1.856-1.33 2.44-.308.175.309.22.668.127 1.01l-.806 2.943a.704.704 0 0 0 1.357.371l.805-2.943c.313-1.142 1.855-1.33 2.439-.307.176.308.221.667.127 1.01l-.805 2.943a.704.704 0 0 0 1.356.371l.805-2.943c.312-1.136 1.854-1.334 2.44-.308.175.309.22.668.127 1.01l-2.596 9.485-3.325-.91a.703.703 0 1 0-.372 1.357l3.325.91-1.075 3.93a3.136 3.136 0 0 0 3.026 3.966h4.575v13.044Z" fill="currentColor"></path></svg>
