<svg xmlns="http://www.w3.org/2000/svg" width="24" height="24" fill="none"><path stroke="currentColor" stroke-linecap="round" stroke-linejoin="round" d="M5 12.954A4.093 4.093 0 0 0 9.14 17h2.006a2 2 0 0 1 1.444.618l1.069 1.118a.9.9 0 0 0 1.281 0L16.6 17l.545-.608c.1-.109.21-.21.327-.3A4 4 0 0 0 19 12.954v-4.91A4.093 4.093 0 0 0 14.86 4H9.14A4.093 4.093 0 0 0 5 8.044v4.91Z" clip-rule="evenodd"/><path fill="currentColor" d="M15.464 12.231a.5.5 0 0 0-.928-.373l.928.373Zm-1.348 1.02.316.387.002-.002-.318-.386Zm-4.252-.032-.324.381.003.002.321-.383Zm-.397-1.398a.5.5 0 0 0-.934.359l.934-.359Zm.033-3.82a.5.5 0 1 0-1 0h1Zm-1 1a.5.5 0 0 0 1 0h-1Zm7-1a.5.5 0 0 0-1 0h1Zm-1 1a.5.5 0 0 0 1 0h-1Zm.036 2.857a2.526 2.526 0 0 1-.738 1.006l.636.772c.455-.374.81-.858 1.03-1.405l-.928-.373Zm-.736 1.005a2.836 2.836 0 0 1-3.615-.027l-.642.766a3.836 3.836 0 0 0 4.889.036l-.632-.775Zm-3.612-.025a2.519 2.519 0 0 1-.721-1.017l-.934.359A3.52 3.52 0 0 0 9.54 13.6l.648-.762ZM8.5 8v1h1V8h-1Zm6 0v1h1V8h-1Z"/></svg>
