<svg xmlns="http://www.w3.org/2000/svg" width="24" height="24" fill="none"><path fill="currentColor" d="M6.646 16.646a.5.5 0 0 0 .708.708l-.708-.708Zm5.708-4.292a.5.5 0 0 0-.708-.708l.708.708Zm-.708-.708a.5.5 0 0 0 .708.708l-.708-.708Zm5.708-4.292a.5.5 0 0 0-.708-.708l.708.708Zm-5 4.292a.5.5 0 0 0-.708.708l.708-.708Zm4.292 5.708a.5.5 0 0 0 .708-.708l-.708.708Zm-5-5a.5.5 0 0 0 .708-.708l-.708.708ZM7.354 6.646a.5.5 0 1 0-.708.708l.708-.708Zm0 10.708 5-5-.708-.708-5 5 .708.708Zm5-5 5-5-.708-.708-5 5 .708.708Zm-.708 0 5 5 .708-.708-5-5-.708.708Zm.708-.708-5-5-.708.708 5 5 .708-.708Z"/></svg>
