<svg width="512" height="512" viewBox="0 0 512 512" fill="none" xmlns="http://www.w3.org/2000/svg">
<path d="M221.9 448C220 447.5 218.1 447 216.2 446.4C202.9 442.1 193.6 429.7 193.5 415.7C193.4 391.6 193.4 367.5 193.5 343.5C193.5 339.4 195.6 336.9 198.9 336.8C202.3 336.7 204.6 339.3 204.7 343.6V363.7H248.2V344.7C248.2 343.3 248.1 341.9 248.2 340.6C248.5 337.1 250.9 335 254.1 335.1C257.1 335.2 259.3 337.4 259.4 340.7C259.5 346.9 259.4 353.2 259.4 359.4V363.7H302.7V267.1C297.6 269.1 292.7 270.8 287.8 273C287 273.4 286.6 275.3 286.4 276.5C284.1 291.7 272 302.6 256.5 303.4C242.3 304.1 228.5 294.2 225.5 279.8C224.4 274.3 222.1 271.9 217 270.5C212.9 269.4 209 267.1 204.6 265.2V320C204.4 323.8 202.2 326.2 199 326.2C195.8 326.2 193.4 323.8 193.4 320C193.3 314.7 193.4 309.3 193.4 303.7C191.8 303.6 190.5 303.5 189.1 303.5C176.3 303.5 163.4 303.6 150.6 303.4C139.6 303.2 131.1 298.3 126.2 288.3C121.5 278.6 122.5 269.1 128.9 260.4C133.9 253.6 140.9 250 149.4 249.8C159.3 249.6 169.1 249.7 179 249.7H183.4C181 247.2 179.1 245.3 177.3 243.3C154.7 218.1 145.9 188.7 150.3 155.1C150.6 152.5 149.7 149.7 149.3 147.1C146.9 128.9 155.5 112.3 172 103.1C174.2 101.9 176.3 100.2 178.1 98.4C207.6 68.9 242.6 58.9 283.2 68.6C287.8 69.7 289.6 72.4 288.6 76C287.7 79.3 284.8 80.5 280.4 79.4C251.4 72.2 224.6 77 200 94.1C199.1 94.7 198.2 95.5 197.3 96.2C197.1 96.3 197.1 96.6 197 96.9C201 97.6 205.1 98.1 209 99.1C220.7 102.3 229.9 108.9 236.3 119.3C237.4 121.1 238.7 121.8 240.8 121.7C250.8 121.6 260.8 121.7 270.7 121.6C271.9 121.6 273.7 120.9 274.3 119.9C283.1 105.8 296.1 98.8 312.4 97.3C312.9 97.3 313.4 97.2 313.9 97.1C314 97.1 314.1 97 314.8 96.5C310.7 93.8 306.8 91.2 302.9 88.8C298.9 86.3 297.7 83.3 299.4 80.3C301.2 77.2 304.4 76.8 308.5 79.2C318 84.6 326.4 91.4 333.9 99.4C335.1 100.7 336.6 102 338.2 102.8C355.3 111.7 366.5 130.9 361 152.1C360.4 154.3 361 156.8 361.3 159.1C364.8 193.5 354.3 223 330 247.6C329.6 248 329.1 248.5 328.7 249C328.6 249.1 328.6 249.4 328.5 250H355.3C358.5 250 361.8 249.8 365 250.4C379 252.7 388.6 264.9 387.6 278.5C386.4 293 375.4 303.4 360.5 303.6C346.7 303.8 332.8 303.6 319 303.6H314.2V412.1C314.2 431.5 305.7 442.6 286.9 447.8C286.7 447.9 286.5 448.1 286.4 448.3H276.7C274.5 447.6 272.2 447 270 446.2C263.3 443.9 258.3 439.5 254.3 434.3C251 437.2 248.3 440.5 244.9 442.5C240.9 444.9 236.2 446.4 231.8 448.3C228.4 448 225.2 448 221.9 448ZM160.3 169.7C161.3 205 175.4 232.1 204.1 251C236.4 272.3 277.8 271.3 309.8 249.4C335.5 231.8 355.1 193.7 350.2 170.3C349.4 171 348.6 171.6 347.9 172.2C325.1 191.9 291.1 187.1 274.5 162C273.8 160.9 272 160 270.7 160C262.3 159.8 254 160.2 245.6 159.8C240.3 159.5 236.1 160.3 234 165.7C233.8 166.3 233.3 166.7 232.9 167.2C216.3 187.3 185 190.2 164.7 173.4C163.5 172.4 162.3 171.4 160.3 169.7ZM260 375.3C259.8 375.7 259.6 375.9 259.6 376.2C259.6 389.7 259.2 403.2 259.7 416.6C260.2 428.4 270.4 437.1 282 436.8C293.5 436.5 302.7 427.3 303 415.6C303.2 402.8 303.1 389.9 303.1 377.1C303.1 376.5 302.9 375.9 302.7 375.3H260ZM205.1 375.2C204.9 375.9 204.8 376.1 204.8 376.4C204.8 389 204.7 401.6 204.8 414.1C204.8 427 214.3 436.8 226.6 436.8C238.9 436.8 248.2 427.1 248.3 414.1C248.4 402.3 248.3 390.4 248.3 378.6C248.3 377.5 248.2 376.4 248.1 375.3C233.5 375.2 219.3 375.2 205.1 375.2ZM315.8 108.2C308.2 108.4 301.2 110.3 294.8 114.4C276.8 126.1 274.7 148.8 290.3 163.6C304 176.6 327.4 176.4 341.3 163.1C354.6 150.3 354.4 130.6 340.8 118.1C333.8 111.4 325.2 108.6 315.8 108.2ZM193.6 108.1C191.2 108.6 186.7 109.1 182.6 110.6C169.9 115.5 161.4 124.3 160.3 138.4C159.2 151.2 165.2 160.8 175.8 167.4C188.9 175.6 206 174.8 218.4 165.6C235.6 152.8 235.7 128.9 218.7 115.9C211.9 110.8 204.2 108.5 193.6 108.1ZM314.4 291.7C315.3 291.8 315.7 292 316.2 292C331.2 292 346.1 292.1 361.1 291.9C363.3 291.9 365.6 291.3 367.6 290.4C374.2 287.5 377.6 280.3 376.2 273.1C374.8 266.1 368.6 260.9 361.2 260.9C347.2 260.8 333.3 260.9 319.3 260.9H314.4V291.7ZM193.3 292.1V261C178.1 261 163 260.8 148 261.1C142.9 261.2 139 264.5 136.5 269.1C130.8 279.7 138.4 291.9 151 292C162.7 292.1 174.4 292 186.1 292C188.5 292.1 190.8 292.1 193.3 292.1ZM236.3 276.3C238.2 285.7 246.8 292.5 256.3 292C265.8 291.5 273.7 284.7 274.8 276.3C268.5 276.7 262.2 277.4 255.9 277.4C249.5 277.5 243 276.7 236.3 276.3ZM268.9 132.9H242.4V148.5H268.9V132.9Z" fill="#01233F"/>
<path d="M316 160C309.1 160 303.6 158 299 153.8C290.9 146.4 291.1 134.7 299.2 127.4C307.8 119.7 322 119.4 331 126.6C340.5 134.3 340.4 147.4 330.7 154.9C326.2 158.4 321.1 160.1 316 160ZM315.7 148.7C321.7 148.7 326.7 145.1 326.8 140.8C326.9 136.4 321.8 132.7 315.6 132.7C309.4 132.7 304.2 136.4 304.3 140.7C304.3 145.1 309.5 148.7 315.7 148.7ZM195.4 121.5C201.5 121.5 206.7 123.1 211.1 126.7C220.6 134.3 220.5 147.2 211.1 154.8C202.9 161.4 190.1 161.8 181.4 155.7C170.4 148 170.4 133.6 181.4 125.8C185.8 122.8 190.6 121.3 195.4 121.5ZM196.3 149C198.1 148.4 200.8 148.3 202.5 146.9C204.5 145.3 206.6 142.8 206.7 140.6C206.8 138.6 204.6 135.9 202.6 134.6C199.2 132.2 195.1 132.2 191.1 133.5C187.6 134.6 184.7 136.6 184.5 140.7C184.3 143.8 186.9 146.7 191 148C192.5 148.4 194.1 148.6 196.3 149Z" fill="#01233F"/>
<path d="M254.951 216C262.151 216 267.051 218.1 271.051 222.3C273.551 224.9 273.551 228 271.451 230.3C269.351 232.6 266.251 232.6 263.451 230.4C258.051 226.1 254.751 226.1 249.551 230.3C246.751 232.6 243.751 232.6 241.551 230.3C239.251 228 239.451 224.7 242.051 222C245.951 218 250.751 216 254.951 216Z" fill="#01233F"/>
<path d="M207.031 194.839C205.079 192.886 201.913 192.886 199.96 194.839C198.008 196.792 198.008 199.957 199.96 201.91L207.031 194.839ZM205.971 207.92C207.923 209.873 211.089 209.873 213.042 207.92C214.994 205.968 214.994 202.802 213.042 200.849L205.971 207.92ZM213.042 200.849C211.089 198.897 207.923 198.897 205.971 200.849C204.018 202.802 204.018 205.968 205.971 207.92L213.042 200.849ZM211.981 213.931C213.934 215.883 217.099 215.883 219.052 213.931C221.005 211.978 221.005 208.812 219.052 206.86L211.981 213.931ZM213.042 207.92C214.994 205.968 214.994 202.802 213.042 200.849C211.089 198.897 207.923 198.897 205.971 200.849L213.042 207.92ZM199.96 206.86C198.008 208.812 198.008 211.978 199.96 213.931C201.913 215.883 205.079 215.883 207.031 213.931L199.96 206.86ZM205.971 200.849C204.018 202.802 204.018 205.968 205.971 207.92C207.923 209.873 211.089 209.873 213.042 207.92L205.971 200.849ZM219.052 201.91C221.005 199.957 221.005 196.792 219.052 194.839C217.099 192.886 213.934 192.886 211.981 194.839L219.052 201.91ZM199.96 201.91L205.971 207.92L213.042 200.849L207.031 194.839L199.96 201.91ZM205.971 207.92L211.981 213.931L219.052 206.86L213.042 200.849L205.971 207.92ZM209.506 204.385C209.506 204.385 205.971 200.849 205.971 200.849C205.971 200.849 205.971 200.849 205.971 200.849C205.971 200.849 205.971 200.849 205.971 200.849C205.971 200.849 205.971 200.849 205.971 200.849C205.971 200.849 205.971 200.849 205.971 200.849C205.971 200.849 205.971 200.849 205.971 200.849C205.971 200.849 205.971 200.849 205.971 200.849C205.971 200.849 205.971 200.849 205.971 200.849C205.971 200.849 205.971 200.849 205.971 200.849C205.971 200.849 205.971 200.849 205.971 200.849C205.971 200.849 205.971 200.849 205.971 200.849C205.971 200.849 205.97 200.849 205.97 200.849C205.97 200.849 205.97 200.849 205.97 200.849C205.97 200.849 205.97 200.849 205.97 200.849C205.97 200.849 205.97 200.849 205.97 200.849C205.97 200.849 205.97 200.849 205.97 200.849C205.97 200.849 205.97 200.85 205.97 200.85C205.97 200.85 205.97 200.85 205.97 200.85C205.97 200.85 205.97 200.85 205.97 200.85C205.97 200.85 205.97 200.85 205.97 200.85C205.97 200.85 205.97 200.85 205.97 200.85C205.97 200.85 205.97 200.85 205.97 200.85C205.97 200.85 205.97 200.85 205.97 200.85C205.97 200.85 205.97 200.85 205.97 200.85C205.97 200.85 205.97 200.85 205.97 200.85C205.97 200.85 205.97 200.85 205.97 200.85C205.97 200.85 205.97 200.85 205.97 200.85C205.97 200.85 205.97 200.85 205.97 200.85C205.97 200.85 205.97 200.85 205.969 200.85C205.969 200.85 205.969 200.85 205.969 200.851C205.969 200.851 205.969 200.851 205.969 200.851C205.969 200.851 205.969 200.851 205.969 200.851C205.969 200.851 205.969 200.851 205.969 200.851C205.969 200.851 205.969 200.851 205.969 200.851C205.969 200.851 205.969 200.851 205.969 200.851C205.969 200.851 205.969 200.851 205.968 200.851C205.968 200.851 205.968 200.852 205.968 200.852C205.968 200.852 205.968 200.852 205.968 200.852C205.968 200.852 205.968 200.852 205.968 200.852C205.968 200.852 205.968 200.852 205.968 200.852C205.968 200.852 205.968 200.852 205.967 200.852C205.967 200.852 205.967 200.853 205.967 200.853C205.967 200.853 205.967 200.853 205.967 200.853C205.967 200.853 205.967 200.853 205.967 200.853C205.967 200.853 205.967 200.853 205.966 200.853C205.966 200.853 205.966 200.854 205.966 200.854C205.966 200.854 205.966 200.854 205.966 200.854C205.966 200.854 205.966 200.854 205.966 200.854C205.966 200.854 205.965 200.854 205.965 200.855C205.965 200.855 205.965 200.855 205.965 200.855C205.965 200.855 205.965 200.855 205.965 200.855C205.965 200.855 205.964 200.855 205.964 200.856C205.964 200.856 205.964 200.856 205.964 200.856C205.964 200.856 205.964 200.856 205.964 200.856C205.963 200.856 205.963 200.857 205.963 200.857C205.963 200.857 205.963 200.857 205.963 200.857C205.963 200.857 205.962 200.857 205.962 200.858C205.962 200.858 205.962 200.858 205.962 200.858C205.962 200.858 205.962 200.858 205.961 200.858C205.961 200.859 205.961 200.859 205.961 200.859C205.961 200.859 205.961 200.859 205.96 200.859C205.96 200.86 205.96 200.86 205.96 200.86C205.96 200.86 205.96 200.86 205.959 200.86C205.959 200.861 205.959 200.861 205.959 200.861C205.959 200.861 205.958 200.861 205.958 200.862C205.958 200.862 205.958 200.862 205.958 200.862C205.958 200.862 205.957 200.863 205.957 200.863C205.957 200.863 205.957 200.863 205.956 200.863C205.956 200.864 205.956 200.864 205.956 200.864C205.956 200.864 205.955 200.864 205.955 200.865C205.955 200.865 205.955 200.865 205.955 200.865C205.954 200.866 205.954 200.866 205.954 200.866C205.954 200.866 205.953 200.866 205.953 200.867C205.953 200.867 205.953 200.867 205.952 200.867C205.952 200.868 205.952 200.868 205.952 200.868C205.951 200.868 205.951 200.869 205.951 200.869C205.951 200.869 205.95 200.869 205.95 200.87C205.95 200.87 205.95 200.87 205.949 200.871C205.949 200.871 205.949 200.871 205.948 200.871C205.948 200.872 205.948 200.872 205.948 200.872C205.947 200.873 205.947 200.873 205.947 200.873C205.946 200.873 205.946 200.874 205.946 200.874C205.946 200.874 205.945 200.875 205.945 200.875C205.945 200.875 205.944 200.876 205.944 200.876C205.944 200.876 205.943 200.876 205.943 200.877C205.943 200.877 205.942 200.877 205.942 200.878C205.942 200.878 205.941 200.878 205.941 200.879C205.941 200.879 205.94 200.879 205.94 200.88C205.94 200.88 205.939 200.881 205.939 200.881C205.939 200.881 205.938 200.882 205.938 200.882C205.938 200.882 205.937 200.883 205.937 200.883C205.936 200.883 205.936 200.884 205.936 200.884C205.935 200.885 205.935 200.885 205.935 200.885C205.934 200.886 205.934 200.886 205.933 200.886C205.933 200.887 205.933 200.887 205.932 200.888C205.932 200.888 205.931 200.889 205.931 200.889C205.931 200.889 205.93 200.89 205.93 200.89C205.929 200.891 205.929 200.891 205.928 200.891C205.928 200.892 205.928 200.892 205.927 200.893C205.927 200.893 205.926 200.894 205.926 200.894C205.925 200.895 205.925 200.895 205.924 200.895C205.924 200.896 205.924 200.896 205.923 200.897C205.923 200.897 205.922 200.898 205.922 200.898C205.921 200.899 205.921 200.899 205.92 200.9C205.92 200.9 205.919 200.901 205.919 200.901C205.918 200.902 205.918 200.902 205.917 200.903C205.917 200.903 205.916 200.904 205.916 200.904C205.915 200.905 205.915 200.905 205.914 200.906C205.914 200.906 205.913 200.907 205.913 200.907C205.912 200.908 205.912 200.908 205.911 200.909C205.91 200.909 205.91 200.91 205.909 200.911C205.909 200.911 205.908 200.912 205.908 200.912C205.907 200.913 205.907 200.913 205.906 200.914C205.905 200.914 205.905 200.915 205.904 200.916C205.904 200.916 205.903 200.917 205.902 200.917C205.902 200.918 205.901 200.919 205.901 200.919C205.9 200.92 205.899 200.92 205.899 200.921C205.898 200.922 205.898 200.922 205.897 200.923C205.896 200.923 205.896 200.924 205.895 200.925C205.894 200.925 205.894 200.926 205.893 200.927C205.893 200.927 205.892 200.928 205.891 200.929C205.891 200.929 205.89 200.93 205.889 200.931C205.889 200.931 205.888 200.932 205.887 200.933C205.887 200.933 205.886 200.934 205.885 200.935C205.885 200.935 205.884 200.936 205.883 200.937C205.882 200.937 205.882 200.938 205.881 200.939C205.88 200.94 205.88 200.94 205.879 200.941C205.878 200.942 205.877 200.942 205.877 200.943C205.876 200.944 205.875 200.945 205.874 200.945C205.874 200.946 205.873 200.947 205.872 200.948C205.871 200.948 205.871 200.949 205.87 200.95C205.869 200.951 205.868 200.952 205.868 200.952C205.867 200.953 205.866 200.954 205.865 200.955C205.864 200.955 205.864 200.956 205.863 200.957C205.862 200.958 205.861 200.959 205.86 200.959C205.86 200.96 205.859 200.961 205.858 200.962C205.857 200.963 205.856 200.964 205.855 200.964C205.855 200.965 205.854 200.966 205.853 200.967C205.852 200.968 205.851 200.969 205.85 200.97C205.849 200.97 205.849 200.971 205.848 200.972C205.847 200.973 205.846 200.974 205.845 200.975C205.844 200.976 205.843 200.977 205.842 200.978C205.841 200.978 205.841 200.979 205.84 200.98C205.839 200.981 205.838 200.982 205.837 200.983C205.836 200.984 205.835 200.985 205.834 200.986C205.833 200.987 205.832 200.988 205.831 200.989C205.83 200.99 205.829 200.991 205.828 200.992C205.827 200.993 205.826 200.993 205.825 200.994C205.824 200.995 205.823 200.996 205.822 200.997C205.821 200.998 205.82 200.999 205.819 201C205.818 201.001 205.817 201.002 205.816 201.003C205.815 201.004 205.814 201.006 205.813 201.007C205.812 201.008 205.811 201.009 205.81 201.01C205.809 201.011 205.808 201.012 205.807 201.013C205.806 201.014 205.805 201.015 205.804 201.016C205.803 201.017 205.802 201.018 205.801 201.019C205.799 201.02 205.798 201.021 205.797 201.023C205.796 201.024 205.795 201.025 205.794 201.026C205.793 201.027 205.792 201.028 205.791 201.029C205.789 201.03 205.788 201.032 205.787 201.033C205.786 201.034 205.785 201.035 205.784 201.036C205.783 201.037 205.781 201.039 205.78 201.04C205.779 201.041 205.778 201.042 205.777 201.043C205.775 201.044 205.774 201.046 205.773 201.047C205.772 201.048 205.771 201.049 205.769 201.05C205.768 201.052 205.767 201.053 205.766 201.054C205.764 201.055 205.763 201.057 205.762 201.058C205.761 201.059 205.759 201.06 205.758 201.062C205.757 201.063 205.756 201.064 205.754 201.065C205.753 201.067 205.752 201.068 205.751 201.069C205.749 201.071 205.748 201.072 205.747 201.073C205.745 201.075 205.744 201.076 205.743 201.077C205.741 201.078 205.74 201.08 205.739 201.081C205.737 201.082 205.736 201.084 205.735 201.085C205.733 201.087 205.732 201.088 205.731 201.089C205.729 201.091 205.728 201.092 205.726 201.093C205.725 201.095 205.724 201.096 205.722 201.098C205.721 201.099 205.719 201.1 205.718 201.102C205.717 201.103 205.715 201.105 205.714 201.106C205.712 201.108 205.711 201.109 205.709 201.11C205.708 201.112 205.706 201.113 205.705 201.115C205.704 201.116 205.702 201.118 205.701 201.119C205.699 201.121 205.698 201.122 205.696 201.124C205.695 201.125 205.693 201.127 205.692 201.128C205.69 201.13 205.689 201.131 205.687 201.133C205.686 201.134 205.684 201.136 205.682 201.137C205.681 201.139 205.679 201.141 205.678 201.142C205.676 201.144 205.675 201.145 205.673 201.147C205.671 201.148 205.67 201.15 205.668 201.152C205.667 201.153 205.665 201.155 205.663 201.156C205.662 201.158 205.66 201.16 205.659 201.161C205.657 201.163 205.655 201.165 205.654 201.166C205.652 201.168 205.65 201.17 205.649 201.171C205.647 201.173 205.645 201.175 205.644 201.176C205.642 201.178 205.64 201.18 205.639 201.181C205.637 201.183 205.635 201.185 205.633 201.186C205.632 201.188 205.63 201.19 205.628 201.192C205.626 201.193 205.625 201.195 205.623 201.197C205.621 201.199 205.619 201.2 205.618 201.202C205.616 201.204 205.614 201.206 205.612 201.208C205.611 201.209 205.609 201.211 205.607 201.213C205.605 201.215 205.603 201.217 205.601 201.218C205.6 201.22 205.598 201.222 205.596 201.224C205.594 201.226 205.592 201.228 205.59 201.229C205.589 201.231 205.587 201.233 205.585 201.235C205.583 201.237 205.581 201.239 205.579 201.241C205.577 201.243 205.575 201.245 205.573 201.246C205.571 201.248 205.57 201.25 205.568 201.252C205.566 201.254 205.564 201.256 205.562 201.258C205.56 201.26 205.558 201.262 205.556 201.264C205.554 201.266 205.552 201.268 205.55 201.27C205.548 201.272 205.546 201.274 205.544 201.276C205.542 201.278 205.54 201.28 205.538 201.282C205.536 201.284 205.534 201.286 205.532 201.288C205.53 201.29 205.528 201.292 205.526 201.294C205.523 201.296 205.521 201.298 205.519 201.301C205.517 201.303 205.515 201.305 205.513 201.307C205.511 201.309 205.509 201.311 205.507 201.313C205.504 201.315 205.502 201.318 205.5 201.32C205.498 201.322 205.496 201.324 205.494 201.326C205.492 201.328 205.489 201.33 205.487 201.333C205.485 201.335 205.483 201.337 205.481 201.339C205.478 201.341 205.476 201.344 205.474 201.346C205.472 201.348 205.47 201.35 205.467 201.353C205.465 201.355 205.463 201.357 205.46 201.359C205.458 201.362 205.456 201.364 205.454 201.366C205.451 201.368 205.449 201.371 205.447 201.373C205.444 201.375 205.442 201.378 205.44 201.38C205.437 201.382 205.435 201.385 205.433 201.387C205.43 201.389 205.428 201.392 205.426 201.394C205.423 201.397 205.421 201.399 205.419 201.401C205.416 201.404 205.414 201.406 205.411 201.408C205.409 201.411 205.407 201.413 205.404 201.416C205.402 201.418 205.399 201.421 205.397 201.423C205.394 201.426 205.392 201.428 205.389 201.43C205.387 201.433 205.384 201.435 205.382 201.438C205.379 201.44 205.377 201.443 205.374 201.445C205.372 201.448 205.369 201.45 205.367 201.453C205.364 201.456 205.362 201.458 205.359 201.461C205.357 201.463 205.354 201.466 205.352 201.468C205.349 201.471 205.346 201.474 205.344 201.476C205.341 201.479 205.339 201.481 205.336 201.484C205.333 201.487 205.331 201.489 205.328 201.492C205.325 201.494 205.323 201.497 205.32 201.5C205.317 201.502 205.315 201.505 205.312 201.508C205.309 201.511 205.307 201.513 205.304 201.516C205.301 201.519 205.298 201.521 205.296 201.524C205.293 201.527 205.29 201.53 205.288 201.532C205.285 201.535 205.282 201.538 205.279 201.541C205.276 201.543 205.274 201.546 205.271 201.549C205.268 201.552 205.265 201.555 205.262 201.557C205.26 201.56 205.257 201.563 205.254 201.566C205.251 201.569 205.248 201.572 205.245 201.574C205.243 201.577 205.24 201.58 205.237 201.583C205.234 201.586 205.231 201.589 205.228 201.592C205.225 201.595 205.222 201.598 205.219 201.601C205.216 201.604 205.213 201.606 205.21 201.609C205.207 201.612 205.205 201.615 205.202 201.618C205.199 201.621 205.196 201.624 205.193 201.627C205.19 201.63 205.187 201.633 205.183 201.636C205.18 201.639 205.177 201.642 205.174 201.645C205.171 201.649 205.168 201.652 205.165 201.655C205.162 201.658 205.159 201.661 205.156 201.664C205.153 201.667 205.15 201.67 205.147 201.673C205.143 201.676 205.14 201.68 205.137 201.683C205.134 201.686 205.131 201.689 205.128 201.692C205.125 201.695 205.121 201.698 205.118 201.702C205.115 201.705 205.112 201.708 205.109 201.711C205.105 201.714 205.102 201.718 205.099 201.721C205.096 201.724 205.092 201.727 205.089 201.731C205.086 201.734 205.083 201.737 205.079 201.741C205.076 201.744 205.073 201.747 205.069 201.75C205.066 201.754 205.063 201.757 205.059 201.76C205.056 201.764 205.053 201.767 205.049 201.77C205.046 201.774 205.043 201.777 205.039 201.781C205.036 201.784 205.032 201.787 205.029 201.791C205.026 201.794 205.022 201.798 205.019 201.801C205.015 201.805 205.012 201.808 205.008 201.811C205.005 201.815 205.002 201.818 204.998 201.822C204.995 201.825 204.991 201.829 204.988 201.832C204.984 201.836 204.981 201.839 204.977 201.843C204.973 201.846 204.97 201.85 204.966 201.854C204.963 201.857 204.959 201.861 204.956 201.864C204.952 201.868 204.948 201.871 204.945 201.875C204.941 201.879 204.938 201.882 204.934 201.886C204.93 201.89 204.927 201.893 204.923 201.897C204.919 201.901 204.916 201.904 204.912 201.908C204.908 201.912 204.905 201.915 204.901 201.919C204.897 201.923 204.893 201.926 204.89 201.93C204.886 201.934 204.882 201.938 204.878 201.941C204.875 201.945 204.871 201.949 204.867 201.953C204.863 201.957 204.859 201.96 204.856 201.964C204.852 201.968 204.848 201.972 204.844 201.976C204.84 201.98 204.836 201.983 204.833 201.987C204.829 201.991 204.825 201.995 204.821 201.999C204.817 202.003 204.813 202.007 204.809 202.011C204.805 202.015 204.801 202.019 204.797 202.022C204.793 202.026 204.789 202.03 204.786 202.034C204.782 202.038 204.778 202.042 204.774 202.046C204.77 202.05 204.766 202.054 204.761 202.058C204.757 202.062 204.753 202.066 204.749 202.071C204.745 202.075 204.741 202.079 204.737 202.083C204.733 202.087 204.729 202.091 204.725 202.095C204.721 202.099 204.717 202.103 204.712 202.107C204.708 202.112 204.704 202.116 204.7 202.12C204.696 202.124 204.692 202.128 204.687 202.132C204.683 202.137 204.679 202.141 204.675 202.145C204.671 202.149 204.666 202.153 204.662 202.158C204.658 202.162 204.654 202.166 204.649 202.17C204.645 202.175 204.641 202.179 204.636 202.183C204.632 202.188 204.628 202.192 204.624 202.196C204.619 202.201 204.615 202.205 204.611 202.209C204.606 202.214 204.602 202.218 204.597 202.222C204.593 202.227 204.589 202.231 204.584 202.236C204.58 202.24 204.575 202.245 204.571 202.249C204.566 202.253 204.562 202.258 204.558 202.262C204.553 202.267 204.549 202.271 204.544 202.276C204.54 202.28 204.535 202.285 204.531 202.289C204.526 202.294 204.521 202.298 204.517 202.303C204.512 202.308 204.508 202.312 204.503 202.317C204.499 202.321 204.494 202.326 204.489 202.33C204.485 202.335 204.48 202.34 204.475 202.344C204.471 202.349 204.466 202.354 204.462 202.358C204.457 202.363 204.452 202.368 204.447 202.372C204.443 202.377 204.438 202.382 204.433 202.387C204.429 202.391 204.424 202.396 204.419 202.401C204.414 202.406 204.41 202.41 204.405 202.415C204.4 202.42 204.395 202.425 204.39 202.43C204.386 202.434 204.381 202.439 204.376 202.444C204.371 202.449 204.366 202.454 204.361 202.459C204.356 202.463 204.352 202.468 204.347 202.473C204.342 202.478 204.337 202.483 204.332 202.488C204.327 202.493 204.322 202.498 204.317 202.503C204.312 202.508 204.307 202.513 204.302 202.518C204.297 202.523 204.292 202.528 204.287 202.533C204.282 202.538 204.277 202.543 204.272 202.548C204.267 202.553 204.262 202.558 204.257 202.563C204.252 202.568 204.246 202.573 204.241 202.578C204.236 202.584 204.231 202.589 204.226 202.594C204.221 202.599 204.216 202.604 204.21 202.609C204.205 202.615 204.2 202.62 204.195 202.625C204.19 202.63 204.184 202.635 204.179 202.641C204.174 202.646 204.169 202.651 204.163 202.656C204.158 202.662 204.153 202.667 204.148 202.672C204.142 202.678 204.137 202.683 204.132 202.688C204.126 202.693 204.121 202.699 204.116 202.704C204.11 202.71 204.105 202.715 204.1 202.72C204.094 202.726 204.089 202.731 204.083 202.737C204.078 202.742 204.072 202.747 204.067 202.753C204.062 202.758 204.056 202.764 204.051 202.769C204.045 202.775 204.04 202.78 204.034 202.786C204.029 202.791 204.023 202.797 204.017 202.802C204.012 202.808 204.006 202.813 204.001 202.819C203.995 202.825 203.99 202.83 203.984 202.836C203.978 202.841 203.973 202.847 203.967 202.853C203.961 202.858 203.956 202.864 203.95 202.87C203.944 202.875 203.939 202.881 203.933 202.887C203.927 202.893 203.922 202.898 203.916 202.904C203.91 202.91 203.904 202.915 203.899 202.921C203.893 202.927 203.887 202.933 203.881 202.939C203.875 202.944 203.87 202.95 203.864 202.956C203.858 202.962 203.852 202.968 203.846 202.974C203.84 202.979 203.834 202.985 203.829 202.991C203.823 202.997 203.817 203.003 203.811 203.009C203.805 203.015 203.799 203.021 203.793 203.027C203.787 203.033 203.781 203.039 203.775 203.045C203.769 203.051 203.763 203.057 203.757 203.063C203.751 203.069 203.745 203.075 203.739 203.081C203.733 203.087 203.727 203.093 203.721 203.099C203.715 203.105 203.708 203.111 203.702 203.118C203.696 203.124 203.69 203.13 203.684 203.136C203.678 203.142 203.671 203.148 203.665 203.155C203.659 203.161 203.653 203.167 203.647 203.173C203.64 203.179 203.634 203.186 203.628 203.192C203.622 203.198 203.615 203.204 203.609 203.211C203.603 203.217 203.596 203.223 203.59 203.23C203.584 203.236 203.577 203.242 203.571 203.249C203.565 203.255 203.558 203.262 203.552 203.268C203.546 203.274 203.539 203.281 203.533 203.287C203.526 203.294 203.52 203.3 203.513 203.307C203.507 203.313 203.5 203.319 203.494 203.326C203.487 203.332 203.481 203.339 203.474 203.346C203.468 203.352 203.461 203.359 203.455 203.365C203.448 203.372 203.442 203.378 203.435 203.385C203.428 203.392 203.422 203.398 203.415 203.405C203.408 203.411 203.402 203.418 203.395 203.425C203.388 203.431 203.382 203.438 203.375 203.445C203.368 203.452 203.362 203.458 203.355 203.465C203.348 203.472 203.341 203.479 203.335 203.485C203.328 203.492 203.321 203.499 203.314 203.506C203.307 203.512 203.301 203.519 203.294 203.526C203.287 203.533 203.28 203.54 203.273 203.547C203.266 203.554 203.259 203.561 203.252 203.567C203.246 203.574 203.239 203.581 203.232 203.588C203.225 203.595 203.218 203.602 203.211 203.609C203.204 203.616 203.197 203.623 203.19 203.63C203.183 203.637 203.176 203.644 203.169 203.651C203.162 203.658 203.154 203.665 203.147 203.673C203.14 203.68 203.133 203.687 203.126 203.694C203.119 203.701 203.112 203.708 203.105 203.715C203.097 203.722 203.09 203.73 203.083 203.737C203.076 203.744 203.069 203.751 203.061 203.758C203.054 203.766 203.047 203.773 203.04 203.78C203.032 203.788 203.025 203.795 203.018 203.802C203.01 203.809 203.003 203.817 202.996 203.824C202.988 203.831 202.981 203.839 202.974 203.846C202.966 203.854 202.959 203.861 202.951 203.868C202.944 203.876 202.937 203.883 202.929 203.891C202.922 203.898 202.914 203.906 202.907 203.913C202.899 203.921 202.892 203.928 202.884 203.936C202.877 203.943 202.869 203.951 202.862 203.958C202.854 203.966 202.846 203.973 202.839 203.981C202.831 203.989 202.824 203.996 202.816 204.004C202.808 204.012 202.801 204.019 202.793 204.027C202.785 204.035 202.778 204.042 202.77 204.05C202.762 204.058 202.754 204.065 202.747 204.073C202.739 204.081 202.731 204.089 202.723 204.096C202.716 204.104 202.708 204.112 202.7 204.12C202.692 204.128 202.684 204.136 202.676 204.143C202.669 204.151 202.661 204.159 202.653 204.167C202.645 204.175 202.637 204.183 202.629 204.191C202.621 204.199 202.613 204.207 202.605 204.215C202.597 204.223 202.589 204.231 202.581 204.239C202.573 204.247 202.565 204.255 202.557 204.263C202.549 204.271 202.541 204.279 202.533 204.287C202.525 204.295 202.517 204.303 202.509 204.311C202.5 204.319 202.492 204.328 202.484 204.336C202.476 204.344 202.468 204.352 202.46 204.36C202.451 204.368 202.443 204.377 202.435 204.385C202.427 204.393 202.418 204.401 202.41 204.41C202.402 204.418 202.394 204.426 202.385 204.435C202.377 204.443 202.369 204.451 202.36 204.46C202.352 204.468 202.344 204.476 202.335 204.485C202.327 204.493 202.318 204.502 202.31 204.51C202.301 204.518 202.293 204.527 202.285 204.535C202.276 204.544 202.268 204.552 202.259 204.561C202.251 204.569 202.242 204.578 202.233 204.586C202.225 204.595 202.216 204.604 202.208 204.612C202.199 204.621 202.191 204.629 202.182 204.638C202.173 204.647 202.165 204.655 202.156 204.664C202.147 204.673 202.139 204.681 202.13 204.69C202.121 204.699 202.112 204.707 202.104 204.716C202.095 204.725 202.086 204.734 202.077 204.742C202.069 204.751 202.06 204.76 202.051 204.769C202.042 204.778 202.033 204.787 202.024 204.795C202.016 204.804 202.007 204.813 201.998 204.822C201.989 204.831 201.98 204.84 201.971 204.849C201.962 204.858 201.953 204.867 201.944 204.876C201.935 204.885 201.926 204.894 201.917 204.903C201.908 204.912 201.899 204.921 201.89 204.93C201.881 204.939 201.872 204.948 201.863 204.957C201.854 204.966 201.844 204.975 201.835 204.985C201.826 204.994 201.817 205.003 201.808 205.012C201.799 205.021 201.789 205.031 201.78 205.04C201.771 205.049 201.762 205.058 201.752 205.068C201.743 205.077 201.734 205.086 201.724 205.095C201.715 205.105 201.706 205.114 201.696 205.123C201.687 205.133 201.678 205.142 201.668 205.151C201.659 205.161 201.65 205.17 201.64 205.18C201.631 205.189 201.621 205.199 201.612 205.208C201.602 205.218 201.593 205.227 201.583 205.237C201.574 205.246 201.564 205.256 201.555 205.265C201.545 205.275 201.536 205.284 201.526 205.294C201.516 205.304 201.507 205.313 201.497 205.323C201.487 205.332 201.478 205.342 201.468 205.352C201.458 205.361 201.449 205.371 201.439 205.381C201.429 205.391 201.419 205.4 201.41 205.41C201.4 205.42 201.39 205.43 201.38 205.439C201.371 205.449 201.361 205.459 201.351 205.469C201.341 205.479 201.331 205.489 201.321 205.499C201.311 205.508 201.301 205.518 201.292 205.528C201.282 205.538 201.272 205.548 201.262 205.558C201.252 205.568 201.242 205.578 201.232 205.588C201.222 205.598 201.212 205.608 201.202 205.618C201.191 205.628 201.181 205.638 201.171 205.649C201.161 205.659 201.151 205.669 201.141 205.679C201.131 205.689 201.121 205.699 201.11 205.709C201.1 205.72 201.09 205.73 201.08 205.74C201.07 205.75 201.059 205.761 201.049 205.771C201.039 205.781 201.028 205.791 201.018 205.802C201.008 205.812 200.997 205.822 200.987 205.833C200.977 205.843 200.966 205.853 200.956 205.864C200.946 205.874 200.935 205.885 200.925 205.895C200.914 205.906 200.904 205.916 200.893 205.927C200.883 205.937 200.872 205.948 200.862 205.958C200.851 205.969 200.841 205.979 200.83 205.99C200.82 206 200.809 206.011 200.798 206.022C200.788 206.032 200.777 206.043 200.766 206.053C200.756 206.064 200.745 206.075 200.734 206.086C200.724 206.096 200.713 206.107 200.702 206.118C200.691 206.128 200.681 206.139 200.67 206.15C200.659 206.161 200.648 206.172 200.637 206.183C200.627 206.193 200.616 206.204 200.605 206.215C200.594 206.226 200.583 206.237 200.572 206.248C200.561 206.259 200.55 206.27 200.539 206.281C200.528 206.292 200.517 206.303 200.506 206.314C200.495 206.325 200.484 206.336 200.473 206.347C200.462 206.358 200.451 206.369 200.44 206.38C200.429 206.391 200.418 206.402 200.406 206.413C200.395 206.425 200.384 206.436 200.373 206.447C200.362 206.458 200.351 206.469 200.339 206.481C200.328 206.492 200.317 206.503 200.306 206.514C200.294 206.526 200.283 206.537 200.272 206.548C200.26 206.56 200.249 206.571 200.238 206.582C200.226 206.594 200.215 206.605 200.203 206.617C200.192 206.628 200.18 206.639 200.169 206.651C200.158 206.662 200.146 206.674 200.135 206.685C200.123 206.697 200.111 206.708 200.1 206.72C200.088 206.731 200.077 206.743 200.065 206.755C200.054 206.766 200.042 206.778 200.03 206.79C200.019 206.801 200.007 206.813 199.995 206.825C199.984 206.836 199.972 206.848 199.96 206.86L207.031 213.931C207.043 213.919 207.055 213.907 207.066 213.896C207.078 213.884 207.09 213.872 207.101 213.861C207.113 213.849 207.125 213.837 207.136 213.826C207.148 213.814 207.159 213.803 207.171 213.791C207.183 213.779 207.194 213.768 207.206 213.756C207.217 213.745 207.229 213.733 207.24 213.722C207.252 213.71 207.263 213.699 207.274 213.688C207.286 213.676 207.297 213.665 207.309 213.653C207.32 213.642 207.331 213.631 207.343 213.619C207.354 213.608 207.365 213.597 207.377 213.585C207.388 213.574 207.399 213.563 207.41 213.552C207.422 213.54 207.433 213.529 207.444 213.518C207.455 213.507 207.466 213.496 207.478 213.484C207.489 213.473 207.5 213.462 207.511 213.451C207.522 213.44 207.533 213.429 207.544 213.418C207.555 213.407 207.566 213.396 207.577 213.385C207.588 213.374 207.599 213.363 207.61 213.352C207.621 213.341 207.632 213.33 207.643 213.319C207.654 213.308 207.665 213.297 207.676 213.286C207.687 213.275 207.698 213.264 207.708 213.254C207.719 213.243 207.73 213.232 207.741 213.221C207.752 213.21 207.762 213.2 207.773 213.189C207.784 213.178 207.795 213.167 207.805 213.157C207.816 213.146 207.827 213.135 207.837 213.125C207.848 213.114 207.859 213.103 207.869 213.093C207.88 213.082 207.891 213.071 207.901 213.061C207.912 213.05 207.922 213.04 207.933 213.029C207.943 213.019 207.954 213.008 207.964 212.998C207.975 212.987 207.985 212.977 207.996 212.966C208.006 212.956 208.017 212.945 208.027 212.935C208.037 212.925 208.048 212.914 208.058 212.904C208.069 212.893 208.079 212.883 208.089 212.873C208.1 212.862 208.11 212.852 208.12 212.842C208.13 212.832 208.141 212.821 208.151 212.811C208.161 212.801 208.171 212.791 208.181 212.781C208.192 212.77 208.202 212.76 208.212 212.75C208.222 212.74 208.232 212.73 208.242 212.72C208.252 212.71 208.263 212.699 208.273 212.689C208.283 212.679 208.293 212.669 208.303 212.659C208.313 212.649 208.323 212.639 208.333 212.629C208.343 212.619 208.353 212.609 208.363 212.599C208.373 212.589 208.382 212.58 208.392 212.57C208.402 212.56 208.412 212.55 208.422 212.54C208.432 212.53 208.442 212.52 208.451 212.511C208.461 212.501 208.471 212.491 208.481 212.481C208.491 212.471 208.5 212.462 208.51 212.452C208.52 212.442 208.529 212.433 208.539 212.423C208.549 212.413 208.558 212.404 208.568 212.394C208.578 212.384 208.587 212.375 208.597 212.365C208.607 212.355 208.616 212.346 208.626 212.336C208.635 212.327 208.645 212.317 208.654 212.308C208.664 212.298 208.673 212.289 208.683 212.279C208.692 212.27 208.702 212.26 208.711 212.251C208.721 212.241 208.73 212.232 208.739 212.223C208.749 212.213 208.758 212.204 208.768 212.194C208.777 212.185 208.786 212.176 208.796 212.166C208.805 212.157 208.814 212.148 208.823 212.139C208.833 212.129 208.842 212.12 208.851 212.111C208.86 212.102 208.87 212.092 208.879 212.083C208.888 212.074 208.897 212.065 208.906 212.056C208.915 212.047 208.925 212.037 208.934 212.028C208.943 212.019 208.952 212.01 208.961 212.001C208.97 211.992 208.979 211.983 208.988 211.974C208.997 211.965 209.006 211.956 209.015 211.947C209.024 211.938 209.033 211.929 209.042 211.92C209.051 211.911 209.06 211.902 209.069 211.893C209.078 211.884 209.087 211.875 209.095 211.867C209.104 211.858 209.113 211.849 209.122 211.84C209.131 211.831 209.14 211.822 209.148 211.814C209.157 211.805 209.166 211.796 209.175 211.787C209.184 211.778 209.192 211.77 209.201 211.761C209.21 211.752 209.218 211.744 209.227 211.735C209.236 211.726 209.244 211.718 209.253 211.709C209.262 211.7 209.27 211.692 209.279 211.683C209.287 211.675 209.296 211.666 209.305 211.657C209.313 211.649 209.322 211.64 209.33 211.632C209.339 211.623 209.347 211.615 209.356 211.606C209.364 211.598 209.373 211.589 209.381 211.581C209.389 211.573 209.398 211.564 209.406 211.556C209.415 211.547 209.423 211.539 209.431 211.531C209.44 211.522 209.448 211.514 209.456 211.506C209.465 211.497 209.473 211.489 209.481 211.481C209.49 211.472 209.498 211.464 209.506 211.456C209.514 211.448 209.522 211.44 209.531 211.431C209.539 211.423 209.547 211.415 209.555 211.407C209.563 211.399 209.572 211.39 209.58 211.382C209.588 211.374 209.596 211.366 209.604 211.358C209.612 211.35 209.62 211.342 209.628 211.334C209.636 211.326 209.644 211.318 209.652 211.31C209.66 211.302 209.668 211.294 209.676 211.286C209.684 211.278 209.692 211.27 209.7 211.262C209.708 211.254 209.716 211.246 209.724 211.238C209.732 211.23 209.74 211.222 209.748 211.214C209.755 211.207 209.763 211.199 209.771 211.191C209.779 211.183 209.787 211.175 209.794 211.168C209.802 211.16 209.81 211.152 209.818 211.144C209.826 211.136 209.833 211.129 209.841 211.121C209.849 211.113 209.856 211.106 209.864 211.098C209.872 211.09 209.879 211.083 209.887 211.075C209.895 211.067 209.902 211.06 209.91 211.052C209.917 211.045 209.925 211.037 209.933 211.029C209.94 211.022 209.948 211.014 209.955 211.007C209.963 210.999 209.97 210.992 209.978 210.984C209.985 210.977 209.993 210.969 210 210.962C210.008 210.954 210.015 210.947 210.023 210.939C210.03 210.932 210.037 210.925 210.045 210.917C210.052 210.91 210.059 210.903 210.067 210.895C210.074 210.888 210.082 210.88 210.089 210.873C210.096 210.866 210.103 210.859 210.111 210.851C210.118 210.844 210.125 210.837 210.132 210.83C210.14 210.822 210.147 210.815 210.154 210.808C210.161 210.801 210.168 210.794 210.176 210.786C210.183 210.779 210.19 210.772 210.197 210.765C210.204 210.758 210.211 210.751 210.218 210.744C210.226 210.736 210.233 210.729 210.24 210.722C210.247 210.715 210.254 210.708 210.261 210.701C210.268 210.694 210.275 210.687 210.282 210.68C210.289 210.673 210.296 210.666 210.303 210.659C210.31 210.652 210.317 210.645 210.323 210.639C210.33 210.632 210.337 210.625 210.344 210.618C210.351 210.611 210.358 210.604 210.365 210.597C210.372 210.59 210.378 210.584 210.385 210.577C210.392 210.57 210.399 210.563 210.406 210.556C210.412 210.55 210.419 210.543 210.426 210.536C210.433 210.529 210.439 210.523 210.446 210.516C210.453 210.509 210.459 210.503 210.466 210.496C210.473 210.489 210.479 210.483 210.486 210.476C210.493 210.469 210.499 210.463 210.506 210.456C210.513 210.449 210.519 210.443 210.526 210.436C210.532 210.43 210.539 210.423 210.545 210.417C210.552 210.41 210.558 210.404 210.565 210.397C210.571 210.391 210.578 210.384 210.584 210.378C210.591 210.371 210.597 210.365 210.604 210.358C210.61 210.352 210.617 210.345 210.623 210.339C210.629 210.333 210.636 210.326 210.642 210.32C210.649 210.313 210.655 210.307 210.661 210.301C210.668 210.294 210.674 210.288 210.68 210.282C210.686 210.276 210.693 210.269 210.699 210.263C210.705 210.257 210.711 210.251 210.718 210.244C210.724 210.238 210.73 210.232 210.736 210.226C210.743 210.219 210.749 210.213 210.755 210.207C210.761 210.201 210.767 210.195 210.773 210.189C210.779 210.183 210.786 210.176 210.792 210.17C210.798 210.164 210.804 210.158 210.81 210.152C210.816 210.146 210.822 210.14 210.828 210.134C210.834 210.128 210.84 210.122 210.846 210.116C210.852 210.11 210.858 210.104 210.864 210.098C210.87 210.092 210.876 210.086 210.882 210.08C210.888 210.074 210.894 210.068 210.9 210.062C210.906 210.056 210.911 210.051 210.917 210.045C210.923 210.039 210.929 210.033 210.935 210.027C210.941 210.021 210.947 210.015 210.952 210.01C210.958 210.004 210.964 209.998 210.97 209.992C210.975 209.987 210.981 209.981 210.987 209.975C210.993 209.969 210.998 209.964 211.004 209.958C211.01 209.952 211.016 209.946 211.021 209.941C211.027 209.935 211.033 209.929 211.038 209.924C211.044 209.918 211.049 209.913 211.055 209.907C211.061 209.901 211.066 209.896 211.072 209.89C211.077 209.885 211.083 209.879 211.089 209.873C211.094 209.868 211.1 209.862 211.105 209.857C211.111 209.851 211.116 209.846 211.122 209.84C211.127 209.835 211.133 209.829 211.138 209.824C211.144 209.818 211.149 209.813 211.154 209.808C211.16 209.802 211.165 209.797 211.171 209.791C211.176 209.786 211.181 209.781 211.187 209.775C211.192 209.77 211.197 209.765 211.203 209.759C211.208 209.754 211.213 209.749 211.219 209.743C211.224 209.738 211.229 209.733 211.235 209.727C211.24 209.722 211.245 209.717 211.25 209.712C211.256 209.706 211.261 209.701 211.266 209.696C211.271 209.691 211.276 209.686 211.282 209.68C211.287 209.675 211.292 209.67 211.297 209.665C211.302 209.66 211.307 209.655 211.312 209.65C211.318 209.644 211.323 209.639 211.328 209.634C211.333 209.629 211.338 209.624 211.343 209.619C211.348 209.614 211.353 209.609 211.358 209.604C211.363 209.599 211.368 209.594 211.373 209.589C211.378 209.584 211.383 209.579 211.388 209.574C211.393 209.569 211.398 209.564 211.403 209.559C211.408 209.554 211.413 209.549 211.418 209.544C211.423 209.539 211.427 209.535 211.432 209.53C211.437 209.525 211.442 209.52 211.447 209.515C211.452 209.51 211.457 209.505 211.461 209.501C211.466 209.496 211.471 209.491 211.476 209.486C211.481 209.481 211.485 209.477 211.49 209.472C211.495 209.467 211.5 209.462 211.504 209.458C211.509 209.453 211.514 209.448 211.519 209.443C211.523 209.439 211.528 209.434 211.533 209.429C211.537 209.425 211.542 209.42 211.547 209.415C211.551 209.411 211.556 209.406 211.56 209.402C211.565 209.397 211.57 209.392 211.574 209.388C211.579 209.383 211.583 209.379 211.588 209.374C211.593 209.369 211.597 209.365 211.602 209.36C211.606 209.356 211.611 209.351 211.615 209.347C211.62 209.342 211.624 209.338 211.629 209.333C211.633 209.329 211.638 209.324 211.642 209.32C211.646 209.316 211.651 209.311 211.655 209.307C211.66 209.302 211.664 209.298 211.668 209.294C211.673 209.289 211.677 209.285 211.682 209.28C211.686 209.276 211.69 209.272 211.695 209.267C211.699 209.263 211.703 209.259 211.708 209.254C211.712 209.25 211.716 209.246 211.72 209.242C211.725 209.237 211.729 209.233 211.733 209.229C211.737 209.225 211.742 209.22 211.746 209.216C211.75 209.212 211.754 209.208 211.759 209.203C211.763 209.199 211.767 209.195 211.771 209.191C211.775 209.187 211.779 209.183 211.784 209.178C211.788 209.174 211.792 209.17 211.796 209.166C211.8 209.162 211.804 209.158 211.808 209.154C211.812 209.15 211.816 209.146 211.82 209.142C211.824 209.138 211.829 209.133 211.833 209.129C211.837 209.125 211.841 209.121 211.845 209.117C211.849 209.113 211.853 209.109 211.857 209.105C211.861 209.101 211.865 209.097 211.868 209.094C211.872 209.09 211.876 209.086 211.88 209.082C211.884 209.078 211.888 209.074 211.892 209.07C211.896 209.066 211.9 209.062 211.904 209.058C211.908 209.054 211.911 209.051 211.915 209.047C211.919 209.043 211.923 209.039 211.927 209.035C211.931 209.031 211.934 209.028 211.938 209.024C211.942 209.02 211.946 209.016 211.949 209.013C211.953 209.009 211.957 209.005 211.961 209.001C211.964 208.998 211.968 208.994 211.972 208.99C211.976 208.986 211.979 208.983 211.983 208.979C211.987 208.975 211.99 208.972 211.994 208.968C211.998 208.964 212.001 208.961 212.005 208.957C212.009 208.953 212.012 208.95 212.016 208.946C212.019 208.943 212.023 208.939 212.027 208.935C212.03 208.932 212.034 208.928 212.037 208.925C212.041 208.921 212.044 208.918 212.048 208.914C212.052 208.91 212.055 208.907 212.059 208.903C212.062 208.9 212.066 208.896 212.069 208.893C212.073 208.889 212.076 208.886 212.08 208.882C212.083 208.879 212.086 208.876 212.09 208.872C212.093 208.869 212.097 208.865 212.1 208.862C212.104 208.858 212.107 208.855 212.11 208.852C212.114 208.848 212.117 208.845 212.12 208.842C212.124 208.838 212.127 208.835 212.131 208.831C212.134 208.828 212.137 208.825 212.14 208.822C212.144 208.818 212.147 208.815 212.15 208.812C212.154 208.808 212.157 208.805 212.16 208.802C212.163 208.799 212.167 208.795 212.17 208.792C212.173 208.789 212.176 208.786 212.18 208.782C212.183 208.779 212.186 208.776 212.189 208.773C212.192 208.77 212.196 208.766 212.199 208.763C212.202 208.76 212.205 208.757 212.208 208.754C212.211 208.751 212.215 208.747 212.218 208.744C212.221 208.741 212.224 208.738 212.227 208.735C212.23 208.732 212.233 208.729 212.236 208.726C212.239 208.723 212.242 208.72 212.245 208.717C212.249 208.714 212.252 208.71 212.255 208.707C212.258 208.704 212.261 208.701 212.264 208.698C212.267 208.695 212.27 208.692 212.273 208.689C212.276 208.686 212.279 208.683 212.281 208.681C212.284 208.678 212.287 208.675 212.29 208.672C212.293 208.669 212.296 208.666 212.299 208.663C212.302 208.66 212.305 208.657 212.308 208.654C212.311 208.651 212.314 208.648 212.316 208.646C212.319 208.643 212.322 208.64 212.325 208.637C212.328 208.634 212.331 208.631 212.334 208.628C212.336 208.626 212.339 208.623 212.342 208.62C212.345 208.617 212.348 208.614 212.35 208.612C212.353 208.609 212.356 208.606 212.359 208.603C212.361 208.601 212.364 208.598 212.367 208.595C212.37 208.592 212.372 208.59 212.375 208.587C212.378 208.584 212.38 208.582 212.383 208.579C212.386 208.576 212.388 208.574 212.391 208.571C212.394 208.568 212.396 208.566 212.399 208.563C212.402 208.56 212.404 208.558 212.407 208.555C212.41 208.552 212.412 208.55 212.415 208.547C212.417 208.545 212.42 208.542 212.423 208.539C212.425 208.537 212.428 208.534 212.43 208.532C212.433 208.529 212.435 208.527 212.438 208.524C212.44 208.522 212.443 208.519 212.446 208.516C212.448 208.514 212.451 208.511 212.453 208.509C212.456 208.506 212.458 208.504 212.46 208.502C212.463 208.499 212.465 208.497 212.468 208.494C212.47 208.492 212.473 208.489 212.475 208.487C212.478 208.484 212.48 208.482 212.482 208.48C212.485 208.477 212.487 208.475 212.49 208.472C212.492 208.47 212.494 208.468 212.497 208.465C212.499 208.463 212.502 208.46 212.504 208.458C212.506 208.456 212.509 208.453 212.511 208.451C212.513 208.449 212.516 208.446 212.518 208.444C212.52 208.442 212.522 208.44 212.525 208.437C212.527 208.435 212.529 208.433 212.532 208.43C212.534 208.428 212.536 208.426 212.538 208.424C212.541 208.421 212.543 208.419 212.545 208.417C212.547 208.415 212.549 208.413 212.552 208.41C212.554 208.408 212.556 208.406 212.558 208.404C212.56 208.402 212.563 208.399 212.565 208.397C212.567 208.395 212.569 208.393 212.571 208.391C212.573 208.389 212.576 208.386 212.578 208.384C212.58 208.382 212.582 208.38 212.584 208.378C212.586 208.376 212.588 208.374 212.59 208.372C212.592 208.37 212.595 208.367 212.597 208.365C212.599 208.363 212.601 208.361 212.603 208.359C212.605 208.357 212.607 208.355 212.609 208.353C212.611 208.351 212.613 208.349 212.615 208.347C212.617 208.345 212.619 208.343 212.621 208.341C212.623 208.339 212.625 208.337 212.627 208.335C212.629 208.333 212.631 208.331 212.633 208.329C212.635 208.327 212.637 208.325 212.639 208.323C212.641 208.321 212.643 208.319 212.644 208.318C212.646 208.316 212.648 208.314 212.65 208.312C212.652 208.31 212.654 208.308 212.656 208.306C212.658 208.304 212.66 208.302 212.661 208.301C212.663 208.299 212.665 208.297 212.667 208.295C212.669 208.293 212.671 208.291 212.673 208.289C212.674 208.288 212.676 208.286 212.678 208.284C212.68 208.282 212.682 208.28 212.683 208.279C212.685 208.277 212.687 208.275 212.689 208.273C212.691 208.271 212.692 208.27 212.694 208.268C212.696 208.266 212.698 208.264 212.699 208.263C212.701 208.261 212.703 208.259 212.704 208.258C212.706 208.256 212.708 208.254 212.71 208.252C212.711 208.251 212.713 208.249 212.715 208.247C212.716 208.246 212.718 208.244 212.72 208.242C212.721 208.241 212.723 208.239 212.725 208.237C212.726 208.236 212.728 208.234 212.73 208.232C212.731 208.231 212.733 208.229 212.734 208.228C212.736 208.226 212.738 208.224 212.739 208.223C212.741 208.221 212.742 208.22 212.744 208.218C212.746 208.216 212.747 208.215 212.749 208.213C212.75 208.212 212.752 208.21 212.753 208.209C212.755 208.207 212.757 208.205 212.758 208.204C212.76 208.202 212.761 208.201 212.763 208.199C212.764 208.198 212.766 208.196 212.767 208.195C212.769 208.193 212.77 208.192 212.772 208.19C212.773 208.189 212.775 208.187 212.776 208.186C212.778 208.184 212.779 208.183 212.78 208.182C212.782 208.18 212.783 208.179 212.785 208.177C212.786 208.176 212.788 208.174 212.789 208.173C212.791 208.171 212.792 208.17 212.793 208.169C212.795 208.167 212.796 208.166 212.798 208.164C212.799 208.163 212.8 208.162 212.802 208.16C212.803 208.159 212.804 208.158 212.806 208.156C212.807 208.155 212.808 208.154 212.81 208.152C212.811 208.151 212.812 208.15 212.814 208.148C212.815 208.147 212.816 208.146 212.818 208.144C212.819 208.143 212.82 208.142 212.822 208.14C212.823 208.139 212.824 208.138 212.825 208.137C212.827 208.135 212.828 208.134 212.829 208.133C212.831 208.131 212.832 208.13 212.833 208.129C212.834 208.128 212.836 208.126 212.837 208.125C212.838 208.124 212.839 208.123 212.84 208.122C212.842 208.12 212.843 208.119 212.844 208.118C212.845 208.117 212.847 208.115 212.848 208.114C212.849 208.113 212.85 208.112 212.851 208.111C212.852 208.11 212.854 208.108 212.855 208.107C212.856 208.106 212.857 208.105 212.858 208.104C212.859 208.103 212.86 208.102 212.862 208.1C212.863 208.099 212.864 208.098 212.865 208.097C212.866 208.096 212.867 208.095 212.868 208.094C212.869 208.093 212.871 208.091 212.872 208.09C212.873 208.089 212.874 208.088 212.875 208.087C212.876 208.086 212.877 208.085 212.878 208.084C212.879 208.083 212.88 208.082 212.881 208.081C212.882 208.08 212.883 208.079 212.884 208.078C212.885 208.077 212.886 208.076 212.887 208.075C212.888 208.074 212.889 208.073 212.891 208.071C212.892 208.07 212.893 208.069 212.894 208.068C212.894 208.068 212.895 208.067 212.896 208.066C212.897 208.065 212.898 208.064 212.899 208.063C212.9 208.062 212.901 208.061 212.902 208.06C212.903 208.059 212.904 208.058 212.905 208.057C212.906 208.056 212.907 208.055 212.908 208.054C212.909 208.053 212.91 208.052 212.911 208.051C212.912 208.05 212.913 208.049 212.913 208.049C212.914 208.048 212.915 208.047 212.916 208.046C212.917 208.045 212.918 208.044 212.919 208.043C212.92 208.042 212.921 208.041 212.921 208.041C212.922 208.04 212.923 208.039 212.924 208.038C212.925 208.037 212.926 208.036 212.926 208.036C212.927 208.035 212.928 208.034 212.929 208.033C212.93 208.032 212.931 208.031 212.931 208.031C212.932 208.03 212.933 208.029 212.934 208.028C212.935 208.027 212.935 208.027 212.936 208.026C212.937 208.025 212.938 208.024 212.939 208.023C212.939 208.023 212.94 208.022 212.941 208.021C212.942 208.02 212.942 208.02 212.943 208.019C212.944 208.018 212.945 208.017 212.946 208.016C212.946 208.016 212.947 208.015 212.948 208.014C212.948 208.014 212.949 208.013 212.95 208.012C212.951 208.011 212.951 208.011 212.952 208.01C212.953 208.009 212.953 208.009 212.954 208.008C212.955 208.007 212.956 208.006 212.956 208.006C212.957 208.005 212.958 208.004 212.958 208.004C212.959 208.003 212.96 208.002 212.96 208.002C212.961 208.001 212.962 208 212.962 208C212.963 207.999 212.964 207.998 212.964 207.998C212.965 207.997 212.966 207.996 212.966 207.996C212.967 207.995 212.967 207.995 212.968 207.994C212.969 207.993 212.969 207.993 212.97 207.992C212.971 207.991 212.971 207.991 212.972 207.99C212.972 207.99 212.973 207.989 212.974 207.988C212.974 207.988 212.975 207.987 212.975 207.987C212.976 207.986 212.976 207.986 212.977 207.985C212.978 207.984 212.978 207.984 212.979 207.983C212.979 207.983 212.98 207.982 212.98 207.982C212.981 207.981 212.981 207.981 212.982 207.98C212.983 207.979 212.983 207.979 212.984 207.978C212.984 207.978 212.985 207.977 212.985 207.977C212.986 207.976 212.986 207.976 212.987 207.975C212.987 207.975 212.988 207.974 212.988 207.974C212.989 207.973 212.989 207.973 212.99 207.972C212.99 207.972 212.991 207.971 212.991 207.971C212.992 207.97 212.992 207.97 212.993 207.969C212.993 207.969 212.994 207.968 212.994 207.968C212.995 207.967 212.995 207.967 212.995 207.967C212.996 207.966 212.996 207.966 212.997 207.965C212.997 207.965 212.998 207.964 212.998 207.964C212.999 207.963 212.999 207.963 212.999 207.963C213 207.962 213 207.962 213.001 207.961C213.001 207.961 213.002 207.96 213.002 207.96C213.002 207.96 213.003 207.959 213.003 207.959C213.004 207.958 213.004 207.958 213.004 207.958C213.005 207.957 213.005 207.957 213.006 207.956C213.006 207.956 213.006 207.956 213.007 207.955C213.007 207.955 213.008 207.954 213.008 207.954C213.008 207.954 213.009 207.953 213.009 207.953C213.009 207.953 213.01 207.952 213.01 207.952C213.01 207.952 213.011 207.951 213.011 207.951C213.011 207.951 213.012 207.95 213.012 207.95C213.012 207.95 213.013 207.949 213.013 207.949C213.013 207.949 213.014 207.948 213.014 207.948C213.014 207.948 213.015 207.947 213.015 207.947C213.015 207.947 213.016 207.946 213.016 207.946C213.016 207.946 213.017 207.945 213.017 207.945C213.017 207.945 213.018 207.944 213.018 207.944C213.018 207.944 213.018 207.944 213.019 207.943C213.019 207.943 213.019 207.943 213.02 207.942C213.02 207.942 213.02 207.942 213.02 207.942C213.021 207.941 213.021 207.941 213.021 207.941C213.021 207.941 213.022 207.94 213.022 207.94C213.022 207.94 213.022 207.94 213.023 207.939C213.023 207.939 213.023 207.939 213.023 207.939C213.024 207.938 213.024 207.938 213.024 207.938C213.024 207.938 213.025 207.937 213.025 207.937C213.025 207.937 213.025 207.937 213.026 207.936C213.026 207.936 213.026 207.936 213.026 207.936C213.026 207.936 213.027 207.935 213.027 207.935C213.027 207.935 213.027 207.935 213.028 207.934C213.028 207.934 213.028 207.934 213.028 207.934C213.028 207.934 213.029 207.933 213.029 207.933C213.029 207.933 213.029 207.933 213.029 207.933C213.03 207.932 213.03 207.932 213.03 207.932C213.03 207.932 213.03 207.932 213.03 207.932C213.031 207.931 213.031 207.931 213.031 207.931C213.031 207.931 213.031 207.931 213.031 207.931C213.032 207.93 213.032 207.93 213.032 207.93C213.032 207.93 213.032 207.93 213.032 207.93C213.033 207.929 213.033 207.929 213.033 207.929C213.033 207.929 213.033 207.929 213.033 207.929C213.033 207.929 213.034 207.928 213.034 207.928C213.034 207.928 213.034 207.928 213.034 207.928C213.034 207.928 213.034 207.928 213.035 207.927C213.035 207.927 213.035 207.927 213.035 207.927C213.035 207.927 213.035 207.927 213.035 207.927C213.035 207.927 213.036 207.926 213.036 207.926C213.036 207.926 213.036 207.926 213.036 207.926C213.036 207.926 213.036 207.926 213.036 207.926C213.036 207.926 213.037 207.925 213.037 207.925C213.037 207.925 213.037 207.925 213.037 207.925C213.037 207.925 213.037 207.925 213.037 207.925C213.037 207.925 213.037 207.925 213.038 207.924C213.038 207.924 213.038 207.924 213.038 207.924C213.038 207.924 213.038 207.924 213.038 207.924C213.038 207.924 213.038 207.924 213.038 207.924C213.038 207.924 213.038 207.924 213.039 207.923C213.039 207.923 213.039 207.923 213.039 207.923C213.039 207.923 213.039 207.923 213.039 207.923C213.039 207.923 213.039 207.923 213.039 207.923C213.039 207.923 213.039 207.923 213.039 207.923C213.039 207.923 213.039 207.923 213.04 207.922C213.04 207.922 213.04 207.922 213.04 207.922C213.04 207.922 213.04 207.922 213.04 207.922C213.04 207.922 213.04 207.922 213.04 207.922C213.04 207.922 213.04 207.922 213.04 207.922C213.04 207.922 213.04 207.922 213.04 207.922C213.04 207.922 213.04 207.922 213.04 207.922C213.04 207.922 213.041 207.921 213.041 207.921C213.041 207.921 213.041 207.921 213.041 207.921C213.041 207.921 213.041 207.921 213.041 207.921C213.041 207.921 213.041 207.921 213.041 207.921C213.041 207.921 213.041 207.921 213.041 207.921C213.041 207.921 213.041 207.921 213.041 207.921C213.041 207.921 213.041 207.921 213.041 207.921C213.041 207.921 213.041 207.921 213.041 207.921C213.041 207.921 213.041 207.921 213.041 207.921C213.041 207.921 213.041 207.921 213.041 207.921C213.041 207.921 213.041 207.921 213.041 207.921C213.041 207.921 213.041 207.921 213.041 207.921C213.041 207.921 213.041 207.921 213.041 207.921C213.041 207.921 213.041 207.921 213.041 207.921C213.041 207.921 213.041 207.921 213.041 207.921C213.041 207.921 213.042 207.92 213.042 207.92C213.042 207.92 213.042 207.92 213.042 207.92C213.042 207.92 213.042 207.92 213.042 207.92C213.042 207.92 213.042 207.92 213.042 207.92C213.042 207.92 213.042 207.92 213.042 207.92C213.042 207.92 213.042 207.92 213.042 207.92C213.042 207.92 213.042 207.92 213.042 207.92C213.042 207.92 213.042 207.92 213.042 207.92C213.042 207.92 213.042 207.92 213.042 207.92C213.042 207.92 213.042 207.92 213.042 207.92C213.042 207.92 213.042 207.92 213.042 207.92C213.042 207.92 213.042 207.92 213.042 207.92C213.042 207.92 213.042 207.92 213.042 207.92C213.042 207.92 213.042 207.92 213.042 207.92C213.042 207.92 209.506 204.385 209.506 204.385ZM213.042 207.92L219.052 201.91L211.981 194.839L205.971 200.849L213.042 207.92Z" fill="#01233F"/>
<path d="M300.031 194.839C298.079 192.886 294.913 192.886 292.96 194.839C291.008 196.792 291.008 199.957 292.96 201.91L300.031 194.839ZM298.971 207.92C300.923 209.873 304.089 209.873 306.042 207.92C307.994 205.968 307.994 202.802 306.042 200.849L298.971 207.92ZM306.042 200.849C304.089 198.897 300.923 198.897 298.971 200.849C297.018 202.802 297.018 205.968 298.971 207.92L306.042 200.849ZM304.981 213.931C306.934 215.883 310.099 215.883 312.052 213.931C314.005 211.978 314.005 208.812 312.052 206.86L304.981 213.931ZM300.925 209.128C303.545 210.001 306.376 208.586 307.25 205.966C308.123 203.346 306.707 200.515 304.087 199.641L300.925 209.128ZM292.96 206.86C291.008 208.812 291.008 211.978 292.96 213.931C294.913 215.883 298.079 215.883 300.031 213.931L292.96 206.86ZM298.971 200.849C297.018 202.802 297.018 205.968 298.971 207.92C300.923 209.873 304.089 209.873 306.042 207.92L298.971 200.849ZM312.052 201.91C314.005 199.957 314.005 196.792 312.052 194.839C310.099 192.886 306.934 192.886 304.981 194.839L312.052 201.91ZM292.96 201.91L298.971 207.92L306.042 200.849L300.031 194.839L292.96 201.91ZM298.971 207.92L304.981 213.931L312.052 206.86L306.042 200.849L298.971 207.92ZM302.506 204.385C302.506 204.385 298.971 200.849 298.971 200.849C298.971 200.849 298.971 200.849 298.971 200.849C298.971 200.849 298.971 200.849 298.971 200.849C298.971 200.849 298.971 200.849 298.971 200.849C298.971 200.849 298.971 200.849 298.971 200.849C298.971 200.849 298.971 200.849 298.971 200.849C298.971 200.849 298.971 200.849 298.971 200.849C298.971 200.849 298.971 200.849 298.971 200.849C298.971 200.849 298.971 200.849 298.971 200.849C298.971 200.849 298.971 200.849 298.971 200.849C298.971 200.849 298.971 200.849 298.971 200.849C298.971 200.849 298.97 200.849 298.97 200.849C298.97 200.849 298.97 200.849 298.97 200.849C298.97 200.849 298.97 200.849 298.97 200.849C298.97 200.849 298.97 200.849 298.97 200.849C298.97 200.849 298.97 200.849 298.97 200.849C298.97 200.85 298.97 200.85 298.969 200.851C298.969 200.851 298.964 200.856 298.959 200.861C298.944 200.875 298.926 200.894 298.877 200.943C298.798 201.021 298.579 201.241 298.219 201.601C297.468 202.352 295.965 203.854 292.96 206.86L300.031 213.931C303.036 210.926 304.539 209.423 305.29 208.672C305.65 208.312 305.869 208.093 305.948 208.014C305.997 207.965 306.016 207.946 306.03 207.932C306.035 207.927 306.04 207.922 306.04 207.922C306.041 207.921 306.041 207.921 306.041 207.921C306.041 207.921 306.041 207.921 306.041 207.921C306.041 207.921 306.042 207.92 306.042 207.92C306.042 207.92 306.042 207.92 306.042 207.92C306.042 207.92 306.042 207.92 306.042 207.92C306.042 207.92 306.042 207.92 306.042 207.92C306.042 207.92 306.042 207.92 306.042 207.92C306.042 207.92 306.042 207.92 306.042 207.92C306.042 207.92 306.042 207.92 306.042 207.92C306.042 207.92 306.042 207.92 306.042 207.92C306.042 207.92 306.042 207.92 306.042 207.92C306.042 207.92 306.042 207.92 306.042 207.92C306.042 207.92 306.042 207.92 306.042 207.92C306.042 207.92 306.042 207.92 306.042 207.92C306.042 207.92 306.042 207.92 306.042 207.92C306.042 207.92 306.042 207.92 306.042 207.92C306.042 207.92 302.506 204.385 302.506 204.385ZM306.042 207.92L312.052 201.91L304.981 194.839L298.971 200.849L306.042 207.92Z" fill="#01233F"/>
</svg>
