<svg xmlns="http://www.w3.org/2000/svg" width="32" height="32" fill="none"><path fill="currentColor" d="M15.25 25.333a.75.75 0 0 0 1.5 0h-1.5Zm1.5-10.666a.75.75 0 0 0-1.5 0h1.5ZM20 7.417a.75.75 0 0 0 0-1.5v1.5Zm-4 3.25h-.75.75Zm-.75 4a.75.75 0 0 0 1.5 0h-1.5Zm.75-.75a.75.75 0 0 0 0 1.5v-1.5Zm2.667 1.5a.75.75 0 1 0 0-1.5v1.5Zm-2.667 0a.75.75 0 0 0 0-1.5v1.5Zm-2.667-1.5a.75.75 0 0 0 0 1.5v-1.5Zm3.417 11.416V14.667h-1.5v10.666h1.5ZM20 5.917a4.75 4.75 0 0 0-4.75 4.75h1.5A3.25 3.25 0 0 1 20 7.417v-1.5Zm-4.75 4.75v4h1.5v-4h-1.5Zm.75 4.75h2.667v-1.5H16v1.5Zm0-1.5h-2.667v1.5H16v-1.5Z"/></svg>
