<svg xmlns="http://www.w3.org/2000/svg" width="24" height="24" fill="none"><path fill="currentColor" d="M13.869 10.132a.5.5 0 0 0-.707.707l.707-.707Zm-.354 4.897-.354-.354.354.354Zm-3.03 3.03.354.354-.354-.354Zm-4.544-4.544.354.354-.354-.354Zm1.869-1.161a.5.5 0 1 0-.707-.707l.707.707Zm2.322 1.515a.5.5 0 0 0 .707-.707l-.707.707Zm.353-4.898.354.354-.354-.354Zm3.03-3.03.354.354-.354-.354Zm4.544 0-.354.354.354-.354Zm0 4.544.354.354-.354-.354Zm-1.869 1.162a.5.5 0 0 0 .708.707l-.707-.707Zm-3.029-.808c.51.508.795 1.198.795 1.918h1c0-.985-.391-1.93-1.087-2.625l-.707.707Zm.795 1.918c0 .72-.286 1.41-.794 1.918l.707.708a3.713 3.713 0 0 0 1.087-2.626h-1Zm-.794 1.918-3.03 3.03.707.708 3.03-3.03-.707-.707Zm-3.03 3.03a2.713 2.713 0 0 1-3.837 0l-.707.708a3.713 3.713 0 0 0 5.25 0l-.706-.707Zm-3.837 0a2.713 2.713 0 0 1 0-3.836l-.707-.707a3.713 3.713 0 0 0 0 5.25l.707-.706Zm0-3.836 1.515-1.515-.707-.707-1.515 1.514.707.708Zm4.544-.707a2.713 2.713 0 0 1-.795-1.919h-1c0 .985.391 1.93 1.088 2.626l.707-.707Zm-.795-1.919c0-.72.286-1.41.795-1.918l-.707-.707a3.713 3.713 0 0 0-1.088 2.625h1Zm.795-1.918 3.03-3.03-.707-.707-3.03 3.03.707.707Zm3.03-3.03a2.713 2.713 0 0 1 3.837 0l.707-.707a3.713 3.713 0 0 0-5.252 0l.708.707Zm3.837 0a2.713 2.713 0 0 1 0 3.837l.707.707a3.713 3.713 0 0 0 0-5.251l-.707.707Zm0 3.837-1.515 1.514.707.708 1.515-1.515-.707-.707Z"/></svg>
