<svg xmlns="http://www.w3.org/2000/svg" fill="none" viewBox="0 0 24 28">
  <path fill="currentColor" d="M8.96 17.362a.5.5 0 1 0-.119-.993l.118.993Zm-3.314.66-.264-.425a.503.503 0 0 0-.036.025l.3.4Zm-.436 1.606-.405.294a.507.507 0 0 0 .051.06l.354-.354Zm2.575 1.346.125-.484a.5.5 0 0 0-.046-.01l-.079.494Zm4.215.49.011-.5h-.021l.01.5Zm4.215-.489-.079-.494a.53.53 0 0 0-.045.01l.124.484Zm2.575-1.346.354.354a.494.494 0 0 0 .051-.06l-.405-.293Zm-.436-1.606.3-.4a.494.494 0 0 0-.035-.024l-.265.424Zm-3.194-1.654a.5.5 0 0 0-.119.993l.118-.993Zm-3.16.154-.365.34a.5.5 0 0 0 .73 0l-.365-.34Zm-2.97-3.185.366-.34-.004-.005-.362.345Zm0-6.37.362.344-.362-.345Zm5.94 0-.362.344.362-.345Zm0 6.37-.362-.345-.003.004.365.341ZM12 11.861l-.01.5h.005l.005-.5Zm-1.352-1.573.5.006-.5-.006Zm1.385-1.536.004-.5-.004.5ZM13.4 10.31l.5.004v-.003l-.5-.001Zm-4.559 6.06a8.415 8.415 0 0 0-3.46 1.228l.53.849a7.414 7.414 0 0 1 3.048-1.084l-.118-.993Zm-3.495 1.253c-.385.288-.684.64-.798 1.06-.12.44-.01.87.257 1.24l.81-.587c-.12-.167-.13-.29-.102-.392.034-.124.147-.307.433-.521l-.6-.8Zm-.49 2.36c.793.794 1.783 1.315 2.85 1.486l.158-.988c-.846-.136-1.647-.55-2.3-1.205l-.708.707Zm2.805 1.476c1.426.367 2.887.537 4.35.505l-.021-1c-1.372.03-2.742-.13-4.08-.473l-.25.968Zm4.328.505a16.072 16.072 0 0 0 4.35-.504l-.248-.968a15.072 15.072 0 0 1-4.08.472l-.022 1Zm4.305-.494c1.067-.171 2.057-.692 2.85-1.486l-.708-.707c-.653.654-1.453 1.07-2.3 1.205l.158.988Zm2.901-1.546c.268-.37.377-.8.257-1.24-.113-.42-.413-.772-.798-1.06l-.6.8c.286.214.4.397.433.521.028.103.02.225-.102.392l.81.587Zm-.576-2.324a8.415 8.415 0 0 0-3.46-1.23l-.118.993a7.415 7.415 0 0 1 3.049 1.085l.529-.848Zm-6.253-1.418-2.97-3.184-.731.682 2.97 3.185.73-.683Zm-2.974-3.188c-.69-.723-1.092-1.75-1.092-2.84h-1c0 1.328.49 2.609 1.368 3.53l.724-.69ZM8.3 10.153c0-1.09.402-2.118 1.092-2.84l-.724-.69c-.879.92-1.368 2.201-1.368 3.53h1Zm1.092-2.841c1.477-1.552 3.74-1.552 5.216 0l.724-.69c-1.87-1.966-4.793-1.966-6.664 0l.724.69Zm5.216 0c.69.723 1.092 1.751 1.092 2.84h1c0-1.328-.489-2.608-1.368-3.53l-.724.69Zm1.092 2.84c0 1.09-.402 2.118-1.091 2.841l.723.69c.88-.921 1.369-2.202 1.369-3.53h-1Zm-1.095 2.845-2.97 3.184.73.683 2.97-3.185-.73-.682Zm-2.595-1.636c-.428-.008-.868-.428-.862-1.067l-1-.011c-.011 1.071.756 2.057 1.842 2.078l.02-1Zm-.862-1.067c.007-.639.456-1.045.882-1.042l.007-1c-1.088-.008-1.877.959-1.889 2.03l1 .012Zm.882-1.042c.427.004.871.417.87 1.056l1 .002c.002-1.072-.776-2.05-1.863-2.058l-.007 1Zm.87 1.053c-.005.648-.461 1.06-.895 1.056l-.01 1c1.098.011 1.896-.965 1.905-2.048l-1-.008Z"/>
</svg>
