<svg xmlns="http://www.w3.org/2000/svg" width="48" height="48" fill="none"><g clip-path="url(#a)"><path d="M46.186 30.57a3.48 3.48 0 0 0 1.107-2.561v-8.012c0-.987-.4-1.901-1.11-2.563C50.255 11.149 47.198 2.588 39.862.46c-3.191-.926-6.544-.428-9.292 1.359A3.48 3.48 0 0 0 28.008.712h-8.012c-.986 0-1.9.4-2.562 1.108C11.178-2.233 2.57.776.444 8.19a11.192 11.192 0 0 0 1.375 9.245 3.48 3.48 0 0 0-1.108 2.562v8.012c0 .985.4 1.899 1.107 2.56-3.532 5.456-1.724 12.82 3.96 15.99 3.628 2.037 8.146 1.895 11.655-.374a3.48 3.48 0 0 0 2.563 1.109h8.012c.986 0 1.9-.4 2.562-1.109 5.139 3.327 12.246 2.01 15.687-3.449 2.396-3.784 2.272-8.556-.071-12.166Zm-5.564 12.018a7.084 7.084 0 0 1-6.362.745 21.855 21.855 0 0 0 3.49-2.31.703.703 0 1 0-.885-1.093 20.37 20.37 0 0 1-5.413 3.149 7.017 7.017 0 0 0-.117-.445l-2.078-7.067a12.782 12.782 0 0 0 6.309-6.309l7.013 2.063c.343.097.403.112.497.132a20.342 20.342 0 0 1-3.9 6.294.703.703 0 1 0 1.041.944 21.831 21.831 0 0 0 3.116-4.43 7.06 7.06 0 0 1-2.711 8.327Zm-6.656 3.615a9.849 9.849 0 0 1-2.656-1.212c.05-.132.09-.267.122-.404.399-.144.793-.3 1.18-.466a8.404 8.404 0 0 0 2.589.918 5.108 5.108 0 0 1-1.235 1.164ZM17.115 32.958a.703.703 0 0 0-.858 1.114c.78.6 1.613 1.102 2.488 1.5l-2.128 7.242a3.697 3.697 0 0 0-.064.262A20.636 20.636 0 0 1 4.929 31.453c.074-.016.12-.026.267-.067l7.239-2.127c.372.817.832 1.599 1.38 2.333a.703.703 0 1 0 1.127-.84 11.204 11.204 0 0 1-2.237-6.75c0-6.228 5.068-11.296 11.297-11.296 6.229 0 11.297 5.068 11.297 11.297 0 6.229-5.068 11.297-11.297 11.297-2.516 0-4.897-.81-6.887-2.342ZM8.765 43.3a7.062 7.062 0 0 1-4.09-9.044 21.878 21.878 0 0 0 9.074 9.073 7.074 7.074 0 0 1-4.983-.03Zm-7.34-7.033c.425.38.9.703 1.42.965a8.506 8.506 0 0 0 1.024 3.541 5.05 5.05 0 0 1-1.679-.228 9.907 9.907 0 0 1-.765-4.278ZM7.383 5.42a7.092 7.092 0 0 1 6.366-.744 21.88 21.88 0 0 0-9.074 9.074 7.067 7.067 0 0 1 2.708-8.33Zm6.658-3.615a9.803 9.803 0 0 1 2.652 1.21c-.049.133-.09.268-.122.405-.397.144-.79.299-1.178.466a8.407 8.407 0 0 0-2.586-.917 5.137 5.137 0 0 1 1.234-1.164Zm-1.603 16.942-7.185-2.111a4.729 4.729 0 0 0-.324-.082A20.648 20.648 0 0 1 16.553 4.93c.019.093.071.287.125.473l2.068 7.036a12.784 12.784 0 0 0-6.308 6.308Zm-8.552-3.355c-.167.39-.323.783-.466 1.18a3.44 3.44 0 0 0-.405.122 9.821 9.821 0 0 1-1.379-3.27 6.59 6.59 0 0 0 1.634.572c.16.476.366.943.616 1.396Zm.935 2.582 7.104 2.089c-.85 2.6-.819 5.382-.004 7.881l-7.1 2.088a2.108 2.108 0 0 1-2.704-2.023v-8.012a2.108 2.108 0 0 1 2.704-2.023ZM3.42 31.434c.144.396.299.79.466 1.178a8.458 8.458 0 0 0-.99 3.021 5.127 5.127 0 0 1-1.223-1.172 9.854 9.854 0 0 1 1.341-3.15c.133.049.269.09.406.122Zm11.972 12.685c.39.167.783.322 1.18.466.032.136.073.271.122.404a9.851 9.851 0 0 1-2.763 1.24c.23-.52.388-1.07.473-1.644.336-.133.667-.289.988-.466ZM31.433 3.42a3.474 3.474 0 0 0-.123-.406 9.8 9.8 0 0 1 3.299-1.382 6.066 6.066 0 0 0-.562 1.625 8.486 8.486 0 0 0-1.434.63 21.609 21.609 0 0 0-1.18-.467Zm11.154 3.961a7.11 7.11 0 0 1 .74 6.365 21.885 21.885 0 0 0-9.073-9.071 7.065 7.065 0 0 1 8.333 2.706Zm3.42.564c.512 1.41.69 2.885.547 4.325a6.456 6.456 0 0 0-1.388-1.054 8.517 8.517 0 0 0-.828-3.59 5.053 5.053 0 0 1 1.67.319Zm-1.422 8.627c-.144-.398-.3-.791-.467-1.18.45-.815.754-1.688.914-2.582.458.345.85.764 1.174 1.252a9.9 9.9 0 0 1-1.218 2.632 3.398 3.398 0 0 0-.403-.122Zm1.302 3.425v8.012a2.108 2.108 0 0 1-2.704 2.023l-7.105-2.089a12.701 12.701 0 0 0 0-7.88l7.105-2.09a2.108 2.108 0 0 1 2.704 2.024Zm-1.766 12.62c.166-.39.32-.784.464-1.184.137-.032.272-.073.405-.122a9.814 9.814 0 0 1 1.368 3.29 6.069 6.069 0 0 0-1.611-.554 8.495 8.495 0 0 0-.626-1.43Zm1.117-26.321a6.453 6.453 0 0 0-1.722-.037 8.446 8.446 0 0 0-2.79-2.418 5.024 5.024 0 0 1 1.542-.723 9.74 9.74 0 0 1 2.97 3.178ZM40.663 2.24c-.508.26-.978.587-1.408.98a8.482 8.482 0 0 0-3.662-.32c.184-.54.465-1.037.838-1.487a10.045 10.045 0 0 1 4.232.827Zm-20.667-.123h8.012a2.108 2.108 0 0 1 2.023 2.704l-.601 2.045a.703.703 0 1 0 1.348.397l.592-2.011c.039-.138.06-.224.081-.324a20.64 20.64 0 0 1 11.624 11.624 4.89 4.89 0 0 0-.382.1l-7.127 2.095a12.783 12.783 0 0 0-6.31-6.31l.595-2.02a.703.703 0 1 0-1.349-.396l-.56 1.904a12.701 12.701 0 0 0-7.88 0l-2.09-7.104a2.108 2.108 0 0 1 2.024-2.704Zm-7.745-.654c-.403.407-.75.865-1.04 1.373a8.494 8.494 0 0 0-3.585.83c.008-.57.118-1.131.33-1.675a9.871 9.871 0 0 1 4.295-.528ZM6.295 2.768c-.09.565-.1 1.139-.03 1.719a8.428 8.428 0 0 0-2.422 2.796 5.027 5.027 0 0 1-.725-1.543 9.782 9.782 0 0 1 3.177-2.972ZM2.24 7.342c.26.51.589.98.983 1.412a8.491 8.491 0 0 0-.317 3.685 5.197 5.197 0 0 1-1.494-.818 9.995 9.995 0 0 1 .828-4.28Zm.806 34.808c.555.057 1.11.047 1.717-.053a8.447 8.447 0 0 0 2.917 2.268 5.118 5.118 0 0 1-1.496.804 9.824 9.824 0 0 1-3.138-3.019Zm4.777 3.812a6.52 6.52 0 0 0 1.363-1.057 8.412 8.412 0 0 0 3.686.123 4.95 4.95 0 0 1-.736 1.522 9.917 9.917 0 0 1-4.313-.588Zm20.185-.074h-8.012a2.108 2.108 0 0 1-2.023-2.704l2.087-7.099a12.76 12.76 0 0 0 7.882-.006l2.09 7.105a2.108 2.108 0 0 1-2.024 2.704Zm7.749.656c.403-.406.75-.864 1.038-1.372a8.49 8.49 0 0 0 3.586-.834 5.084 5.084 0 0 1-.319 1.671 9.939 9.939 0 0 1-4.305.535Zm5.953-1.3a6.48 6.48 0 0 0 .038-1.73 8.455 8.455 0 0 0 2.413-2.781c.325.465.565.981.716 1.542a9.776 9.776 0 0 1-3.167 2.968Zm4.053-4.57a6.285 6.285 0 0 0-.981-1.407 8.473 8.473 0 0 0 .322-3.673 4.675 4.675 0 0 1 1.474.827 9.93 9.93 0 0 1-.815 4.253Z" fill="currentColor"></path></g><defs><clipPath id="a"><path fill="#fff" d="M0 0h48v48H0z"></path></clipPath></defs></svg>
