<svg xmlns="http://www.w3.org/2000/svg" width="24" height="24" fill="none"><path stroke="currentColor" stroke-linecap="round" stroke-linejoin="round" stroke-width="1.5" d="M14.625 12a2.625 2.625 0 1 1-5.25 0 2.625 2.625 0 0 1 5.25 0Z" clip-rule="evenodd"/><path fill="currentColor" d="M19 12.75a.75.75 0 0 0 0-1.5v1.5Zm-1.75-1.5a.75.75 0 0 0 0 1.5v-1.5Zm-10.5 1.5a.75.75 0 0 0 0-1.5v1.5ZM5 11.25a.75.75 0 0 0 0 1.5v-1.5ZM12.75 5a.75.75 0 0 0-1.5 0h1.5Zm-1.5 1.75a.75.75 0 0 0 1.5 0h-1.5Zm1.5 10.5a.75.75 0 0 0-1.5 0h1.5ZM11.25 19a.75.75 0 0 0 1.5 0h-1.5Zm6.23-11.42a.75.75 0 0 0-1.06-1.06l1.06 1.06Zm-2.298.178a.75.75 0 0 0 1.06 1.06l-1.06-1.06Zm-6.364 8.484a.75.75 0 1 0-1.06-1.06l1.06 1.06Zm-2.298.178a.75.75 0 1 0 1.06 1.06l-1.06-1.06Zm1.06-9.9a.75.75 0 0 0-1.06 1.06l1.06-1.06Zm.178 2.298a.75.75 0 0 0 1.06-1.06l-1.06 1.06Zm8.485 6.365a.75.75 0 1 0-1.06 1.06l1.06-1.06Zm.177 2.297a.75.75 0 1 0 1.06-1.06l-1.06 1.06ZM19 11.25h-1.75v1.5H19v-1.5Zm-12.25 0H5v1.5h1.75v-1.5ZM11.25 5v1.75h1.5V5h-1.5Zm0 12.25V19h1.5v-1.75h-1.5Zm5.17-10.73-1.238 1.238 1.06 1.06L17.48 7.58l-1.06-1.06Zm-8.662 8.662L6.52 16.42l1.06 1.06 1.238-1.238-1.06-1.06ZM6.52 7.58l1.238 1.238 1.06-1.06L7.58 6.52 6.52 7.58Zm8.663 8.663 1.237 1.237 1.06-1.06-1.237-1.237-1.06 1.06Z"/></svg>
