<svg width="32" height="32" fill="none" xmlns="http://www.w3.org/2000/svg"><path d="M27.975 25.4c-.031.094-.056.194-.088.288-.237.75-.925 1.287-1.706 1.3-1.281.012-2.556.006-3.837.006-.257 0-.407-.138-.407-.35 0-.213.15-.35.407-.35h3.65c.812 0 1.281-.469 1.281-1.275v-4.956c0-.67-.337-1.063-.969-1.25-.575-.175-1.131-.394-1.687-.607-1.675-.637-3.35-.65-5.019-.012-.725.281-1.431.612-2.213.719-1.468.2-2.912.125-4.28-.513a7.113 7.113 0 0 0-3.313-.669c-.819.031-1.6.213-2.363.513-.6.237-1.212.437-1.831.625-.525.162-.881.575-.881 1.131a700.418 700.418 0 0 0 0 5.125c0 .688.506 1.163 1.225 1.169h14.525c.075 0 .156-.006.231.006.181.037.288.162.288.35a.333.333 0 0 1-.294.338c-.069.012-.138.006-.213.006H6.006C4.8 26.994 4.02 26.212 4.02 25v-4.887c0-1.02.556-1.7 1.537-1.957a9.296 9.296 0 0 0 1.456-.493c1.138-.507 2.325-.694 3.557-.625.175.012.237-.044.3-.2.237-.576.5-1.138.737-1.682-.475-.594-.981-1.181-1.431-1.8-.656-.893-1.194-1.862-1.663-2.868-.425-.92-.062-1.957.825-2.382.932-.45 1.95-.1 2.432.813.35.668.706 1.331 1.069 2 .043.087.106.162.168.256.088-.456.163-.881.244-1.306.006-.044.025-.088.037-.138.075-.244.244-.35.45-.287.194.056.282.237.22.468-.395 1.45-.295 2.863.368 4.213.975 1.975 2.588 3.1 4.756 3.444a.49.49 0 0 0 .25-.038c.931-.387 1.9-.518 2.9-.512a.991.991 0 0 0 .463-.113 5.84 5.84 0 0 0 2.537-2.687c.088-.188.106-.338-.019-.519-.306-.45-.6-.906-.912-1.375-.331.25-.675.425-1.044.3a4.992 4.992 0 0 1-1.962-1.256c-.194-.2-.219-.488-.213-.769 0-.081-.056-.175-.119-.237-.062-.07-.156-.1-.23-.157-.25-.187-.476-.331-.826-.125-.293.175-.656.094-.962-.094-.425-.262-.85-.525-1.256-.806-.425-.287-.55-.681-.47-1.375-.462-.081-.924-.137-1.387-.244-.4-.093-.668.044-.868.382-.1.168-.225.318-.338.481-.144.206-.344.262-.519.144-.175-.119-.206-.319-.069-.532 1.007-1.543 2.407-2.537 4.22-2.893 3.874-.763 7.48 1.706 8.1 5.606.4 2.544-.5 4.637-2.513 6.244l-.15.112c-.006.006-.006.013-.019.038.319.1.644.194.962.306.688.244 1.375.494 2.063.738.625.225 1.019.662 1.213 1.293.018.069.037.131.062.2V25.4Zm-2.363-12.425c.513-2.037-.35-5.169-3.237-6.631-2.363-1.194-5.081-.532-6.262.543.387.075.78.132 1.162.244.244.069.363.031.5-.187.388-.625 1.081-.769 1.7-.382.375.238.756.463 1.119.725.168.125.375.288.425.475.1.363.362.513.637.688.194.119.375.25.575.362a.418.418 0 0 0 .256.057c.3-.05.576.006.832.162.412.256.819.513 1.219.781.35.232.55.575.518.988-.025.275-.181.531-.275.8-.025.069-.069.162-.037.2.281.394.575.781.869 1.175Zm-13.6 1.525c.313-.412.588-.819.913-1.181.2-.219.287-.425.181-.7-.037-.094-.075-.188-.125-.263-.162-.237-.362-.45-.506-.7-.456-.793-.894-1.6-1.331-2.406-.306-.575-.913-.794-1.507-.506-.537.256-.762.887-.493 1.45.618 1.312 1.362 2.55 2.293 3.675.182.212.382.418.575.631Zm-.487 2.581c.625.232 1.237.413 1.819.669 1.106.494 2.262.613 3.45.525.362-.025.725-.106 1.087-.162 0-.02.006-.038.006-.063-2.143-.706-3.637-2.1-4.475-4.225a10.83 10.83 0 0 0-1.887 3.256Zm11.95-5.087c.119-.082.275-.144.362-.25.17-.213.307-.45.444-.688.15-.256.094-.506-.156-.675a28.301 28.301 0 0 0-1.163-.744c-.262-.162-.518-.1-.693.157-.131.193-.256.393-.381.587-.2.319-.15.575.162.781.35.232.706.457 1.063.682.106.056.218.087.362.15ZM20.494 8.25c-.081-.119-.157-.281-.282-.375-.368-.263-.75-.5-1.137-.731-.269-.169-.525-.107-.706.156-.138.206-.275.412-.4.631-.157.263-.107.525.15.694.381.256.768.5 1.162.744.257.156.525.093.694-.157.144-.212.281-.43.412-.65.038-.075.057-.168.107-.312Zm.218 1.112c.244.157.47.3.707.457l.312-.494-.712-.456c-.106.175-.2.331-.306.493Z" fill="currentColor"/><path d="M10.069 20.181c1.137.056 2.162.375 3.093 1.025.15.107.244.244.17.413a.477.477 0 0 1-.276.244c-.1.024-.237-.044-.337-.113-.569-.381-1.188-.65-1.869-.756a4.562 4.562 0 0 0-3.475.8c-.213.137-.413.106-.531-.069-.113-.169-.069-.363.131-.506.531-.382 1.106-.669 1.744-.813.437-.106.9-.156 1.35-.225ZM21.294 23.9a5.429 5.429 0 0 1-3.05-.962c-.157-.113-.275-.238-.219-.444.069-.25.338-.325.588-.15a4.683 4.683 0 0 0 1.856.775c1.212.218 2.331-.025 3.368-.681a.517.517 0 0 1 .076-.05c.274-.188.48-.182.606.018.119.188.05.382-.206.556a5.353 5.353 0 0 1-3.02.938ZM22.406 14.119c-.05.15-.081.312-.15.456-.093.188-.287.25-.456.163-.194-.094-.238-.257-.181-.45.006-.032.037-.063.037-.088-.018-.087-.031-.219-.087-.256-.056-.038-.175.012-.269.031-.025.006-.038.044-.063.069-.156.143-.337.15-.487.025-.144-.125-.156-.307-.038-.482a.923.923 0 0 1 1.013-.35c.381.113.644.463.681.882ZM19.475 13.4c-.638 0-1.181-.444-1.281-1.037-.044-.238.05-.407.256-.45.194-.044.344.05.419.268.137.419.312.532.744.494.256-.025.425.081.456.287.031.2-.113.37-.357.413-.087.012-.174.019-.237.025ZM17.5 10.731c-.125.319-.244.594-.5.757-.087.05-.294.012-.369-.057a.417.417 0 0 1-.087-.368c.069-.194.194-.382.337-.526.075-.075.263-.1.375-.068.1.031.169.168.244.262Z" fill="currentColor"/></svg>
