<?xml version="1.0" standalone="no"?>
<!DOCTYPE svg PUBLIC "-//W3C//DTD SVG 20010904//EN"
 "http://www.w3.org/TR/2001/REC-SVG-20010904/DTD/svg10.dtd">
<svg version="1.0" xmlns="http://www.w3.org/2000/svg"
 width="492.000000pt" height="492.000000pt" viewBox="0 0 492.000000 492.000000"
 preserveAspectRatio="xMidYMid meet">
<metadata>
Created by potrace 1.14, written by Peter Selinger 2001-2017
</metadata>
<g transform="translate(0.000000,492.000000) scale(0.100000,-0.100000)"
fill="#000000" stroke="none">
<path d="M2350 4041 c-16 -4 -21 -9 -13 -14 15 -9 63 2 63 14 0 10 -14 10 -50
0z"/>
<path d="M2440 4040 c0 -5 16 -10 36 -10 21 0 33 4 29 10 -3 6 -19 10 -36 10
-16 0 -29 -4 -29 -10z"/>
<path d="M2242 4033 c-6 -2 -10 -8 -8 -12 7 -10 66 -1 66 10 0 10 -36 11 -58
2z"/>
<path d="M2545 4030 c3 -5 19 -10 36 -10 16 0 29 5 29 10 0 6 -16 10 -36 10
-21 0 -33 -4 -29 -10z"/>
<path d="M2158 4022 c-33 -4 -38 -22 -5 -22 25 0 54 15 41 22 -5 2 -21 2 -36
0z"/>
<path d="M2645 4020 c3 -5 20 -10 36 -10 18 0 28 4 24 10 -3 6 -20 10 -36 10
-18 0 -28 -4 -24 -10z"/>
<path d="M2052 3998 c-38 -10 -35 -28 3 -20 23 4 42 19 34 26 -2 2 -19 -1 -37
-6z"/>
<path d="M2754 4001 c8 -12 55 -20 61 -11 3 4 -2 11 -11 14 -24 9 -56 7 -50
-3z"/>
<path d="M2850 3981 c0 -11 59 -26 67 -17 3 3 -6 10 -21 16 -34 12 -46 13 -46
1z"/>
<path d="M1947 3968 c-15 -5 -25 -14 -22 -18 7 -11 65 8 65 21 0 11 -7 10 -43
-3z"/>
<path d="M2950 3951 c0 -5 14 -14 30 -20 37 -13 41 5 4 19 -31 12 -34 12 -34
1z"/>
<path d="M1848 3933 c-10 -2 -18 -9 -18 -15 0 -6 10 -8 23 -4 12 3 25 6 30 6
4 0 7 5 7 10 0 10 -12 11 -42 3z"/>
<path d="M3040 3915 c0 -11 59 -34 65 -25 3 5 -3 14 -14 19 -20 11 -51 15 -51
6z"/>
<path d="M1752 3889 c-13 -5 -20 -13 -17 -19 4 -6 17 -4 36 5 45 24 31 35 -19
14z"/>
<path d="M3140 3872 c0 -8 43 -32 55 -32 15 0 1 19 -20 28 -31 14 -35 15 -35
4z"/>
<path d="M1668 3844 c-30 -16 -35 -24 -15 -24 16 0 54 27 47 33 -3 3 -17 -1
-32 -9z"/>
<path d="M2203 3845 c-29 -8 -89 -33 -133 -55 -63 -32 -85 -39 -95 -30 -19 16
-34 4 -28 -20 3 -11 1 -20 -5 -20 -5 0 -52 -28 -103 -63 -52 -35 -132 -85
-178 -112 -45 -28 -100 -65 -121 -82 -21 -18 -43 -33 -49 -33 -22 0 -132 -115
-188 -198 -70 -102 -137 -220 -139 -242 -1 -9 -7 -33 -13 -53 -14 -42 1 -37
-219 -77 -90 -16 -167 -32 -172 -35 -6 -4 -10 -46 -10 -96 l0 -89 -236 0 -235
0 115 -142 c64 -79 116 -145 116 -148 0 -3 -49 -67 -110 -142 -60 -76 -110
-142 -110 -148 0 -7 109 -9 337 -8 l338 3 2 65 c1 36 2 70 2 77 1 13 18 19 82
28 l45 7 12 -38 c9 -29 9 -40 0 -45 -9 -6 -9 -14 0 -33 6 -14 7 -26 2 -26 -14
0 18 -97 60 -182 78 -158 194 -293 390 -457 74 -62 116 -105 118 -119 3 -16 9
-21 20 -18 10 3 43 -12 76 -34 33 -22 62 -37 65 -35 2 3 -4 12 -15 20 -10 8
14 -1 53 -21 88 -42 256 -98 344 -114 35 -7 71 -16 79 -20 9 -4 40 -11 70 -15
47 -7 52 -9 30 -16 -57 -19 123 4 249 32 158 34 421 117 421 133 1 6 40 37 88
69 48 32 98 65 112 74 l25 17 -19 -22 c-11 -12 -15 -22 -10 -22 10 0 111 102
189 190 26 30 51 54 56 53 4 -2 11 7 15 19 3 11 23 39 43 62 73 82 76 87 64
94 -9 6 -5 17 12 37 l25 30 -7 -35 c-8 -49 2 -35 31 41 13 35 41 91 60 124 38
63 71 157 62 178 -3 7 -7 4 -11 -9 -13 -41 -55 -120 -50 -93 3 15 10 61 16
103 l11 76 67 -6 c99 -10 101 -12 101 -99 l0 -75 341 0 340 0 -18 23 c-10 13
-62 78 -116 145 l-99 121 116 144 c64 79 116 147 116 150 0 4 -106 7 -235 7
l-235 0 0 89 c0 54 -4 93 -11 97 -6 3 -95 23 -197 44 l-187 37 -23 39 c-16 27
-21 49 -18 72 5 33 -2 40 -20 22 -7 -7 -24 10 -52 50 -23 34 -37 58 -32 55 21
-13 9 19 -24 64 -34 46 -84 92 -243 225 -76 63 -81 70 -72 94 14 36 -6 54 -22
19 l-12 -26 -56 42 c-48 37 -126 88 -219 144 -38 23 -19 25 31 4 26 -11 49
-16 52 -12 6 11 -95 56 -170 75 -33 8 -121 25 -195 37 -113 18 -160 20 -285
16 -82 -4 -163 -9 -180 -12 -23 -4 -18 0 20 19 57 28 38 32 -42 11z m267 -69
c0 -3 -4 -16 -9 -29 -11 -29 -34 -227 -28 -233 3 -3 10 32 16 78 7 46 19 107
27 136 12 44 18 52 39 52 13 0 26 -4 29 -9 3 -5 20 -12 38 -15 60 -11 60 -12
38 -132 -11 -60 -20 -118 -20 -129 1 -43 22 16 43 123 21 104 23 107 47 104
14 -2 27 -5 29 -7 2 -2 -2 -41 -8 -86 -14 -103 -14 -172 -1 -164 6 3 10 28 10
54 0 56 18 162 30 174 4 5 18 4 29 -3 19 -10 21 -18 17 -53 -22 -182 -15 -225
10 -66 9 52 17 95 18 97 2 1 22 -5 45 -14 41 -16 50 -27 31 -39 -23 -14 -82
-141 -131 -280 -28 -82 -54 -152 -56 -154 -2 -3 -37 3 -79 13 -80 19 -162 17
-314 -7 -41 -6 -79 -12 -84 -12 -4 0 -18 34 -31 75 -12 41 -37 117 -55 167
l-33 93 14 92 c13 84 16 93 37 96 27 4 27 1 2 -112 -11 -49 -18 -91 -16 -94 5
-5 17 38 41 146 9 39 21 72 25 72 5 0 7 7 4 15 -4 9 -11 11 -22 6 -22 -11
-143 -34 -149 -28 -2 3 44 17 103 31 59 14 109 24 111 22 3 -3 -12 -149 -22
-217 -5 -28 -4 -30 4 -12 6 13 15 62 22 110 16 119 22 133 58 133 28 0 29 -2
21 -30 -10 -34 -25 -237 -17 -230 3 3 10 50 16 105 6 55 15 115 22 133 10 30
14 32 55 32 24 0 44 -2 44 -4z m-344 -113 c-3 -16 -8 -50 -12 -77 l-7 -50 -28
56 c-38 74 -38 80 -9 89 51 15 62 11 56 -18z m1457 -468 c24 -36 14 -26 -39
35 -25 30 -29 37 -10 20 15 -14 37 -38 49 -55z m-948 -68 l50 -14 -3 -41 c-3
-52 14 -55 34 -7 l15 36 47 -26 c26 -14 60 -36 75 -48 l28 -22 -452 0 -451 0
88 42 c49 23 125 56 169 73 78 30 83 30 215 26 74 -3 158 -11 185 -19z m900
-153 c-5 -31 -8 -33 -38 -27 -18 3 -33 7 -35 8 -7 6 22 63 46 88 l27 29 3 -33
c2 -18 1 -47 -3 -65z m55 0 c0 -37 -2 -42 -20 -37 -16 4 -20 14 -20 43 0 21 3
46 7 56 6 16 7 16 20 -2 7 -10 13 -37 13 -60z m-138 5 c-5 -11 -11 -20 -15
-20 -4 1 -13 1 -19 1 -7 0 -2 9 12 20 31 24 31 24 22 -1z m-687 1 c255 -11
475 -31 734 -66 173 -23 511 -83 594 -105 l37 -10 0 -295 0 -296 -27 6 c-83
17 -291 48 -463 70 -470 61 -836 81 -1325 73 -486 -7 -915 -45 -1350 -117 -98
-16 -181 -27 -184 -24 -9 9 -9 546 0 570 6 19 29 25 171 53 628 121 1224 167
1813 141z m-1554 -44 c-14 -36 -22 -33 -9 5 6 16 12 28 14 26 3 -2 0 -16 -5
-31z m2413 9 c3 -8 1 -15 -4 -15 -6 0 -10 7 -10 15 0 8 2 15 4 15 2 0 6 -7 10
-15z m-2349 -15 c3 -5 -3 -10 -15 -10 -12 0 -18 5 -15 10 3 6 10 10 15 10 5 0
12 -4 15 -10z m-525 -529 l0 -219 70 -44 c38 -24 69 -46 70 -50 0 -5 -124 -8
-276 -8 -217 0 -274 3 -268 13 4 6 52 67 106 135 l99 122 -105 129 c-59 71
-106 132 -106 135 0 3 92 6 205 6 l205 0 0 -219z m3808 182 c-85 -101 -188
-233 -188 -243 0 -6 45 -67 101 -136 55 -69 99 -127 96 -130 -2 -2 -129 -3
-282 -2 l-278 3 64 44 c35 24 70 51 77 59 9 12 12 71 12 219 l0 203 207 0
c195 0 205 -1 191 -17z m-1618 -264 c102 -6 186 -12 188 -14 1 -1 -7 -37 -18
-80 -38 -148 -168 -309 -307 -378 -117 -59 -187 -78 -309 -84 -196 -10 -338
22 -449 102 -80 56 -191 183 -220 250 -24 53 -67 186 -63 191 2 1 80 7 173 12
248 13 792 14 1005 1z m-1236 -45 c4 -15 6 -27 4 -29 -2 -1 -68 -23 -148 -48
-155 -49 -239 -93 -307 -159 l-42 -42 -20 45 c-17 39 -54 189 -48 196 3 3 308
41 417 52 140 14 137 14 144 -15z m1537 -32 c9 -73 19 -77 19 -9 0 38 4 57 12
57 20 0 453 -52 456 -55 5 -5 -30 -160 -50 -222 -18 -55 -23 -61 -39 -52 -12
6 -19 21 -19 39 0 33 -17 41 -22 10 -3 -18 -8 -16 -63 19 -68 43 -191 107
-277 145 l-58 25 0 51 c0 44 3 51 18 48 12 -2 19 -17 23 -56z m-51 -4 c0 -32
-16 -19 -18 15 -2 24 0 28 8 17 5 -8 10 -23 10 -32z m529 -219 c-11 -39 -16
-65 -18 -93 -1 -6 -6 -5 -12 1 -7 7 -4 29 13 76 25 73 36 83 17 16z m-2540
-69 c0 -8 -9 3 -19 25 -24 53 -24 70 0 25 11 -19 19 -42 19 -50z m886 -150 c4
-6 24 -19 45 -30 l39 -20 -6 -102 c-4 -61 -3 -99 3 -95 5 3 10 34 12 69 1 34
5 76 8 91 5 25 9 28 32 22 15 -4 29 -9 32 -11 2 -3 4 -54 4 -114 0 -137 13
-131 18 8 l3 103 29 -5 c16 -3 50 -6 75 -6 l47 0 -4 -86 c-3 -63 -2 -85 7 -80
6 4 11 34 11 71 0 79 6 95 36 95 24 0 24 -1 24 -112 0 -77 3 -108 10 -98 5 8
10 61 10 118 l0 102 29 0 c17 0 29 -5 28 -12 -3 -87 5 -208 14 -208 7 0 10 37
7 115 l-3 116 33 -3 c31 -3 36 -8 58 -62 13 -33 24 -67 24 -77 0 -9 3 -19 8
-21 4 -1 25 -39 46 -82 22 -44 54 -98 72 -122 29 -38 74 -115 74 -128 0 -19
-228 -71 -366 -82 -125 -9 -327 10 -420 41 -96 31 -343 151 -350 169 -6 16 94
165 155 231 26 28 58 70 72 94 l24 44 12 -69 12 -69 -5 72 c-7 91 18 171 41
133z"/>
<path d="M2555 3723 c-4 -10 -10 -70 -15 -133 -4 -63 -11 -123 -15 -132 -4
-10 -3 -18 3 -18 13 0 30 72 41 180 5 47 11 92 13 99 5 21 -19 24 -27 4z"/>
<path d="M1453 2808 c-37 -46 -39 -95 -3 -63 16 14 22 15 42 3 23 -13 22 -13
-12 -16 -44 -4 -57 -16 -37 -36 12 -13 28 -123 32 -231 0 -5 -7 -11 -16 -13
-11 -2 -31 33 -74 133 -32 74 -62 135 -67 135 -9 0 -10 -4 -40 -165 -32 -167
-44 -163 -86 30 -18 82 -35 151 -37 153 -13 13 -24 -21 -41 -128 -10 -66 -21
-120 -24 -120 -3 0 -29 52 -59 115 -30 64 -59 114 -64 112 -11 -3 -11 -55 2
-217 6 -78 5 -98 -7 -113 -20 -23 -10 -31 33 -23 36 7 42 14 26 32 -5 5 -11
45 -14 89 l-6 80 47 -95 c26 -52 52 -94 57 -93 6 1 13 31 17 65 4 35 11 83 16
108 l8 45 16 -81 c9 -45 14 -91 11 -104 -6 -21 -4 -21 43 -15 82 11 104 16
104 26 0 5 -5 9 -11 9 -6 0 -9 14 -7 32 2 25 9 35 31 42 35 13 51 -2 51 -49 0
-31 3 -35 26 -35 63 0 130 13 130 26 0 7 -5 14 -10 16 -10 3 -30 141 -30 211
0 20 5 37 10 37 6 0 10 -9 10 -20 0 -11 5 -20 10 -20 6 0 10 7 10 16 0 11 8
14 28 12 l27 -3 9 -115 c6 -82 5 -115 -3 -118 -27 -9 -7 -22 34 -22 46 0 58
13 31 34 -10 8 -16 45 -21 124 l-7 112 26 0 c17 0 26 -5 26 -16 0 -9 6 -14 13
-11 6 2 11 15 9 28 -3 21 -2 22 11 9 19 -19 34 -234 18 -245 -24 -14 -9 -26
31 -23 38 3 69 28 34 28 -12 0 -16 11 -16 50 0 28 2 50 5 50 2 0 20 -25 39
-55 23 -36 44 -57 62 -61 32 -8 164 2 174 13 4 4 11 25 14 46 8 44 -7 50 -26
10 -9 -19 -22 -29 -41 -31 -24 -3 -27 0 -27 25 0 15 -3 38 -6 51 -5 19 -2 22
20 22 16 0 26 -5 26 -15 0 -8 5 -15 10 -15 6 0 10 20 10 45 0 25 -4 45 -10 45
-5 0 -10 -7 -10 -15 0 -9 -9 -15 -25 -15 -23 0 -25 3 -25 50 0 49 1 50 30 50
20 0 30 -5 30 -15 0 -8 5 -15 10 -15 6 0 10 17 10 38 l0 38 -72 -8 c-81 -10
-88 -13 -66 -31 12 -9 17 -39 21 -130 4 -115 4 -118 -16 -115 -13 2 -33 22
-50 50 -27 44 -28 48 -13 70 22 30 20 90 -3 119 -16 20 -26 22 -97 21 -43 -1
-116 -5 -160 -8 -76 -6 -82 -5 -88 13 -4 11 -17 30 -30 42 -18 17 -25 19 -33
9z m378 -112 c17 -37 4 -76 -26 -76 -23 0 -25 3 -25 50 0 44 3 50 20 50 12 0
25 -10 31 -24z m-483 -128 c11 -26 10 -28 -11 -28 -20 0 -23 4 -19 36 5 38 11
36 30 -8z"/>
<path d="M2373 2802 c14 -15 17 -42 17 -160 0 -88 -4 -142 -10 -142 -5 0 -10
-7 -10 -15 0 -16 42 -20 100 -9 63 13 89 98 50 162 -15 25 -18 37 -10 52 16
30 12 75 -11 104 -18 23 -27 26 -81 26 -59 0 -60 -1 -45 -18z m85 -24 c25 -25
10 -108 -20 -108 -4 0 -8 27 -8 60 0 60 6 70 28 48z m10 -144 c17 -11 22 -25
22 -58 0 -45 -13 -66 -42 -66 -16 0 -18 9 -18 70 0 39 3 70 8 70 4 0 18 -7 30
-16z"/>
<path d="M2595 2652 c-22 -70 -48 -135 -58 -145 -24 -24 -13 -37 30 -37 32 0
35 2 29 24 -10 42 9 76 43 76 26 0 32 -5 39 -32 5 -18 5 -34 0 -36 -4 -2 -8
-10 -8 -18 0 -11 18 -14 85 -14 50 0 85 4 85 10 0 6 -4 10 -10 10 -6 0 -10 47
-10 120 0 98 3 122 15 126 8 4 15 12 15 20 0 10 -13 14 -45 14 -33 0 -45 -4
-45 -15 0 -8 5 -15 10 -15 13 0 13 -205 0 -230 -20 -38 -38 -7 -75 131 -21 76
-43 139 -49 139 -6 0 -29 -58 -51 -128z m64 -39 c1 -7 -8 -13 -19 -13 -17 0
-19 4 -14 28 10 43 18 49 25 22 4 -14 7 -31 8 -37z"/>
<path d="M2922 2758 c-56 -28 -87 -143 -60 -223 17 -51 70 -89 112 -81 45 9
75 33 81 64 3 15 12 39 19 54 17 32 12 38 -29 38 l-32 0 5 -50 c4 -45 2 -50
-21 -61 -14 -6 -36 -9 -50 -6 -74 19 -58 237 17 237 40 0 54 -10 66 -46 15
-46 30 -43 30 6 0 31 -5 43 -24 55 -32 21 -86 27 -114 13z"/>
<path d="M3105 2625 c-5 -102 -11 -138 -21 -142 -31 -12 -14 -33 26 -33 40 0
49 7 30 26 -6 6 -7 42 -3 92 l6 82 64 -107 c36 -60 67 -110 69 -112 11 -11 16
17 26 135 8 91 15 133 25 141 22 17 7 33 -33 33 -23 0 -34 -5 -34 -14 0 -8 5
-16 10 -18 7 -2 8 -32 3 -86 l-8 -82 -65 107 c-36 59 -71 108 -77 110 -7 3
-13 -42 -18 -132z"/>
<path d="M3350 2722 c0 -4 4 -12 9 -17 12 -14 -12 -238 -27 -243 -7 -2 -12 -9
-12 -16 0 -8 20 -16 53 -20 88 -10 92 -9 106 30 15 42 5 59 -16 27 -10 -15
-26 -23 -44 -23 -28 0 -29 2 -29 50 0 43 3 50 20 50 10 0 24 -8 29 -17 9 -16
12 -16 21 -3 12 19 13 70 1 70 -6 0 -13 -4 -16 -10 -3 -5 -15 -10 -26 -10 -20
0 -25 31 -13 78 8 29 54 31 61 2 3 -11 9 -20 13 -20 6 0 20 47 20 69 0 3 -34
7 -75 9 -41 1 -75 -2 -75 -6z"/>
<path d="M3510 2701 c0 -5 5 -11 11 -13 9 -3 9 -30 0 -104 -6 -55 -9 -109 -5
-120 23 -65 100 -86 143 -40 21 23 50 139 51 207 0 29 19 42 40 29 10 -6 10
-29 -4 -121 -9 -63 -16 -117 -16 -121 0 -5 -7 -8 -15 -8 -20 0 -19 -16 1 -24
24 -9 74 -7 74 3 0 5 -5 11 -11 13 -11 4 -2 108 10 108 4 0 15 -25 25 -56 19
-61 46 -94 76 -94 25 0 25 6 2 35 -10 12 -24 41 -32 64 -12 38 -12 43 8 64 25
27 36 68 28 103 -8 31 -49 49 -129 58 -31 3 -69 9 -82 12 -18 5 -25 2 -25 -9
0 -8 4 -17 9 -19 16 -5 -15 -197 -35 -219 -30 -33 -68 -20 -75 26 -2 11 1 62
5 113 6 72 11 92 23 92 8 0 13 6 11 13 -5 14 -88 23 -88 8z m338 -90 c7 -44
-6 -71 -34 -71 -25 0 -26 2 -20 38 3 20 6 43 6 50 0 24 45 9 48 -17z"/>
<path d="M2160 2620 c0 -18 7 -20 60 -20 53 0 60 2 60 20 0 18 -7 20 -60 20
-53 0 -60 -2 -60 -20z"/>
<path d="M2105 2215 c-63 -34 -119 -41 -175 -21 -56 20 -70 20 -70 1 0 -27 60
-49 135 -49 57 0 79 4 120 27 69 37 131 37 210 -3 82 -41 148 -41 230 0 78 38
124 38 200 0 47 -23 74 -29 122 -30 85 0 155 34 127 62 -3 4 -21 0 -39 -8 -58
-24 -128 -18 -201 17 -79 38 -139 37 -225 -4 -75 -36 -127 -35 -204 3 -80 40
-160 42 -230 5z"/>
<path d="M2124 2076 c-36 -16 -50 -34 -37 -47 14 -14 93 23 93 44 0 20 -14 21
-56 3z"/>
<path d="M2220 2070 c0 -12 7 -20 18 -20 10 0 44 -13 77 -30 84 -41 157 -41
240 0 67 33 108 37 162 15 45 -19 63 -19 63 1 0 8 -20 24 -47 36 -59 26 -129
20 -197 -16 -68 -36 -132 -35 -211 4 -71 36 -105 39 -105 10z"/>
<path d="M2306 1912 c-7 -12 5 -27 34 -42 36 -20 148 -17 188 3 38 20 45 53
10 43 -114 -29 -125 -30 -170 -13 -50 19 -55 20 -62 9z"/>
<path d="M2075 1648 c7 -91 10 -106 20 -96 9 9 -8 188 -18 188 -6 0 -7 -34 -2
-92z"/>
<path d="M2320 1590 c0 -61 4 -110 9 -110 5 0 9 49 9 110 -1 61 -5 110 -10
110 -4 0 -8 -49 -8 -110z"/>
<path d="M2610 1610 c0 -47 4 -80 10 -80 6 0 10 33 10 80 0 47 -4 80 -10 80
-6 0 -10 -33 -10 -80z"/>
<path d="M3230 3824 c0 -11 34 -33 50 -33 10 0 8 6 -9 19 -23 20 -41 26 -41
14z"/>
<path d="M1575 3785 c-19 -15 -24 -24 -15 -24 21 0 53 25 49 38 -2 6 -17 0
-34 -14z"/>
<path d="M3320 3764 c0 -11 34 -33 50 -33 10 0 8 6 -9 19 -23 20 -41 26 -41
14z"/>
<path d="M1491 3729 c-13 -11 -21 -22 -18 -25 7 -7 57 25 57 37 0 14 -13 10
-39 -12z"/>
<path d="M3422 3683 c15 -15 31 -24 34 -20 10 10 -26 47 -45 47 -11 0 -8 -7
11 -27z"/>
<path d="M1405 3660 c-28 -31 -8 -37 23 -7 19 20 22 27 11 27 -9 0 -24 -9 -34
-20z"/>
<path d="M3480 3642 c0 -14 46 -53 53 -45 4 3 -3 17 -15 30 -22 23 -38 30 -38
15z"/>
<path d="M1329 3591 c-13 -11 -20 -23 -16 -27 4 -4 20 4 35 19 30 31 16 37
-19 8z"/>
<path d="M3560 3569 c0 -19 37 -55 47 -45 4 3 -5 19 -20 34 -20 19 -27 22 -27
11z"/>
<path d="M1261 3516 c-14 -15 -18 -26 -12 -30 10 -7 48 41 39 49 -2 3 -15 -6
-27 -19z"/>
<path d="M3630 3493 c0 -18 38 -59 46 -50 4 4 -4 20 -19 35 -15 14 -27 22 -27
15z"/>
<path d="M1197 3442 c-23 -25 -24 -50 -1 -32 20 17 37 50 26 50 -5 0 -16 -8
-25 -18z"/>
<path d="M3690 3413 c1 -15 39 -58 45 -51 8 8 -24 58 -36 58 -5 0 -9 -3 -9 -7z"/>
<path d="M1134 3355 c-20 -30 -10 -47 11 -19 14 18 20 44 10 44 -2 0 -12 -11
-21 -25z"/>
<path d="M3765 3300 c9 -16 20 -30 25 -30 14 0 13 7 -6 35 -23 35 -38 31 -19
-5z"/>
<path d="M1076 3265 c-19 -28 -20 -35 -6 -35 5 0 16 14 25 30 19 36 4 40 -19
5z"/>
<path d="M3810 3228 c1 -17 28 -53 35 -46 8 7 -16 58 -27 58 -4 0 -8 -6 -8
-12z"/>
<path d="M1025 3170 c-9 -16 -11 -30 -6 -30 6 0 17 14 26 30 9 17 11 30 6 30
-6 0 -17 -13 -26 -30z"/>
<path d="M3863 3120 c6 -16 17 -30 24 -30 11 0 10 7 -2 30 -9 17 -20 30 -24
30 -5 0 -4 -13 2 -30z"/>
<path d="M975 3103 c-30 -7 -43 -23 -18 -23 28 0 53 10 53 21 0 9 -3 10 -35 2z"/>
<path d="M3930 3081 c0 -9 52 -22 60 -15 7 7 -23 24 -42 24 -10 0 -18 -4 -18
-9z"/>
<path d="M867 3068 c-15 -5 -25 -14 -22 -18 7 -11 65 8 65 21 0 11 -7 10 -43
-3z"/>
<path d="M4030 3051 c0 -5 14 -14 30 -20 33 -11 41 2 11 19 -24 12 -41 13 -41
1z"/>
<path d="M764 3024 c-18 -15 -18 -15 6 -10 14 3 28 6 33 6 4 0 7 5 7 10 0 15
-24 12 -46 -6z"/>
<path d="M4120 3015 c0 -5 55 -35 65 -35 15 0 2 18 -20 28 -27 13 -45 15 -45
7z"/>
<path d="M683 2988 c-25 -12 -31 -28 -10 -28 14 1 47 24 47 34 0 8 -11 7 -37
-6z"/>
<path d="M4220 2964 c0 -11 34 -33 50 -33 10 0 8 6 -9 19 -23 20 -41 26 -41
14z"/>
<path d="M594 2926 c-21 -18 -24 -25 -13 -26 17 0 56 37 47 46 -3 3 -19 -6
-34 -20z"/>
<path d="M4322 2883 c15 -15 31 -24 34 -20 10 10 -26 47 -45 47 -11 0 -8 -7
11 -27z"/>
<path d="M515 2854 c-9 -14 -14 -28 -11 -31 6 -6 45 37 46 50 0 16 -19 6 -35
-19z"/>
<path d="M195 2830 c-4 -6 8 -10 30 -10 22 0 34 4 30 10 -3 6 -17 10 -30 10
-13 0 -27 -4 -30 -10z"/>
<path d="M295 2830 c-4 -6 8 -10 29 -10 20 0 36 5 36 10 0 6 -13 10 -29 10
-17 0 -33 -4 -36 -10z"/>
<path d="M405 2830 c-4 -6 8 -10 30 -10 22 0 34 4 30 10 -3 6 -17 10 -30 10
-13 0 -27 -4 -30 -10z"/>
<path d="M4380 2830 c0 -5 14 -10 31 -10 17 0 28 4 24 10 -3 6 -17 10 -31 10
-13 0 -24 -4 -24 -10z"/>
<path d="M4475 2830 c-4 -6 10 -10 35 -10 25 0 39 4 35 10 -3 6 -19 10 -35 10
-16 0 -32 -4 -35 -10z"/>
<path d="M4585 2830 c-4 -6 8 -10 30 -10 22 0 34 4 30 10 -3 6 -17 10 -30 10
-13 0 -27 -4 -30 -10z"/>
<path d="M4686 2831 c-5 -7 3 -11 23 -11 16 0 42 -5 57 -10 29 -11 44 -6 28
10 -15 15 -100 24 -108 11z"/>
<path d="M119 2809 c-11 -11 -18 -23 -16 -26 7 -6 56 29 57 40 0 14 -20 7 -41
-14z"/>
<path d="M4810 2745 c0 -19 5 -35 10 -35 6 0 10 16 10 35 0 19 -4 35 -10 35
-5 0 -10 -16 -10 -35z"/>
<path d="M90 2705 c0 -19 5 -35 10 -35 6 0 10 16 10 35 0 19 -4 35 -10 35 -5
0 -10 -16 -10 -35z"/>
<path d="M4810 2641 c0 -17 5 -33 10 -36 6 -4 10 8 10 29 0 20 -4 36 -10 36
-5 0 -10 -13 -10 -29z"/>
<path d="M90 2605 c0 -19 5 -35 10 -35 6 0 10 16 10 35 0 19 -4 35 -10 35 -5
0 -10 -16 -10 -35z"/>
<path d="M4817 2563 c-11 -10 -8 -63 3 -63 6 0 10 16 10 35 0 36 -2 40 -13 28z"/>
<path d="M90 2500 c0 -16 5 -30 10 -30 6 0 10 14 10 30 0 17 -4 30 -10 30 -5
0 -10 -13 -10 -30z"/>
<path d="M4817 2463 c-11 -10 -8 -63 3 -63 6 0 10 16 10 35 0 36 -2 40 -13 28z"/>
<path d="M90 2395 c0 -19 5 -35 10 -35 6 0 10 16 10 35 0 19 -4 35 -10 35 -5
0 -10 -16 -10 -35z"/>
<path d="M4810 2331 c0 -17 5 -33 10 -36 6 -4 10 8 10 29 0 20 -4 36 -10 36
-5 0 -10 -13 -10 -29z"/>
<path d="M90 2295 c0 -19 5 -35 10 -35 6 0 10 16 10 35 0 19 -4 35 -10 35 -5
0 -10 -16 -10 -35z"/>
<path d="M4817 2253 c-11 -10 -8 -63 3 -63 6 0 10 16 10 35 0 36 -2 40 -13 28z"/>
<path d="M90 2185 c0 -19 5 -35 10 -35 6 0 10 16 10 35 0 19 -4 35 -10 35 -5
0 -10 -16 -10 -35z"/>
<path d="M4810 2121 c0 -17 5 -33 10 -36 6 -4 10 8 10 29 0 20 -4 36 -10 36
-5 0 -10 -13 -10 -29z"/>
<path d="M90 2085 c0 -19 5 -35 10 -35 6 0 10 16 10 35 0 19 -4 35 -10 35 -5
0 -10 -16 -10 -35z"/>
<path d="M4817 2043 c-11 -10 -8 -63 3 -63 6 0 10 16 10 35 0 36 -2 40 -13 28z"/>
<path d="M90 1980 c0 -16 5 -30 10 -30 6 0 10 14 10 30 0 17 -4 30 -10 30 -5
0 -10 -13 -10 -30z"/>
<path d="M4806 1918 c-18 -36 -11 -53 10 -24 13 18 20 56 10 56 -3 0 -12 -14
-20 -32z"/>
<path d="M106 1895 c7 -18 43 -39 51 -31 6 6 -37 45 -49 46 -4 0 -5 -7 -2 -15z"/>
<path d="M195 1860 c3 -5 19 -10 36 -10 16 0 29 5 29 10 0 6 -16 10 -36 10
-21 0 -33 -4 -29 -10z"/>
<path d="M300 1860 c0 -5 13 -10 29 -10 17 0 33 5 36 10 4 6 -8 10 -29 10 -20
0 -36 -4 -36 -10z"/>
<path d="M405 1860 c3 -5 17 -10 30 -10 13 0 27 5 30 10 4 6 -8 10 -30 10 -22
0 -34 -4 -30 -10z"/>
<path d="M505 1860 c3 -5 19 -10 36 -10 16 0 29 5 29 10 0 6 -16 10 -36 10
-21 0 -33 -4 -29 -10z"/>
<path d="M610 1860 c0 -5 13 -10 29 -10 17 0 33 5 36 10 4 6 -8 10 -29 10 -20
0 -36 -4 -36 -10z"/>
<path d="M715 1860 c3 -5 19 -10 36 -10 16 0 29 5 29 10 0 6 -16 10 -36 10
-21 0 -33 -4 -29 -10z"/>
<path d="M820 1860 c0 -5 13 -10 29 -10 17 0 33 5 36 10 4 6 -8 10 -29 10 -20
0 -36 -4 -36 -10z"/>
<path d="M925 1860 c3 -5 17 -10 30 -10 13 0 27 5 30 10 4 6 -8 10 -30 10 -22
0 -34 -4 -30 -10z"/>
<path d="M3883 1855 c-3 -9 -2 -19 2 -23 4 -4 10 -1 12 6 3 6 11 12 19 12 8 0
14 5 14 10 0 16 -40 11 -47 -5z"/>
<path d="M3970 1860 c0 -5 13 -10 29 -10 17 0 33 5 36 10 4 6 -8 10 -29 10
-20 0 -36 -4 -36 -10z"/>
<path d="M4075 1860 c3 -5 19 -10 36 -10 16 0 29 5 29 10 0 6 -16 10 -36 10
-21 0 -33 -4 -29 -10z"/>
<path d="M4180 1860 c0 -5 13 -10 29 -10 17 0 33 5 36 10 4 6 -8 10 -29 10
-20 0 -36 -4 -36 -10z"/>
<path d="M4285 1860 c3 -5 17 -10 30 -10 13 0 27 5 30 10 4 6 -8 10 -30 10
-22 0 -34 -4 -30 -10z"/>
<path d="M4385 1860 c3 -5 19 -10 36 -10 16 0 29 5 29 10 0 6 -16 10 -36 10
-21 0 -33 -4 -29 -10z"/>
<path d="M4490 1860 c0 -5 13 -10 29 -10 17 0 33 5 36 10 4 6 -8 10 -29 10
-20 0 -36 -4 -36 -10z"/>
<path d="M4595 1860 c3 -5 19 -10 36 -10 16 0 29 5 29 10 0 6 -16 10 -36 10
-21 0 -33 -4 -29 -10z"/>
<path d="M4700 1860 c0 -5 13 -10 29 -10 17 0 33 5 36 10 4 6 -8 10 -29 10
-20 0 -36 -4 -36 -10z"/>
<path d="M1000 1819 c0 -17 20 -49 31 -49 5 0 3 14 -6 30 -16 31 -25 38 -25
19z"/>
<path d="M3850 1779 c-6 -11 -9 -25 -7 -32 2 -7 11 3 21 21 9 17 12 32 7 32
-6 0 -15 -9 -21 -21z"/>
<path d="M1040 1735 c0 -18 32 -65 41 -60 5 4 2 18 -8 36 -15 26 -33 38 -33
24z"/>
<path d="M3795 1680 c-18 -35 -4 -41 19 -8 18 26 20 38 6 38 -5 0 -16 -13 -25
-30z"/>
<path d="M1098 1644 c-8 -8 20 -54 33 -54 14 0 10 12 -9 38 -10 13 -21 20 -24
16z"/>
<path d="M3746 1598 c-18 -25 -20 -38 -8 -38 4 0 16 14 25 30 21 35 6 41 -17
8z"/>
<path d="M1150 1553 c1 -13 40 -56 46 -50 7 7 -25 57 -37 57 -5 0 -9 -3 -9 -7z"/>
<path d="M3686 1515 c-18 -27 -20 -35 -8 -35 13 1 42 49 33 54 -5 3 -16 -5
-25 -19z"/>
<path d="M1220 1469 c0 -17 37 -56 46 -47 3 3 -6 19 -20 34 -18 21 -25 24 -26
13z"/>
<path d="M3615 1430 c-10 -11 -15 -23 -12 -27 8 -7 47 25 47 39 0 14 -16 9
-35 -12z"/>
<path d="M1280 1392 c0 -14 46 -53 53 -45 4 3 -3 17 -15 30 -22 23 -38 30 -38
15z"/>
<path d="M3547 1362 c-28 -30 -20 -49 8 -22 25 24 32 40 17 40 -5 0 -16 -8
-25 -18z"/>
<path d="M1360 1319 c1 -15 50 -56 50 -41 0 5 -11 19 -25 32 -17 16 -25 19
-25 9z"/>
<path d="M3470 1285 c-31 -33 -19 -42 15 -12 16 14 24 26 18 30 -6 4 -21 -5
-33 -18z"/>
<path d="M1440 1252 c0 -10 33 -42 43 -42 15 0 5 19 -18 34 -14 9 -25 13 -25
8z"/>
<path d="M3390 1220 c-14 -10 -22 -22 -18 -25 7 -8 57 25 58 38 0 12 -14 8
-40 -13z"/>
<path d="M1520 1184 c0 -11 34 -33 50 -33 10 0 8 6 -9 19 -23 20 -41 26 -41
14z"/>
<path d="M3307 1162 c-27 -16 -36 -32 -18 -32 13 0 57 37 51 43 -3 3 -18 -2
-33 -11z"/>
<path d="M1606 1133 c-3 -4 6 -15 21 -25 30 -19 43 -22 43 -10 0 12 -56 43
-64 35z"/>
<path d="M3209 1100 c-19 -15 -20 -19 -8 -20 9 0 27 9 40 20 19 15 20 19 8 20
-9 0 -27 -9 -40 -20z"/>
<path d="M1695 1080 c-3 -5 8 -16 24 -25 35 -18 41 -18 41 -5 0 14 -58 42 -65
30z"/>
<path d="M3123 1058 c-20 -10 -32 -28 -18 -28 12 0 55 24 55 32 0 10 -9 9 -37
-4z"/>
<path d="M1790 1032 c0 -8 43 -32 55 -32 15 0 1 19 -20 28 -31 14 -35 15 -35
4z"/>
<path d="M3027 1014 c-16 -9 -26 -18 -23 -21 7 -8 66 17 66 28 0 12 -10 11
-43 -7z"/>
<path d="M1880 992 c0 -5 16 -13 35 -19 41 -13 49 2 9 17 -31 12 -44 13 -44 2z"/>
<path d="M2927 978 c-15 -5 -25 -14 -22 -18 7 -11 65 8 65 21 0 11 -7 10 -43
-3z"/>
<path d="M1985 960 c-3 -4 2 -11 11 -14 24 -9 56 -7 50 3 -8 12 -55 20 -61 11z"/>
<path d="M2835 953 c-30 -7 -43 -23 -18 -23 28 0 53 10 53 21 0 9 -3 10 -35 2z"/>
<path d="M2080 933 c0 -11 60 -27 68 -18 8 8 -2 14 -36 21 -19 4 -32 2 -32 -3z"/>
<path d="M2705 920 c-4 -6 6 -10 24 -10 16 0 33 5 36 10 4 6 -6 10 -24 10 -16
0 -33 -4 -36 -10z"/>
<path d="M2185 910 c3 -5 20 -10 36 -10 18 0 28 4 24 10 -3 6 -20 10 -36 10
-18 0 -28 -4 -24 -10z"/>
<path d="M2623 913 c-24 -5 -32 -23 -10 -23 26 0 57 13 51 21 -3 5 -8 8 -12 8
-4 -1 -17 -4 -29 -6z"/>
<path d="M2290 900 c0 -5 16 -10 36 -10 21 0 33 4 29 10 -3 6 -19 10 -36 10
-16 0 -29 -4 -29 -10z"/>
<path d="M2518 903 c-10 -2 -18 -9 -18 -15 0 -6 10 -8 23 -4 12 3 28 6 35 6 7
0 10 5 7 10 -6 10 -17 11 -47 3z"/>
<path d="M2390 890 c0 -5 16 -10 35 -10 19 0 35 5 35 10 0 6 -16 10 -35 10
-19 0 -35 -4 -35 -10z"/>
</g>
</svg>
