<svg xmlns="http://www.w3.org/2000/svg" xml:space="preserve" viewBox="0 0 512 512">
  <path d="M64 347.7c.2-.3.5-.6.6-.9 1.9-9.7 7.4-16.6 16-21.4 40.3-22.4 77.3-49.3 111.6-80.2 2-1.8 2.7-3.2 2.1-6-1.6-7.6.5-14.3 5.9-19.9 6-6.2 12.1-12.2 18.3-18.3 5.8-5.6 12.7-7.8 20.6-6.1 2.3.5 3.6 0 5.1-1.7 23.4-26 44.8-53.6 63.5-83.2.5-.8 1-1.7 1.7-2.5 2.1-2.4 4.5-3 7.3-1.4 2.6 1.5 3.5 4.7 1.9 7.5-2.7 4.5-5.6 8.9-8.5 13.2-16.5 24.8-34.7 48.2-54.5 70.3-1.3 1.5-2.6 3-4.2 4.8 7.7 7.7 15.3 15.2 23 22.7.5.5 1.8.6 2.6.3 11.5-3.7 18.1-1.6 25.3 8.2.2.3.4.6.8 1.3 1.5-1.6 2.8-3 4-4.3 27.1-30 53.1-60.9 77.3-93.4 10.1-13.6 10.3-29.8.2-42.1-2.6-3.1-5.9-5.7-9.3-8-4.4-3-9.2-5.5-13.9-8.1-10.1-5.5-20.5-2.6-26.3 7.4-.9 1.5-1.6 3.1-2.7 4.5-1.9 2.5-4.4 3.3-7.2 1.8-2.8-1.6-3.7-4.2-2.4-7.1 9-21.1 29.4-24.5 43-16.9 5.7 3.1 11.4 6.2 16.8 9.7 11.3 7.3 17.9 17.7 20.1 31 .3 1.6 1.1 3.3 2.3 4.4 14.3 13 26.4 27.9 36.7 44.2 10.5 16.7 6.6 34.2-10.3 44.2-28.6 17-55.7 36-81.2 57.3-1.4 1.2-2.8 2.4-4.8 4 8.3 4.4 16.2 8.6 24.2 12.6 8.5 4.2 17.1 8.2 25.7 12.1 5.1 2.3 8.4 5.9 8.7 11.6.2 5.4-2.5 9.2-7 11.9-2.9 1.7-7 3.1-8.1 5.6-1.1 2.5 1 6.3 1.8 9.6 1.3 5.2.3 9.7-3.8 13.2-4.2 3.6-9 4.1-14 1.7-17.1-8.4-34.2-16.8-51.3-25.3-1.9-1-3.5-2.1-5.6 0-2.2 2.2-1.2 3.8-.1 5.9 8.3 16.7 16.6 33.5 24.9 50.2 2.6 5.3 2.7 10.4-1.4 15-3.9 4.4-8.8 5-14.4 3.4-8.4-2.5-8.4-2.4-13.1 5.2-4.6 7.3-9.2 9.7-15.5 8.1-4.5-1.2-7-4.4-8.9-8.4-7.4-15.2-15-30.4-22.5-45.6-.6-1.2-1.3-2.4-2.3-4.1-5 6.1-10.1 11.8-14.5 17.9-12 16.5-23.7 33.3-35.6 49.9-.4.6-.8 1.3-1.2 1.9-2 2.6-5 3.3-7.6 1.8-2.7-1.6-3.6-4.8-1.8-7.8 2.2-3.6 4.5-7.2 6.9-10.7 14.1-21.2 29.4-41.5 45.9-60.9 2.7-3.2 2.5-3.9-1.3-5.5-8.3-3.4-12.2-9.9-12.8-19.3-1.4 1.1-2.4 1.9-3.4 2.7-29.8 26.9-60.5 52.9-92.8 76.8-5.5 4.1-11.9 7.1-18.5 11 7.5 6.3 15.4 13.2 23.5 19.6 4.6 3.6 9.6 6.7 14.5 9.9 8.5 5.4 15.9 4.9 23.7-1.5 2.3-1.9 4.6-2.6 7.2-1.1 2.4 1.3 3.2 3.6 2.5 6.1-.4 1.4-1.5 3.1-2.7 3.8-4.9 2.7-10.1 5.1-15.2 7.6h-9c-5.1-2.4-10.6-4.3-15.4-7.3-15.7-9.7-29.7-21.5-42.1-35.2-1.1-1.2-2.8-2.1-4.4-2.4-13.4-2.2-24.2-8.7-31.2-20.4-5-8.4-8.9-17.4-13.3-26.2-.1-2.7-.1-5.7-.1-8.7zm137.5-95.6c-.7.5-1 .6-1.3.9-35.4 32-73.8 59.8-115.5 83-9.3 5.2-12 15.8-7 25.3 2.5 4.6 5.1 9.1 7.8 13.6 11.4 18.9 33.1 23.1 50.8 9.9 33-24.6 64.5-51.1 95-78.8.8-.7 1.8-1.2 3.1-1.9-10.8-7.1-14.4-15.7-9.8-27 .3-.6-.3-1.9-.8-2.5-7.4-7.5-14.8-14.9-22.3-22.5zm111.3-11.6c.5.4.7.7.9.7 9.1.8 15.4 5 18.5 13.8.9 2.5 2.6 2.4 4.6.7 7.4-6.2 14.9-12.5 22.6-18.5 21.1-16.6 43.4-31.4 66.3-45.3 3.4-2.1 6.5-5.5 8.6-9 2.9-4.8 2.7-10.5-.1-15.4-8.7-15.2-19.5-28.9-31.5-40.6-3.7 6.3-7 12.9-11.2 18.7-23.7 32-49.4 62.3-76 91.8-.9 1.1-1.8 2.1-2.7 3.1zm-57.1 5.4c-7.9-.3-11.5 3.1-10.3 10.4 1.4 9.3-1.3 16.5-8.1 22.8-5.3 4.9-4.7 10.5 1.6 14.1 8.2 4.7 12.3 11.4 13.1 20.8.6 7.1 5.1 10.1 11.7 7.6 8.9-3.5 16.8-2.7 24.7 2.8 5.7 4 11.1 2.1 13.2-4.6 2.8-9.2 8.4-15.1 17.6-17.5.6-.2 1.2-.4 1.7-.7 4.4-2.2 5.9-6.6 3.7-11-.8-1.7-1.9-3.2-2.8-4.8-3.4-5.5-4-11.3-2-17.6 3.9-12.1 2.3-14.6-10.5-16.2-5.9-.8-10.6-3.5-13.9-8.5-1-1.4-1.9-2.9-2.9-4.4-3.7-5.4-8.7-6.1-13.5-1.6-1.5 1.4-2.8 2.8-4.3 4.1-4.4 3.8-9.5 5.3-15.2 4.7-1.7-.1-3.2-.3-3.8-.4zm124.1 85.3c-.6-2.4-1.2-4.6-1.8-6.8-2.8-9.9-1.3-13.9 7.4-19.3 2.5-1.5 4.9-3.1 7.8-4.9-21.1-10.7-41.3-20.9-61.7-31.2-2.2 3.9-2.4 7.9.5 12 3.3 4.7 5.9 9.8 4.5 15.7-1 4.2-3.1 8.1-4.8 12.3 9.8 6.2 43.6 22.1 48.1 22.2zm-80.2 62.7c2.1-3.4 3.8-6.1 5.5-8.8 4.5-7.3 9.1-9.1 17.3-6.8l8.1 2.1 1.1-1.1c-7.8-15.9-15.5-31.9-23.2-47.6-3 1.8-5.2 3.5-7.7 4.5-7 2.7-13.5 1.3-19.4-2.9-4.2-3-8.5-3.8-12.8-1 10.1 20.2 20.4 40.5 31.1 61.6zM267 234.3c-9.1-9.4-17.3-18.1-25.9-26.4-4-3.9-10.4-3.1-14.6 1-6.1 5.9-12.1 11.9-18 18-4.8 4.9-4.7 11.4 0 16.4 3.7 3.9 7.6 7.6 11.4 11.4 4.2 4.2 8.3 8.5 13.4 13.6.6-3.2 1.2-5.1 1.2-7.1.1-2.5-.5-5-.5-7.4-.1-8.8 5.5-16.4 14.1-18.4 3.7-.8 7.6-.2 11.5-.3 2.1-.2 4.4-.5 7.4-.8z"/>
  <path d="M271.7 297.2c-1.4-1.1-3.7-2-4.2-3.5-.7-1.8-.7-4.9.5-6.1 6-6.6 12.4-12.9 18.9-19.1 2.2-2.1 5.2-1.9 7.4.4s2.5 5.1.3 7.4c-6.2 6.5-12.6 12.7-19 19-.8.8-2.1 1.1-3.9 1.9z"/>
</svg>
